%TF.GenerationSoftware,KiCad,Pcbnew,(6.0.5-0)*%
%TF.CreationDate,2022-07-05T23:04:03-07:00*%
%TF.ProjectId,trrs,74727273-2e6b-4696-9361-645f70636258,rev?*%
%TF.SameCoordinates,Original*%
%TF.FileFunction,Copper,L1,Top*%
%TF.FilePolarity,Positive*%
%FSLAX46Y46*%
G04 Gerber Fmt 4.6, Leading zero omitted, Abs format (unit mm)*
G04 Created by KiCad (PCBNEW (6.0.5-0)) date 2022-07-05 23:04:03*
%MOMM*%
%LPD*%
G01*
G04 APERTURE LIST*
G04 Aperture macros list*
%AMRoundRect*
0 Rectangle with rounded corners*
0 $1 Rounding radius*
0 $2 $3 $4 $5 $6 $7 $8 $9 X,Y pos of 4 corners*
0 Add a 4 corners polygon primitive as box body*
4,1,4,$2,$3,$4,$5,$6,$7,$8,$9,$2,$3,0*
0 Add four circle primitives for the rounded corners*
1,1,$1+$1,$2,$3*
1,1,$1+$1,$4,$5*
1,1,$1+$1,$6,$7*
1,1,$1+$1,$8,$9*
0 Add four rect primitives between the rounded corners*
20,1,$1+$1,$2,$3,$4,$5,0*
20,1,$1+$1,$4,$5,$6,$7,0*
20,1,$1+$1,$6,$7,$8,$9,0*
20,1,$1+$1,$8,$9,$2,$3,0*%
G04 Aperture macros list end*
%TA.AperFunction,SMDPad,CuDef*%
%ADD10RoundRect,0.150000X-0.625000X0.150000X-0.625000X-0.150000X0.625000X-0.150000X0.625000X0.150000X0*%
%TD*%
%TA.AperFunction,SMDPad,CuDef*%
%ADD11RoundRect,0.250000X-0.650000X0.350000X-0.650000X-0.350000X0.650000X-0.350000X0.650000X0.350000X0*%
%TD*%
%TA.AperFunction,SMDPad,CuDef*%
%ADD12R,2.500000X1.200000*%
%TD*%
%TA.AperFunction,ViaPad*%
%ADD13C,0.600000*%
%TD*%
%TA.AperFunction,Conductor*%
%ADD14C,0.250000*%
%TD*%
%TA.AperFunction,Conductor*%
%ADD15C,0.550000*%
%TD*%
G04 APERTURE END LIST*
D10*
%TO.P,J7,1,Pin_1*%
%TO.N,GND2*%
X93607000Y-50670000D03*
%TO.P,J7,2,Pin_2*%
%TO.N,VBUS_TRRS*%
X93607000Y-51670000D03*
%TO.P,J7,3,Pin_3*%
%TO.N,SCL*%
X93607000Y-52670000D03*
%TO.P,J7,4,Pin_4*%
%TO.N,SDA*%
X93607000Y-53670000D03*
D11*
%TO.P,J7,MP*%
%TO.N,N/C*%
X89732000Y-54970000D03*
X89732000Y-49370000D03*
%TD*%
D12*
%TO.P,J5,R1*%
%TO.N,SCL*%
X103250000Y-49825000D03*
%TO.P,J5,R2*%
%TO.N,SDA*%
X103250000Y-46825000D03*
%TO.P,J5,S*%
%TO.N,GND2*%
X96750000Y-54925000D03*
%TO.P,J5,T*%
%TO.N,VBUS_TRRS*%
X103250000Y-53825000D03*
%TD*%
D13*
%TO.N,GND2*%
X89494000Y-46546000D03*
X104133000Y-51962000D03*
X96073000Y-45234000D03*
X99542420Y-47159507D03*
%TD*%
D14*
%TO.N,SDA*%
X101209000Y-46825000D02*
X103250000Y-46825000D01*
X91428000Y-50255520D02*
X92751520Y-48932000D01*
X99102000Y-48932000D02*
X101209000Y-46825000D01*
X93228000Y-53670000D02*
X92875000Y-53670000D01*
X92751520Y-48932000D02*
X99102000Y-48932000D01*
X91428000Y-52223000D02*
X91428000Y-50255520D01*
X92875000Y-53670000D02*
X91428000Y-52223000D01*
%TO.N,SCL*%
X103250000Y-49825000D02*
X92797000Y-49825000D01*
X92049000Y-51625000D02*
X93094000Y-52670000D01*
X92049000Y-50573000D02*
X92049000Y-51625000D01*
X92797000Y-49825000D02*
X92049000Y-50573000D01*
X93094000Y-52670000D02*
X93264165Y-52670000D01*
D15*
%TO.N,VBUS_TRRS*%
X93607000Y-51670000D02*
X97642554Y-51670000D01*
X97642554Y-51670000D02*
X99797554Y-53825000D01*
X99797554Y-53825000D02*
X103250000Y-53825000D01*
%TD*%
%TA.AperFunction,Conductor*%
%TO.N,GND2*%
G36*
X109441621Y-44520502D02*
G01*
X109488114Y-44574158D01*
X109499500Y-44626500D01*
X109499500Y-55373500D01*
X109479498Y-55441621D01*
X109425842Y-55488114D01*
X109373500Y-55499500D01*
X98634000Y-55499500D01*
X98565879Y-55479498D01*
X98519386Y-55425842D01*
X98508000Y-55373500D01*
X98508000Y-55197115D01*
X98503525Y-55181876D01*
X98502135Y-55180671D01*
X98494452Y-55179000D01*
X95010116Y-55179000D01*
X94994877Y-55183475D01*
X94993672Y-55184865D01*
X94992001Y-55192548D01*
X94992001Y-55373500D01*
X94971999Y-55441621D01*
X94918343Y-55488114D01*
X94866001Y-55499500D01*
X91258314Y-55499500D01*
X91190193Y-55479498D01*
X91143700Y-55425842D01*
X91133015Y-55369866D01*
X91132500Y-55369866D01*
X91132500Y-54570134D01*
X91131727Y-54562682D01*
X91122353Y-54472339D01*
X91122352Y-54472335D01*
X91121641Y-54465481D01*
X91118350Y-54455615D01*
X91068574Y-54306419D01*
X91066256Y-54299471D01*
X90974166Y-54150655D01*
X90850311Y-54027016D01*
X90701334Y-53935186D01*
X90663296Y-53922569D01*
X90541759Y-53882256D01*
X90541757Y-53882255D01*
X90535228Y-53880090D01*
X90431866Y-53869500D01*
X89126500Y-53869500D01*
X89058379Y-53849498D01*
X89011886Y-53795842D01*
X89000500Y-53743500D01*
X89000500Y-50596500D01*
X89020502Y-50528379D01*
X89074158Y-50481886D01*
X89126500Y-50470500D01*
X90431866Y-50470500D01*
X90435112Y-50470163D01*
X90435116Y-50470163D01*
X90529661Y-50460353D01*
X90529665Y-50460352D01*
X90536519Y-50459641D01*
X90543053Y-50457461D01*
X90543058Y-50457460D01*
X90636624Y-50426244D01*
X90707574Y-50423660D01*
X90768658Y-50459844D01*
X90800482Y-50523308D01*
X90802500Y-50545768D01*
X90802500Y-52145297D01*
X90801983Y-52156257D01*
X90800327Y-52163667D01*
X90800576Y-52171593D01*
X90800576Y-52171594D01*
X90802438Y-52230841D01*
X90802500Y-52234799D01*
X90802500Y-52262350D01*
X90802996Y-52266273D01*
X90803003Y-52266388D01*
X90803923Y-52278068D01*
X90805291Y-52321627D01*
X90810836Y-52340712D01*
X90814844Y-52360062D01*
X90817336Y-52379792D01*
X90833384Y-52420323D01*
X90837219Y-52431524D01*
X90849382Y-52473390D01*
X90854714Y-52482405D01*
X90859498Y-52490494D01*
X90868195Y-52508245D01*
X90875514Y-52526732D01*
X90901129Y-52561988D01*
X90907646Y-52571910D01*
X90925790Y-52602590D01*
X90925793Y-52602594D01*
X90929830Y-52609420D01*
X90943880Y-52623470D01*
X90956721Y-52638504D01*
X90968406Y-52654587D01*
X90974514Y-52659640D01*
X91001989Y-52682369D01*
X91010769Y-52690359D01*
X92349489Y-54029080D01*
X92376031Y-54068134D01*
X92378045Y-54072788D01*
X92380256Y-54080398D01*
X92384290Y-54087219D01*
X92437092Y-54176502D01*
X92463919Y-54221865D01*
X92580135Y-54338081D01*
X92586956Y-54342115D01*
X92670760Y-54391676D01*
X92721602Y-54421744D01*
X92729214Y-54423955D01*
X92729215Y-54423956D01*
X92749234Y-54429772D01*
X92879431Y-54467598D01*
X92892584Y-54468633D01*
X92913847Y-54470307D01*
X92913860Y-54470308D01*
X92916306Y-54470500D01*
X94297694Y-54470500D01*
X94300140Y-54470308D01*
X94300153Y-54470307D01*
X94321416Y-54468633D01*
X94334569Y-54467598D01*
X94464766Y-54429772D01*
X94484785Y-54423956D01*
X94484786Y-54423955D01*
X94492398Y-54421744D01*
X94543241Y-54391676D01*
X94627044Y-54342115D01*
X94633865Y-54338081D01*
X94750081Y-54221865D01*
X94757755Y-54208889D01*
X94809645Y-54160436D01*
X94879494Y-54147727D01*
X94945127Y-54174800D01*
X94985703Y-54233058D01*
X94991632Y-54276911D01*
X94992000Y-54276911D01*
X94992000Y-54279632D01*
X94992026Y-54279824D01*
X94992000Y-54280305D01*
X94992000Y-54652885D01*
X94996475Y-54668124D01*
X94997865Y-54669329D01*
X95005548Y-54671000D01*
X96477885Y-54671000D01*
X96493124Y-54666525D01*
X96494329Y-54665135D01*
X96496000Y-54657452D01*
X96496000Y-54652885D01*
X97004000Y-54652885D01*
X97008475Y-54668124D01*
X97009865Y-54669329D01*
X97017548Y-54671000D01*
X98489884Y-54671000D01*
X98505123Y-54666525D01*
X98506328Y-54665135D01*
X98507999Y-54657452D01*
X98507999Y-54280331D01*
X98507629Y-54273510D01*
X98502105Y-54222648D01*
X98498479Y-54207396D01*
X98453324Y-54086946D01*
X98444786Y-54071351D01*
X98368285Y-53969276D01*
X98355724Y-53956715D01*
X98253649Y-53880214D01*
X98238054Y-53871676D01*
X98117606Y-53826522D01*
X98102351Y-53822895D01*
X98051486Y-53817369D01*
X98044672Y-53817000D01*
X97022115Y-53817000D01*
X97006876Y-53821475D01*
X97005671Y-53822865D01*
X97004000Y-53830548D01*
X97004000Y-54652885D01*
X96496000Y-54652885D01*
X96496000Y-53835116D01*
X96491525Y-53819877D01*
X96490135Y-53818672D01*
X96482452Y-53817001D01*
X95455331Y-53817001D01*
X95448510Y-53817371D01*
X95397648Y-53822895D01*
X95382396Y-53826521D01*
X95261946Y-53871676D01*
X95246351Y-53880214D01*
X95144276Y-53956715D01*
X95131719Y-53969272D01*
X95106431Y-54003014D01*
X95049571Y-54045529D01*
X94978753Y-54050555D01*
X94916460Y-54016495D01*
X94882469Y-53954164D01*
X94879992Y-53917564D01*
X94882307Y-53888153D01*
X94882308Y-53888140D01*
X94882500Y-53885694D01*
X94882500Y-53454306D01*
X94882308Y-53451860D01*
X94882307Y-53451847D01*
X94880103Y-53423850D01*
X94879598Y-53417431D01*
X94866385Y-53371951D01*
X94835956Y-53267215D01*
X94835955Y-53267214D01*
X94833744Y-53259602D01*
X94818686Y-53234140D01*
X94801226Y-53165324D01*
X94818686Y-53105860D01*
X94829708Y-53087223D01*
X94829709Y-53087221D01*
X94833744Y-53080398D01*
X94839437Y-53060805D01*
X94877801Y-52928754D01*
X94879598Y-52922569D01*
X94880936Y-52905568D01*
X94882307Y-52888153D01*
X94882308Y-52888140D01*
X94882500Y-52885694D01*
X94882500Y-52571500D01*
X94902502Y-52503379D01*
X94956158Y-52456886D01*
X95008500Y-52445500D01*
X97269142Y-52445500D01*
X97337263Y-52465502D01*
X97358237Y-52482405D01*
X99242852Y-54367020D01*
X99243780Y-54367957D01*
X99298619Y-54423956D01*
X99304314Y-54429772D01*
X99310233Y-54433586D01*
X99310236Y-54433589D01*
X99339051Y-54452159D01*
X99349404Y-54459598D01*
X99359426Y-54467598D01*
X99381694Y-54485375D01*
X99388033Y-54488439D01*
X99388034Y-54488440D01*
X99410367Y-54499236D01*
X99423787Y-54506767D01*
X99450558Y-54524020D01*
X99489409Y-54538161D01*
X99501123Y-54543109D01*
X99538333Y-54561097D01*
X99545198Y-54562682D01*
X99569358Y-54568260D01*
X99584108Y-54572628D01*
X99614047Y-54583525D01*
X99655065Y-54588707D01*
X99667589Y-54590938D01*
X99707856Y-54600235D01*
X99714902Y-54600260D01*
X99714906Y-54600260D01*
X99746788Y-54600371D01*
X99747612Y-54600398D01*
X99748417Y-54600500D01*
X99783658Y-54600500D01*
X99784097Y-54600501D01*
X99881837Y-54600842D01*
X99882993Y-54600584D01*
X99884536Y-54600500D01*
X101446402Y-54600500D01*
X101514523Y-54620502D01*
X101555024Y-54663955D01*
X101556474Y-54667824D01*
X101561857Y-54675006D01*
X101561860Y-54675011D01*
X101637072Y-54775365D01*
X101642454Y-54782546D01*
X101649635Y-54787928D01*
X101749994Y-54863144D01*
X101749997Y-54863146D01*
X101757176Y-54868526D01*
X101846561Y-54902034D01*
X101884025Y-54916079D01*
X101884027Y-54916079D01*
X101891420Y-54918851D01*
X101899270Y-54919704D01*
X101899271Y-54919704D01*
X101930080Y-54923051D01*
X101952623Y-54925500D01*
X103249810Y-54925500D01*
X104547376Y-54925499D01*
X104550770Y-54925130D01*
X104550776Y-54925130D01*
X104600722Y-54919705D01*
X104600726Y-54919704D01*
X104608580Y-54918851D01*
X104742824Y-54868526D01*
X104750003Y-54863146D01*
X104750006Y-54863144D01*
X104850365Y-54787928D01*
X104857546Y-54782546D01*
X104862928Y-54775365D01*
X104938144Y-54675006D01*
X104938146Y-54675003D01*
X104943526Y-54667824D01*
X104993851Y-54533580D01*
X104995305Y-54520201D01*
X105000131Y-54475774D01*
X105000131Y-54475773D01*
X105000500Y-54472377D01*
X105000499Y-53554288D01*
X105945404Y-53554288D01*
X105974081Y-53802140D01*
X105975460Y-53807011D01*
X105975460Y-53807014D01*
X105979954Y-53822895D01*
X106042017Y-54042219D01*
X106147462Y-54268348D01*
X106287706Y-54474710D01*
X106459138Y-54655994D01*
X106463164Y-54659072D01*
X106463165Y-54659073D01*
X106624661Y-54782546D01*
X106657349Y-54807538D01*
X106877239Y-54925443D01*
X107113152Y-55006674D01*
X107241099Y-55028774D01*
X107355107Y-55048467D01*
X107355113Y-55048468D01*
X107359017Y-55049142D01*
X107362978Y-55049322D01*
X107362979Y-55049322D01*
X107387503Y-55050436D01*
X107387522Y-55050436D01*
X107388922Y-55050500D01*
X107562691Y-55050500D01*
X107565199Y-55050298D01*
X107565204Y-55050298D01*
X107743661Y-55035940D01*
X107743666Y-55035939D01*
X107748702Y-55035534D01*
X107753610Y-55034329D01*
X107753613Y-55034328D01*
X107986092Y-54977225D01*
X107991006Y-54976018D01*
X107995658Y-54974043D01*
X107995662Y-54974042D01*
X108216022Y-54880505D01*
X108216023Y-54880505D01*
X108220677Y-54878529D01*
X108431808Y-54745573D01*
X108519997Y-54667824D01*
X108615168Y-54583920D01*
X108615171Y-54583917D01*
X108618965Y-54580572D01*
X108630209Y-54566884D01*
X108694643Y-54488440D01*
X108777334Y-54387770D01*
X108902840Y-54172128D01*
X108913069Y-54145482D01*
X108990443Y-53943915D01*
X108992255Y-53939195D01*
X108993575Y-53932881D01*
X109042243Y-53699915D01*
X109043278Y-53694961D01*
X109054596Y-53445712D01*
X109025919Y-53197860D01*
X109018036Y-53170000D01*
X108959360Y-52962648D01*
X108957983Y-52957781D01*
X108875770Y-52781474D01*
X108854675Y-52736234D01*
X108854673Y-52736230D01*
X108852538Y-52731652D01*
X108847678Y-52724500D01*
X108800164Y-52654587D01*
X108712294Y-52525290D01*
X108540862Y-52344006D01*
X108398026Y-52234799D01*
X108346677Y-52195540D01*
X108346676Y-52195539D01*
X108342651Y-52192462D01*
X108122761Y-52074557D01*
X107886848Y-51993326D01*
X107758901Y-51971226D01*
X107644893Y-51951533D01*
X107644887Y-51951532D01*
X107640983Y-51950858D01*
X107637022Y-51950678D01*
X107637021Y-51950678D01*
X107612497Y-51949564D01*
X107612478Y-51949564D01*
X107611078Y-51949500D01*
X107437309Y-51949500D01*
X107434801Y-51949702D01*
X107434796Y-51949702D01*
X107256339Y-51964060D01*
X107256334Y-51964061D01*
X107251298Y-51964466D01*
X107246390Y-51965671D01*
X107246387Y-51965672D01*
X107016392Y-52022165D01*
X107008994Y-52023982D01*
X107004342Y-52025957D01*
X107004338Y-52025958D01*
X106783978Y-52119495D01*
X106779323Y-52121471D01*
X106568192Y-52254427D01*
X106564398Y-52257772D01*
X106384832Y-52416080D01*
X106384829Y-52416083D01*
X106381035Y-52419428D01*
X106377825Y-52423336D01*
X106377824Y-52423337D01*
X106371083Y-52431544D01*
X106222666Y-52612230D01*
X106097160Y-52827872D01*
X106007745Y-53060805D01*
X106006712Y-53065751D01*
X106006710Y-53065757D01*
X105967640Y-53252777D01*
X105956722Y-53305039D01*
X105945404Y-53554288D01*
X105000499Y-53554288D01*
X105000499Y-53177624D01*
X104993851Y-53116420D01*
X104943526Y-52982176D01*
X104938146Y-52974997D01*
X104938144Y-52974994D01*
X104862928Y-52874635D01*
X104857546Y-52867454D01*
X104811037Y-52832597D01*
X104750006Y-52786856D01*
X104750003Y-52786854D01*
X104742824Y-52781474D01*
X104653439Y-52747966D01*
X104615975Y-52733921D01*
X104615973Y-52733921D01*
X104608580Y-52731149D01*
X104600730Y-52730296D01*
X104600729Y-52730296D01*
X104550774Y-52724869D01*
X104550773Y-52724869D01*
X104547377Y-52724500D01*
X103250190Y-52724500D01*
X101952624Y-52724501D01*
X101949230Y-52724870D01*
X101949224Y-52724870D01*
X101899278Y-52730295D01*
X101899274Y-52730296D01*
X101891420Y-52731149D01*
X101757176Y-52781474D01*
X101749997Y-52786854D01*
X101749994Y-52786856D01*
X101688963Y-52832597D01*
X101642454Y-52867454D01*
X101637072Y-52874635D01*
X101571110Y-52962648D01*
X101556474Y-52982176D01*
X101555109Y-52985817D01*
X101506667Y-53034153D01*
X101446402Y-53049500D01*
X101189138Y-53049500D01*
X101121017Y-53029498D01*
X101074524Y-52975842D01*
X101064420Y-52905568D01*
X101084555Y-52853226D01*
X101097116Y-52834533D01*
X101097119Y-52834527D01*
X101100250Y-52829868D01*
X101121494Y-52781474D01*
X101163336Y-52686153D01*
X101189974Y-52625471D01*
X101191282Y-52620023D01*
X101191284Y-52620017D01*
X101240775Y-52413872D01*
X101240775Y-52413871D01*
X101242085Y-52408415D01*
X101250771Y-52257772D01*
X101254611Y-52191169D01*
X101254611Y-52191166D01*
X101254934Y-52185562D01*
X101228117Y-51963956D01*
X101162481Y-51750600D01*
X101060099Y-51552241D01*
X101056690Y-51547799D01*
X101056688Y-51547795D01*
X100927620Y-51379590D01*
X100924210Y-51375146D01*
X100759107Y-51224914D01*
X100570010Y-51106293D01*
X100362895Y-51023034D01*
X100357407Y-51021897D01*
X100357402Y-51021896D01*
X100192845Y-50987818D01*
X100144310Y-50977767D01*
X100139697Y-50977501D01*
X100089474Y-50974605D01*
X100089470Y-50974605D01*
X100087651Y-50974500D01*
X99943370Y-50974500D01*
X99940583Y-50974749D01*
X99940577Y-50974749D01*
X99871003Y-50980959D01*
X99777661Y-50989289D01*
X99772247Y-50990770D01*
X99772242Y-50990771D01*
X99703325Y-51009625D01*
X99562349Y-51048192D01*
X99557291Y-51050604D01*
X99557287Y-51050606D01*
X99526632Y-51065228D01*
X99360871Y-51144292D01*
X99179595Y-51274552D01*
X99024251Y-51434854D01*
X99021122Y-51439511D01*
X99021120Y-51439513D01*
X98900616Y-51618843D01*
X98846020Y-51664229D01*
X98775554Y-51672892D01*
X98706939Y-51637663D01*
X98197256Y-51127980D01*
X98196328Y-51127043D01*
X98140723Y-51070261D01*
X98140722Y-51070260D01*
X98135794Y-51065228D01*
X98129875Y-51061414D01*
X98129872Y-51061411D01*
X98101057Y-51042841D01*
X98090704Y-51035402D01*
X98077830Y-51025125D01*
X98058414Y-51009625D01*
X98052077Y-51006562D01*
X98052073Y-51006559D01*
X98029745Y-50995766D01*
X98016328Y-50988237D01*
X98000081Y-50977767D01*
X97989550Y-50970980D01*
X97950703Y-50956841D01*
X97938982Y-50951890D01*
X97901774Y-50933903D01*
X97894910Y-50932318D01*
X97894909Y-50932318D01*
X97870747Y-50926740D01*
X97855994Y-50922370D01*
X97848669Y-50919704D01*
X97826061Y-50911475D01*
X97785043Y-50906293D01*
X97772519Y-50904062D01*
X97732252Y-50894765D01*
X97725206Y-50894740D01*
X97725202Y-50894740D01*
X97693315Y-50894629D01*
X97692495Y-50894602D01*
X97691691Y-50894500D01*
X97656575Y-50894500D01*
X97656135Y-50894499D01*
X97655614Y-50894497D01*
X97558270Y-50894157D01*
X97557111Y-50894416D01*
X97555562Y-50894500D01*
X94428563Y-50894500D01*
X94393410Y-50889497D01*
X94340754Y-50874199D01*
X94340755Y-50874199D01*
X94334569Y-50872402D01*
X94321416Y-50871367D01*
X94300153Y-50869693D01*
X94300140Y-50869692D01*
X94297694Y-50869500D01*
X93479000Y-50869500D01*
X93410879Y-50849498D01*
X93364386Y-50795842D01*
X93353000Y-50743500D01*
X93353000Y-50576500D01*
X93373002Y-50508379D01*
X93426658Y-50461886D01*
X93479000Y-50450500D01*
X101387856Y-50450500D01*
X101455977Y-50470502D01*
X101502470Y-50524158D01*
X101505757Y-50533727D01*
X101506149Y-50533580D01*
X101556474Y-50667824D01*
X101561854Y-50675003D01*
X101561856Y-50675006D01*
X101613190Y-50743500D01*
X101642454Y-50782546D01*
X101649635Y-50787928D01*
X101749994Y-50863144D01*
X101749997Y-50863146D01*
X101757176Y-50868526D01*
X101846561Y-50902034D01*
X101884025Y-50916079D01*
X101884027Y-50916079D01*
X101891420Y-50918851D01*
X101899270Y-50919704D01*
X101899271Y-50919704D01*
X101949217Y-50925130D01*
X101952623Y-50925500D01*
X103249810Y-50925500D01*
X104547376Y-50925499D01*
X104550770Y-50925130D01*
X104550776Y-50925130D01*
X104600722Y-50919705D01*
X104600726Y-50919704D01*
X104608580Y-50918851D01*
X104742824Y-50868526D01*
X104750003Y-50863146D01*
X104750006Y-50863144D01*
X104850365Y-50787928D01*
X104857546Y-50782546D01*
X104886810Y-50743500D01*
X104938144Y-50675006D01*
X104938146Y-50675003D01*
X104943526Y-50667824D01*
X104993851Y-50533580D01*
X105000500Y-50472377D01*
X105000499Y-49177624D01*
X105000130Y-49174224D01*
X104994705Y-49124278D01*
X104994704Y-49124274D01*
X104993851Y-49116420D01*
X104943526Y-48982176D01*
X104938146Y-48974997D01*
X104938144Y-48974994D01*
X104862928Y-48874635D01*
X104857546Y-48867454D01*
X104846190Y-48858943D01*
X104750006Y-48786856D01*
X104750003Y-48786854D01*
X104742824Y-48781474D01*
X104653439Y-48747966D01*
X104615975Y-48733921D01*
X104615973Y-48733921D01*
X104608580Y-48731149D01*
X104600730Y-48730296D01*
X104600729Y-48730296D01*
X104550774Y-48724869D01*
X104550773Y-48724869D01*
X104547377Y-48724500D01*
X103250190Y-48724500D01*
X101952624Y-48724501D01*
X101949230Y-48724870D01*
X101949224Y-48724870D01*
X101899278Y-48730295D01*
X101899274Y-48730296D01*
X101891420Y-48731149D01*
X101757176Y-48781474D01*
X101749997Y-48786854D01*
X101749994Y-48786856D01*
X101653810Y-48858943D01*
X101642454Y-48867454D01*
X101637072Y-48874635D01*
X101561856Y-48974994D01*
X101561854Y-48974997D01*
X101556474Y-48982176D01*
X101506149Y-49116420D01*
X101503198Y-49115314D01*
X101475237Y-49164277D01*
X101412288Y-49197109D01*
X101387856Y-49199500D01*
X100023280Y-49199500D01*
X99955159Y-49179498D01*
X99908666Y-49125842D01*
X99898562Y-49055568D01*
X99928056Y-48990988D01*
X99934185Y-48984405D01*
X100594338Y-48324253D01*
X101334738Y-47583853D01*
X101397050Y-47549827D01*
X101467866Y-47554892D01*
X101524701Y-47597439D01*
X101541813Y-47628716D01*
X101556474Y-47667824D01*
X101561854Y-47675003D01*
X101561856Y-47675006D01*
X101599948Y-47725831D01*
X101642454Y-47782546D01*
X101649635Y-47787928D01*
X101749994Y-47863144D01*
X101749997Y-47863146D01*
X101757176Y-47868526D01*
X101839326Y-47899322D01*
X101884025Y-47916079D01*
X101884027Y-47916079D01*
X101891420Y-47918851D01*
X101899270Y-47919704D01*
X101899271Y-47919704D01*
X101949217Y-47925130D01*
X101952623Y-47925500D01*
X103249810Y-47925500D01*
X104547376Y-47925499D01*
X104550770Y-47925130D01*
X104550776Y-47925130D01*
X104600722Y-47919705D01*
X104600726Y-47919704D01*
X104608580Y-47918851D01*
X104742824Y-47868526D01*
X104750003Y-47863146D01*
X104750006Y-47863144D01*
X104850365Y-47787928D01*
X104857546Y-47782546D01*
X104900052Y-47725831D01*
X104938144Y-47675006D01*
X104938146Y-47675003D01*
X104943526Y-47667824D01*
X104985862Y-47554892D01*
X104991079Y-47540975D01*
X104991079Y-47540973D01*
X104993851Y-47533580D01*
X105000500Y-47472377D01*
X105000499Y-46404288D01*
X105945404Y-46404288D01*
X105945985Y-46409308D01*
X105945985Y-46409312D01*
X105953631Y-46475395D01*
X105974081Y-46652140D01*
X106042017Y-46892219D01*
X106147462Y-47118348D01*
X106287706Y-47324710D01*
X106459138Y-47505994D01*
X106657349Y-47657538D01*
X106877239Y-47775443D01*
X107113152Y-47856674D01*
X107241099Y-47878774D01*
X107355107Y-47898467D01*
X107355113Y-47898468D01*
X107359017Y-47899142D01*
X107362978Y-47899322D01*
X107362979Y-47899322D01*
X107387503Y-47900436D01*
X107387522Y-47900436D01*
X107388922Y-47900500D01*
X107562691Y-47900500D01*
X107565199Y-47900298D01*
X107565204Y-47900298D01*
X107743661Y-47885940D01*
X107743666Y-47885939D01*
X107748702Y-47885534D01*
X107753610Y-47884329D01*
X107753613Y-47884328D01*
X107986092Y-47827225D01*
X107991006Y-47826018D01*
X107995658Y-47824043D01*
X107995662Y-47824042D01*
X108216022Y-47730505D01*
X108216023Y-47730505D01*
X108220677Y-47728529D01*
X108431808Y-47595573D01*
X108529923Y-47509073D01*
X108615168Y-47433920D01*
X108615171Y-47433917D01*
X108618965Y-47430572D01*
X108777334Y-47237770D01*
X108902840Y-47022128D01*
X108992255Y-46789195D01*
X109043278Y-46544961D01*
X109046444Y-46475251D01*
X109052226Y-46347895D01*
X109054596Y-46295712D01*
X109048889Y-46246382D01*
X109026501Y-46052890D01*
X109025919Y-46047860D01*
X108957983Y-45807781D01*
X108895366Y-45673498D01*
X108854675Y-45586234D01*
X108854673Y-45586230D01*
X108852538Y-45581652D01*
X108712294Y-45375290D01*
X108540862Y-45194006D01*
X108342651Y-45042462D01*
X108122761Y-44924557D01*
X107886848Y-44843326D01*
X107748319Y-44819398D01*
X107644893Y-44801533D01*
X107644887Y-44801532D01*
X107640983Y-44800858D01*
X107637022Y-44800678D01*
X107637021Y-44800678D01*
X107612497Y-44799564D01*
X107612478Y-44799564D01*
X107611078Y-44799500D01*
X107437309Y-44799500D01*
X107434801Y-44799702D01*
X107434796Y-44799702D01*
X107256339Y-44814060D01*
X107256334Y-44814061D01*
X107251298Y-44814466D01*
X107246390Y-44815671D01*
X107246387Y-44815672D01*
X107016392Y-44872165D01*
X107008994Y-44873982D01*
X107004342Y-44875957D01*
X107004338Y-44875958D01*
X106809659Y-44958594D01*
X106779323Y-44971471D01*
X106568192Y-45104427D01*
X106564398Y-45107772D01*
X106384832Y-45266080D01*
X106384829Y-45266083D01*
X106381035Y-45269428D01*
X106222666Y-45462230D01*
X106097160Y-45677872D01*
X106095347Y-45682595D01*
X106095346Y-45682597D01*
X106058600Y-45778324D01*
X106007745Y-45910805D01*
X105956722Y-46155039D01*
X105956493Y-46160088D01*
X105956492Y-46160094D01*
X105952574Y-46246382D01*
X105945404Y-46404288D01*
X105000499Y-46404288D01*
X105000499Y-46177624D01*
X105000130Y-46174224D01*
X104994705Y-46124278D01*
X104994704Y-46124274D01*
X104993851Y-46116420D01*
X104943526Y-45982176D01*
X104938146Y-45974997D01*
X104938144Y-45974994D01*
X104862928Y-45874635D01*
X104857546Y-45867454D01*
X104813623Y-45834535D01*
X104750006Y-45786856D01*
X104750003Y-45786854D01*
X104742824Y-45781474D01*
X104653439Y-45747966D01*
X104615975Y-45733921D01*
X104615973Y-45733921D01*
X104608580Y-45731149D01*
X104600730Y-45730296D01*
X104600729Y-45730296D01*
X104550774Y-45724869D01*
X104550773Y-45724869D01*
X104547377Y-45724500D01*
X103250190Y-45724500D01*
X101952624Y-45724501D01*
X101949230Y-45724870D01*
X101949224Y-45724870D01*
X101899278Y-45730295D01*
X101899274Y-45730296D01*
X101891420Y-45731149D01*
X101757176Y-45781474D01*
X101749997Y-45786854D01*
X101749994Y-45786856D01*
X101686377Y-45834535D01*
X101642454Y-45867454D01*
X101637072Y-45874635D01*
X101561856Y-45974994D01*
X101561854Y-45974997D01*
X101556474Y-45982176D01*
X101506149Y-46116420D01*
X101503198Y-46115314D01*
X101475237Y-46164277D01*
X101412288Y-46197109D01*
X101387856Y-46199500D01*
X101286703Y-46199500D01*
X101275743Y-46198983D01*
X101268333Y-46197327D01*
X101260407Y-46197576D01*
X101260406Y-46197576D01*
X101201159Y-46199438D01*
X101197201Y-46199500D01*
X101169650Y-46199500D01*
X101165727Y-46199996D01*
X101165612Y-46200003D01*
X101153932Y-46200923D01*
X101128525Y-46201721D01*
X101118295Y-46202042D01*
X101118294Y-46202042D01*
X101110373Y-46202291D01*
X101103443Y-46204304D01*
X101033347Y-46195248D01*
X100979031Y-46149527D01*
X100958057Y-46081700D01*
X100979462Y-46009622D01*
X101097115Y-45834535D01*
X101097120Y-45834526D01*
X101100250Y-45829868D01*
X101121494Y-45781474D01*
X101146503Y-45724500D01*
X101189974Y-45625471D01*
X101191282Y-45620023D01*
X101191284Y-45620017D01*
X101240775Y-45413872D01*
X101240775Y-45413871D01*
X101242085Y-45408415D01*
X101254934Y-45185562D01*
X101228117Y-44963956D01*
X101162481Y-44750600D01*
X101128254Y-44684288D01*
X101114785Y-44614584D01*
X101141139Y-44548660D01*
X101198952Y-44507450D01*
X101240220Y-44500500D01*
X109373500Y-44500500D01*
X109441621Y-44520502D01*
G37*
%TD.AperFunction*%
%TA.AperFunction,Conductor*%
G36*
X98827471Y-44520502D02*
G01*
X98873964Y-44574158D01*
X98884068Y-44644432D01*
X98874726Y-44677139D01*
X98810026Y-44824529D01*
X98808718Y-44829977D01*
X98808716Y-44829983D01*
X98774748Y-44971471D01*
X98757915Y-45041585D01*
X98757592Y-45047190D01*
X98748915Y-45197688D01*
X98745066Y-45264438D01*
X98771883Y-45486044D01*
X98837519Y-45699400D01*
X98939901Y-45897759D01*
X98943310Y-45902201D01*
X98943312Y-45902205D01*
X99072380Y-46070410D01*
X99075790Y-46074854D01*
X99240893Y-46225086D01*
X99429990Y-46343707D01*
X99637105Y-46426966D01*
X99642593Y-46428103D01*
X99642598Y-46428104D01*
X99800053Y-46460711D01*
X99855690Y-46472233D01*
X99860303Y-46472499D01*
X99910526Y-46475395D01*
X99910530Y-46475395D01*
X99912349Y-46475500D01*
X100056630Y-46475500D01*
X100059417Y-46475251D01*
X100059423Y-46475251D01*
X100128997Y-46469041D01*
X100222339Y-46460711D01*
X100353333Y-46424875D01*
X100405960Y-46410478D01*
X100476944Y-46411796D01*
X100535948Y-46451281D01*
X100564237Y-46516399D01*
X100552830Y-46586473D01*
X100528303Y-46621107D01*
X99698909Y-47450500D01*
X98879814Y-48269595D01*
X98817502Y-48303621D01*
X98790719Y-48306500D01*
X92829223Y-48306500D01*
X92818263Y-48305983D01*
X92810853Y-48304327D01*
X92802927Y-48304576D01*
X92802926Y-48304576D01*
X92743679Y-48306438D01*
X92739721Y-48306500D01*
X92712170Y-48306500D01*
X92708247Y-48306996D01*
X92708132Y-48307003D01*
X92696452Y-48307923D01*
X92652893Y-48309291D01*
X92633804Y-48314837D01*
X92614458Y-48318844D01*
X92594728Y-48321336D01*
X92554197Y-48337384D01*
X92542996Y-48341219D01*
X92501130Y-48353382D01*
X92484021Y-48363500D01*
X92466275Y-48372195D01*
X92447788Y-48379514D01*
X92412532Y-48405129D01*
X92402610Y-48411646D01*
X92371930Y-48429790D01*
X92371926Y-48429793D01*
X92365100Y-48433830D01*
X92351050Y-48447880D01*
X92336016Y-48460721D01*
X92319933Y-48472406D01*
X92314880Y-48478514D01*
X92292151Y-48505989D01*
X92284171Y-48514759D01*
X91347593Y-49451336D01*
X91285283Y-49485360D01*
X91214467Y-49480295D01*
X91157632Y-49437748D01*
X91132821Y-49371228D01*
X91132500Y-49362239D01*
X91132500Y-48970134D01*
X91121641Y-48865481D01*
X91066256Y-48699471D01*
X90974166Y-48550655D01*
X90850311Y-48427016D01*
X90701334Y-48335186D01*
X90668373Y-48324253D01*
X90541759Y-48282256D01*
X90541757Y-48282255D01*
X90535228Y-48280090D01*
X90431866Y-48269500D01*
X89126500Y-48269500D01*
X89058379Y-48249498D01*
X89011886Y-48195842D01*
X89000500Y-48143500D01*
X89000500Y-46404288D01*
X90945404Y-46404288D01*
X90945985Y-46409308D01*
X90945985Y-46409312D01*
X90953631Y-46475395D01*
X90974081Y-46652140D01*
X91042017Y-46892219D01*
X91147462Y-47118348D01*
X91287706Y-47324710D01*
X91459138Y-47505994D01*
X91657349Y-47657538D01*
X91877239Y-47775443D01*
X92113152Y-47856674D01*
X92241099Y-47878774D01*
X92355107Y-47898467D01*
X92355113Y-47898468D01*
X92359017Y-47899142D01*
X92362978Y-47899322D01*
X92362979Y-47899322D01*
X92387503Y-47900436D01*
X92387522Y-47900436D01*
X92388922Y-47900500D01*
X92562691Y-47900500D01*
X92565199Y-47900298D01*
X92565204Y-47900298D01*
X92743661Y-47885940D01*
X92743666Y-47885939D01*
X92748702Y-47885534D01*
X92753610Y-47884329D01*
X92753613Y-47884328D01*
X92986092Y-47827225D01*
X92991006Y-47826018D01*
X92995658Y-47824043D01*
X92995662Y-47824042D01*
X93216022Y-47730505D01*
X93216023Y-47730505D01*
X93220677Y-47728529D01*
X93431808Y-47595573D01*
X93529923Y-47509073D01*
X93615168Y-47433920D01*
X93615171Y-47433917D01*
X93618965Y-47430572D01*
X93777334Y-47237770D01*
X93902840Y-47022128D01*
X93992255Y-46789195D01*
X94043278Y-46544961D01*
X94046444Y-46475251D01*
X94052226Y-46347895D01*
X94054596Y-46295712D01*
X94048889Y-46246382D01*
X94026501Y-46052890D01*
X94025919Y-46047860D01*
X93957983Y-45807781D01*
X93895366Y-45673498D01*
X93854675Y-45586234D01*
X93854673Y-45586230D01*
X93852538Y-45581652D01*
X93712294Y-45375290D01*
X93540862Y-45194006D01*
X93342651Y-45042462D01*
X93122761Y-44924557D01*
X92886848Y-44843326D01*
X92748319Y-44819398D01*
X92644893Y-44801533D01*
X92644887Y-44801532D01*
X92640983Y-44800858D01*
X92637022Y-44800678D01*
X92637021Y-44800678D01*
X92612497Y-44799564D01*
X92612478Y-44799564D01*
X92611078Y-44799500D01*
X92437309Y-44799500D01*
X92434801Y-44799702D01*
X92434796Y-44799702D01*
X92256339Y-44814060D01*
X92256334Y-44814061D01*
X92251298Y-44814466D01*
X92246390Y-44815671D01*
X92246387Y-44815672D01*
X92016392Y-44872165D01*
X92008994Y-44873982D01*
X92004342Y-44875957D01*
X92004338Y-44875958D01*
X91809659Y-44958594D01*
X91779323Y-44971471D01*
X91568192Y-45104427D01*
X91564398Y-45107772D01*
X91384832Y-45266080D01*
X91384829Y-45266083D01*
X91381035Y-45269428D01*
X91222666Y-45462230D01*
X91097160Y-45677872D01*
X91095347Y-45682595D01*
X91095346Y-45682597D01*
X91058600Y-45778324D01*
X91007745Y-45910805D01*
X90956722Y-46155039D01*
X90956493Y-46160088D01*
X90956492Y-46160094D01*
X90952574Y-46246382D01*
X90945404Y-46404288D01*
X89000500Y-46404288D01*
X89000500Y-44626500D01*
X89020502Y-44558379D01*
X89074158Y-44511886D01*
X89126500Y-44500500D01*
X98759350Y-44500500D01*
X98827471Y-44520502D01*
G37*
%TD.AperFunction*%
%TD*%
M02*
