%TF.GenerationSoftware,KiCad,Pcbnew,(6.0.5-0)*%
%TF.CreationDate,2022-07-05T23:04:03-07:00*%
%TF.ProjectId,trrs,74727273-2e6b-4696-9361-645f70636258,rev?*%
%TF.SameCoordinates,Original*%
%TF.FileFunction,Legend,Bot*%
%TF.FilePolarity,Positive*%
%FSLAX46Y46*%
G04 Gerber Fmt 4.6, Leading zero omitted, Abs format (unit mm)*
G04 Created by KiCad (PCBNEW (6.0.5-0)) date 2022-07-05 23:04:03*
%MOMM*%
%LPD*%
G01*
G04 APERTURE LIST*
%ADD10C,0.152400*%
%ADD11C,0.120000*%
G04 APERTURE END LIST*
D10*
X95363666Y-49670000D02*
X95030333Y-49436666D01*
X95363666Y-49270000D02*
X94663666Y-49270000D01*
X94663666Y-49536666D01*
X94697000Y-49603333D01*
X94730333Y-49636666D01*
X94797000Y-49670000D01*
X94897000Y-49670000D01*
X94963666Y-49636666D01*
X94997000Y-49603333D01*
X95030333Y-49536666D01*
X95030333Y-49270000D01*
X95363666Y-50336666D02*
X95363666Y-49936666D01*
X95363666Y-50136666D02*
X94663666Y-50136666D01*
X94763666Y-50070000D01*
X94830333Y-50003333D01*
X94863666Y-49936666D01*
X94630333Y-51136666D02*
X95530333Y-50536666D01*
X95363666Y-51770000D02*
X95030333Y-51536666D01*
X95363666Y-51370000D02*
X94663666Y-51370000D01*
X94663666Y-51636666D01*
X94697000Y-51703333D01*
X94730333Y-51736666D01*
X94797000Y-51770000D01*
X94897000Y-51770000D01*
X94963666Y-51736666D01*
X94997000Y-51703333D01*
X95030333Y-51636666D01*
X95030333Y-51370000D01*
X94730333Y-52036666D02*
X94697000Y-52070000D01*
X94663666Y-52136666D01*
X94663666Y-52303333D01*
X94697000Y-52370000D01*
X94730333Y-52403333D01*
X94797000Y-52436666D01*
X94863666Y-52436666D01*
X94963666Y-52403333D01*
X95363666Y-52003333D01*
X95363666Y-52436666D01*
X94630333Y-53236666D02*
X95530333Y-52636666D01*
X94663666Y-53370000D02*
X94663666Y-53770000D01*
X95363666Y-53570000D02*
X94663666Y-53570000D01*
X94630333Y-54503333D02*
X95530333Y-53903333D01*
X95330333Y-54703333D02*
X95363666Y-54803333D01*
X95363666Y-54970000D01*
X95330333Y-55036666D01*
X95297000Y-55070000D01*
X95230333Y-55103333D01*
X95163666Y-55103333D01*
X95097000Y-55070000D01*
X95063666Y-55036666D01*
X95030333Y-54970000D01*
X94997000Y-54836666D01*
X94963666Y-54770000D01*
X94930333Y-54736666D01*
X94863666Y-54703333D01*
X94797000Y-54703333D01*
X94730333Y-54736666D01*
X94697000Y-54770000D01*
X94663666Y-54836666D01*
X94663666Y-55003333D01*
X94697000Y-55103333D01*
D11*
%TO.C,J6*%
X97500000Y-41625000D02*
X102500000Y-41625000D01*
X96900000Y-50650000D02*
X96900000Y-53050000D01*
X102500000Y-43625000D02*
X102500000Y-41625000D01*
X96900000Y-54600000D02*
X95500000Y-54600000D01*
X97500000Y-43625000D02*
X97500000Y-41625000D01*
X96900000Y-54600000D02*
X96900000Y-55725000D01*
X96900000Y-47650000D02*
X96900000Y-49000000D01*
X96900000Y-43625000D02*
X97500000Y-43625000D01*
X102500000Y-43625000D02*
X103100000Y-43625000D01*
X103100000Y-54150000D02*
X103100000Y-43625000D01*
X96900000Y-53050000D02*
X95500000Y-53050000D01*
X103100000Y-55725000D02*
X96900000Y-55725000D01*
X96900000Y-43625000D02*
X96900000Y-46000000D01*
%TO.C,J8*%
X93392000Y-54230000D02*
X94382000Y-54230000D01*
X88922000Y-54110000D02*
X88922000Y-50230000D01*
X93392000Y-55280000D02*
X93392000Y-54230000D01*
X90892000Y-55280000D02*
X93392000Y-55280000D01*
X90892000Y-49060000D02*
X93392000Y-49060000D01*
X93392000Y-49060000D02*
X93392000Y-50110000D01*
%TD*%
M02*
