M48
; DRILL file {KiCad (6.0.5-0)} date Thursday, 07 July 2022 at 23:14:44
; FORMAT={-:-/ absolute / inch / decimal}
; #@! TF.CreationDate,2022-07-07T23:14:44-07:00
; #@! TF.GenerationSoftware,Kicad,Pcbnew,(6.0.5-0)
; #@! TF.FileFunction,Plated,1,2,PTH
FMAT,2
INCH
; #@! TA.AperFunction,Plated,PTH,ViaDrill
T1C0.0118
; #@! TA.AperFunction,Plated,PTH,ComponentDrill
T2C0.0197
; #@! TA.AperFunction,Plated,PTH,ComponentDrill
T3C0.0217
; #@! TA.AperFunction,Plated,PTH,ViaDrill
T4C0.0236
; #@! TA.AperFunction,Plated,PTH,ComponentDrill
T5C0.0295
%
G90
G05
T1
X4.3406Y-1.8567
X4.3472Y-2.0496
X4.3642Y-1.9996
X4.452Y-1.9685
X4.5181Y-2.0142
X4.5953Y-1.9752
T4
X4.3524Y-1.9153
T5
X4.4126Y-1.8504
X4.4126Y-2.0866
X4.4913Y-1.8504
X4.4913Y-2.0866
X4.5701Y-1.8504
X4.5701Y-2.0866
X4.6488Y-1.8504
X4.6488Y-1.9291
X4.6488Y-2.0079
X4.6488Y-2.0866
T2
G00X4.1947Y-1.8307
M15
G01X4.1691Y-1.8307
M16
G05
G00X4.1947Y-2.1063
M15
G01X4.1691Y-2.1063
M16
G05
T3
G00X4.2882Y-1.8642
M15
G01X4.2882Y-1.876
M16
G05
G00X4.2882Y-2.061
M15
G01X4.2882Y-2.0728
M16
G05
T0
M30
