%TF.GenerationSoftware,KiCad,Pcbnew,(6.0.5-0)*%
%TF.CreationDate,2022-07-07T23:14:46-07:00*%
%TF.ProjectId,microusb,6d696372-6f75-4736-922e-6b696361645f,rev?*%
%TF.SameCoordinates,Original*%
%TF.FileFunction,Copper,L2,Bot*%
%TF.FilePolarity,Positive*%
%FSLAX46Y46*%
G04 Gerber Fmt 4.6, Leading zero omitted, Abs format (unit mm)*
G04 Created by KiCad (PCBNEW (6.0.5-0)) date 2022-07-07 23:14:46*
%MOMM*%
%LPD*%
G01*
G04 APERTURE LIST*
G04 Aperture macros list*
%AMRoundRect*
0 Rectangle with rounded corners*
0 $1 Rounding radius*
0 $2 $3 $4 $5 $6 $7 $8 $9 X,Y pos of 4 corners*
0 Add a 4 corners polygon primitive as box body*
4,1,4,$2,$3,$4,$5,$6,$7,$8,$9,$2,$3,0*
0 Add four circle primitives for the rounded corners*
1,1,$1+$1,$2,$3*
1,1,$1+$1,$4,$5*
1,1,$1+$1,$6,$7*
1,1,$1+$1,$8,$9*
0 Add four rect primitives between the rounded corners*
20,1,$1+$1,$2,$3,$4,$5,0*
20,1,$1+$1,$4,$5,$6,$7,0*
20,1,$1+$1,$6,$7,$8,$9,0*
20,1,$1+$1,$8,$9,$2,$3,0*%
G04 Aperture macros list end*
%TA.AperFunction,ComponentPad*%
%ADD10RoundRect,0.364583X-0.510417X0.510417X-0.510417X-0.510417X0.510417X-0.510417X0.510417X0.510417X0*%
%TD*%
%TA.AperFunction,ComponentPad*%
%ADD11RoundRect,0.250000X-0.350000X-0.625000X0.350000X-0.625000X0.350000X0.625000X-0.350000X0.625000X0*%
%TD*%
%TA.AperFunction,ComponentPad*%
%ADD12O,1.200000X1.750000*%
%TD*%
%TA.AperFunction,ComponentPad*%
%ADD13O,1.750000X1.200000*%
%TD*%
%TA.AperFunction,ComponentPad*%
%ADD14O,1.750000X1.750000*%
%TD*%
%TA.AperFunction,ComponentPad*%
%ADD15O,1.550000X0.890000*%
%TD*%
%TA.AperFunction,ComponentPad*%
%ADD16O,0.950000X1.250000*%
%TD*%
%TA.AperFunction,ViaPad*%
%ADD17C,0.600000*%
%TD*%
%TA.AperFunction,ViaPad*%
%ADD18C,0.900000*%
%TD*%
%TA.AperFunction,Conductor*%
%ADD19C,0.250000*%
%TD*%
%TA.AperFunction,Conductor*%
%ADD20C,0.550000*%
%TD*%
G04 APERTURE END LIST*
D10*
%TO.P,J3,1,Pin_1*%
%TO.N,VBUS*%
X118080000Y-47000000D03*
D11*
X112080000Y-53000000D03*
D12*
%TO.P,J3,2,Pin_2*%
%TO.N,DM_MICRO*%
X116080000Y-47000000D03*
X114080000Y-53000000D03*
D13*
X118080000Y-49000000D03*
%TO.P,J3,3,Pin_3*%
%TO.N,DP_MICRO*%
X118080000Y-51000000D03*
D12*
X116080000Y-53000000D03*
X114080000Y-47000000D03*
%TO.P,J3,4,Pin_4*%
%TO.N,GND1*%
X112080000Y-47000000D03*
D14*
X118080000Y-53000000D03*
%TD*%
D15*
%TO.P,J1,6,Shield*%
%TO.N,SHIELD*%
X106221000Y-53500000D03*
D16*
X108921000Y-47500000D03*
X108921000Y-52500000D03*
D15*
X106221000Y-46500000D03*
%TD*%
D17*
%TO.N,DP_MICRO*%
X113080000Y-50000000D03*
D18*
%TO.N,VBUS*%
X110550000Y-48648500D03*
D17*
%TO.N,GND1*%
X110250000Y-47160000D03*
X110420000Y-52060000D03*
X110850000Y-50790000D03*
X114760000Y-51160000D03*
X116720000Y-50170000D03*
%TD*%
D19*
%TO.N,DP_MICRO*%
X113080000Y-50000000D02*
X113080000Y-48000000D01*
X113080000Y-48000000D02*
X114080000Y-47000000D01*
X116080000Y-52980000D02*
X118060000Y-51000000D01*
%TO.N,DM_MICRO*%
X116080000Y-47000000D02*
X118080000Y-49000000D01*
X114080000Y-49000000D02*
X116080000Y-47000000D01*
X114080000Y-53000000D02*
X114080000Y-49000000D01*
D20*
%TO.N,VBUS*%
X112080000Y-50178500D02*
X112080000Y-53000000D01*
X110550000Y-48648500D02*
X112080000Y-50178500D01*
D19*
%TO.N,SHIELD*%
X106221000Y-53500000D02*
X108750000Y-53500000D01*
X108750000Y-53500000D02*
X108921000Y-53329000D01*
X108921000Y-53329000D02*
X108921000Y-52500000D01*
%TD*%
%TA.AperFunction,Conductor*%
%TO.N,GND1*%
G36*
X111108616Y-46095806D02*
G01*
X111126922Y-46140000D01*
X111116928Y-46173903D01*
X111093438Y-46210283D01*
X111090714Y-46215539D01*
X111013909Y-46406116D01*
X111012224Y-46411804D01*
X110972704Y-46614174D01*
X110972162Y-46618637D01*
X110972038Y-46621179D01*
X110972000Y-46622710D01*
X110972000Y-46733569D01*
X110975641Y-46742359D01*
X110984431Y-46746000D01*
X113175569Y-46746000D01*
X113184359Y-46742359D01*
X113188000Y-46733569D01*
X113188000Y-46673662D01*
X113187858Y-46670690D01*
X113173241Y-46517490D01*
X113172123Y-46511680D01*
X113114278Y-46314502D01*
X113112079Y-46309005D01*
X113039774Y-46168617D01*
X113035812Y-46120946D01*
X113066720Y-46084437D01*
X113095337Y-46077500D01*
X113542329Y-46077500D01*
X113586523Y-46095806D01*
X113604829Y-46140000D01*
X113584953Y-46185710D01*
X113583389Y-46187168D01*
X113580468Y-46189318D01*
X113470633Y-46318603D01*
X113439710Y-46379161D01*
X113406249Y-46444691D01*
X113393485Y-46469687D01*
X113353163Y-46634468D01*
X113352500Y-46645156D01*
X113352500Y-47317483D01*
X113352709Y-47319275D01*
X113352710Y-47319294D01*
X113354523Y-47334841D01*
X113341459Y-47380858D01*
X113336638Y-47386273D01*
X113294465Y-47428446D01*
X113250271Y-47446752D01*
X113206077Y-47428446D01*
X113187846Y-47381197D01*
X113187963Y-47378816D01*
X113188000Y-47377290D01*
X113188000Y-47266431D01*
X113184359Y-47257641D01*
X113175569Y-47254000D01*
X112346431Y-47254000D01*
X112337641Y-47257641D01*
X112334000Y-47266431D01*
X112334000Y-48341086D01*
X112337641Y-48349876D01*
X112341859Y-48351623D01*
X112439471Y-48328099D01*
X112445083Y-48326166D01*
X112632132Y-48241121D01*
X112637260Y-48238172D01*
X112728839Y-48173210D01*
X112775477Y-48162571D01*
X112815977Y-48188026D01*
X112827500Y-48224187D01*
X112827500Y-49619708D01*
X112809194Y-49663902D01*
X112805508Y-49667303D01*
X112803840Y-49668723D01*
X112800080Y-49671095D01*
X112797137Y-49674427D01*
X112797136Y-49674428D01*
X112750317Y-49727440D01*
X112719018Y-49762879D01*
X112717126Y-49766909D01*
X112668868Y-49869695D01*
X112668867Y-49869698D01*
X112666976Y-49873726D01*
X112648136Y-49994724D01*
X112648713Y-49999137D01*
X112648713Y-49999138D01*
X112651352Y-50019318D01*
X112664014Y-50116145D01*
X112713333Y-50228230D01*
X112792127Y-50321968D01*
X112795832Y-50324434D01*
X112795834Y-50324436D01*
X112865950Y-50371109D01*
X112894064Y-50389823D01*
X113010948Y-50426340D01*
X113015398Y-50426422D01*
X113015401Y-50426422D01*
X113065074Y-50427332D01*
X113133383Y-50428584D01*
X113186088Y-50414215D01*
X113247226Y-50397548D01*
X113247229Y-50397547D01*
X113251527Y-50396375D01*
X113255323Y-50394044D01*
X113255326Y-50394043D01*
X113352083Y-50334633D01*
X113355881Y-50332301D01*
X113438058Y-50241513D01*
X113491451Y-50131311D01*
X113494003Y-50116145D01*
X113508768Y-50028378D01*
X113511767Y-50010552D01*
X113511896Y-50000000D01*
X113494536Y-49878781D01*
X113443852Y-49767307D01*
X113363918Y-49674539D01*
X113360181Y-49672117D01*
X113356825Y-49669189D01*
X113357831Y-49668036D01*
X113333879Y-49633260D01*
X113332500Y-49620205D01*
X113332500Y-48130477D01*
X113350806Y-48086283D01*
X113565710Y-47871379D01*
X113609904Y-47853073D01*
X113641293Y-47861527D01*
X113787935Y-47946703D01*
X113950294Y-47995877D01*
X114119610Y-48006381D01*
X114286802Y-47977652D01*
X114442900Y-47911232D01*
X114579532Y-47810682D01*
X114689367Y-47681397D01*
X114726869Y-47607954D01*
X114764864Y-47533547D01*
X114764865Y-47533544D01*
X114766515Y-47530313D01*
X114806837Y-47365532D01*
X114807500Y-47354844D01*
X114807500Y-46682517D01*
X114792808Y-46556499D01*
X114759866Y-46465746D01*
X114736166Y-46400453D01*
X114736165Y-46400450D01*
X114734926Y-46397038D01*
X114641912Y-46255168D01*
X114568235Y-46185373D01*
X114548741Y-46141690D01*
X114565845Y-46097017D01*
X114611218Y-46077500D01*
X115542329Y-46077500D01*
X115586523Y-46095806D01*
X115604829Y-46140000D01*
X115584953Y-46185710D01*
X115583389Y-46187168D01*
X115580468Y-46189318D01*
X115470633Y-46318603D01*
X115439710Y-46379161D01*
X115406249Y-46444691D01*
X115393485Y-46469687D01*
X115353163Y-46634468D01*
X115352500Y-46645156D01*
X115352500Y-47317483D01*
X115352709Y-47319275D01*
X115352710Y-47319294D01*
X115354523Y-47334841D01*
X115341459Y-47380858D01*
X115336638Y-47386273D01*
X113923397Y-48799514D01*
X113913926Y-48807287D01*
X113897957Y-48817957D01*
X113842150Y-48901479D01*
X113842150Y-48901480D01*
X113822552Y-49000000D01*
X113823753Y-49006037D01*
X113826299Y-49018836D01*
X113827500Y-49031030D01*
X113827500Y-52000464D01*
X113809194Y-52044658D01*
X113789471Y-52057974D01*
X113775756Y-52063810D01*
X113717100Y-52088768D01*
X113580468Y-52189318D01*
X113470633Y-52318603D01*
X113393485Y-52469687D01*
X113353163Y-52634468D01*
X113352500Y-52645156D01*
X113352500Y-53317483D01*
X113352709Y-53319273D01*
X113352709Y-53319278D01*
X113356743Y-53353875D01*
X113367192Y-53443501D01*
X113368432Y-53446917D01*
X113417336Y-53581643D01*
X113425074Y-53602962D01*
X113427065Y-53605998D01*
X113427065Y-53605999D01*
X113460243Y-53656603D01*
X113518088Y-53744832D01*
X113531406Y-53757448D01*
X113591765Y-53814627D01*
X113611259Y-53858310D01*
X113594155Y-53902983D01*
X113548782Y-53922500D01*
X112804912Y-53922500D01*
X112760718Y-53904194D01*
X112742412Y-53860000D01*
X112748761Y-53832553D01*
X112794638Y-53738699D01*
X112794638Y-53738698D01*
X112796769Y-53734339D01*
X112807500Y-53660781D01*
X112807499Y-52339220D01*
X112796578Y-52265021D01*
X112794438Y-52260662D01*
X112743466Y-52156845D01*
X112743465Y-52156844D01*
X112741190Y-52152210D01*
X112737537Y-52148563D01*
X112655902Y-52067070D01*
X112655900Y-52067068D01*
X112652247Y-52063422D01*
X112539339Y-52008231D01*
X112534535Y-52007530D01*
X112529907Y-52006100D01*
X112530424Y-52004429D01*
X112494892Y-51983252D01*
X112482500Y-51945896D01*
X112482500Y-50146823D01*
X112482499Y-50146817D01*
X112482499Y-50114750D01*
X112474107Y-50088919D01*
X112471821Y-50079395D01*
X112468342Y-50057429D01*
X112468341Y-50057427D01*
X112467572Y-50052570D01*
X112455246Y-50028378D01*
X112451493Y-50019318D01*
X112444621Y-49998169D01*
X112443101Y-49993491D01*
X112427138Y-49971520D01*
X112422013Y-49963158D01*
X112409688Y-49938968D01*
X112387013Y-49916293D01*
X112387010Y-49916289D01*
X111149495Y-48678774D01*
X111131724Y-48642738D01*
X111131423Y-48640445D01*
X111112635Y-48497742D01*
X111054445Y-48357259D01*
X110961878Y-48236622D01*
X110945673Y-48224187D01*
X110844491Y-48146548D01*
X110841242Y-48144055D01*
X110837459Y-48142488D01*
X110704539Y-48087431D01*
X110704538Y-48087431D01*
X110700758Y-48085865D01*
X110696702Y-48085331D01*
X110696698Y-48085330D01*
X110554064Y-48066552D01*
X110550000Y-48066017D01*
X110545936Y-48066552D01*
X110403305Y-48085330D01*
X110403304Y-48085330D01*
X110399242Y-48085865D01*
X110395457Y-48087433D01*
X110395456Y-48087433D01*
X110291539Y-48130477D01*
X110258759Y-48144055D01*
X110138122Y-48236622D01*
X110045555Y-48357259D01*
X109987365Y-48497742D01*
X109967517Y-48648500D01*
X109987365Y-48799258D01*
X109988933Y-48803043D01*
X109988933Y-48803044D01*
X110029706Y-48901479D01*
X110045555Y-48939741D01*
X110138122Y-49060378D01*
X110141367Y-49062868D01*
X110141368Y-49062869D01*
X110255509Y-49150452D01*
X110258758Y-49152945D01*
X110262541Y-49154512D01*
X110380141Y-49203223D01*
X110399242Y-49211135D01*
X110403298Y-49211669D01*
X110403302Y-49211670D01*
X110479829Y-49221745D01*
X110544239Y-49230225D01*
X110580274Y-49247995D01*
X111659194Y-50326915D01*
X111677500Y-50371109D01*
X111677500Y-51945987D01*
X111659194Y-51990181D01*
X111629158Y-52005281D01*
X111629466Y-52006273D01*
X111624825Y-52007715D01*
X111620021Y-52008422D01*
X111615663Y-52010562D01*
X111615662Y-52010562D01*
X111511845Y-52061534D01*
X111511844Y-52061535D01*
X111507210Y-52063810D01*
X111503564Y-52067462D01*
X111503563Y-52067463D01*
X111422070Y-52149098D01*
X111422068Y-52149100D01*
X111418422Y-52152753D01*
X111416154Y-52157393D01*
X111365675Y-52260662D01*
X111363231Y-52265661D01*
X111362530Y-52270464D01*
X111362530Y-52270465D01*
X111360535Y-52284142D01*
X111352500Y-52339219D01*
X111352501Y-53660780D01*
X111363422Y-53734979D01*
X111365562Y-53739337D01*
X111365562Y-53739338D01*
X111411281Y-53832455D01*
X111414326Y-53880193D01*
X111382723Y-53916103D01*
X111355178Y-53922500D01*
X108869154Y-53922500D01*
X108824960Y-53904194D01*
X108806656Y-53859528D01*
X108807144Y-53794979D01*
X108825783Y-53750924D01*
X108844220Y-53738706D01*
X108848521Y-53737850D01*
X108932043Y-53682043D01*
X108942713Y-53666074D01*
X108950486Y-53656603D01*
X109077603Y-53529486D01*
X109087074Y-53521713D01*
X109097926Y-53514462D01*
X109103043Y-53511043D01*
X109158850Y-53427521D01*
X109158851Y-53427520D01*
X109167530Y-53383891D01*
X109177247Y-53335038D01*
X109178448Y-53329000D01*
X109174701Y-53310163D01*
X109173500Y-53297970D01*
X109173500Y-53239314D01*
X109191806Y-53195120D01*
X109212082Y-53181572D01*
X109221067Y-53177850D01*
X109221070Y-53177848D01*
X109224849Y-53176283D01*
X109350708Y-53079708D01*
X109447283Y-52953849D01*
X109507992Y-52807284D01*
X109523500Y-52689490D01*
X109523500Y-52310510D01*
X109518144Y-52269826D01*
X109508527Y-52196776D01*
X109508526Y-52196772D01*
X109507992Y-52192716D01*
X109482480Y-52131123D01*
X109448850Y-52049934D01*
X109447283Y-52046151D01*
X109443571Y-52041314D01*
X109353199Y-51923538D01*
X109353198Y-51923537D01*
X109350708Y-51920292D01*
X109224850Y-51823717D01*
X109078284Y-51763008D01*
X109074228Y-51762474D01*
X109074224Y-51762473D01*
X108925064Y-51742836D01*
X108921000Y-51742301D01*
X108893762Y-51745887D01*
X108847556Y-51733507D01*
X108823639Y-51692080D01*
X108823106Y-51683450D01*
X108848539Y-48318954D01*
X108867178Y-48274899D01*
X108911509Y-48256928D01*
X108914911Y-48257164D01*
X108916936Y-48257164D01*
X108921000Y-48257699D01*
X108925064Y-48257164D01*
X109074224Y-48237527D01*
X109074228Y-48237526D01*
X109078284Y-48236992D01*
X109209512Y-48182636D01*
X109221066Y-48177850D01*
X109224849Y-48176283D01*
X109350708Y-48079708D01*
X109447283Y-47953849D01*
X109464346Y-47912655D01*
X109506426Y-47811065D01*
X109506426Y-47811064D01*
X109507992Y-47807284D01*
X109515176Y-47752721D01*
X109523233Y-47691521D01*
X109523233Y-47691515D01*
X109523500Y-47689490D01*
X109523500Y-47326338D01*
X110972000Y-47326338D01*
X110972142Y-47329310D01*
X110986759Y-47482510D01*
X110987877Y-47488320D01*
X111045722Y-47685498D01*
X111047918Y-47690987D01*
X111142002Y-47873663D01*
X111145203Y-47878649D01*
X111272133Y-48040238D01*
X111276212Y-48044522D01*
X111431405Y-48179191D01*
X111436234Y-48182636D01*
X111614085Y-48285525D01*
X111619475Y-48287993D01*
X111813580Y-48355397D01*
X111814817Y-48355699D01*
X111822919Y-48353641D01*
X111826000Y-48348461D01*
X111826000Y-47266431D01*
X111822359Y-47257641D01*
X111813569Y-47254000D01*
X110984431Y-47254000D01*
X110975641Y-47257641D01*
X110972000Y-47266431D01*
X110972000Y-47326338D01*
X109523500Y-47326338D01*
X109523500Y-47310510D01*
X109516540Y-47257641D01*
X109508527Y-47196776D01*
X109508526Y-47196772D01*
X109507992Y-47192716D01*
X109447283Y-47046151D01*
X109364085Y-46937725D01*
X109353199Y-46923538D01*
X109353198Y-46923537D01*
X109350708Y-46920292D01*
X109224850Y-46823717D01*
X109133580Y-46785912D01*
X109082065Y-46764574D01*
X109082064Y-46764574D01*
X109078284Y-46763008D01*
X109074228Y-46762474D01*
X109074224Y-46762473D01*
X108925064Y-46742836D01*
X108922664Y-46742520D01*
X108921000Y-46742301D01*
X108921059Y-46741855D01*
X108879233Y-46724530D01*
X108860929Y-46679864D01*
X108860999Y-46670690D01*
X108865014Y-46139528D01*
X108883653Y-46095473D01*
X108927512Y-46077500D01*
X111064422Y-46077500D01*
X111108616Y-46095806D01*
G37*
%TD.AperFunction*%
%TA.AperFunction,Conductor*%
G36*
X119189194Y-46421552D02*
G01*
X119193302Y-46426084D01*
X119221555Y-46460510D01*
X119228358Y-46470693D01*
X119303182Y-46610678D01*
X119307871Y-46621997D01*
X119316779Y-46651363D01*
X119344383Y-46742359D01*
X119353949Y-46773895D01*
X119356339Y-46785912D01*
X119370176Y-46926409D01*
X119369569Y-46933824D01*
X119370132Y-46933824D01*
X119370132Y-46942051D01*
X119368002Y-46950000D01*
X119370372Y-46958844D01*
X119372500Y-46975014D01*
X119372500Y-52239948D01*
X119354194Y-52284142D01*
X119310000Y-52302448D01*
X119265806Y-52284142D01*
X119257524Y-52273896D01*
X119180888Y-52155435D01*
X119177764Y-52151378D01*
X119028162Y-51986968D01*
X119024422Y-51983480D01*
X118849986Y-51845718D01*
X118845718Y-51842883D01*
X118692516Y-51758311D01*
X118662672Y-51720926D01*
X118668004Y-51673389D01*
X118688453Y-51651326D01*
X118821797Y-51563902D01*
X118821798Y-51563901D01*
X118824832Y-51561912D01*
X118941498Y-51438757D01*
X119026703Y-51292065D01*
X119075877Y-51129706D01*
X119086381Y-50960390D01*
X119057652Y-50793198D01*
X118991232Y-50637100D01*
X118890682Y-50500468D01*
X118761397Y-50390633D01*
X118672176Y-50345074D01*
X118613547Y-50315136D01*
X118613544Y-50315135D01*
X118610313Y-50313485D01*
X118445532Y-50273163D01*
X118438213Y-50272709D01*
X118435813Y-50272560D01*
X118435809Y-50272560D01*
X118434844Y-50272500D01*
X117762517Y-50272500D01*
X117760727Y-50272709D01*
X117760722Y-50272709D01*
X117712601Y-50278320D01*
X117636499Y-50287192D01*
X117633083Y-50288432D01*
X117480453Y-50343834D01*
X117480450Y-50343835D01*
X117477038Y-50345074D01*
X117474002Y-50347065D01*
X117474001Y-50347065D01*
X117352962Y-50426422D01*
X117335168Y-50438088D01*
X117218502Y-50561243D01*
X117133297Y-50707935D01*
X117084123Y-50870294D01*
X117073619Y-51039610D01*
X117102348Y-51206802D01*
X117168768Y-51362900D01*
X117209529Y-51418289D01*
X117220980Y-51464731D01*
X117203385Y-51499526D01*
X116581639Y-52121272D01*
X116537445Y-52139578D01*
X116506054Y-52131123D01*
X116395777Y-52067070D01*
X116372065Y-52053297D01*
X116230966Y-52010562D01*
X116213183Y-52005176D01*
X116213182Y-52005176D01*
X116209706Y-52004123D01*
X116040390Y-51993619D01*
X115873198Y-52022348D01*
X115717100Y-52088768D01*
X115580468Y-52189318D01*
X115470633Y-52318603D01*
X115393485Y-52469687D01*
X115353163Y-52634468D01*
X115352500Y-52645156D01*
X115352500Y-53317483D01*
X115352709Y-53319273D01*
X115352709Y-53319278D01*
X115356743Y-53353875D01*
X115367192Y-53443501D01*
X115368432Y-53446917D01*
X115417336Y-53581643D01*
X115425074Y-53602962D01*
X115427065Y-53605998D01*
X115427065Y-53605999D01*
X115460243Y-53656603D01*
X115518088Y-53744832D01*
X115531406Y-53757448D01*
X115591765Y-53814627D01*
X115611259Y-53858310D01*
X115594155Y-53902983D01*
X115548782Y-53922500D01*
X114617671Y-53922500D01*
X114573477Y-53904194D01*
X114555171Y-53860000D01*
X114575047Y-53814290D01*
X114576611Y-53812832D01*
X114579532Y-53810682D01*
X114689367Y-53681397D01*
X114738367Y-53585438D01*
X114764864Y-53533547D01*
X114764865Y-53533544D01*
X114766515Y-53530313D01*
X114806837Y-53365532D01*
X114807500Y-53354844D01*
X114807500Y-52682517D01*
X114792808Y-52556499D01*
X114734926Y-52397038D01*
X114641912Y-52255168D01*
X114518757Y-52138502D01*
X114372065Y-52053297D01*
X114369809Y-52052614D01*
X114336848Y-52018480D01*
X114332500Y-51995575D01*
X114332500Y-49130477D01*
X114350806Y-49086283D01*
X115565710Y-47871379D01*
X115609904Y-47853073D01*
X115641293Y-47861527D01*
X115787935Y-47946703D01*
X115950294Y-47995877D01*
X116119610Y-48006381D01*
X116286802Y-47977652D01*
X116442900Y-47911232D01*
X116460113Y-47898564D01*
X116509809Y-47861993D01*
X116556254Y-47850542D01*
X116591048Y-47868137D01*
X117208621Y-48485710D01*
X117226927Y-48529904D01*
X117218473Y-48561293D01*
X117133297Y-48707935D01*
X117084123Y-48870294D01*
X117073619Y-49039610D01*
X117102348Y-49206802D01*
X117168768Y-49362900D01*
X117269318Y-49499532D01*
X117398603Y-49609367D01*
X117419828Y-49620205D01*
X117546453Y-49684864D01*
X117546456Y-49684865D01*
X117549687Y-49686515D01*
X117714468Y-49726837D01*
X117721746Y-49727288D01*
X117724187Y-49727440D01*
X117724191Y-49727440D01*
X117725156Y-49727500D01*
X118397483Y-49727500D01*
X118399273Y-49727291D01*
X118399278Y-49727291D01*
X118447399Y-49721680D01*
X118523501Y-49712808D01*
X118593559Y-49687378D01*
X118679547Y-49656166D01*
X118679550Y-49656165D01*
X118682962Y-49654926D01*
X118716008Y-49633260D01*
X118821797Y-49563902D01*
X118821798Y-49563901D01*
X118824832Y-49561912D01*
X118941498Y-49438757D01*
X119026703Y-49292065D01*
X119075877Y-49129706D01*
X119086381Y-48960390D01*
X119057652Y-48793198D01*
X118991232Y-48637100D01*
X118890682Y-48500468D01*
X118761397Y-48390633D01*
X118638933Y-48328099D01*
X118613547Y-48315136D01*
X118613544Y-48315135D01*
X118610313Y-48313485D01*
X118445532Y-48273163D01*
X118438229Y-48272710D01*
X118435813Y-48272560D01*
X118435809Y-48272560D01*
X118434844Y-48272500D01*
X117762517Y-48272500D01*
X117760725Y-48272709D01*
X117760706Y-48272710D01*
X117745159Y-48274523D01*
X117699142Y-48261459D01*
X117693727Y-48256638D01*
X117546283Y-48109194D01*
X117527977Y-48065000D01*
X117546283Y-48020806D01*
X117590477Y-48002500D01*
X118636996Y-48002500D01*
X118697171Y-47995963D01*
X118700839Y-47994588D01*
X118824986Y-47948048D01*
X118824988Y-47948047D01*
X118829157Y-47946484D01*
X118941950Y-47861950D01*
X119026484Y-47749157D01*
X119049620Y-47687443D01*
X119074588Y-47620839D01*
X119075963Y-47617171D01*
X119082500Y-47556996D01*
X119082500Y-46465746D01*
X119100806Y-46421552D01*
X119145000Y-46403246D01*
X119189194Y-46421552D01*
G37*
%TD.AperFunction*%
%TD*%
M02*
