%TF.GenerationSoftware,KiCad,Pcbnew,(6.0.5-0)*%
%TF.CreationDate,2022-07-11T22:31:13-07:00*%
%TF.ProjectId,microusb,6d696372-6f75-4736-922e-6b696361645f,rev?*%
%TF.SameCoordinates,Original*%
%TF.FileFunction,Copper,L1,Top*%
%TF.FilePolarity,Positive*%
%FSLAX46Y46*%
G04 Gerber Fmt 4.6, Leading zero omitted, Abs format (unit mm)*
G04 Created by KiCad (PCBNEW (6.0.5-0)) date 2022-07-11 22:31:13*
%MOMM*%
%LPD*%
G01*
G04 APERTURE LIST*
G04 Aperture macros list*
%AMRoundRect*
0 Rectangle with rounded corners*
0 $1 Rounding radius*
0 $2 $3 $4 $5 $6 $7 $8 $9 X,Y pos of 4 corners*
0 Add a 4 corners polygon primitive as box body*
4,1,4,$2,$3,$4,$5,$6,$7,$8,$9,$2,$3,0*
0 Add four circle primitives for the rounded corners*
1,1,$1+$1,$2,$3*
1,1,$1+$1,$4,$5*
1,1,$1+$1,$6,$7*
1,1,$1+$1,$8,$9*
0 Add four rect primitives between the rounded corners*
20,1,$1+$1,$2,$3,$4,$5,0*
20,1,$1+$1,$4,$5,$6,$7,0*
20,1,$1+$1,$6,$7,$8,$9,0*
20,1,$1+$1,$8,$9,$2,$3,0*%
G04 Aperture macros list end*
%TA.AperFunction,ComponentPad*%
%ADD10O,1.750000X1.200000*%
%TD*%
%TA.AperFunction,ComponentPad*%
%ADD11RoundRect,0.250000X0.625000X-0.350000X0.625000X0.350000X-0.625000X0.350000X-0.625000X-0.350000X0*%
%TD*%
%TA.AperFunction,ComponentPad*%
%ADD12O,1.500000X0.750000*%
%TD*%
%TA.AperFunction,SMDPad,CuDef*%
%ADD13R,1.250000X0.700000*%
%TD*%
%TA.AperFunction,SMDPad,CuDef*%
%ADD14RoundRect,0.150000X0.625000X-0.150000X0.625000X0.150000X-0.625000X0.150000X-0.625000X-0.150000X0*%
%TD*%
%TA.AperFunction,SMDPad,CuDef*%
%ADD15RoundRect,0.250000X0.650000X-0.350000X0.650000X0.350000X-0.650000X0.350000X-0.650000X-0.350000X0*%
%TD*%
%TA.AperFunction,ViaPad*%
%ADD16C,0.600000*%
%TD*%
%TA.AperFunction,Conductor*%
%ADD17C,0.550000*%
%TD*%
%TA.AperFunction,Conductor*%
%ADD18C,0.250000*%
%TD*%
G04 APERTURE END LIST*
D10*
%TO.P,J3,4,Pin_4*%
%TO.N,GND1*%
X104449000Y-47000000D03*
%TO.P,J3,3,Pin_3*%
%TO.N,DP_MICRO*%
X104449000Y-49000000D03*
%TO.P,J3,2,Pin_2*%
%TO.N,DM_MICRO*%
X104449000Y-51000000D03*
D11*
%TO.P,J3,1,Pin_1*%
%TO.N,VBUS*%
X104449000Y-53000000D03*
%TD*%
D12*
%TO.P,J1,S1*%
%TO.N,N/C*%
X100100000Y-46675000D03*
%TO.P,J1,S2*%
X100100000Y-53325000D03*
D13*
%TO.P,J1,3,D+*%
%TO.N,DP_MICRO*%
X101575000Y-50000000D03*
%TO.P,J1,2,D-*%
%TO.N,DM_MICRO*%
X101575000Y-48800000D03*
%TO.P,J1,1,VBUS*%
%TO.N,VBUS*%
X101575000Y-47600000D03*
%TO.P,J1,4,ID*%
%TO.N,unconnected-(J1-Pad4)*%
X101575000Y-51200000D03*
%TO.P,J1,5,GND*%
%TO.N,GND1*%
X101575000Y-52400000D03*
%TD*%
D14*
%TO.P,J2,1,Pin_1*%
%TO.N,VBUS*%
X106399000Y-51500000D03*
%TO.P,J2,2,Pin_2*%
%TO.N,DM_MICRO*%
X106399000Y-50500000D03*
%TO.P,J2,3,Pin_3*%
%TO.N,DP_MICRO*%
X106399000Y-49500000D03*
%TO.P,J2,4,Pin_4*%
%TO.N,GND1*%
X106399000Y-48500000D03*
D15*
%TO.P,J2,MP*%
%TO.N,N/C*%
X110274000Y-47200000D03*
X110274000Y-52800000D03*
X110274000Y-47200000D03*
X110274000Y-52800000D03*
%TD*%
D16*
%TO.N,DP_MICRO*%
X101530000Y-50048000D03*
%TO.N,DM_MICRO*%
X101619000Y-48812000D03*
%TD*%
D17*
%TO.N,VBUS*%
X101850000Y-47600000D02*
X102551000Y-47600000D01*
X102936000Y-51487000D02*
X104449000Y-53000000D01*
X102551000Y-47600000D02*
X102936000Y-47985000D01*
X102936000Y-47985000D02*
X102936000Y-51487000D01*
D18*
%TO.N,DM_MICRO*%
X106399000Y-50500000D02*
X104949000Y-50500000D01*
X104949000Y-50500000D02*
X104449000Y-51000000D01*
%TO.N,DP_MICRO*%
X106399000Y-49500000D02*
X104949000Y-49500000D01*
X104949000Y-49500000D02*
X104449000Y-49000000D01*
D17*
%TO.N,VBUS*%
X104899000Y-53000000D02*
X106399000Y-51500000D01*
D18*
%TO.N,GND1*%
X101319000Y-53390000D02*
X101319000Y-52581000D01*
%TD*%
%TA.AperFunction,Conductor*%
%TO.N,GND1*%
G36*
X103418146Y-46095806D02*
G01*
X103436452Y-46140000D01*
X103418146Y-46184194D01*
X103412558Y-46189151D01*
X103408765Y-46192130D01*
X103404478Y-46196212D01*
X103269809Y-46351405D01*
X103266364Y-46356234D01*
X103163475Y-46534085D01*
X103161007Y-46539475D01*
X103093603Y-46733580D01*
X103093301Y-46734817D01*
X103095359Y-46742919D01*
X103100539Y-46746000D01*
X105790086Y-46746000D01*
X105798876Y-46742359D01*
X105800623Y-46738141D01*
X105777099Y-46640529D01*
X105775166Y-46634917D01*
X105690121Y-46447868D01*
X105687172Y-46442740D01*
X105568286Y-46275142D01*
X105564420Y-46270662D01*
X105475090Y-46185148D01*
X105455825Y-46141364D01*
X105473162Y-46096780D01*
X105518310Y-46077500D01*
X107952848Y-46077500D01*
X107997042Y-46095806D01*
X108015347Y-46139582D01*
X108049209Y-51206802D01*
X108066937Y-53859582D01*
X108048927Y-53903898D01*
X108004438Y-53922500D01*
X101348154Y-53922500D01*
X101303960Y-53904194D01*
X101285656Y-53859528D01*
X101288717Y-53454535D01*
X101289832Y-53307050D01*
X101308471Y-53262995D01*
X101315791Y-53258144D01*
X101321000Y-53245569D01*
X101321000Y-53245568D01*
X101829000Y-53245568D01*
X101832641Y-53254358D01*
X101841431Y-53257999D01*
X102246396Y-53257999D01*
X102249766Y-53257817D01*
X102306310Y-53251675D01*
X102313878Y-53249876D01*
X102442291Y-53201736D01*
X102450026Y-53197501D01*
X102559344Y-53115572D01*
X102565572Y-53109344D01*
X102647501Y-53000026D01*
X102651736Y-52992291D01*
X102699877Y-52863875D01*
X102701675Y-52856311D01*
X102707817Y-52799770D01*
X102708000Y-52796402D01*
X102708000Y-52666431D01*
X102704359Y-52657641D01*
X102695569Y-52654000D01*
X101841431Y-52654000D01*
X101832641Y-52657641D01*
X101829000Y-52666431D01*
X101829000Y-53245568D01*
X101321000Y-53245568D01*
X101321000Y-52208500D01*
X101339306Y-52164306D01*
X101383500Y-52146000D01*
X102695568Y-52146000D01*
X102704358Y-52142359D01*
X102707999Y-52133569D01*
X102707999Y-52003604D01*
X102707816Y-52000216D01*
X102705999Y-51983491D01*
X102719425Y-51937579D01*
X102761384Y-51914608D01*
X102807296Y-51928034D01*
X102812327Y-51932548D01*
X103430368Y-52550589D01*
X103448674Y-52594783D01*
X103448021Y-52603795D01*
X103446500Y-52614219D01*
X103446501Y-53385780D01*
X103457422Y-53459979D01*
X103459562Y-53464337D01*
X103459562Y-53464338D01*
X103510105Y-53567280D01*
X103512810Y-53572790D01*
X103516462Y-53576436D01*
X103516463Y-53576437D01*
X103598098Y-53657930D01*
X103598100Y-53657932D01*
X103601753Y-53661578D01*
X103606393Y-53663846D01*
X103709332Y-53714164D01*
X103714661Y-53716769D01*
X103719464Y-53717470D01*
X103719465Y-53717470D01*
X103741440Y-53720676D01*
X103788219Y-53727500D01*
X104447255Y-53727500D01*
X105109780Y-53727499D01*
X105183979Y-53716578D01*
X105188896Y-53714164D01*
X105292155Y-53663466D01*
X105292156Y-53663465D01*
X105296790Y-53661190D01*
X105320500Y-53637439D01*
X105381930Y-53575902D01*
X105381932Y-53575900D01*
X105385578Y-53572247D01*
X105431823Y-53477640D01*
X105438638Y-53463699D01*
X105438638Y-53463698D01*
X105440769Y-53459339D01*
X105441872Y-53451782D01*
X105445295Y-53428312D01*
X105451500Y-53385781D01*
X105451500Y-53042609D01*
X105469806Y-52998415D01*
X106522415Y-51945806D01*
X106566609Y-51927500D01*
X107065230Y-51927500D01*
X107067060Y-51927282D01*
X107067064Y-51927282D01*
X107073647Y-51926498D01*
X107089424Y-51924621D01*
X107120421Y-51910853D01*
X107178628Y-51884999D01*
X107178629Y-51884998D01*
X107183900Y-51882657D01*
X107200765Y-51865763D01*
X107252859Y-51813577D01*
X107256935Y-51809494D01*
X107286291Y-51743093D01*
X107296835Y-51719244D01*
X107296836Y-51719241D01*
X107298735Y-51714945D01*
X107299279Y-51710278D01*
X107299280Y-51710275D01*
X107301288Y-51693046D01*
X107301500Y-51691230D01*
X107301500Y-51308770D01*
X107298621Y-51284576D01*
X107296717Y-51280289D01*
X107258999Y-51195372D01*
X107258998Y-51195371D01*
X107256657Y-51190100D01*
X107247194Y-51180653D01*
X107188702Y-51122264D01*
X107183494Y-51117065D01*
X107138424Y-51097139D01*
X107093244Y-51077165D01*
X107093241Y-51077164D01*
X107088945Y-51075265D01*
X107084278Y-51074721D01*
X107084275Y-51074720D01*
X107072962Y-51073401D01*
X107065230Y-51072500D01*
X105732770Y-51072500D01*
X105730940Y-51072718D01*
X105730936Y-51072718D01*
X105724353Y-51073502D01*
X105708576Y-51075379D01*
X105704290Y-51077283D01*
X105704289Y-51077283D01*
X105619372Y-51115001D01*
X105619371Y-51115002D01*
X105614100Y-51117343D01*
X105565071Y-51166458D01*
X105550978Y-51180576D01*
X105506799Y-51198920D01*
X105462589Y-51180653D01*
X105444245Y-51136474D01*
X105444833Y-51129850D01*
X105444877Y-51129706D01*
X105455381Y-50960390D01*
X105439635Y-50868754D01*
X105450192Y-50822098D01*
X105490648Y-50796573D01*
X105537304Y-50807130D01*
X105545387Y-50813937D01*
X105614506Y-50882935D01*
X105659576Y-50902861D01*
X105704756Y-50922835D01*
X105704759Y-50922836D01*
X105709055Y-50924735D01*
X105713722Y-50925279D01*
X105713725Y-50925280D01*
X105725038Y-50926599D01*
X105732770Y-50927500D01*
X107065230Y-50927500D01*
X107067060Y-50927282D01*
X107067064Y-50927282D01*
X107073647Y-50926498D01*
X107089424Y-50924621D01*
X107093711Y-50922717D01*
X107178628Y-50884999D01*
X107178629Y-50884998D01*
X107183900Y-50882657D01*
X107256935Y-50809494D01*
X107279666Y-50758078D01*
X107296835Y-50719244D01*
X107296836Y-50719241D01*
X107298735Y-50714945D01*
X107299279Y-50710278D01*
X107299280Y-50710275D01*
X107301288Y-50693046D01*
X107301500Y-50691230D01*
X107301500Y-50308770D01*
X107298621Y-50284576D01*
X107293552Y-50273163D01*
X107258999Y-50195372D01*
X107258998Y-50195371D01*
X107256657Y-50190100D01*
X107183494Y-50117065D01*
X107138424Y-50097139D01*
X107093244Y-50077165D01*
X107093241Y-50077164D01*
X107088945Y-50075265D01*
X107084278Y-50074721D01*
X107084275Y-50074720D01*
X107072962Y-50073401D01*
X107065230Y-50072500D01*
X105732770Y-50072500D01*
X105730940Y-50072718D01*
X105730936Y-50072718D01*
X105724353Y-50073502D01*
X105708576Y-50075379D01*
X105704290Y-50077283D01*
X105704289Y-50077283D01*
X105619372Y-50115001D01*
X105619371Y-50115002D01*
X105614100Y-50117343D01*
X105541065Y-50190506D01*
X105538731Y-50195784D01*
X105538731Y-50195785D01*
X105532325Y-50210273D01*
X105497712Y-50243290D01*
X105475163Y-50247500D01*
X104980030Y-50247500D01*
X104967836Y-50246299D01*
X104949000Y-50242552D01*
X104942962Y-50243753D01*
X104865786Y-50259105D01*
X104850479Y-50262150D01*
X104845359Y-50265571D01*
X104839676Y-50267925D01*
X104838698Y-50265565D01*
X104811290Y-50272962D01*
X104808064Y-50272762D01*
X104804813Y-50272560D01*
X104804809Y-50272560D01*
X104803844Y-50272500D01*
X104131517Y-50272500D01*
X104129727Y-50272709D01*
X104129722Y-50272709D01*
X104081601Y-50278320D01*
X104005499Y-50287192D01*
X104002083Y-50288432D01*
X103849453Y-50343834D01*
X103849450Y-50343835D01*
X103846038Y-50345074D01*
X103704168Y-50438088D01*
X103587502Y-50561243D01*
X103502297Y-50707935D01*
X103501245Y-50711409D01*
X103460817Y-50844891D01*
X103430486Y-50881881D01*
X103382883Y-50886591D01*
X103345893Y-50856260D01*
X103338500Y-50826774D01*
X103338500Y-49166458D01*
X103356806Y-49122264D01*
X103401000Y-49103958D01*
X103445194Y-49122264D01*
X103462597Y-49155874D01*
X103471348Y-49206802D01*
X103537768Y-49362900D01*
X103638318Y-49499532D01*
X103767603Y-49609367D01*
X103822584Y-49637442D01*
X103915453Y-49684864D01*
X103915456Y-49684865D01*
X103918687Y-49686515D01*
X104083468Y-49726837D01*
X104090746Y-49727288D01*
X104093187Y-49727440D01*
X104093191Y-49727440D01*
X104094156Y-49727500D01*
X104766483Y-49727500D01*
X104768272Y-49727291D01*
X104768279Y-49727291D01*
X104801972Y-49723363D01*
X104839533Y-49732415D01*
X104839674Y-49732075D01*
X104841834Y-49732970D01*
X104843931Y-49733475D01*
X104845361Y-49734431D01*
X104845363Y-49734432D01*
X104850479Y-49737850D01*
X104856516Y-49739051D01*
X104865786Y-49740895D01*
X104924126Y-49752500D01*
X104949000Y-49757448D01*
X104967837Y-49753701D01*
X104980030Y-49752500D01*
X105475220Y-49752500D01*
X105519414Y-49770806D01*
X105532339Y-49789629D01*
X105541343Y-49809900D01*
X105614506Y-49882935D01*
X105659576Y-49902861D01*
X105704756Y-49922835D01*
X105704759Y-49922836D01*
X105709055Y-49924735D01*
X105713722Y-49925279D01*
X105713725Y-49925280D01*
X105725038Y-49926599D01*
X105732770Y-49927500D01*
X107065230Y-49927500D01*
X107067060Y-49927282D01*
X107067064Y-49927282D01*
X107073647Y-49926498D01*
X107089424Y-49924621D01*
X107093711Y-49922717D01*
X107178628Y-49884999D01*
X107178629Y-49884998D01*
X107183900Y-49882657D01*
X107256935Y-49809494D01*
X107276861Y-49764424D01*
X107296835Y-49719244D01*
X107296836Y-49719241D01*
X107298735Y-49714945D01*
X107299279Y-49710278D01*
X107299280Y-49710275D01*
X107301288Y-49693046D01*
X107301500Y-49691230D01*
X107301500Y-49308770D01*
X107299818Y-49294631D01*
X107312774Y-49248583D01*
X107330065Y-49233450D01*
X107427115Y-49176056D01*
X107433279Y-49171274D01*
X107545274Y-49059279D01*
X107550056Y-49053115D01*
X107630681Y-48916783D01*
X107633780Y-48909622D01*
X107675524Y-48765940D01*
X107674480Y-48756481D01*
X107671383Y-48754000D01*
X106207500Y-48754000D01*
X106163306Y-48735694D01*
X106145000Y-48691500D01*
X106145000Y-48233569D01*
X106653000Y-48233569D01*
X106656641Y-48242359D01*
X106665431Y-48246000D01*
X107666562Y-48246000D01*
X107675352Y-48242359D01*
X107676870Y-48238693D01*
X107633780Y-48090378D01*
X107630681Y-48083217D01*
X107550056Y-47946885D01*
X107545274Y-47940721D01*
X107433279Y-47828726D01*
X107427115Y-47823944D01*
X107290783Y-47743319D01*
X107283622Y-47740220D01*
X107130820Y-47695826D01*
X107124566Y-47694684D01*
X107091697Y-47692098D01*
X107089218Y-47692000D01*
X106665431Y-47692000D01*
X106656641Y-47695641D01*
X106653000Y-47704431D01*
X106653000Y-48233569D01*
X106145000Y-48233569D01*
X106145000Y-47704432D01*
X106141359Y-47695642D01*
X106132569Y-47692001D01*
X105712093Y-47692001D01*
X105667899Y-47673695D01*
X105649593Y-47629501D01*
X105657994Y-47598204D01*
X105734525Y-47465915D01*
X105736993Y-47460525D01*
X105804397Y-47266420D01*
X105804699Y-47265183D01*
X105802641Y-47257081D01*
X105797461Y-47254000D01*
X104715431Y-47254000D01*
X104706641Y-47257641D01*
X104703000Y-47266431D01*
X104703000Y-48095569D01*
X104706641Y-48104359D01*
X104715431Y-48108000D01*
X104775338Y-48108000D01*
X104778310Y-48107858D01*
X104931510Y-48093241D01*
X104937320Y-48092123D01*
X105075378Y-48051622D01*
X105122938Y-48056747D01*
X105152945Y-48094001D01*
X105152990Y-48129032D01*
X105119826Y-48243180D01*
X105118684Y-48249434D01*
X105116097Y-48282306D01*
X105116043Y-48283690D01*
X105096017Y-48327132D01*
X105051138Y-48343689D01*
X105025168Y-48336900D01*
X104982547Y-48315136D01*
X104982544Y-48315135D01*
X104979313Y-48313485D01*
X104814532Y-48273163D01*
X104807213Y-48272709D01*
X104804813Y-48272560D01*
X104804809Y-48272560D01*
X104803844Y-48272500D01*
X104131517Y-48272500D01*
X104129727Y-48272709D01*
X104129722Y-48272709D01*
X104081601Y-48278320D01*
X104005499Y-48287192D01*
X104002083Y-48288432D01*
X103849453Y-48343834D01*
X103849450Y-48343835D01*
X103846038Y-48345074D01*
X103843002Y-48347065D01*
X103843001Y-48347065D01*
X103752673Y-48406287D01*
X103704168Y-48438088D01*
X103587502Y-48561243D01*
X103502297Y-48707935D01*
X103501245Y-48711409D01*
X103460817Y-48844891D01*
X103430486Y-48881881D01*
X103382883Y-48886591D01*
X103345893Y-48856260D01*
X103338500Y-48826774D01*
X103338500Y-47953323D01*
X103338499Y-47953317D01*
X103338499Y-47921250D01*
X103330107Y-47895419D01*
X103327821Y-47885897D01*
X103326574Y-47878026D01*
X103337739Y-47831512D01*
X103378524Y-47806516D01*
X103425038Y-47817681D01*
X103431524Y-47823098D01*
X103482014Y-47871431D01*
X103486659Y-47875100D01*
X103659283Y-47986562D01*
X103664539Y-47989286D01*
X103855116Y-48066091D01*
X103860804Y-48067776D01*
X104063174Y-48107296D01*
X104067637Y-48107838D01*
X104070179Y-48107962D01*
X104071710Y-48108000D01*
X104182569Y-48108000D01*
X104191359Y-48104359D01*
X104195000Y-48095569D01*
X104195000Y-47266431D01*
X104191359Y-47257641D01*
X104182569Y-47254000D01*
X103107914Y-47254000D01*
X103099124Y-47257641D01*
X103097377Y-47261859D01*
X103120901Y-47359471D01*
X103122834Y-47365083D01*
X103178176Y-47486803D01*
X103179804Y-47534611D01*
X103147150Y-47569567D01*
X103099342Y-47571195D01*
X103077087Y-47556866D01*
X102813211Y-47292990D01*
X102813207Y-47292987D01*
X102790532Y-47270312D01*
X102766339Y-47257985D01*
X102757980Y-47252862D01*
X102739989Y-47239791D01*
X102736009Y-47236899D01*
X102731331Y-47235379D01*
X102710182Y-47228507D01*
X102701122Y-47224754D01*
X102691553Y-47219879D01*
X102676930Y-47212428D01*
X102672073Y-47211659D01*
X102672071Y-47211658D01*
X102650105Y-47208179D01*
X102640581Y-47205893D01*
X102614750Y-47197501D01*
X102582681Y-47197501D01*
X102582677Y-47197500D01*
X102351670Y-47197500D01*
X102307476Y-47179194D01*
X102299703Y-47169723D01*
X102295341Y-47163195D01*
X102291922Y-47158078D01*
X102249748Y-47129898D01*
X102243715Y-47128698D01*
X102243713Y-47128697D01*
X102215569Y-47123099D01*
X102212558Y-47122500D01*
X101399558Y-47122500D01*
X101355364Y-47104194D01*
X101337060Y-47059528D01*
X101343586Y-46196212D01*
X101344014Y-46139528D01*
X101362653Y-46095473D01*
X101406512Y-46077500D01*
X103373952Y-46077500D01*
X103418146Y-46095806D01*
G37*
%TD.AperFunction*%
%TD*%
M02*
