%TF.GenerationSoftware,KiCad,Pcbnew,(6.0.5-0)*%
%TF.CreationDate,2022-07-07T23:14:47-07:00*%
%TF.ProjectId,microusb,6d696372-6f75-4736-922e-6b696361645f,rev?*%
%TF.SameCoordinates,Original*%
%TF.FileFunction,Legend,Top*%
%TF.FilePolarity,Positive*%
%FSLAX46Y46*%
G04 Gerber Fmt 4.6, Leading zero omitted, Abs format (unit mm)*
G04 Created by KiCad (PCBNEW (6.0.5-0)) date 2022-07-07 23:14:47*
%MOMM*%
%LPD*%
G01*
G04 APERTURE LIST*
%ADD10C,0.150000*%
%ADD11C,0.120000*%
G04 APERTURE END LIST*
D10*
%TO.C,J3*%
X115244666Y-41617380D02*
X115244666Y-42331666D01*
X115197047Y-42474523D01*
X115101809Y-42569761D01*
X114958952Y-42617380D01*
X114863714Y-42617380D01*
X115625619Y-41617380D02*
X116244666Y-41617380D01*
X115911333Y-41998333D01*
X116054190Y-41998333D01*
X116149428Y-42045952D01*
X116197047Y-42093571D01*
X116244666Y-42188809D01*
X116244666Y-42426904D01*
X116197047Y-42522142D01*
X116149428Y-42569761D01*
X116054190Y-42617380D01*
X115768476Y-42617380D01*
X115673238Y-42569761D01*
X115625619Y-42522142D01*
%TO.C,J1*%
X110473380Y-50333333D02*
X111187666Y-50333333D01*
X111330523Y-50380952D01*
X111425761Y-50476190D01*
X111473380Y-50619047D01*
X111473380Y-50714285D01*
X111473380Y-49333333D02*
X111473380Y-49904761D01*
X111473380Y-49619047D02*
X110473380Y-49619047D01*
X110616238Y-49714285D01*
X110711476Y-49809523D01*
X110759095Y-49904761D01*
D11*
%TO.C,J3*%
X120140000Y-48460000D02*
X120140000Y-40640000D01*
X110940000Y-48460000D02*
X110940000Y-46860000D01*
X110780000Y-44500000D02*
X110780000Y-42900000D01*
X111780000Y-55500000D02*
X110780000Y-55500000D01*
X111780000Y-42900000D02*
X111780000Y-44500000D01*
X120140000Y-51540000D02*
X119220000Y-51540000D01*
X110020000Y-59360000D02*
X120140000Y-59360000D01*
X119540000Y-45860000D02*
X119540000Y-44940000D01*
X111220000Y-53140000D02*
X111220000Y-51925000D01*
X119220000Y-48460000D02*
X120140000Y-48460000D01*
X113980000Y-46700000D02*
X115580000Y-46700000D01*
X119380000Y-57100000D02*
X118380000Y-57100000D01*
X119540000Y-44940000D02*
X111720000Y-44940000D01*
X118380000Y-57100000D02*
X118380000Y-55500000D01*
X119220000Y-53140000D02*
X118940000Y-53140000D01*
X115580000Y-45700000D02*
X113980000Y-45700000D01*
X120140000Y-40640000D02*
X110020000Y-40640000D01*
X120140000Y-46860000D02*
X119220000Y-46860000D01*
X118380000Y-44500000D02*
X119380000Y-44500000D01*
X120140000Y-59360000D02*
X120140000Y-51540000D01*
X117940000Y-46140000D02*
X119155000Y-46140000D01*
X110780000Y-42900000D02*
X111780000Y-42900000D01*
X119220000Y-51540000D02*
X119220000Y-53140000D01*
X111780000Y-57100000D02*
X111780000Y-59360000D01*
X116080000Y-52500000D02*
X111720000Y-52500000D01*
X111720000Y-44940000D02*
X111720000Y-55060000D01*
X115580000Y-53300000D02*
X115580000Y-54300000D01*
X110020000Y-53140000D02*
X110940000Y-53140000D01*
X111780000Y-57100000D02*
X111780000Y-55500000D01*
X115580000Y-54300000D02*
X113980000Y-54300000D01*
X110780000Y-57100000D02*
X111780000Y-57100000D01*
X117580000Y-55000000D02*
X117580000Y-59360000D01*
X112580000Y-59360000D02*
X112580000Y-55000000D01*
X119380000Y-55500000D02*
X119380000Y-57100000D01*
X120140000Y-53140000D02*
X119220000Y-53140000D01*
X117580000Y-45000000D02*
X112580000Y-45000000D01*
X119540000Y-55060000D02*
X119540000Y-54140000D01*
X117940000Y-54140000D02*
X117940000Y-53860000D01*
X113980000Y-45700000D02*
X113980000Y-46700000D01*
X111780000Y-44500000D02*
X110780000Y-44500000D01*
X116080000Y-47500000D02*
X116080000Y-52500000D01*
X119380000Y-42900000D02*
X118380000Y-42900000D01*
X112580000Y-55000000D02*
X117580000Y-55000000D01*
X111280000Y-57100000D02*
X111280000Y-59360000D01*
X118380000Y-42900000D02*
X118380000Y-44500000D01*
X111720000Y-55060000D02*
X119540000Y-55060000D01*
X110020000Y-46860000D02*
X110940000Y-46860000D01*
X112580000Y-45000000D02*
X112580000Y-40640000D01*
X113980000Y-53300000D02*
X115580000Y-53300000D01*
X119220000Y-46860000D02*
X119220000Y-48460000D01*
X110020000Y-48460000D02*
X110940000Y-48460000D01*
X117940000Y-55060000D02*
X117940000Y-54140000D01*
X119380000Y-44500000D02*
X119380000Y-42900000D01*
X110020000Y-51540000D02*
X110020000Y-59360000D01*
X118940000Y-46860000D02*
X118940000Y-48075000D01*
X111220000Y-53140000D02*
X110940000Y-53140000D01*
X118380000Y-55500000D02*
X119380000Y-55500000D01*
X113980000Y-46700000D02*
X111720000Y-46700000D01*
X110940000Y-51540000D02*
X110020000Y-51540000D01*
X117580000Y-40640000D02*
X117580000Y-45000000D01*
X117940000Y-45860000D02*
X119540000Y-45860000D01*
X115580000Y-46700000D02*
X115580000Y-45700000D01*
X118940000Y-46860000D02*
X119220000Y-46860000D01*
X110940000Y-53140000D02*
X110940000Y-51540000D01*
X113980000Y-54300000D02*
X113980000Y-53300000D01*
X110940000Y-46860000D02*
X111220000Y-46860000D01*
X110020000Y-40640000D02*
X110020000Y-48460000D01*
X110780000Y-55500000D02*
X110780000Y-57100000D01*
X119540000Y-54140000D02*
X117940000Y-54140000D01*
X111720000Y-47500000D02*
X116080000Y-47500000D01*
X118380000Y-42900000D02*
X118380000Y-40640000D01*
X118880000Y-42900000D02*
X118880000Y-40640000D01*
X117940000Y-46140000D02*
X117940000Y-45860000D01*
X117940000Y-44940000D02*
X117940000Y-45860000D01*
X113980000Y-46200000D02*
X111720000Y-46200000D01*
%TO.C,J1*%
X104831000Y-46240000D02*
X105231000Y-46240000D01*
X107201000Y-46240000D02*
X109181000Y-46240000D01*
X109411000Y-48240000D02*
X109861000Y-48240000D01*
X107201000Y-53760000D02*
X109181000Y-53760000D01*
X109181000Y-53760000D02*
X109181000Y-53340000D01*
X109861000Y-48690000D02*
X109861000Y-48240000D01*
X109181000Y-46240000D02*
X109181000Y-46660000D01*
X105231000Y-53760000D02*
X104831000Y-53760000D01*
%TD*%
M02*
