%TF.GenerationSoftware,KiCad,Pcbnew,(6.0.5-0)*%
%TF.CreationDate,2022-07-07T23:14:46-07:00*%
%TF.ProjectId,microusb,6d696372-6f75-4736-922e-6b696361645f,rev?*%
%TF.SameCoordinates,Original*%
%TF.FileFunction,Copper,L1,Top*%
%TF.FilePolarity,Positive*%
%FSLAX46Y46*%
G04 Gerber Fmt 4.6, Leading zero omitted, Abs format (unit mm)*
G04 Created by KiCad (PCBNEW (6.0.5-0)) date 2022-07-07 23:14:46*
%MOMM*%
%LPD*%
G01*
G04 APERTURE LIST*
G04 Aperture macros list*
%AMRoundRect*
0 Rectangle with rounded corners*
0 $1 Rounding radius*
0 $2 $3 $4 $5 $6 $7 $8 $9 X,Y pos of 4 corners*
0 Add a 4 corners polygon primitive as box body*
4,1,4,$2,$3,$4,$5,$6,$7,$8,$9,$2,$3,0*
0 Add four circle primitives for the rounded corners*
1,1,$1+$1,$2,$3*
1,1,$1+$1,$4,$5*
1,1,$1+$1,$6,$7*
1,1,$1+$1,$8,$9*
0 Add four rect primitives between the rounded corners*
20,1,$1+$1,$2,$3,$4,$5,0*
20,1,$1+$1,$4,$5,$6,$7,0*
20,1,$1+$1,$6,$7,$8,$9,0*
20,1,$1+$1,$8,$9,$2,$3,0*%
G04 Aperture macros list end*
%TA.AperFunction,ComponentPad*%
%ADD10RoundRect,0.364583X-0.510417X0.510417X-0.510417X-0.510417X0.510417X-0.510417X0.510417X0.510417X0*%
%TD*%
%TA.AperFunction,ComponentPad*%
%ADD11RoundRect,0.250000X-0.350000X-0.625000X0.350000X-0.625000X0.350000X0.625000X-0.350000X0.625000X0*%
%TD*%
%TA.AperFunction,ComponentPad*%
%ADD12O,1.200000X1.750000*%
%TD*%
%TA.AperFunction,ComponentPad*%
%ADD13O,1.750000X1.200000*%
%TD*%
%TA.AperFunction,ComponentPad*%
%ADD14O,1.750000X1.750000*%
%TD*%
%TA.AperFunction,SMDPad,CuDef*%
%ADD15R,1.350000X0.400000*%
%TD*%
%TA.AperFunction,SMDPad,CuDef*%
%ADD16R,1.550000X1.500000*%
%TD*%
%TA.AperFunction,ComponentPad*%
%ADD17O,1.550000X0.890000*%
%TD*%
%TA.AperFunction,ComponentPad*%
%ADD18O,0.950000X1.250000*%
%TD*%
%TA.AperFunction,SMDPad,CuDef*%
%ADD19R,1.550000X1.200000*%
%TD*%
%TA.AperFunction,ViaPad*%
%ADD20C,0.600000*%
%TD*%
%TA.AperFunction,ViaPad*%
%ADD21C,0.900000*%
%TD*%
%TA.AperFunction,Conductor*%
%ADD22C,0.250000*%
%TD*%
%TA.AperFunction,Conductor*%
%ADD23C,0.550000*%
%TD*%
G04 APERTURE END LIST*
D10*
%TO.P,J3,1,Pin_1*%
%TO.N,VBUS*%
X118080000Y-47000000D03*
D11*
X112080000Y-53000000D03*
D12*
%TO.P,J3,2,Pin_2*%
%TO.N,DM_MICRO*%
X116080000Y-47000000D03*
X114080000Y-53000000D03*
D13*
X118080000Y-49000000D03*
%TO.P,J3,3,Pin_3*%
%TO.N,DP_MICRO*%
X118080000Y-51000000D03*
D12*
X116080000Y-53000000D03*
X114080000Y-47000000D03*
%TO.P,J3,4,Pin_4*%
%TO.N,GND1*%
X112080000Y-47000000D03*
D14*
X118080000Y-53000000D03*
%TD*%
D15*
%TO.P,J1,1,VBUS*%
%TO.N,VBUS*%
X108921000Y-48700000D03*
%TO.P,J1,2,D-*%
%TO.N,DM_MICRO*%
X108921000Y-49350000D03*
%TO.P,J1,3,D+*%
%TO.N,DP_MICRO*%
X108921000Y-50000000D03*
%TO.P,J1,4,ID*%
%TO.N,unconnected-(J1-Pad4)*%
X108921000Y-50650000D03*
%TO.P,J1,5,GND*%
%TO.N,GND1*%
X108921000Y-51300000D03*
D16*
%TO.P,J1,6,Shield*%
%TO.N,SHIELD*%
X106221000Y-51000000D03*
D17*
X106221000Y-53500000D03*
D18*
X108921000Y-47500000D03*
X108921000Y-52500000D03*
D16*
X106221000Y-49000000D03*
D19*
X106221000Y-47100000D03*
X106221000Y-52900000D03*
D17*
X106221000Y-46500000D03*
%TD*%
D20*
%TO.N,DP_MICRO*%
X113080000Y-50000000D03*
D21*
%TO.N,VBUS*%
X110550000Y-48648500D03*
D20*
%TO.N,GND1*%
X110250000Y-47160000D03*
X110420000Y-52060000D03*
X110850000Y-50790000D03*
X114760000Y-51160000D03*
X116720000Y-50170000D03*
%TD*%
D22*
%TO.N,DP_MICRO*%
X115090000Y-50000000D02*
X113080000Y-50000000D01*
X116080000Y-50990000D02*
X115090000Y-50000000D01*
X108921000Y-50000000D02*
X113080000Y-50000000D01*
X116080000Y-53000000D02*
X116080000Y-50990000D01*
%TO.N,DM_MICRO*%
X108921000Y-49350000D02*
X117730000Y-49350000D01*
D23*
%TO.N,VBUS*%
X108921000Y-48700000D02*
X116380000Y-48700000D01*
X116380000Y-48700000D02*
X118080000Y-47000000D01*
D22*
%TO.N,GND1*%
X110520000Y-51300000D02*
X110550000Y-51270000D01*
X118080000Y-53000000D02*
X116720000Y-51640000D01*
X108921000Y-51300000D02*
X110520000Y-51300000D01*
X116720000Y-51640000D02*
X116720000Y-50170000D01*
%TO.N,SHIELD*%
X106221000Y-53500000D02*
X108730000Y-53500000D01*
X108921000Y-46811000D02*
X108610000Y-46500000D01*
X108730000Y-53500000D02*
X108840000Y-53390000D01*
X108921000Y-47500000D02*
X108921000Y-46811000D01*
X106221000Y-53500000D02*
X106221000Y-46500000D01*
X108840000Y-53390000D02*
X108840000Y-52581000D01*
X108610000Y-46500000D02*
X106221000Y-46500000D01*
%TD*%
%TA.AperFunction,Conductor*%
%TO.N,GND1*%
G36*
X112748816Y-50270806D02*
G01*
X112752465Y-50274784D01*
X112784996Y-50313485D01*
X112792127Y-50321968D01*
X112795832Y-50324434D01*
X112795834Y-50324436D01*
X112846374Y-50358078D01*
X112894064Y-50389823D01*
X113010948Y-50426340D01*
X113015398Y-50426422D01*
X113015401Y-50426422D01*
X113065074Y-50427332D01*
X113133383Y-50428584D01*
X113186088Y-50414215D01*
X113247226Y-50397548D01*
X113247229Y-50397547D01*
X113251527Y-50396375D01*
X113255323Y-50394044D01*
X113255326Y-50394043D01*
X113352083Y-50334633D01*
X113355881Y-50332301D01*
X113409505Y-50273058D01*
X113455842Y-50252500D01*
X114959523Y-50252500D01*
X115003717Y-50270806D01*
X115809194Y-51076283D01*
X115827500Y-51120477D01*
X115827500Y-52000464D01*
X115809194Y-52044658D01*
X115789471Y-52057974D01*
X115775756Y-52063810D01*
X115717100Y-52088768D01*
X115580468Y-52189318D01*
X115470633Y-52318603D01*
X115458942Y-52341499D01*
X115421468Y-52414887D01*
X115393485Y-52469687D01*
X115353163Y-52634468D01*
X115352500Y-52645156D01*
X115352500Y-53317483D01*
X115367192Y-53443501D01*
X115368432Y-53446917D01*
X115417336Y-53581643D01*
X115425074Y-53602962D01*
X115427065Y-53605998D01*
X115427065Y-53605999D01*
X115460243Y-53656603D01*
X115518088Y-53744832D01*
X115520723Y-53747328D01*
X115591765Y-53814627D01*
X115611259Y-53858310D01*
X115594155Y-53902983D01*
X115548782Y-53922500D01*
X114617671Y-53922500D01*
X114573477Y-53904194D01*
X114555171Y-53860000D01*
X114575047Y-53814290D01*
X114576611Y-53812832D01*
X114579532Y-53810682D01*
X114689367Y-53681397D01*
X114739758Y-53582713D01*
X114764864Y-53533547D01*
X114764865Y-53533544D01*
X114766515Y-53530313D01*
X114806837Y-53365532D01*
X114807500Y-53354844D01*
X114807500Y-52682517D01*
X114792808Y-52556499D01*
X114734926Y-52397038D01*
X114641912Y-52255168D01*
X114518757Y-52138502D01*
X114372065Y-52053297D01*
X114230966Y-52010562D01*
X114213183Y-52005176D01*
X114213182Y-52005176D01*
X114209706Y-52004123D01*
X114040390Y-51993619D01*
X113873198Y-52022348D01*
X113717100Y-52088768D01*
X113580468Y-52189318D01*
X113470633Y-52318603D01*
X113458942Y-52341499D01*
X113421468Y-52414887D01*
X113393485Y-52469687D01*
X113353163Y-52634468D01*
X113352500Y-52645156D01*
X113352500Y-53317483D01*
X113367192Y-53443501D01*
X113368432Y-53446917D01*
X113417336Y-53581643D01*
X113425074Y-53602962D01*
X113427065Y-53605998D01*
X113427065Y-53605999D01*
X113460243Y-53656603D01*
X113518088Y-53744832D01*
X113520723Y-53747328D01*
X113591765Y-53814627D01*
X113611259Y-53858310D01*
X113594155Y-53902983D01*
X113548782Y-53922500D01*
X112804912Y-53922500D01*
X112760718Y-53904194D01*
X112742412Y-53860000D01*
X112748761Y-53832553D01*
X112794638Y-53738699D01*
X112794638Y-53738698D01*
X112796769Y-53734339D01*
X112807500Y-53660781D01*
X112807499Y-52339220D01*
X112796578Y-52265021D01*
X112794438Y-52260662D01*
X112743466Y-52156845D01*
X112743465Y-52156844D01*
X112741190Y-52152210D01*
X112737537Y-52148563D01*
X112655902Y-52067070D01*
X112655900Y-52067068D01*
X112652247Y-52063422D01*
X112560306Y-52018480D01*
X112543699Y-52010362D01*
X112543698Y-52010362D01*
X112539339Y-52008231D01*
X112534536Y-52007530D01*
X112534535Y-52007530D01*
X112509637Y-52003898D01*
X112465781Y-51997500D01*
X112081019Y-51997500D01*
X111694220Y-51997501D01*
X111620021Y-52008422D01*
X111615663Y-52010562D01*
X111615662Y-52010562D01*
X111511845Y-52061534D01*
X111511844Y-52061535D01*
X111507210Y-52063810D01*
X111503564Y-52067462D01*
X111503563Y-52067463D01*
X111422070Y-52149098D01*
X111422068Y-52149100D01*
X111418422Y-52152753D01*
X111416154Y-52157393D01*
X111365675Y-52260662D01*
X111363231Y-52265661D01*
X111362530Y-52270464D01*
X111362530Y-52270465D01*
X111360535Y-52284142D01*
X111352500Y-52339219D01*
X111352501Y-53660780D01*
X111363422Y-53734979D01*
X111365562Y-53739337D01*
X111365562Y-53739338D01*
X111411281Y-53832455D01*
X111414326Y-53880193D01*
X111382723Y-53916103D01*
X111355178Y-53922500D01*
X108869154Y-53922500D01*
X108824960Y-53904194D01*
X108806656Y-53859528D01*
X108807219Y-53785020D01*
X108825858Y-53740965D01*
X108834994Y-53733525D01*
X108906926Y-53685462D01*
X108912043Y-53682043D01*
X108922713Y-53666074D01*
X108930486Y-53656603D01*
X108996603Y-53590486D01*
X109006074Y-53582713D01*
X109016926Y-53575462D01*
X109022043Y-53572043D01*
X109077850Y-53488521D01*
X109092500Y-53414870D01*
X109097447Y-53390000D01*
X109093701Y-53371168D01*
X109092500Y-53358975D01*
X109092500Y-53272865D01*
X109110806Y-53228671D01*
X109131082Y-53215123D01*
X109221066Y-53177850D01*
X109224849Y-53176283D01*
X109350708Y-53079708D01*
X109447283Y-52953849D01*
X109507992Y-52807284D01*
X109523500Y-52689490D01*
X109523500Y-52310510D01*
X109518144Y-52269826D01*
X109508527Y-52196776D01*
X109508526Y-52196772D01*
X109507992Y-52192716D01*
X109506425Y-52188933D01*
X109506424Y-52188929D01*
X109467276Y-52094417D01*
X109467275Y-52046581D01*
X109501100Y-52012757D01*
X109525018Y-52007999D01*
X109642396Y-52007999D01*
X109645766Y-52007817D01*
X109702310Y-52001675D01*
X109709878Y-51999876D01*
X109838291Y-51951736D01*
X109846026Y-51947501D01*
X109955344Y-51865572D01*
X109961572Y-51859344D01*
X110043501Y-51750026D01*
X110047736Y-51742291D01*
X110095877Y-51613875D01*
X110097675Y-51606311D01*
X110103817Y-51549770D01*
X110104000Y-51546402D01*
X110104000Y-51512431D01*
X110100359Y-51503641D01*
X110091569Y-51500000D01*
X108824492Y-51500000D01*
X108827516Y-51100000D01*
X110091568Y-51100000D01*
X110100358Y-51096359D01*
X110103999Y-51087569D01*
X110103999Y-51053604D01*
X110103817Y-51050234D01*
X110097675Y-50993690D01*
X110095876Y-50986122D01*
X110047736Y-50857709D01*
X110043501Y-50849974D01*
X109961572Y-50740656D01*
X109955344Y-50734428D01*
X109846026Y-50652499D01*
X109838291Y-50648264D01*
X109764061Y-50620437D01*
X109729105Y-50587783D01*
X109723500Y-50561914D01*
X109723500Y-50437442D01*
X109716102Y-50400252D01*
X109689021Y-50359723D01*
X109679689Y-50312807D01*
X109689022Y-50290276D01*
X109695704Y-50280276D01*
X109735478Y-50253701D01*
X109747670Y-50252500D01*
X112704622Y-50252500D01*
X112748816Y-50270806D01*
G37*
%TD.AperFunction*%
%TA.AperFunction,Conductor*%
G36*
X119189194Y-46421552D02*
G01*
X119193302Y-46426084D01*
X119221555Y-46460510D01*
X119228358Y-46470693D01*
X119303182Y-46610678D01*
X119307871Y-46621997D01*
X119316779Y-46651363D01*
X119344383Y-46742359D01*
X119353949Y-46773895D01*
X119356338Y-46785908D01*
X119359371Y-46816696D01*
X119370176Y-46926409D01*
X119369569Y-46933824D01*
X119370132Y-46933824D01*
X119370132Y-46942051D01*
X119368002Y-46950000D01*
X119370372Y-46958844D01*
X119372500Y-46975014D01*
X119372500Y-52239948D01*
X119354194Y-52284142D01*
X119310000Y-52302448D01*
X119265806Y-52284142D01*
X119257524Y-52273896D01*
X119180888Y-52155435D01*
X119177764Y-52151378D01*
X119028162Y-51986968D01*
X119024422Y-51983480D01*
X118849986Y-51845718D01*
X118845718Y-51842883D01*
X118692516Y-51758311D01*
X118662672Y-51720926D01*
X118668004Y-51673389D01*
X118688453Y-51651326D01*
X118821797Y-51563902D01*
X118821798Y-51563901D01*
X118824832Y-51561912D01*
X118941498Y-51438757D01*
X119026703Y-51292065D01*
X119075877Y-51129706D01*
X119086381Y-50960390D01*
X119057652Y-50793198D01*
X118991232Y-50637100D01*
X118890682Y-50500468D01*
X118761397Y-50390633D01*
X118672176Y-50345074D01*
X118613547Y-50315136D01*
X118613544Y-50315135D01*
X118610313Y-50313485D01*
X118445532Y-50273163D01*
X118438213Y-50272709D01*
X118435813Y-50272560D01*
X118435809Y-50272560D01*
X118434844Y-50272500D01*
X117762517Y-50272500D01*
X117760727Y-50272709D01*
X117760722Y-50272709D01*
X117712601Y-50278320D01*
X117636499Y-50287192D01*
X117633083Y-50288432D01*
X117480453Y-50343834D01*
X117480450Y-50343835D01*
X117477038Y-50345074D01*
X117474002Y-50347065D01*
X117474001Y-50347065D01*
X117352962Y-50426422D01*
X117335168Y-50438088D01*
X117218502Y-50561243D01*
X117133297Y-50707935D01*
X117084123Y-50870294D01*
X117073619Y-51039610D01*
X117102348Y-51206802D01*
X117168768Y-51362900D01*
X117269318Y-51499532D01*
X117398603Y-51609367D01*
X117439789Y-51630398D01*
X117471107Y-51646390D01*
X117502142Y-51682792D01*
X117498347Y-51730476D01*
X117471543Y-51757491D01*
X117342785Y-51824518D01*
X117338451Y-51827247D01*
X117160693Y-51960712D01*
X117156872Y-51964104D01*
X117003297Y-52124811D01*
X117000076Y-52128788D01*
X116874817Y-52312411D01*
X116872284Y-52316870D01*
X116840886Y-52384512D01*
X116805675Y-52416890D01*
X116757881Y-52414887D01*
X116731928Y-52392465D01*
X116643902Y-52258203D01*
X116643901Y-52258202D01*
X116641912Y-52255168D01*
X116518757Y-52138502D01*
X116372065Y-52053297D01*
X116369809Y-52052614D01*
X116336848Y-52018480D01*
X116332500Y-51995575D01*
X116332500Y-51021025D01*
X116333701Y-51008832D01*
X116336246Y-50996038D01*
X116337447Y-50990000D01*
X116317850Y-50891479D01*
X116303695Y-50870294D01*
X116262043Y-50807957D01*
X116246074Y-50797287D01*
X116236603Y-50789514D01*
X115290486Y-49843397D01*
X115282713Y-49833926D01*
X115275462Y-49823074D01*
X115272043Y-49817957D01*
X115188521Y-49762150D01*
X115182488Y-49760950D01*
X115182486Y-49760949D01*
X115173214Y-49759105D01*
X115096038Y-49743753D01*
X115090000Y-49742552D01*
X115071164Y-49746299D01*
X115058970Y-49747500D01*
X113455433Y-49747500D01*
X113408085Y-49725797D01*
X113390852Y-49705797D01*
X113375872Y-49660368D01*
X113397403Y-49617652D01*
X113438200Y-49602500D01*
X117370135Y-49602500D01*
X117397828Y-49610885D01*
X117398603Y-49609367D01*
X117546453Y-49684864D01*
X117546456Y-49684865D01*
X117549687Y-49686515D01*
X117714468Y-49726837D01*
X117721746Y-49727288D01*
X117724187Y-49727440D01*
X117724191Y-49727440D01*
X117725156Y-49727500D01*
X118397483Y-49727500D01*
X118399273Y-49727291D01*
X118399278Y-49727291D01*
X118447399Y-49721680D01*
X118523501Y-49712808D01*
X118593559Y-49687378D01*
X118679547Y-49656166D01*
X118679550Y-49656165D01*
X118682962Y-49654926D01*
X118685999Y-49652935D01*
X118821797Y-49563902D01*
X118821798Y-49563901D01*
X118824832Y-49561912D01*
X118941498Y-49438757D01*
X119026703Y-49292065D01*
X119075877Y-49129706D01*
X119086381Y-48960390D01*
X119057652Y-48793198D01*
X118991232Y-48637100D01*
X118890682Y-48500468D01*
X118761397Y-48390633D01*
X118672176Y-48345074D01*
X118613547Y-48315136D01*
X118613544Y-48315135D01*
X118610313Y-48313485D01*
X118445532Y-48273163D01*
X118438213Y-48272709D01*
X118435813Y-48272560D01*
X118435809Y-48272560D01*
X118434844Y-48272500D01*
X117762517Y-48272500D01*
X117760727Y-48272709D01*
X117760722Y-48272709D01*
X117712601Y-48278320D01*
X117636499Y-48287192D01*
X117633083Y-48288432D01*
X117480453Y-48343834D01*
X117480450Y-48343835D01*
X117477038Y-48345074D01*
X117474606Y-48346669D01*
X117427111Y-48350072D01*
X117390955Y-48318752D01*
X117387536Y-48271039D01*
X117402646Y-48246574D01*
X117628414Y-48020806D01*
X117672608Y-48002500D01*
X118636996Y-48002500D01*
X118697171Y-47995963D01*
X118700839Y-47994588D01*
X118824986Y-47948048D01*
X118824988Y-47948047D01*
X118829157Y-47946484D01*
X118863246Y-47920936D01*
X118938390Y-47864618D01*
X118941950Y-47861950D01*
X119026484Y-47749157D01*
X119028106Y-47744832D01*
X119074588Y-47620839D01*
X119075963Y-47617171D01*
X119082500Y-47556996D01*
X119082500Y-46465746D01*
X119100806Y-46421552D01*
X119145000Y-46403246D01*
X119189194Y-46421552D01*
G37*
%TD.AperFunction*%
%TA.AperFunction,Conductor*%
G36*
X111108616Y-46095806D02*
G01*
X111126922Y-46140000D01*
X111116928Y-46173903D01*
X111093438Y-46210283D01*
X111090714Y-46215539D01*
X111013909Y-46406116D01*
X111012224Y-46411804D01*
X110972704Y-46614174D01*
X110972162Y-46618637D01*
X110972038Y-46621179D01*
X110972000Y-46622710D01*
X110972000Y-46733569D01*
X110975641Y-46742359D01*
X110984431Y-46746000D01*
X113175569Y-46746000D01*
X113184359Y-46742359D01*
X113188000Y-46733569D01*
X113188000Y-46673662D01*
X113187858Y-46670690D01*
X113173241Y-46517490D01*
X113172123Y-46511680D01*
X113114278Y-46314502D01*
X113112079Y-46309005D01*
X113039774Y-46168617D01*
X113035812Y-46120946D01*
X113066720Y-46084437D01*
X113095337Y-46077500D01*
X113542329Y-46077500D01*
X113586523Y-46095806D01*
X113604829Y-46140000D01*
X113584953Y-46185710D01*
X113583389Y-46187168D01*
X113580468Y-46189318D01*
X113470633Y-46318603D01*
X113460196Y-46339043D01*
X113406249Y-46444691D01*
X113393485Y-46469687D01*
X113353163Y-46634468D01*
X113352500Y-46645156D01*
X113352500Y-47317483D01*
X113367192Y-47443501D01*
X113368432Y-47446917D01*
X113421779Y-47593884D01*
X113425074Y-47602962D01*
X113518088Y-47744832D01*
X113641243Y-47861498D01*
X113787935Y-47946703D01*
X113950294Y-47995877D01*
X114119610Y-48006381D01*
X114286802Y-47977652D01*
X114442900Y-47911232D01*
X114579532Y-47810682D01*
X114689367Y-47681397D01*
X114736958Y-47588196D01*
X114764864Y-47533547D01*
X114764865Y-47533544D01*
X114766515Y-47530313D01*
X114806837Y-47365532D01*
X114807500Y-47354844D01*
X114807500Y-46682517D01*
X114792808Y-46556499D01*
X114759866Y-46465746D01*
X114736166Y-46400453D01*
X114736165Y-46400450D01*
X114734926Y-46397038D01*
X114641912Y-46255168D01*
X114568235Y-46185373D01*
X114548741Y-46141690D01*
X114565845Y-46097017D01*
X114611218Y-46077500D01*
X115542329Y-46077500D01*
X115586523Y-46095806D01*
X115604829Y-46140000D01*
X115584953Y-46185710D01*
X115583389Y-46187168D01*
X115580468Y-46189318D01*
X115470633Y-46318603D01*
X115460196Y-46339043D01*
X115406249Y-46444691D01*
X115393485Y-46469687D01*
X115353163Y-46634468D01*
X115352500Y-46645156D01*
X115352500Y-47317483D01*
X115367192Y-47443501D01*
X115368432Y-47446917D01*
X115421779Y-47593884D01*
X115425074Y-47602962D01*
X115518088Y-47744832D01*
X115641243Y-47861498D01*
X115787935Y-47946703D01*
X115950294Y-47995877D01*
X116119610Y-48006381D01*
X116286802Y-47977652D01*
X116419015Y-47921395D01*
X116466848Y-47920936D01*
X116500996Y-47954434D01*
X116501455Y-48002267D01*
X116487680Y-48023099D01*
X116231585Y-48279194D01*
X116187391Y-48297500D01*
X112749757Y-48297500D01*
X112705563Y-48279194D01*
X112687257Y-48235000D01*
X112705563Y-48190806D01*
X112713596Y-48184023D01*
X112804858Y-48119286D01*
X112809338Y-48115420D01*
X112951431Y-47966986D01*
X112955100Y-47962341D01*
X113066562Y-47789717D01*
X113069286Y-47784461D01*
X113146091Y-47593884D01*
X113147776Y-47588196D01*
X113187296Y-47385826D01*
X113187838Y-47381363D01*
X113187962Y-47378821D01*
X113188000Y-47377290D01*
X113188000Y-47266431D01*
X113184359Y-47257641D01*
X113175569Y-47254000D01*
X110984431Y-47254000D01*
X110975641Y-47257641D01*
X110972000Y-47266431D01*
X110972000Y-47326338D01*
X110972142Y-47329310D01*
X110986759Y-47482510D01*
X110987877Y-47488320D01*
X111045722Y-47685498D01*
X111047918Y-47690987D01*
X111142002Y-47873663D01*
X111145203Y-47878649D01*
X111272133Y-48040238D01*
X111276212Y-48044522D01*
X111431403Y-48179190D01*
X111438309Y-48184115D01*
X111463660Y-48224681D01*
X111452903Y-48271291D01*
X111412337Y-48296642D01*
X111402018Y-48297500D01*
X111039413Y-48297500D01*
X110995219Y-48279194D01*
X110989828Y-48273048D01*
X110961878Y-48236622D01*
X110893450Y-48184115D01*
X110844491Y-48146548D01*
X110841242Y-48144055D01*
X110837459Y-48142488D01*
X110704539Y-48087431D01*
X110704538Y-48087431D01*
X110700758Y-48085865D01*
X110696702Y-48085331D01*
X110696698Y-48085330D01*
X110554064Y-48066552D01*
X110550000Y-48066017D01*
X110545936Y-48066552D01*
X110403305Y-48085330D01*
X110403304Y-48085330D01*
X110399242Y-48085865D01*
X110395457Y-48087433D01*
X110395456Y-48087433D01*
X110273628Y-48137896D01*
X110258759Y-48144055D01*
X110138122Y-48236622D01*
X110110172Y-48273048D01*
X110068745Y-48296965D01*
X110060587Y-48297500D01*
X109246416Y-48297500D01*
X109202222Y-48279194D01*
X109183916Y-48235000D01*
X109202222Y-48190806D01*
X109217803Y-48180394D01*
X109217517Y-48179899D01*
X109221066Y-48177850D01*
X109224849Y-48176283D01*
X109350708Y-48079708D01*
X109447283Y-47953849D01*
X109450334Y-47946484D01*
X109506426Y-47811065D01*
X109506426Y-47811064D01*
X109507992Y-47807284D01*
X109515176Y-47752721D01*
X109523233Y-47691521D01*
X109523233Y-47691515D01*
X109523500Y-47689490D01*
X109523500Y-47310510D01*
X109516540Y-47257641D01*
X109508527Y-47196776D01*
X109508526Y-47196772D01*
X109507992Y-47192716D01*
X109447283Y-47046151D01*
X109364085Y-46937725D01*
X109353199Y-46923538D01*
X109353198Y-46923537D01*
X109350708Y-46920292D01*
X109224850Y-46823717D01*
X109207900Y-46816696D01*
X109174076Y-46782870D01*
X109170520Y-46771147D01*
X109160052Y-46718524D01*
X109158850Y-46712479D01*
X109158424Y-46711842D01*
X109103043Y-46628957D01*
X109087074Y-46618287D01*
X109077603Y-46610514D01*
X108881578Y-46414489D01*
X108863274Y-46369823D01*
X108864998Y-46141690D01*
X108865014Y-46139528D01*
X108883653Y-46095473D01*
X108927512Y-46077500D01*
X111064422Y-46077500D01*
X111108616Y-46095806D01*
G37*
%TD.AperFunction*%
%TD*%
%TA.AperFunction,Conductor*%
%TO.N,SHIELD*%
G36*
X106456694Y-46095806D02*
G01*
X106475000Y-46140000D01*
X106475000Y-46233569D01*
X106478641Y-46242359D01*
X106487431Y-46246000D01*
X107460585Y-46246000D01*
X107469375Y-46242359D01*
X107470594Y-46239416D01*
X107441956Y-46161581D01*
X107443876Y-46113784D01*
X107479031Y-46081344D01*
X107500612Y-46077500D01*
X108609047Y-46077500D01*
X108653241Y-46095806D01*
X108671547Y-46140050D01*
X108671463Y-46246000D01*
X108671379Y-46350856D01*
X108653038Y-46395035D01*
X108630460Y-46409462D01*
X108490828Y-46460837D01*
X108485169Y-46463597D01*
X108320826Y-46565494D01*
X108315834Y-46569338D01*
X108175339Y-46702198D01*
X108171218Y-46706972D01*
X108060309Y-46865367D01*
X108057237Y-46870864D01*
X107980437Y-47048338D01*
X107978535Y-47054334D01*
X107941036Y-47233831D01*
X107942802Y-47243179D01*
X107946937Y-47246000D01*
X108670663Y-47246000D01*
X108670257Y-47754000D01*
X107955926Y-47754000D01*
X107947136Y-47757641D01*
X107944509Y-47763983D01*
X107952793Y-47845534D01*
X107954057Y-47851696D01*
X108011884Y-48036221D01*
X108014365Y-48042009D01*
X108108114Y-48211137D01*
X108111707Y-48216307D01*
X108185798Y-48302750D01*
X108200659Y-48348218D01*
X108179016Y-48390878D01*
X108173067Y-48395389D01*
X108159197Y-48404657D01*
X108159195Y-48404659D01*
X108154078Y-48408078D01*
X108125898Y-48450252D01*
X108124698Y-48456285D01*
X108124697Y-48456287D01*
X108119506Y-48482384D01*
X108118500Y-48487442D01*
X108118500Y-48912558D01*
X108119099Y-48915569D01*
X108123866Y-48939532D01*
X108125898Y-48949748D01*
X108152979Y-48990277D01*
X108162311Y-49037193D01*
X108152979Y-49059722D01*
X108125898Y-49100252D01*
X108118500Y-49137442D01*
X108118500Y-49562558D01*
X108125898Y-49599748D01*
X108152979Y-49640277D01*
X108162311Y-49687193D01*
X108152979Y-49709722D01*
X108125898Y-49750252D01*
X108118500Y-49787442D01*
X108118500Y-50212558D01*
X108125898Y-50249748D01*
X108152979Y-50290277D01*
X108162311Y-50337193D01*
X108152979Y-50359722D01*
X108125898Y-50400252D01*
X108118500Y-50437442D01*
X108118500Y-50862558D01*
X108125898Y-50899748D01*
X108152979Y-50940277D01*
X108162311Y-50987193D01*
X108152979Y-51009722D01*
X108125898Y-51050252D01*
X108118500Y-51087442D01*
X108118500Y-51512558D01*
X108125898Y-51549748D01*
X108154078Y-51591922D01*
X108159195Y-51595341D01*
X108159197Y-51595343D01*
X108169711Y-51602368D01*
X108196288Y-51642141D01*
X108186956Y-51689057D01*
X108177932Y-51699746D01*
X108175339Y-51702198D01*
X108171218Y-51706972D01*
X108060309Y-51865367D01*
X108057237Y-51870864D01*
X107980437Y-52048338D01*
X107978535Y-52054334D01*
X107941036Y-52233831D01*
X107942802Y-52243179D01*
X107946937Y-52246000D01*
X108666667Y-52246000D01*
X108666261Y-52754000D01*
X107955926Y-52754000D01*
X107947136Y-52757641D01*
X107944509Y-52763983D01*
X107952793Y-52845534D01*
X107954057Y-52851696D01*
X108011884Y-53036221D01*
X108014365Y-53042009D01*
X108108114Y-53211137D01*
X108111707Y-53216307D01*
X108237549Y-53363129D01*
X108242107Y-53367470D01*
X108394902Y-53485990D01*
X108400244Y-53489328D01*
X108573749Y-53574703D01*
X108579649Y-53576897D01*
X108618800Y-53587095D01*
X108656953Y-53615950D01*
X108665546Y-53647627D01*
X108665377Y-53860050D01*
X108647036Y-53904229D01*
X108602877Y-53922500D01*
X107505471Y-53922500D01*
X107461277Y-53904194D01*
X107442971Y-53860000D01*
X107446891Y-53838214D01*
X107449634Y-53830839D01*
X107466515Y-53766031D01*
X107465207Y-53756606D01*
X107461761Y-53754000D01*
X106487431Y-53754000D01*
X106478641Y-53757641D01*
X106475000Y-53766431D01*
X106475000Y-53860000D01*
X106456694Y-53904194D01*
X106412500Y-53922500D01*
X106029500Y-53922500D01*
X105985306Y-53904194D01*
X105967000Y-53860000D01*
X105967000Y-53233569D01*
X106475000Y-53233569D01*
X106478641Y-53242359D01*
X106487431Y-53246000D01*
X107491569Y-53246000D01*
X107500359Y-53242359D01*
X107504000Y-53233569D01*
X107504000Y-53166431D01*
X107500359Y-53157641D01*
X107491569Y-53154000D01*
X106487431Y-53154000D01*
X106478641Y-53157641D01*
X106475000Y-53166431D01*
X106475000Y-53233569D01*
X105967000Y-53233569D01*
X105967000Y-52633569D01*
X106475000Y-52633569D01*
X106478641Y-52642359D01*
X106487431Y-52646000D01*
X107491568Y-52646000D01*
X107500358Y-52642359D01*
X107503999Y-52633569D01*
X107503999Y-52253604D01*
X107503817Y-52250234D01*
X107497675Y-52193690D01*
X107495876Y-52186122D01*
X107447735Y-52057707D01*
X107446261Y-52055015D01*
X107441094Y-52007459D01*
X107446261Y-51994985D01*
X107447735Y-51992293D01*
X107495877Y-51863875D01*
X107497675Y-51856311D01*
X107503817Y-51799770D01*
X107504000Y-51796402D01*
X107504000Y-51266431D01*
X107500359Y-51257641D01*
X107491569Y-51254000D01*
X106487431Y-51254000D01*
X106478641Y-51257641D01*
X106475000Y-51266431D01*
X106475000Y-52633569D01*
X105967000Y-52633569D01*
X105967000Y-50733569D01*
X106475000Y-50733569D01*
X106478641Y-50742359D01*
X106487431Y-50746000D01*
X107491568Y-50746000D01*
X107500358Y-50742359D01*
X107503999Y-50733569D01*
X107503999Y-50203604D01*
X107503817Y-50200234D01*
X107497675Y-50143690D01*
X107495876Y-50136122D01*
X107453070Y-50021939D01*
X107453070Y-49978061D01*
X107495877Y-49863875D01*
X107497675Y-49856311D01*
X107503817Y-49799770D01*
X107504000Y-49796402D01*
X107504000Y-49266431D01*
X107500359Y-49257641D01*
X107491569Y-49254000D01*
X106487431Y-49254000D01*
X106478641Y-49257641D01*
X106475000Y-49266431D01*
X106475000Y-50733569D01*
X105967000Y-50733569D01*
X105967000Y-48733569D01*
X106475000Y-48733569D01*
X106478641Y-48742359D01*
X106487431Y-48746000D01*
X107491568Y-48746000D01*
X107500358Y-48742359D01*
X107503999Y-48733569D01*
X107503999Y-48203604D01*
X107503817Y-48200234D01*
X107497675Y-48143690D01*
X107495876Y-48136122D01*
X107447735Y-48007707D01*
X107446261Y-48005015D01*
X107441094Y-47957459D01*
X107446261Y-47944985D01*
X107447735Y-47942293D01*
X107495877Y-47813875D01*
X107497675Y-47806311D01*
X107503817Y-47749770D01*
X107504000Y-47746402D01*
X107504000Y-47366431D01*
X107500359Y-47357641D01*
X107491569Y-47354000D01*
X106487431Y-47354000D01*
X106478641Y-47357641D01*
X106475000Y-47366431D01*
X106475000Y-48733569D01*
X105967000Y-48733569D01*
X105967000Y-46833569D01*
X106475000Y-46833569D01*
X106478641Y-46842359D01*
X106487431Y-46846000D01*
X107491568Y-46846000D01*
X107500358Y-46842359D01*
X107503999Y-46833569D01*
X107503999Y-46766431D01*
X107500358Y-46757641D01*
X107491568Y-46754000D01*
X106487431Y-46754000D01*
X106478641Y-46757641D01*
X106475000Y-46766431D01*
X106475000Y-46833569D01*
X105967000Y-46833569D01*
X105967000Y-46140000D01*
X105985306Y-46095806D01*
X106029500Y-46077500D01*
X106412500Y-46077500D01*
X106456694Y-46095806D01*
G37*
%TD.AperFunction*%
%TD*%
M02*
