<svg id="レイヤー_1" data-name="レイヤー 1" xmlns="http://www.w3.org/2000/svg" viewBox="0 0 431.9903 370.92467"><defs><style>.cls-1,.cls-2{fill:none;stroke-width:0.70866px;}.cls-1{stroke:#231815;stroke-linecap:round;stroke-linejoin:round;}.cls-2{stroke:#000;}</style></defs><polyline class="cls-1" points="116.169 193.884 155.889 193.884 155.889 233.604 116.169 233.604 116.169 193.884"/><polyline class="cls-1" points="116.169 139.884 155.889 139.884 155.889 179.604 116.169 179.604 116.169 139.884"/><polyline class="cls-1" points="47.889 207.384 8.169 207.384 8.169 247.104 47.889 247.104 47.889 207.384"/><polyline class="cls-1" points="47.889 45.384 8.169 45.384 8.169 85.104 47.889 85.104 47.889 45.384"/><polyline class="cls-1" points="278.17 38.665 317.889 38.665 317.889 78.325 278.17 78.325 278.17 38.665"/><polyline class="cls-1" points="47.889 99.384 8.169 99.384 8.169 139.104 47.889 139.104 47.889 99.384"/><polyline class="cls-1" points="47.889 153.384 8.169 153.384 8.169 193.104 47.889 193.104 47.889 153.384"/><polyline class="cls-1" points="62.169 45.384 101.889 45.384 101.889 85.104 62.169 85.104 62.169 45.384"/><polyline class="cls-1" points="62.169 99.384 101.889 99.384 101.889 139.104 62.169 139.104 62.169 99.384"/><polyline class="cls-1" points="62.169 153.384 101.889 153.384 101.889 193.104 62.169 193.104 62.169 153.384"/><polyline class="cls-1" points="62.169 207.384 101.889 207.384 101.889 247.104 62.169 247.104 62.169 207.384"/><polyline class="cls-1" points="155.889 31.884 116.169 31.884 116.169 71.604 155.889 71.604 155.889 31.884"/><polyline class="cls-1" points="155.889 85.884 116.169 85.884 116.169 125.604 155.889 125.604 155.889 85.884"/><polyline class="cls-1" points="170.169 25.165 209.889 25.165 209.889 64.825 170.169 64.825 170.169 25.165"/><polyline class="cls-1" points="170.169 79.165 209.889 79.165 209.889 118.825 170.169 118.825 170.169 79.165"/><polyline class="cls-1" points="170.169 133.165 209.889 133.165 209.889 172.825 170.169 172.825 170.169 133.165"/><polyline class="cls-1" points="170.169 187.165 209.889 187.165 209.889 226.823 170.169 226.823 170.169 187.165"/><polyline class="cls-1" points="224.17 31.884 263.889 31.884 263.889 71.604 224.17 71.604 224.17 31.884"/><polyline class="cls-1" points="224.17 85.884 263.889 85.884 263.889 125.604 224.17 125.604 224.17 85.884"/><polyline class="cls-1" points="224.17 139.884 263.889 139.884 263.889 179.604 224.17 179.604 224.17 139.884"/><polyline class="cls-1" points="224.17 193.884 263.889 193.884 263.889 233.604 224.17 233.604 224.17 193.884"/><polyline class="cls-1" points="317.889 92.665 278.17 92.665 278.17 132.325 317.889 132.325 317.889 92.665"/><polyline class="cls-1" points="317.889 146.665 278.17 146.665 278.17 186.325 317.889 186.325 317.889 146.665"/><polyline class="cls-1" points="317.889 200.663 278.17 200.663 278.17 240.325 317.889 240.325 317.889 200.663"/><polyline class="cls-1" points="332.17 65.665 371.889 65.665 371.889 105.325 332.17 105.325 332.17 65.665"/><polyline class="cls-1" points="332.17 119.665 371.889 119.665 371.889 159.325 332.17 159.325 332.17 119.665"/><polyline class="cls-1" points="332.17 173.665 371.889 173.665 371.889 213.323 332.17 213.323 332.17 173.665"/><polyline class="cls-1" points="47.889 261.386 8.169 261.386 8.169 301.104 47.889 301.104 47.889 261.386"/><polyline class="cls-1" points="62.169 261.386 101.889 261.386 101.889 301.104 62.169 301.104 62.169 261.386"/><polyline class="cls-1" points="155.889 247.886 116.169 247.886 116.169 287.604 155.889 287.604 155.889 247.886"/><polyline class="cls-1" points="248.86 288.505 268.66 254.124 303.04 273.985 283.18 308.364 248.86 288.505"/><path class="cls-1" d="M57.763,92.39443a2.7637,2.7637,0,1,1-2.7637-2.7637A2.76361,2.76361,0,0,1,57.763,92.39443Z"/><circle class="cls-1" cx="162.99932" cy="132.71373" r="2.7637"/><path class="cls-1" d="M148.12283,21.83483a2.76365,2.76365,0,1,1-2.7636-2.7637A2.76425,2.76425,0,0,1,148.12283,21.83483Z"/><circle class="cls-1" cx="54.99933" cy="255.11413" r="2.7637"/><path class="cls-1" d="M167.20292,233.51453a2.76365,2.76365,0,1,1-2.7637-2.7637A2.76428,2.76428,0,0,1,167.20292,233.51453Z"/><path class="cls-1" d="M310.84261,254.39533a2.7637,2.7637,0,1,1-2.7637-2.7636A2.7637,2.7637,0,0,1,310.84261,254.39533Z"/><path class="cls-1" d="M327.76151,85.19423a2.76365,2.76365,0,1,1-2.7637-2.7637A2.76419,2.76419,0,0,1,327.76151,85.19423Z"/><path class="cls-1" d="M391.45391,247.075a2.76365,2.76365,0,1,1-2.7637-2.7636A2.76236,2.76236,0,0,1,391.45391,247.075Z"/><path class="cls-1" d="M380.42361,212.911a17.333,17.333,0,0,0,3.7627,9.9082l45.5806,51.3691a8.39951,8.39951,0,0,1,.9219,9.1465l-48.8677,84.4082a5.69772,5.69772,0,0,1-7.752,2.0723L273.741,311.93253a25.11405,25.11405,0,0,0-10.5801-2.8321l-.0014-.0019H6.02373a5.68575,5.68575,0,0,1-5.6694-5.669V42.36213a7.43768,7.43768,0,0,1,5.5312-6.914L156.46272,1.59853a61.67664,61.67664,0,0,1,11.2007-1.2442h98.7314a20.951,20.951,0,0,1,10.2974,3.2754l25.2822,17.8858a20.95076,20.95076,0,0,0,10.29739,3.2744h39.68361a11.95345,11.95345,0,0,1,8.83789,4.7012l16.4677,24.4375a21.85073,21.85073,0,0,1,3.1685,10.371l-.0039,148.7334"/><polygon class="cls-2" points="423.084 281.272 418.742 288.78 420.551 291.303 417.717 296.205 414.624 295.893 384.477 348.05 386.268 350.562 383.433 355.464 380.359 355.163 376.099 362.473 341.751 342.598 342.431 341.422 337.405 338.515 336.681 335.804 347.605 316.909 350.316 316.185 351.052 316.61 370.926 282.265 370.198 281.844 369.474 279.133 380.398 260.238 383.109 259.514 388.142 262.426 388.737 261.397 423.084 281.272"/><polyline class="cls-1" points="218.478 247.887 178.758 247.887 178.758 287.605 218.478 287.605 218.478 247.887"/><polyline class="cls-1" points="295.175 315.505 314.975 281.125 349.356 300.986 329.495 335.365 295.175 315.505"/><polyline class="cls-1" points="322.175 268.739 341.975 234.359 376.356 254.22 356.495 288.599 322.175 268.739"/></svg>