999
"DXF R12 Output" (www.mydxf.blogspot.com)
 0 
SECTION
 2 
HEADER
 9 
$ACADVER
 1 
AC1009
 9 
$EXTMIN
 10 
 0 
 20 
 0 
 9 
$EXTMAX
 10 
 8.5 
 20 
 11 
 0 
ENDSEC
 0 
SECTION
 2 
ENTITIES
0
LINE
8
Layer 1
10
123.392000
20
75.172500
11
123.217989
21
76.047314
0
LINE
8
Layer 1
10
123.217989
20
76.047314
11
122.722446
21
76.788946
0
LINE
8
Layer 1
10
122.722446
20
76.788946
11
121.980814
21
77.284489
0
LINE
8
Layer 1
10
121.980814
20
77.284489
11
121.106000
21
77.458500
0
LINE
8
Layer 1
10
124.154000
20
-29.856500
11
140.918000
21
-0.900500
0
LINE
8
Layer 1
10
-8.688000
20
-6.615520
11
-8.513989
21
-7.490334
0
LINE
8
Layer 1
10
-8.513989
20
-7.490334
11
-8.018446
21
-8.231966
0
LINE
8
Layer 1
10
-8.018446
20
-8.231966
11
-7.276814
21
-8.727509
0
LINE
8
Layer 1
10
-7.276814
20
-8.727509
11
-6.402000
21
-8.901520
0
LINE
8
Layer 1
10
105.700000
20
77.458500
11
105.700000
21
84.824500
0
LINE
8
Layer 1
10
77.450000
20
-3.359520
11
105.104000
21
-20.331520
0
LINE
8
Layer 1
10
103.410000
20
87.110500
11
105.700000
21
84.824500
0
LINE
8
Layer 1
10
122.122000
20
-30.110500
11
122.627078
21
-30.363701
0
LINE
8
Layer 1
10
122.627078
20
-30.363701
11
123.190605
21
-30.404342
0
LINE
8
Layer 1
10
123.190605
20
-30.404342
11
123.726789
21
-30.226237
0
LINE
8
Layer 1
10
123.726789
20
-30.226237
11
124.154000
21
-29.856500
0
LINE
8
Layer 1
10
66.620000
20
90.480500
11
89.750000
21
90.480500
0
LINE
8
Layer 1
10
-8.688000
20
-6.615520
11
-8.688000
21
83.554500
0
LINE
8
Layer 1
10
125.170000
20
8.497480
11
123.350000
21
9.830480
0
LINE
8
Layer 1
10
47.810000
20
90.390500
11
50.250000
21
92.620510
0
LINE
8
Layer 1
10
25.923500
20
-8.901520
11
30.485260
21
-3.359520
0
LINE
8
Layer 1
10
30.485200
20
-3.359520
11
77.450000
21
-3.359520
0
LINE
8
Layer 1
10
89.750000
20
90.480500
11
92.080000
21
87.110500
0
LINE
8
Layer 1
10
121.106000
20
77.458500
11
105.700000
21
77.458500
0
LINE
8
Layer 1
10
123.392000
20
23.864500
11
123.392000
21
11.926500
0
LINE
8
Layer 1
10
109.041000
20
-22.490500
11
122.122000
21
-30.110500
0
LINE
8
Layer 1
10
47.790000
20
88.380500
11
47.810000
21
90.390500
0
LINE
8
Layer 1
10
140.918000
20
-0.900520
11
141.161533
21
-0.346841
0
LINE
8
Layer 1
10
141.161533
20
-0.346841
11
141.174645
21
0.257888
0
LINE
8
Layer 1
10
141.174645
20
0.257888
11
140.955338
21
0.821602
0
LINE
8
Layer 1
10
140.955338
20
0.821602
11
140.537000
21
1.258480
0
LINE
8
Layer 1
10
-6.402000
20
-8.901520
11
25.923500
21
-8.901520
0
LINE
8
Layer 1
10
26.410000
20
88.380500
11
47.790000
21
88.380500
0
LINE
8
Layer 1
10
105.104000
20
-20.331500
11
109.041000
21
-22.490500
0
LINE
8
Layer 1
10
123.392000
20
11.926500
11
123.350000
21
9.830500
0
LINE
8
Layer 1
10
123.392000
20
75.172500
11
123.392000
21
23.864500
0
LINE
8
Layer 1
10
-6.402000
20
85.840500
11
-7.276814
21
85.666489
0
LINE
8
Layer 1
10
-7.276814
20
85.666489
11
-8.018446
21
85.170946
0
LINE
8
Layer 1
10
-8.018446
20
85.170946
11
-8.513989
21
84.429314
0
LINE
8
Layer 1
10
-8.513989
20
84.429314
11
-8.688000
21
83.554500
0
LINE
8
Layer 1
10
127.329000
20
8.878480
11
126.775321
21
9.122013
0
LINE
8
Layer 1
10
126.775321
20
9.122013
11
126.170592
21
9.135125
0
LINE
8
Layer 1
10
126.170592
20
9.135125
11
125.606878
21
8.915818
0
LINE
8
Layer 1
10
125.606878
20
8.915818
11
125.170000
21
8.497480
0
LINE
8
Layer 1
10
103.410000
20
87.110500
11
92.080000
21
87.110500
0
LINE
8
Layer 1
10
50.250000
20
92.620500
11
64.570000
21
92.620500
0
LINE
8
Layer 1
10
127.329000
20
8.878480
11
140.537000
21
1.258480
0
LINE
8
Layer 1
10
64.570000
20
92.620500
11
66.620000
21
90.480490
0
LINE
8
Layer 1
10
-6.402000
20
85.840500
11
24.120000
21
85.840500
0
LINE
8
Layer 1
10
24.120000
20
85.840500
11
26.410000
21
88.380500
 0 
ENDSEC
 0 
EOF