  0
SECTION
  2
BLOCKS
  0
ENDSEC
  0
SECTION
  2
ENTITIES
  0
LINE
  8
0
 10
66.675
 20
92.8687
 11
47.625
 21
92.8687
  0
LINE
  8
0
 10
47.625
 20
92.8687
 11
47.625
 21
73.8188
  0
LINE
  8
0
 10
47.625
 20
73.8188
 11
66.675
 21
73.8188
  0
LINE
  8
0
 10
66.675
 20
73.8188
 11
66.675
 21
92.8687
  0
LINE
  8
0
 10
47.625
 20
90.4875
 11
28.575
 21
90.4875
  0
LINE
  8
0
 10
28.575
 20
90.4875
 11
28.575
 21
71.4375
  0
LINE
  8
0
 10
28.575
 20
71.4375
 11
47.625
 21
71.4375
  0
LINE
  8
0
 10
47.625
 20
71.4375
 11
47.625
 21
90.4875
  0
LINE
  8
0
 10
85.725
 20
90.4875
 11
66.675
 21
90.4875
  0
LINE
  8
0
 10
66.675
 20
90.4875
 11
66.675
 21
71.4375
  0
LINE
  8
0
 10
66.675
 20
71.4375
 11
85.725
 21
71.4375
  0
LINE
  8
0
 10
85.725
 20
71.4375
 11
85.725
 21
90.4875
  0
LINE
  8
0
 10
-9.52499
 20
66.675
 11
28.575
 21
66.675
  0
LINE
  8
0
 10
28.575
 20
66.675
 11
28.575
 21
85.725
  0
LINE
  8
0
 10
28.575
 20
85.725
 11
-9.52499
 21
85.725
  0
LINE
  8
0
 10
-9.52499
 20
85.725
 11
-9.52499
 21
66.675
  0
LINE
  8
0
 10
66.675
 20
73.8187
 11
47.625
 21
73.8187
  0
LINE
  8
0
 10
47.625
 20
73.8187
 11
47.625
 21
54.7688
  0
LINE
  8
0
 10
47.625
 20
54.7688
 11
66.675
 21
54.7688
  0
LINE
  8
0
 10
66.675
 20
54.7688
 11
66.675
 21
73.8187
  0
LINE
  8
0
 10
47.625
 20
71.4375
 11
28.575
 21
71.4375
  0
LINE
  8
0
 10
28.575
 20
71.4375
 11
28.575
 21
52.3875
  0
LINE
  8
0
 10
28.575
 20
52.3875
 11
47.625
 21
52.3875
  0
LINE
  8
0
 10
47.625
 20
52.3875
 11
47.625
 21
71.4375
  0
LINE
  8
0
 10
85.725
 20
71.4375
 11
66.675
 21
71.4375
  0
LINE
  8
0
 10
66.675
 20
71.4375
 11
66.675
 21
52.3875
  0
LINE
  8
0
 10
66.675
 20
52.3875
 11
85.725
 21
52.3875
  0
LINE
  8
0
 10
85.725
 20
52.3875
 11
85.725
 21
71.4375
  0
LINE
  8
0
 10
-9.52499
 20
47.625
 11
28.575
 21
47.625
  0
LINE
  8
0
 10
28.575
 20
47.625
 11
28.575
 21
66.675
  0
LINE
  8
0
 10
28.575
 20
66.675
 11
-9.52499
 21
66.675
  0
LINE
  8
0
 10
-9.52499
 20
66.675
 11
-9.52499
 21
47.625
  0
LINE
  8
0
 10
66.675
 20
54.7687
 11
47.625
 21
54.7687
  0
LINE
  8
0
 10
47.625
 20
54.7687
 11
47.625
 21
35.7188
  0
LINE
  8
0
 10
47.625
 20
35.7188
 11
66.675
 21
35.7188
  0
LINE
  8
0
 10
66.675
 20
35.7188
 11
66.675
 21
54.7687
  0
LINE
  8
0
 10
47.625
 20
14.2875
 11
47.625
 21
52.3875
  0
LINE
  8
0
 10
47.625
 20
52.3875
 11
28.575
 21
52.3875
  0
LINE
  8
0
 10
28.575
 20
52.3875
 11
28.575
 21
14.2875
  0
LINE
  8
0
 10
28.575
 20
14.2875
 11
47.625
 21
14.2875
  0
LINE
  8
0
 10
85.725
 20
14.2875
 11
85.725
 21
52.3875
  0
LINE
  8
0
 10
85.725
 20
52.3875
 11
66.675
 21
52.3875
  0
LINE
  8
0
 10
66.675
 20
52.3875
 11
66.675
 21
14.2875
  0
LINE
  8
0
 10
66.675
 20
14.2875
 11
85.725
 21
14.2875
  0
LINE
  8
0
 10
-9.52499
 20
28.575
 11
28.575
 21
28.575
  0
LINE
  8
0
 10
28.575
 20
28.575
 11
28.575
 21
47.625
  0
LINE
  8
0
 10
28.575
 20
47.625
 11
-9.52499
 21
47.625
  0
LINE
  8
0
 10
-9.52499
 20
47.625
 11
-9.52499
 21
28.575
  0
LINE
  8
0
 10
123.825
 20
78.5812
 11
104.775
 21
78.5812
  0
LINE
  8
0
 10
104.775
 20
78.5812
 11
104.775
 21
88.1062
  0
LINE
  8
0
 10
104.775
 20
88.1062
 11
85.725
 21
88.1062
  0
LINE
  8
0
 10
85.725
 20
88.1062
 11
85.725
 21
11.9063
  0
LINE
  8
0
 10
85.725
 20
11.9063
 11
83.8106
 21
13.0116
  0
LINE
  8
0
 10
83.8106
 20
13.0116
 11
74.2856
 21
-3.48613
  0
LINE
  8
0
 10
74.2856
 20
-3.48613
 11
90.7834
 21
-13.0111
  0
LINE
  8
0
 10
90.7834
 20
-13.0111
 11
100.308
 21
3.48663
  0
LINE
  8
0
 10
100.308
 20
3.48663
 11
85.7252
 21
11.9062
  0
LINE
  8
0
 10
85.7252
 20
11.9062
 11
104.775
 21
11.9062
  0
LINE
  8
0
 10
104.775
 20
11.9062
 11
104.775
 21
21.4312
  0
LINE
  8
0
 10
104.775
 20
21.4312
 11
123.825
 21
21.4312
  0
LINE
  8
0
 10
123.825
 20
21.4312
 11
123.825
 21
78.5812
  0
LINE
  8
0
 10
66.675
 20
35.7187
 11
47.625
 21
35.7187
  0
LINE
  8
0
 10
47.625
 20
35.7187
 11
47.625
 21
16.6687
  0
LINE
  8
0
 10
47.625
 20
16.6687
 11
66.675
 21
16.6687
  0
LINE
  8
0
 10
66.675
 20
16.6687
 11
66.675
 21
35.7187
  0
LINE
  8
0
 10
28.575
 20
28.575
 11
-9.52499
 21
28.575
  0
LINE
  8
0
 10
-9.52499
 20
28.575
 11
-9.52499
 21
-9.52499
  0
LINE
  8
0
 10
-9.52499
 20
-9.52499
 11
28.575
 21
-9.52499
  0
LINE
  8
0
 10
28.575
 20
-9.52499
 11
28.575
 21
28.575
  0
LINE
  8
0
 10
126.331
 20
10.4596
 11
109.834
 21
19.9846
  0
LINE
  8
0
 10
109.834
 20
19.9846
 11
100.309
 21
3.4868
  0
LINE
  8
0
 10
100.309
 20
3.4868
 11
116.806
 21
-6.03818
  0
LINE
  8
0
 10
116.806
 20
-6.03818
 11
126.331
 21
10.4596
  0
LINE
  8
0
 10
70.485
 20
14.2875
 11
51.435
 21
14.2875
  0
LINE
  8
0
 10
51.435
 20
14.2875
 11
51.435
 21
-4.76248
  0
LINE
  8
0
 10
51.435
 20
-4.76248
 11
70.485
 21
-4.76248
  0
LINE
  8
0
 10
70.485
 20
-4.76248
 11
70.485
 21
14.2875
  0
LINE
  8
0
 10
47.625
 20
14.2875
 11
28.575
 21
14.2875
  0
LINE
  8
0
 10
28.575
 20
14.2875
 11
28.575
 21
-4.76248
  0
LINE
  8
0
 10
28.575
 20
-4.76248
 11
47.625
 21
-4.76248
  0
LINE
  8
0
 10
47.625
 20
-4.76248
 11
47.625
 21
14.2875
  0
LINE
  8
0
 10
142.829
 20
0.934464
 11
126.332
 21
10.4595
  0
LINE
  8
0
 10
126.332
 20
10.4595
 11
107.282
 21
-22.5361
  0
LINE
  8
0
 10
107.282
 20
-22.5361
 11
123.779
 21
-32.0611
  0
LINE
  8
0
 10
123.779
 20
-32.0611
 11
142.829
 21
0.934464
  0
LINE
  8
0
 10
116.806
 20
-6.03841
 11
100.309
 21
3.48657
  0
LINE
  8
0
 10
100.309
 20
3.48657
 11
90.7836
 21
-13.0112
  0
LINE
  8
0
 10
90.7836
 20
-13.0112
 11
107.281
 21
-22.5362
  0
LINE
  8
0
 10
107.281
 20
-22.5362
 11
116.806
 21
-6.03841
  0
ENDSEC
  0
SECTION
  2
OBJECTS
  0
DICTIONARY
  0
ENDSEC
  0
EOF
