  0
SECTION
  2
BLOCKS
  0
ENDSEC
  0
SECTION
  2
ENTITIES
  0
LINE
  8
0
 10
64.15
 20
90.3438
 11
50.15
 21
90.3438
  0
LINE
  8
0
 10
50.15
 20
90.3438
 11
50.15
 21
76.3438
  0
LINE
  8
0
 10
50.15
 20
76.3438
 11
64.15
 21
76.3438
  0
LINE
  8
0
 10
64.15
 20
76.3438
 11
64.15
 21
90.3438
  0
LINE
  8
0
 10
45.1
 20
87.9625
 11
31.1
 21
87.9625
  0
LINE
  8
0
 10
31.1
 20
87.9625
 11
31.1
 21
73.9625
  0
LINE
  8
0
 10
31.1
 20
73.9625
 11
45.1
 21
73.9625
  0
LINE
  8
0
 10
45.1
 20
73.9625
 11
45.1
 21
87.9625
  0
LINE
  8
0
 10
83.2
 20
87.9625
 11
69.2
 21
87.9625
  0
LINE
  8
0
 10
69.2
 20
87.9625
 11
69.2
 21
73.9625
  0
LINE
  8
0
 10
69.2
 20
73.9625
 11
83.2
 21
73.9625
  0
LINE
  8
0
 10
83.2
 20
73.9625
 11
83.2
 21
87.9625
  0
LINE
  8
0
 10
102.25
 20
85.5812
 11
88.25
 21
85.5812
  0
LINE
  8
0
 10
88.25
 20
85.5812
 11
88.25
 21
71.5812
  0
LINE
  8
0
 10
88.25
 20
71.5812
 11
102.25
 21
71.5812
  0
LINE
  8
0
 10
102.25
 20
71.5812
 11
102.25
 21
85.5812
  0
LINE
  8
0
 10
7
 20
83.2
 11
-7
 21
83.2
  0
LINE
  8
0
 10
-7
 20
83.2
 11
-7
 21
69.2
  0
LINE
  8
0
 10
-7
 20
69.2
 11
7
 21
69.2
  0
LINE
  8
0
 10
7
 20
69.2
 11
7
 21
83.2
  0
LINE
  8
0
 10
26.05
 20
83.2
 11
12.05
 21
83.2
  0
LINE
  8
0
 10
12.05
 20
83.2
 11
12.05
 21
69.2
  0
LINE
  8
0
 10
12.05
 20
69.2
 11
26.05
 21
69.2
  0
LINE
  8
0
 10
26.05
 20
69.2
 11
26.05
 21
83.2
  0
LINE
  8
0
 10
121.3
 20
76.0562
 11
107.3
 21
76.0562
  0
LINE
  8
0
 10
107.3
 20
76.0562
 11
107.3
 21
62.0562
  0
LINE
  8
0
 10
107.3
 20
62.0562
 11
121.3
 21
62.0562
  0
LINE
  8
0
 10
121.3
 20
62.0562
 11
121.3
 21
76.0562
  0
LINE
  8
0
 10
64.15
 20
71.2937
 11
50.15
 21
71.2937
  0
LINE
  8
0
 10
50.15
 20
71.2937
 11
50.15
 21
57.2937
  0
LINE
  8
0
 10
50.15
 20
57.2937
 11
64.15
 21
57.2937
  0
LINE
  8
0
 10
64.15
 20
57.2937
 11
64.15
 21
71.2937
  0
LINE
  8
0
 10
45.1
 20
68.9125
 11
31.1
 21
68.9125
  0
LINE
  8
0
 10
31.1
 20
68.9125
 11
31.1
 21
54.9125
  0
LINE
  8
0
 10
31.1
 20
54.9125
 11
45.1
 21
54.9125
  0
LINE
  8
0
 10
45.1
 20
54.9125
 11
45.1
 21
68.9125
  0
LINE
  8
0
 10
83.2
 20
68.9125
 11
69.2
 21
68.9125
  0
LINE
  8
0
 10
69.2
 20
68.9125
 11
69.2
 21
54.9125
  0
LINE
  8
0
 10
69.2
 20
54.9125
 11
83.2
 21
54.9125
  0
LINE
  8
0
 10
83.2
 20
54.9125
 11
83.2
 21
68.9125
  0
LINE
  8
0
 10
102.25
 20
66.5312
 11
88.25
 21
66.5312
  0
LINE
  8
0
 10
88.25
 20
66.5312
 11
88.25
 21
52.5312
  0
LINE
  8
0
 10
88.25
 20
52.5312
 11
102.25
 21
52.5312
  0
LINE
  8
0
 10
102.25
 20
52.5312
 11
102.25
 21
66.5312
  0
LINE
  8
0
 10
7
 20
64.15
 11
-7
 21
64.15
  0
LINE
  8
0
 10
-7
 20
64.15
 11
-7
 21
50.15
  0
LINE
  8
0
 10
-7
 20
50.15
 11
7
 21
50.15
  0
LINE
  8
0
 10
7
 20
50.15
 11
7
 21
64.15
  0
LINE
  8
0
 10
26.05
 20
64.15
 11
12.05
 21
64.15
  0
LINE
  8
0
 10
12.05
 20
64.15
 11
12.05
 21
50.15
  0
LINE
  8
0
 10
12.05
 20
50.15
 11
26.05
 21
50.15
  0
LINE
  8
0
 10
26.05
 20
50.15
 11
26.05
 21
64.15
  0
LINE
  8
0
 10
121.3
 20
57.0062
 11
107.3
 21
57.0062
  0
LINE
  8
0
 10
107.3
 20
57.0062
 11
107.3
 21
43.0062
  0
LINE
  8
0
 10
107.3
 20
43.0062
 11
121.3
 21
43.0062
  0
LINE
  8
0
 10
121.3
 20
43.0062
 11
121.3
 21
57.0062
  0
LINE
  8
0
 10
64.15
 20
52.2437
 11
50.15
 21
52.2437
  0
LINE
  8
0
 10
50.15
 20
52.2437
 11
50.15
 21
38.2437
  0
LINE
  8
0
 10
50.15
 20
38.2437
 11
64.15
 21
38.2437
  0
LINE
  8
0
 10
64.15
 20
38.2437
 11
64.15
 21
52.2437
  0
LINE
  8
0
 10
83.2
 20
49.8625
 11
69.2
 21
49.8625
  0
LINE
  8
0
 10
69.2
 20
49.8625
 11
69.2
 21
35.8625
  0
LINE
  8
0
 10
69.2
 20
35.8625
 11
83.2
 21
35.8625
  0
LINE
  8
0
 10
83.2
 20
35.8625
 11
83.2
 21
49.8625
  0
LINE
  8
0
 10
45.1
 20
49.8625
 11
31.1
 21
49.8625
  0
LINE
  8
0
 10
31.1
 20
49.8625
 11
31.1
 21
35.8625
  0
LINE
  8
0
 10
31.1
 20
35.8625
 11
45.1
 21
35.8625
  0
LINE
  8
0
 10
45.1
 20
35.8625
 11
45.1
 21
49.8625
  0
LINE
  8
0
 10
102.25
 20
47.4812
 11
88.25
 21
47.4812
  0
LINE
  8
0
 10
88.25
 20
47.4812
 11
88.25
 21
33.4812
  0
LINE
  8
0
 10
88.25
 20
33.4812
 11
102.25
 21
33.4812
  0
LINE
  8
0
 10
102.25
 20
33.4812
 11
102.25
 21
47.4812
  0
LINE
  8
0
 10
7
 20
45.1
 11
-7
 21
45.1
  0
LINE
  8
0
 10
-7
 20
45.1
 11
-7
 21
31.1
  0
LINE
  8
0
 10
-7
 20
31.1
 11
7
 21
31.1
  0
LINE
  8
0
 10
7
 20
31.1
 11
7
 21
45.1
  0
LINE
  8
0
 10
26.05
 20
45.1
 11
12.05
 21
45.1
  0
LINE
  8
0
 10
12.05
 20
45.1
 11
12.05
 21
31.1
  0
LINE
  8
0
 10
12.05
 20
31.1
 11
26.05
 21
31.1
  0
LINE
  8
0
 10
26.05
 20
31.1
 11
26.05
 21
45.1
  0
LINE
  8
0
 10
121.3
 20
37.9562
 11
107.3
 21
37.9562
  0
LINE
  8
0
 10
107.3
 20
37.9562
 11
107.3
 21
23.9562
  0
LINE
  8
0
 10
107.3
 20
23.9562
 11
121.3
 21
23.9562
  0
LINE
  8
0
 10
121.3
 20
23.9562
 11
121.3
 21
37.9562
  0
LINE
  8
0
 10
64.15
 20
33.1937
 11
50.15
 21
33.1937
  0
LINE
  8
0
 10
50.15
 20
33.1937
 11
50.15
 21
19.1937
  0
LINE
  8
0
 10
50.15
 20
19.1937
 11
64.15
 21
19.1937
  0
LINE
  8
0
 10
64.15
 20
19.1937
 11
64.15
 21
33.1937
  0
LINE
  8
0
 10
83.2
 20
30.8125
 11
69.2
 21
30.8125
  0
LINE
  8
0
 10
69.2
 20
30.8125
 11
69.2
 21
16.8125
  0
LINE
  8
0
 10
69.2
 20
16.8125
 11
83.2
 21
16.8125
  0
LINE
  8
0
 10
83.2
 20
16.8125
 11
83.2
 21
30.8125
  0
LINE
  8
0
 10
45.1
 20
30.8125
 11
31.1
 21
30.8125
  0
LINE
  8
0
 10
31.1
 20
30.8125
 11
31.1
 21
16.8125
  0
LINE
  8
0
 10
31.1
 20
16.8125
 11
45.1
 21
16.8125
  0
LINE
  8
0
 10
45.1
 20
16.8125
 11
45.1
 21
30.8125
  0
LINE
  8
0
 10
102.25
 20
28.4312
 11
88.25
 21
28.4312
  0
LINE
  8
0
 10
88.25
 20
28.4312
 11
88.25
 21
14.4312
  0
LINE
  8
0
 10
88.25
 20
14.4312
 11
102.25
 21
14.4312
  0
LINE
  8
0
 10
102.25
 20
14.4312
 11
102.25
 21
28.4312
  0
LINE
  8
0
 10
26.05
 20
26.05
 11
12.05
 21
26.05
  0
LINE
  8
0
 10
12.05
 20
26.05
 11
12.05
 21
12.05
  0
LINE
  8
0
 10
12.05
 20
12.05
 11
26.05
 21
12.05
  0
LINE
  8
0
 10
26.05
 20
12.05
 11
26.05
 21
26.05
  0
LINE
  8
0
 10
7
 20
26.05
 11
-7
 21
26.05
  0
LINE
  8
0
 10
-7
 20
26.05
 11
-7
 21
12.05
  0
LINE
  8
0
 10
-7
 20
12.05
 11
7
 21
12.05
  0
LINE
  8
0
 10
7
 20
12.05
 11
7
 21
26.05
  0
LINE
  8
0
 10
122.882
 20
9.53537
 11
110.758
 21
16.5354
  0
LINE
  8
0
 10
110.758
 20
16.5354
 11
103.758
 21
4.41101
  0
LINE
  8
0
 10
103.758
 20
4.41101
 11
115.882
 21
-2.58897
  0
LINE
  8
0
 10
115.882
 20
-2.58897
 11
122.882
 21
9.53537
  0
LINE
  8
0
 10
67.96
 20
11.7625
 11
53.96
 21
11.7625
  0
LINE
  8
0
 10
53.96
 20
11.7625
 11
53.96
 21
-2.23749
  0
LINE
  8
0
 10
53.96
 20
-2.23749
 11
67.96
 21
-2.23749
  0
LINE
  8
0
 10
67.96
 20
-2.23749
 11
67.96
 21
11.7625
  0
LINE
  8
0
 10
45.1
 20
11.7625
 11
31.1
 21
11.7625
  0
LINE
  8
0
 10
31.1
 20
11.7625
 11
31.1
 21
-2.23749
  0
LINE
  8
0
 10
31.1
 20
-2.23749
 11
45.1
 21
-2.23749
  0
LINE
  8
0
 10
45.1
 20
-2.23749
 11
45.1
 21
11.7625
  0
LINE
  8
0
 10
96.8592
 20
2.56242
 11
84.7348
 21
9.56242
  0
LINE
  8
0
 10
84.7348
 20
9.56242
 11
77.7348
 21
-2.56192
  0
LINE
  8
0
 10
77.7348
 20
-2.56192
 11
89.8592
 21
-9.56192
  0
LINE
  8
0
 10
89.8592
 20
-9.56192
 11
96.8592
 21
2.56242
  0
LINE
  8
0
 10
7
 20
7
 11
-7
 21
7
  0
LINE
  8
0
 10
-7
 20
7
 11
-7
 21
-7
  0
LINE
  8
0
 10
-7
 20
-7
 11
7
 21
-7
  0
LINE
  8
0
 10
7
 20
-7
 11
7
 21
7
  0
LINE
  8
0
 10
26.05
 20
7
 11
12.05
 21
7
  0
LINE
  8
0
 10
12.05
 20
7
 11
12.05
 21
-7
  0
LINE
  8
0
 10
12.05
 20
-7
 11
26.05
 21
-7
  0
LINE
  8
0
 10
26.05
 20
-7
 11
26.05
 21
7
  0
LINE
  8
0
 10
125.582
 20
-20.9487
 11
122.785
 21
-19.3336
  0
LINE
  8
0
 10
122.785
 20
-19.3336
 11
123.547
 21
-18.013
  0
LINE
  8
0
 10
123.547
 20
-18.013
 11
127.618
 21
-20.363
  0
LINE
  8
0
 10
127.618
 20
-20.363
 11
134.618
 21
-8.23862
  0
LINE
  8
0
 10
134.618
 20
-8.23862
 11
130.547
 21
-5.88861
  0
LINE
  8
0
 10
130.547
 20
-5.88861
 11
131.31
 21
-4.56793
  0
LINE
  8
0
 10
131.31
 20
-4.56793
 11
134.107
 21
-6.18294
  0
LINE
  8
0
 10
134.107
 20
-6.18294
 11
137.482
 21
-0.337265
  0
LINE
  8
0
 10
137.482
 20
-0.337265
 11
134.685
 21
1.27773
  0
LINE
  8
0
 10
134.685
 20
1.27773
 11
135.097
 21
1.9922
  0
LINE
  8
0
 10
135.097
 20
1.9922
 11
132.685
 21
3.38469
  0
LINE
  8
0
 10
132.685
 20
3.38469
 11
132.273
 21
2.67023
  0
LINE
  8
0
 10
132.273
 20
2.67023
 11
126.83
 21
5.81273
  0
LINE
  8
0
 10
126.83
 20
5.81273
 11
125.967
 21
4.31883
  0
LINE
  8
0
 10
125.967
 20
4.31883
 11
124.928
 21
4.91882
  0
LINE
  8
0
 10
124.928
 20
4.91882
 11
123.278
 21
2.06094
  0
LINE
  8
0
 10
123.278
 20
2.06094
 11
124.317
 21
1.46095
  0
LINE
  8
0
 10
124.317
 20
1.46095
 11
123.455
 21
-0.0329285
  0
LINE
  8
0
 10
123.455
 20
-0.0329285
 11
127.326
 21
-2.26793
  0
LINE
  8
0
 10
127.326
 20
-2.26793
 11
126.564
 21
-3.58861
  0
LINE
  8
0
 10
126.564
 20
-3.58861
 11
122.493
 21
-1.23862
  0
LINE
  8
0
 10
122.493
 20
-1.23862
 11
115.493
 21
-13.363
  0
LINE
  8
0
 10
115.493
 20
-13.363
 11
119.564
 21
-15.713
  0
LINE
  8
0
 10
119.564
 20
-15.713
 11
118.801
 21
-17.0336
  0
LINE
  8
0
 10
118.801
 20
-17.0336
 11
114.93
 21
-14.7986
  0
LINE
  8
0
 10
114.93
 20
-14.7986
 11
114.067
 21
-16.2926
  0
LINE
  8
0
 10
114.067
 20
-16.2926
 11
113.028
 21
-15.6926
  0
LINE
  8
0
 10
113.028
 20
-15.6926
 11
111.378
 21
-18.5504
  0
LINE
  8
0
 10
111.378
 20
-18.5504
 11
112.417
 21
-19.1504
  0
LINE
  8
0
 10
112.417
 20
-19.1504
 11
111.555
 21
-20.6443
  0
LINE
  8
0
 10
111.555
 20
-20.6443
 11
116.998
 21
-23.7868
  0
LINE
  8
0
 10
116.998
 20
-23.7868
 11
116.585
 21
-24.5013
  0
LINE
  8
0
 10
116.585
 20
-24.5013
 11
118.997
 21
-25.8938
  0
LINE
  8
0
 10
118.997
 20
-25.8938
 11
119.41
 21
-25.1793
  0
LINE
  8
0
 10
119.41
 20
-25.1793
 11
122.207
 21
-26.7943
  0
LINE
  8
0
 10
122.207
 20
-26.7943
 11
125.582
 21
-20.9487
  0
LINE
  8
0
 10
113.357
 20
-6.96262
 11
101.233
 21
0.0373688
  0
LINE
  8
0
 10
101.233
 20
0.0373688
 11
94.2328
 21
-12.087
  0
LINE
  8
0
 10
94.2328
 20
-12.087
 11
106.357
 21
-19.087
  0
LINE
  8
0
 10
106.357
 20
-19.087
 11
113.357
 21
-6.96262
  0
ENDSEC
  0
SECTION
  2
OBJECTS
  0
DICTIONARY
  0
ENDSEC
  0
EOF
