999
"DXF R12 Output" (www.mydxf.blogspot.com)
 0 
SECTION
 2 
HEADER
 9 
$ACADVER
 1 
AC1009
 9 
$EXTMIN
 10 
 0 
 20 
 0 
 9 
$EXTMAX
 10 
 8.5 
 20 
 11 
 0 
ENDSEC
 0 
SECTION
 2 
ENTITIES
0
LINE
8
Layer 1
10
0.793749
20
297.794000
11
-0.793749
21
296.206000
0
LINE
8
Layer 1
10
0.000000
20
298.323000
11
0.000000
21
295.677000
0
LINE
8
Layer 1
10
2.116660
20
295.942000
11
1.058330
21
294.883670
0
LINE
8
Layer 1
10
1.587500
20
296.471000
11
0.529170
21
295.412670
0
LINE
8
Layer 1
10
1.058330
20
297.000000
11
0.000000
21
295.941670
0
LINE
8
0
10
124.457000
20
23.982100
11
124.457000
21
23.757200
0
LINE
8
0
10
124.457000
20
23.757200
11
124.560000
21
23.087800
0
LINE
8
0
10
124.560000
20
23.087800
11
124.845000
21
22.130000
0
LINE
8
0
10
124.845000
20
22.130000
11
125.267000
21
21.222500
0
LINE
8
0
10
125.267000
20
21.222500
11
125.635000
21
20.653600
0
LINE
8
0
10
125.635000
20
20.653600
11
125.784000
21
20.484300
0
LINE
8
0
10
125.784000
20
20.484300
11
141.863000
21
2.363020
0
LINE
8
0
10
141.863000
20
2.363020
11
141.999000
21
2.209560
0
LINE
8
0
10
141.999000
20
2.209560
11
142.298000
21
1.646000
0
LINE
8
0
10
142.298000
20
1.646000
11
142.505000
21
0.799331
0
LINE
8
0
10
142.505000
20
0.799331
11
142.472000
21
-0.071147
0
LINE
8
0
10
142.472000
20
-0.071147
11
142.291000
21
-0.684979
0
LINE
8
0
10
142.291000
20
-0.684979
11
142.188000
21
-0.862250
0
LINE
8
0
10
142.188000
20
-0.862250
11
124.949000
21
-30.641100
0
LINE
8
0
10
124.949000
20
-30.641100
11
124.851000
21
-30.807800
0
LINE
8
0
10
124.851000
20
-30.807800
11
124.422000
21
-31.233700
0
LINE
8
0
10
124.422000
20
-31.233700
11
123.732000
21
-31.569800
0
LINE
8
0
10
123.732000
20
-31.569800
11
122.966000
21
-31.622700
0
LINE
8
0
10
122.966000
20
-31.622700
11
122.381000
21
-31.469200
0
LINE
8
0
10
122.381000
20
-31.469200
11
122.215000
21
-31.371300
0
LINE
8
0
10
122.215000
20
-31.371300
11
86.820800
21
-10.953400
0
LINE
8
0
10
86.820800
20
-10.953400
11
86.622600
21
-10.839700
0
LINE
8
0
10
86.622600
20
-10.839700
11
85.990000
21
-10.561900
0
LINE
8
0
10
85.990000
20
-10.561900
11
85.008700
21
-10.247000
0
LINE
8
0
10
85.008700
20
-10.247000
11
84.000100
21
-10.032700
0
LINE
8
0
10
84.000100
20
-10.032700
11
83.315100
21
-9.953320
0
LINE
8
0
10
83.315100
20
-9.953320
11
83.087800
21
-9.953320
0
LINE
8
0
10
83.087800
20
-9.953320
11
83.087800
21
-9.953320
0
LINE
8
0
10
83.087800
20
-9.953320
11
-7.624120
21
-9.953320
0
LINE
8
0
10
-7.624120
20
-9.953320
11
-7.818430
21
-9.953320
0
LINE
8
0
10
-7.818430
20
-9.953320
11
-8.401360
21
-9.794570
0
LINE
8
0
10
-8.401360
20
-9.794570
11
-9.036650
21
-9.365950
0
LINE
8
0
10
-9.036650
20
-9.365950
11
-9.466570
21
-8.730950
0
LINE
8
0
10
-9.466570
20
-8.730950
11
-9.623680
21
-8.146220
0
LINE
8
0
10
-9.623680
20
-8.146220
11
-9.623680
21
-7.955720
0
LINE
8
0
10
-9.623680
20
-7.955720
11
-9.623680
21
84.146200
0
LINE
8
0
10
-9.623680
20
84.146200
11
-9.623680
21
84.350100
0
LINE
8
0
10
-9.623680
20
84.350100
11
-9.470700
21
84.959200
0
LINE
8
0
10
-9.470700
20
84.959200
11
-9.051810
21
85.688100
0
LINE
8
0
10
-9.051810
20
85.688100
11
-8.430300
21
86.257000
0
LINE
8
0
10
-8.430300
20
86.257000
11
-7.870820
21
86.541200
0
LINE
8
0
10
-7.870820
20
86.541200
11
-7.672380
21
86.585100
0
LINE
8
0
10
-7.672380
20
86.585100
11
45.448200
21
98.527000
0
LINE
8
0
10
45.448200
20
98.527000
11
45.715700
21
98.588100
0
LINE
8
0
10
45.715700
20
98.588100
11
47.413000
21
98.837100
0
LINE
8
0
10
47.413000
20
98.837100
11
48.901600
21
98.965200
0
LINE
8
0
10
48.901600
20
98.965200
11
49.399000
21
98.965200
0
LINE
8
0
10
49.399000
20
98.965200
11
84.228700
21
98.965200
0
LINE
8
0
10
84.228700
20
98.965200
11
84.454900
21
98.965200
0
LINE
8
0
10
84.454900
20
98.965200
11
85.133000
21
98.875000
0
LINE
8
0
10
85.133000
20
98.875000
11
86.121000
21
98.626000
0
LINE
8
0
10
86.121000
20
98.626000
11
87.069000
21
98.260100
0
LINE
8
0
10
87.069000
20
98.260100
11
87.676700
21
97.942000
0
LINE
8
0
10
87.676700
20
97.942000
11
87.860900
21
97.811100
0
LINE
8
0
10
87.860900
20
97.811100
11
96.779200
21
91.501000
0
LINE
8
0
10
96.779700
20
91.501000
11
96.962800
21
91.371100
0
LINE
8
0
10
96.962800
20
91.371100
11
97.570800
21
91.053100
0
LINE
8
0
10
97.570800
20
91.053100
11
98.520700
21
90.686100
0
LINE
8
0
10
98.520400
20
90.686100
11
99.506500
21
90.438200
0
LINE
8
0
10
99.506500
20
90.438200
11
100.186000
21
90.346100
0
LINE
8
0
10
100.187000
20
90.346100
11
100.414000
21
90.346100
0
LINE
8
0
10
100.414000
20
90.346100
11
114.412000
21
90.346100
0
LINE
8
0
10
114.412000
20
90.346100
11
114.627000
21
90.346100
0
LINE
8
0
10
114.627000
20
90.346100
11
115.276000
21
90.215200
0
LINE
8
0
10
115.276000
20
90.215200
11
116.153000
21
89.860100
0
LINE
8
0
10
116.153000
20
89.860100
11
116.938000
21
89.332000
0
LINE
8
0
10
116.938000
20
89.332000
11
117.409000
21
88.867100
0
LINE
8
0
10
117.409000
20
88.867100
11
117.531000
21
88.687200
0
LINE
8
0
10
117.531000
20
88.687200
11
123.341000
21
80.066000
0
LINE
8
0
10
123.341000
20
80.066000
11
123.466000
21
79.878200
0
LINE
8
0
10
123.466000
20
79.878200
11
123.773000
21
79.265100
0
LINE
8
0
10
123.773000
20
79.265100
11
124.129000
21
78.307100
0
LINE
8
0
10
124.129000
20
78.307100
11
124.370000
21
77.315100
0
LINE
8
0
10
124.370000
20
77.315100
11
124.458000
21
76.635200
0
LINE
8
0
10
124.458000
20
76.635200
11
124.458000
21
76.407100
0
LINE
8
0
10
124.458000
20
76.407100
11
124.457000
21
23.939800
 0 
ENDSEC
 0 
EOF