999
"DXF R12 Output" (www.mydxf.blogspot.com)
 0 
SECTION
 2 
HEADER
 9 
$ACADVER
 1 
AC1009
 9 
$EXTMIN
 10 
 0 
 20 
 0 
 9 
$EXTMAX
 10 
 8.5 
 20 
 11 
 0 
ENDSEC
 0 
SECTION
 2 
ENTITIES
0
LINE
8
Layer 1
10
0.793749
20
297.794000
11
-0.793749
21
296.206000
0
LINE
8
Layer 1
10
0.000000
20
298.323000
11
0.000000
21
295.677000
0
LINE
8
Layer 1
10
2.116660
20
295.942000
11
1.058330
21
294.883670
0
LINE
8
Layer 1
10
1.587500
20
296.471000
11
0.529170
21
295.412670
0
LINE
8
Layer 1
10
1.058330
20
297.000000
11
0.000000
21
295.941670
0
LINE
8
0
10
110.975000
20
108.081000
11
111.141952
21
107.984956
0
LINE
8
0
10
111.142000
20
107.985000
11
111.724876
21
107.829954
0
LINE
8
0
10
111.725000
20
107.830000
11
112.490174
21
107.886092
0
LINE
8
0
10
112.490000
20
107.886000
11
113.176857
21
108.222814
0
LINE
8
0
10
124.457000
20
23.980800
11
124.457000
21
23.757500
0
LINE
8
0
10
124.457000
20
23.757500
11
124.560187
21
23.086518
0
LINE
8
0
10
124.560000
20
23.086500
11
124.844956
21
22.128710
0
LINE
8
0
10
124.845000
20
22.128700
11
125.267010
21
21.223032
0
LINE
8
0
10
125.267000
20
21.223100
11
125.635035
21
20.652659
0
LINE
8
0
10
125.635000
20
20.652600
11
125.783960
21
20.484854
0
LINE
8
0
10
125.784000
20
20.484900
11
141.863000
21
2.362000
0
LINE
8
0
10
141.863000
20
2.362010
11
141.998996
21
2.209081
0
LINE
8
0
10
141.999000
20
2.209080
11
142.297979
21
1.645518
0
LINE
8
0
10
142.298000
20
1.645520
11
142.504904
21
0.799384
0
LINE
8
0
10
142.505000
20
0.799384
11
142.471927
21
-0.070565
0
LINE
8
0
10
142.472000
20
-0.070565
11
142.291025
21
-0.684397
0
LINE
8
0
10
142.291000
20
-0.684397
11
142.188077
21
-0.861668
0
LINE
8
0
10
142.188000
20
-0.861668
11
124.949100
21
-30.640468
0
LINE
8
0
10
124.949000
20
-30.640500
11
124.850840
21
-30.807187
0
LINE
8
0
10
124.851000
20
-30.807200
11
124.422111
21
-31.233179
0
LINE
8
0
10
124.422000
20
-31.233200
11
123.731968
21
-31.569220
0
LINE
8
0
10
123.732000
20
-31.569200
11
122.966032
21
-31.622117
0
LINE
8
0
10
122.966000
20
-31.622100
11
122.381007
21
-31.468642
0
LINE
8
0
10
122.381000
20
-31.468600
11
122.215106
21
-31.370704
0
LINE
8
0
10
122.215000
20
-31.370700
11
86.820900
21
-10.952800
0
LINE
8
0
10
86.820800
20
-10.952900
11
86.622627
21
-10.839129
0
LINE
8
0
10
86.622600
20
-10.839100
11
85.989982
21
-10.561288
0
LINE
8
0
10
85.990000
20
-10.561300
11
85.008662
21
-10.246446
0
LINE
8
0
10
85.008700
20
-10.246400
11
84.000110
21
-10.032088
0
LINE
8
0
10
84.000100
20
-10.032100
11
83.315359
21
-9.952725
0
LINE
8
0
10
83.315300
20
-9.952740
11
83.087800
21
-9.952740
0
LINE
8
0
10
83.087800
20
-9.952740
11
83.087800
21
-9.952740
0
LINE
8
0
10
83.087800
20
-9.952740
11
-7.624160
21
-9.952740
0
LINE
8
0
10
-7.624160
20
-9.952740
11
-7.818470
21
-9.952740
0
LINE
8
0
10
-7.818470
20
-9.952740
11
-8.401378
21
-9.793990
0
LINE
8
0
10
-8.401380
20
-9.793990
11
-9.036654
21
-9.365366
0
LINE
8
0
10
-9.036650
20
-9.365370
11
-9.466597
21
-8.730371
0
LINE
8
0
10
-9.466600
20
-8.730370
11
-9.623696
21
-8.145642
0
LINE
8
0
10
-9.623700
20
-8.145640
11
-9.623700
21
-7.955140
0
LINE
8
0
10
-9.623700
20
-7.955140
11
-9.623700
21
84.145700
0
LINE
8
0
10
-9.623700
20
84.145700
11
-9.623700
21
84.349700
0
LINE
8
0
10
-9.623700
20
84.349700
11
-9.470739
21
84.958770
0
LINE
8
0
10
-9.470740
20
84.958700
11
-9.051818
21
85.687626
0
LINE
8
0
10
-9.051810
20
85.687700
11
-8.430315
21
86.256553
0
LINE
8
0
10
-8.430320
20
86.256500
11
-7.870833
21
86.540662
0
LINE
8
0
10
-7.870830
20
86.540700
11
-7.672401
21
86.584621
0
LINE
8
0
10
-7.672400
20
86.584600
11
45.448200
21
98.526600
0
LINE
8
0
10
45.448200
20
98.526500
11
45.715693
21
98.587619
0
LINE
8
0
10
45.715700
20
98.587700
11
47.413000
21
98.836673
0
LINE
8
0
10
47.413000
20
98.836600
11
48.901540
21
98.964658
0
LINE
8
0
10
48.901500
20
98.964700
11
49.399000
21
98.964700
0
LINE
8
0
10
49.399000
20
98.964700
11
84.228900
21
98.964700
0
LINE
8
0
10
84.228900
20
98.964700
11
84.454900
21
98.964700
0
LINE
8
0
10
84.454900
20
98.964700
11
85.133026
21
98.874477
0
LINE
8
0
10
85.133000
20
98.874500
11
86.120953
21
98.625527
0
LINE
8
0
10
86.121000
20
98.625500
11
87.069001
21
98.259582
0
LINE
8
0
10
87.069000
20
98.259600
11
87.676747
21
97.941571
0
LINE
8
0
10
87.676700
20
97.941600
11
87.861114
21
97.810631
0
LINE
8
0
10
87.861100
20
97.810600
11
96.779660
21
91.500560
0
LINE
8
0
10
96.779700
20
91.500500
11
96.962791
21
91.370590
0
LINE
8
0
10
96.962800
20
91.370600
11
97.570812
21
91.052571
0
LINE
8
0
10
97.570800
20
91.052600
11
98.520653
21
90.685623
0
LINE
8
0
10
98.520600
20
90.685600
11
99.506701
21
90.437686
0
LINE
8
0
10
99.506700
20
90.437700
11
100.186678
21
90.345625
0
LINE
8
0
10
100.187000
20
90.345600
11
100.414000
21
90.345600
0
LINE
8
0
10
100.414000
20
90.345600
11
114.412000
21
90.345600
0
LINE
8
0
10
114.412000
20
90.345600
11
114.627000
21
90.345600
0
LINE
8
0
10
114.627000
20
90.345600
11
115.275758
21
90.214631
0
LINE
8
0
10
115.276000
20
90.214700
11
116.153093
21
89.859630
0
LINE
8
0
10
116.153000
20
89.859600
11
116.938018
21
89.331492
0
LINE
8
0
10
116.938000
20
89.331500
11
117.408958
21
88.866628
0
LINE
8
0
10
117.409000
20
88.866600
11
117.530973
21
88.686684
0
LINE
8
0
10
117.531000
20
88.686700
11
123.340980
21
80.065530
0
LINE
8
0
10
123.341000
20
80.065500
11
123.466148
21
79.877646
0
LINE
8
0
10
123.466000
20
79.877700
11
123.772916
21
79.264661
0
LINE
8
0
10
123.773000
20
79.264600
11
124.129129
21
78.306545
0
LINE
8
0
10
124.129000
20
78.306600
11
124.369771
21
77.314678
0
LINE
8
0
10
124.370000
20
77.314700
11
124.458106
21
76.634722
0
LINE
8
0
10
124.458000
20
76.634700
11
124.458000
21
76.406600
0
LINE
8
0
10
124.458000
20
76.406600
11
124.456942
21
23.938200
 0 
ENDSEC
 0 
EOF