<?xml version="1.0" encoding="UTF-8" standalone="no"?>
<!-- Generator: Adobe Illustrator 24.1.1, SVG Export Plug-In . SVG Version: 6.00 Build 0)  -->

<svg
   version="1.1"
   id="レイヤー_1"
   x="0px"
   y="0px"
   viewBox="0 0 566.92914 755.90552"
   xml:space="preserve"
   sodipodi:docname="outline.svg"
   inkscape:version="1.2 (dc2aeda, 2022-05-15)"
   width="566.92914"
   height="755.90552"
   xmlns:inkscape="http://www.inkscape.org/namespaces/inkscape"
   xmlns:sodipodi="http://sodipodi.sourceforge.net/DTD/sodipodi-0.dtd"
   xmlns="http://www.w3.org/2000/svg"
   xmlns:svg="http://www.w3.org/2000/svg"><defs
   id="defs355">
	
	
	
	
	
	
	
	
	
	
	
	
	

		
		
		
		
		
		
		
		
		
		
		
		
		
		
		
		
		
		
		
		
		
		
		
		
		
		
		
		
		
		
		
		
		
	</defs><sodipodi:namedview
   id="namedview353"
   pagecolor="#ffffff"
   bordercolor="#000000"
   borderopacity="0.25"
   inkscape:showpageshadow="2"
   inkscape:pageopacity="0.0"
   inkscape:pagecheckerboard="0"
   inkscape:deskcolor="#d1d1d1"
   showgrid="false"
   inkscape:zoom="1.3959235"
   inkscape:cx="155.81083"
   inkscape:cy="632.91433"
   inkscape:window-width="1440"
   inkscape:window-height="847"
   inkscape:window-x="0"
   inkscape:window-y="25"
   inkscape:window-maximized="1"
   inkscape:current-layer="レイヤー_1" />
<style
   type="text/css"
   id="style2">
	.st0{fill:none;stroke:#000000;stroke-width:0.7087;stroke-linecap:round;stroke-linejoin:round;stroke-miterlimit:10;}
	.st1{fill:none;stroke:#000000;stroke-width:0.7087;}
	.st2{fill:none;stroke:#000000;stroke-width:0.7087;stroke-linejoin:round;stroke-miterlimit:10;}
</style>






<path
   class="st0"
   d="m 352.3897,687.56765 c 0,3.12 1.69,7.58 3.76,9.91 l 45.58,51.37 c 2.07,2.33 2.48,6.45 0.92,9.15 l -48.87,84.41 c -1.56,2.7 -5.05,3.63 -7.75,2.07 l -100.33,-57.88 c -2.7,-1.56 -7.46,-2.83 -10.58,-2.83 v 0 H -22.010296 c -3.12,0 -5.67,-2.55 -5.67,-5.67 V 517.01766 c 0,-3.12 2.49,-6.23 5.53,-6.91 l 150.579996,-33.85 c 3.04,-0.68 8.08,-1.24 11.2,-1.24 h 98.73 c 3.12,0 7.75,1.47 10.3,3.28 l 25.28,17.89 c 2.55,1.8 7.18,3.27 10.3,3.27 h 39.68 c 3.12,0 7.1,2.12 8.84,4.7 l 16.47,24.44 c 1.74,2.59 3.17,7.25 3.17,10.37 v 148.72999"
   id="path322" />

</svg>
