<?xml version="1.0" encoding="UTF-8" standalone="no"?>
<!-- Generator: Adobe Illustrator 24.1.1, SVG Export Plug-In . SVG Version: 6.00 Build 0)  -->

<svg
   version="1.1"
   id="レイヤー_1"
   x="0px"
   y="0px"
   viewBox="0 0 566.92914 755.90552"
   xml:space="preserve"
   sodipodi:docname="plate.svg"
   inkscape:version="1.2 (dc2aeda, 2022-05-15)"
   width="566.92914"
   height="755.90552"
   xmlns:inkscape="http://www.inkscape.org/namespaces/inkscape"
   xmlns:sodipodi="http://sodipodi.sourceforge.net/DTD/sodipodi-0.dtd"
   xmlns="http://www.w3.org/2000/svg"
   xmlns:svg="http://www.w3.org/2000/svg"><defs
   id="defs355">
	
	
	
	
	
	
	
	
	
	
	
	
	

		
		
		
		
		
		
		
		
		
		
		
		
		
		
		
		
		
		
		
		
		
		
		
		
		
		
		
		
		
		
		
		
		
	</defs><sodipodi:namedview
   id="namedview353"
   pagecolor="#ffffff"
   bordercolor="#000000"
   borderopacity="0.25"
   inkscape:showpageshadow="2"
   inkscape:pageopacity="0.0"
   inkscape:pagecheckerboard="0"
   inkscape:deskcolor="#d1d1d1"
   showgrid="false"
   inkscape:zoom="1.0990442"
   inkscape:cx="181.52136"
   inkscape:cy="737.45894"
   inkscape:window-width="1440"
   inkscape:window-height="847"
   inkscape:window-x="0"
   inkscape:window-y="25"
   inkscape:window-maximized="1"
   inkscape:current-layer="レイヤー_1" />
<style
   type="text/css"
   id="style2">
	.st0{fill:none;stroke:#000000;stroke-width:0.7087;stroke-linecap:round;stroke-linejoin:round;stroke-miterlimit:10;}
	.st1{fill:none;stroke:#000000;stroke-width:0.7087;}
	.st2{fill:none;stroke:#000000;stroke-width:0.7087;stroke-linejoin:round;stroke-miterlimit:10;}
</style>






<line
   class="st0"
   x1="181.85971"
   y1="722.54773"
   x2="181.85971"
   y2="715.82764"
   id="line236" /><polyline
   class="st0"
   points="134.16,1054.66 173.88,1054.66 173.88,1094.38 134.16,1094.38 134.16,1054.66   "
   id="polyline238"
   transform="translate(-46.020296,-386.1123)" /><polyline
   class="st0"
   points="134.16,1000.66 173.88,1000.66 173.88,1040.38 134.16,1040.38 134.16,1000.66   "
   id="polyline240"
   transform="translate(-46.020296,-386.1123)" /><polyline
   class="st0"
   points="65.88,1068.16 26.16,1068.16 26.16,1107.88 65.88,1107.88 65.88,1068.16   "
   id="polyline242"
   transform="translate(-46.020296,-386.1123)" /><polyline
   class="st0"
   points="65.88,906.16 26.16,906.16 26.16,945.88 65.88,945.88 65.88,906.16   "
   id="polyline244"
   transform="translate(-46.020296,-386.1123)" /><polyline
   class="st0"
   points="296.16,899.44 335.88,899.44 335.88,939.1 296.16,939.1 296.16,899.44   "
   id="polyline246"
   transform="translate(-46.020296,-386.1123)" /><polyline
   class="st0"
   points="65.88,960.16 26.16,960.16 26.16,999.88 65.88,999.88 65.88,960.16   "
   id="polyline248"
   transform="translate(-46.020296,-386.1123)" /><polyline
   class="st0"
   points="65.88,1014.16 26.16,1014.16 26.16,1053.88 65.88,1053.88 65.88,1014.16   "
   id="polyline250"
   transform="translate(-46.020296,-386.1123)" /><polyline
   class="st0"
   points="80.16,906.16 119.88,906.16 119.88,945.88 80.16,945.88 80.16,906.16   "
   id="polyline252"
   transform="translate(-46.020296,-386.1123)" /><polyline
   class="st0"
   points="80.16,960.16 119.88,960.16 119.88,999.88 80.16,999.88 80.16,960.16   "
   id="polyline254"
   transform="translate(-46.020296,-386.1123)" /><polyline
   class="st0"
   points="80.16,1014.16 119.88,1014.16 119.88,1053.88 80.16,1053.88 80.16,1014.16   "
   id="polyline256"
   transform="translate(-46.020296,-386.1123)" /><polyline
   class="st0"
   points="80.16,1068.16 119.88,1068.16 119.88,1107.88 80.16,1107.88 80.16,1068.16   "
   id="polyline258"
   transform="translate(-46.020296,-386.1123)" /><polyline
   class="st0"
   points="173.88,892.66 134.16,892.66 134.16,932.38 173.88,932.38 173.88,892.66   "
   id="polyline260"
   transform="translate(-46.020296,-386.1123)" /><polyline
   class="st0"
   points="173.88,946.66 134.16,946.66 134.16,986.38 173.88,986.38 173.88,946.66   "
   id="polyline262"
   transform="translate(-46.020296,-386.1123)" /><polyline
   class="st0"
   points="188.16,885.94 227.88,885.94 227.88,925.6 188.16,925.6 188.16,885.94   "
   id="polyline264"
   transform="translate(-46.020296,-386.1123)" /><polyline
   class="st0"
   points="188.16,939.94 227.88,939.94 227.88,979.6 188.16,979.6 188.16,939.94   "
   id="polyline266"
   transform="translate(-46.020296,-386.1123)" /><polyline
   class="st0"
   points="188.16,993.94 227.88,993.94 227.88,1033.6 188.16,1033.6 188.16,993.94   "
   id="polyline268"
   transform="translate(-46.020296,-386.1123)" /><polyline
   class="st0"
   points="188.16,1047.94 227.88,1047.94 227.88,1087.6 188.16,1087.6 188.16,1047.94   "
   id="polyline270"
   transform="translate(-46.020296,-386.1123)" /><polyline
   class="st0"
   points="242.16,892.66 281.88,892.66 281.88,932.38 242.16,932.38 242.16,892.66   "
   id="polyline272"
   transform="translate(-46.020296,-386.1123)" /><polyline
   class="st0"
   points="242.16,946.66 281.88,946.66 281.88,986.38 242.16,986.38 242.16,946.66   "
   id="polyline274"
   transform="translate(-46.020296,-386.1123)" /><polyline
   class="st0"
   points="242.16,1000.66 281.88,1000.66 281.88,1040.38 242.16,1040.38 242.16,1000.66   "
   id="polyline276"
   transform="translate(-46.020296,-386.1123)" /><polyline
   class="st0"
   points="242.16,1054.66 281.88,1054.66 281.88,1094.38 242.16,1094.38 242.16,1054.66   "
   id="polyline278"
   transform="translate(-46.020296,-386.1123)" /><polyline
   class="st0"
   points="335.88,953.44 296.16,953.44 296.16,993.1 335.88,993.1 335.88,953.44   "
   id="polyline280"
   transform="translate(-46.020296,-386.1123)" /><polyline
   class="st0"
   points="335.88,1007.44 296.16,1007.44 296.16,1047.1 335.88,1047.1 335.88,1007.44   "
   id="polyline282"
   transform="translate(-46.020296,-386.1123)" /><polyline
   class="st0"
   points="335.88,1061.43 296.16,1061.43 296.16,1101.1 335.88,1101.1 335.88,1061.43   "
   id="polyline284"
   transform="translate(-46.020296,-386.1123)" /><polyline
   class="st0"
   points="350.16,926.44 389.88,926.44 389.88,966.1 350.16,966.1 350.16,926.44   "
   id="polyline286"
   transform="translate(-46.020296,-386.1123)" /><polyline
   class="st0"
   points="350.16,980.44 389.88,980.44 389.88,1020.1 350.16,1020.1 350.16,980.44   "
   id="polyline288"
   transform="translate(-46.020296,-386.1123)" /><polyline
   class="st0"
   points="350.16,1034.44 389.88,1034.44 389.88,1074.1 350.16,1074.1 350.16,1034.44   "
   id="polyline290"
   transform="translate(-46.020296,-386.1123)" /><polyline
   class="st0"
   points="65.88,1122.16 26.16,1122.16 26.16,1161.88 65.88,1161.88 65.88,1122.16   "
   id="polyline292"
   transform="translate(-46.020296,-386.1123)" /><polyline
   class="st0"
   points="80.16,1122.16 119.88,1122.16 119.88,1161.88 80.16,1161.88 80.16,1122.16   "
   id="polyline294"
   transform="translate(-46.020296,-386.1123)" /><polyline
   class="st0"
   points="173.88,1108.66 134.16,1108.66 134.16,1148.38 173.88,1148.38 173.88,1108.66   "
   id="polyline296"
   transform="translate(-46.020296,-386.1123)" /><polyline
   class="st0"
   points="266.4,1149.28 286.2,1114.9 320.58,1134.76 300.72,1169.14 266.4,1149.28   "
   id="polyline298"
   transform="translate(-46.020296,-386.1123)" /><polyline
   class="st0"
   points="227.88,1101.94 188.16,1101.94 188.16,1141.6 209.76,1141.6 209.76,1148.38 249.48,1148.38     249.48,1108.66 227.88,1108.66   "
   id="polyline300"
   transform="translate(-46.020296,-386.1123)" /><path
   class="st2"
   d="M 289.0797,562.70766"
   id="path318" /><path
   class="st0"
   d="m 352.3897,687.56765 c 0,3.12 1.69,7.58 3.76,9.91 l 45.58,51.37 c 2.07,2.33 2.48,6.45 0.92,9.15 l -48.87,84.41 c -1.56,2.7 -5.05,3.63 -7.75,2.07 l -100.33,-57.88 c -2.7,-1.56 -7.46,-2.83 -10.58,-2.83 v 0 H -22.010296 c -3.12,0 -5.67,-2.55 -5.67,-5.67 V 517.01766 c 0,-3.12 2.49,-6.23 5.53,-6.91 l 150.579996,-33.85 c 3.04,-0.68 8.08,-1.24 11.2,-1.24 h 98.73 c 3.12,0 7.75,1.47 10.3,3.28 l 25.28,17.89 c 2.55,1.8 7.18,3.27 10.3,3.27 h 39.68 c 3.12,0 7.1,2.12 8.84,4.7 l 16.47,24.44 c 1.74,2.59 3.17,7.25 3.17,10.37 v 148.72999"
   id="path322" /><polygon
   class="st1"
   points="313.65,1175.19 308.62,1172.29 307.9,1169.58 318.82,1150.68 321.53,1149.96 322.27,1150.38 342.14,1116.04 341.41,1115.62 340.69,1112.91 351.61,1094.01 354.32,1093.29 359.36,1096.2 359.95,1095.17 394.3,1115.04 389.96,1122.55 391.77,1125.08 388.93,1129.98 385.84,1129.67 355.69,1181.82 357.48,1184.33 354.65,1189.24 351.57,1188.94 347.31,1196.25 312.97,1176.37 "
   id="polygon324"
   transform="translate(-46.020296,-386.1123)" /><polygon
   class="st1"
   points="360.42,1202.19 355.39,1199.29 354.67,1196.58 365.59,1177.68 368.3,1176.96 369.04,1177.38 388.91,1143.04 388.18,1142.62 387.46,1139.91 398.38,1121.01 401.1,1120.29 406.13,1123.2 406.72,1122.17 441.07,1142.04 436.73,1149.55 438.54,1152.08 435.7,1156.98 432.61,1156.67 402.46,1208.82 404.25,1211.33 401.42,1216.24 398.35,1215.94 394.09,1223.25 359.74,1203.37 "
   id="polygon326"
   transform="translate(-46.020296,-386.1123)" />

</svg>
