999
"DXF R12 Output" (www.mydxf.blogspot.com)
 0 
SECTION
 2 
HEADER
 9 
$ACADVER
 1 
AC1009
 9 
$EXTMIN
 10 
 0 
 20 
 0 
 9 
$EXTMAX
 10 
 8.5 
 20 
 11 
 0 
ENDSEC
 0 
SECTION
 2 
ENTITIES
0
LINE
8
Layer 1
10
0.793749
20
297.794000
11
-0.793749
21
296.206000
0
LINE
8
Layer 1
10
0.000000
20
298.323000
11
0.000000
21
295.677000
0
LINE
8
Layer 1
10
2.116660
20
295.942000
11
1.058330
21
294.883670
0
LINE
8
Layer 1
10
1.587500
20
296.471000
11
0.529170
21
295.412670
0
LINE
8
Layer 1
10
1.058330
20
297.000000
11
0.000000
21
295.941670
0
LINE
8
0
10
143.859000
20
515.573000
11
143.938904
21
515.570354
0
LINE
8
0
10
143.939000
20
515.571000
11
144.015994
21
515.561210
0
LINE
8
0
10
144.016000
20
515.561000
11
144.094052
21
515.545919
0
LINE
8
0
10
144.094000
20
515.546000
11
144.169142
21
515.524833
0
LINE
8
0
10
144.169000
20
515.525000
11
144.242025
21
515.498012
0
LINE
8
0
10
144.242000
20
515.498000
11
144.313967
21
515.465192
0
LINE
8
0
10
144.314000
20
515.465000
11
144.382792
21
515.425842
0
LINE
8
0
10
144.383000
20
515.426000
11
144.447029
21
515.383138
0
LINE
8
0
10
144.447000
20
515.383000
11
144.509177
21
515.334052
0
LINE
8
0
10
144.509000
20
515.334000
11
144.565885
21
515.280819
0
LINE
8
0
10
144.566000
20
515.281000
11
144.621033
21
515.223056
0
LINE
8
0
10
144.621000
20
515.223000
11
144.668096
21
515.161088
0
LINE
8
0
10
144.668000
20
515.161000
11
144.711921
21
515.096971
0
LINE
8
0
10
144.712000
20
515.097000
11
144.750894
21
515.026092
0
LINE
8
0
10
144.751000
20
515.026000
11
144.784073
21
514.955885
0
LINE
8
0
10
144.784000
20
514.956000
11
144.809929
21
514.882975
0
LINE
8
0
10
144.810000
20
514.883000
11
144.831960
21
514.807065
0
LINE
8
0
10
144.832000
20
514.807000
11
144.847081
21
514.730006
0
LINE
8
0
10
144.847000
20
514.730000
11
144.857054
21
514.650890
0
LINE
8
0
10
144.857000
20
514.651000
11
144.859117
21
514.572948
0
LINE
8
0
10
144.859000
20
390.546000
11
144.856883
21
390.469271
0
LINE
8
0
10
144.857000
20
390.469000
11
144.846946
21
390.389625
0
LINE
8
0
10
144.847000
20
390.390000
11
144.831919
21
390.313271
0
LINE
8
0
10
144.832000
20
390.313000
11
144.810040
21
390.236271
0
LINE
8
0
10
144.810000
20
390.236000
11
144.784071
21
390.161917
0
LINE
8
0
10
144.784000
20
390.162000
11
144.750927
21
390.090563
0
LINE
8
0
10
144.751000
20
390.091000
11
144.712106
21
390.024854
0
LINE
8
0
10
144.712000
20
390.025000
11
144.668079
21
389.958854
0
LINE
8
0
10
144.668000
20
389.959000
11
144.620904
21
389.898146
0
LINE
8
0
10
144.621000
20
389.898000
11
144.565967
21
389.839792
0
LINE
8
0
10
144.566000
20
389.840000
11
144.509115
21
389.787083
0
LINE
8
0
10
144.509000
20
389.787000
11
144.446823
21
389.736729
0
LINE
8
0
10
144.447000
20
389.736000
11
144.382971
21
389.691021
0
LINE
8
0
10
144.383000
20
389.691000
11
144.314208
21
389.653958
0
LINE
8
0
10
144.314000
20
389.654000
11
144.242033
21
389.622250
0
LINE
8
0
10
144.242000
20
389.623000
11
144.168975
21
389.593896
0
LINE
8
0
10
144.169000
20
389.594000
11
144.093858
21
389.575479
0
LINE
8
0
10
144.094000
20
389.575000
11
144.015948
21
389.559125
0
LINE
8
0
10
144.016000
20
389.559000
11
143.939006
21
389.548417
0
LINE
8
0
10
143.939000
20
389.549000
11
143.859000
21
389.549000
0
LINE
8
0
10
-8.393330
20
389.549000
11
-8.471880
21
389.549000
0
LINE
8
0
10
-8.471880
20
389.549000
11
-8.550424
21
389.559583
0
LINE
8
0
10
-8.550420
20
389.559000
11
-8.627591
21
389.574875
0
LINE
8
0
10
-8.627590
20
389.575000
11
-8.703382
21
389.593521
0
LINE
8
0
10
-8.703380
20
389.594000
11
-8.776415
21
389.623104
0
LINE
8
0
10
-8.776420
20
389.623000
11
-8.846701
21
389.654750
0
LINE
8
0
10
-8.846700
20
389.654000
11
-8.916979
21
389.691042
0
LINE
8
0
10
-8.916980
20
389.691000
11
-8.981747
21
389.735979
0
LINE
8
0
10
-8.981750
20
389.736000
11
-9.043763
21
389.786271
0
LINE
8
0
10
-9.043760
20
389.787000
11
-9.101635
21
389.839917
0
LINE
8
0
10
-9.101630
20
389.840000
11
-9.153999
21
389.898208
0
LINE
8
0
10
-9.154000
20
389.898000
11
-9.203609
21
389.958854
0
LINE
8
0
10
-9.203610
20
389.959000
11
-9.246327
21
390.025146
0
LINE
8
0
10
-9.246330
20
390.025000
11
-9.284915
21
390.091146
0
LINE
8
0
10
-9.284910
20
390.091000
11
-9.317983
21
390.162437
0
LINE
8
0
10
-9.317990
20
390.162000
11
-9.345551
21
390.236083
0
LINE
8
0
10
-9.345550
20
390.236000
11
-9.366222
21
390.312729
0
LINE
8
0
10
-9.366220
20
390.313000
11
-9.381378
21
390.389729
0
LINE
8
0
10
-9.381380
20
390.390000
11
-9.391027
21
390.469375
0
LINE
8
0
10
-9.391020
20
390.469000
11
-9.393777
21
390.545729
0
LINE
8
0
10
-9.393780
20
514.573000
11
-9.391023
21
514.651052
0
LINE
8
0
10
-9.391020
20
514.651000
11
-9.381373
21
514.730110
0
LINE
8
0
10
-9.381380
20
514.730000
11
-9.366222
21
514.806994
0
LINE
8
0
10
-9.366220
20
514.807000
11
-9.345548
21
514.882935
0
LINE
8
0
10
-9.345550
20
514.883000
11
-9.317989
21
514.956025
0
LINE
8
0
10
-9.317990
20
514.956000
11
-9.284917
21
515.026115
0
LINE
8
0
10
-9.284910
20
515.026000
11
-9.246325
21
515.096908
0
LINE
8
0
10
-9.246330
20
515.097000
11
-9.203613
21
515.161029
0
LINE
8
0
10
-9.203610
20
515.161000
11
-9.154001
21
515.222912
0
LINE
8
0
10
-9.154000
20
515.223000
11
-9.101631
21
515.280944
0
LINE
8
0
10
-9.101630
20
515.281000
11
-9.043755
21
515.334181
0
LINE
8
0
10
-9.043760
20
515.334000
11
-8.981747
21
515.382948
0
LINE
8
0
10
-8.981750
20
515.383000
11
-8.916983
21
515.425862
0
LINE
8
0
10
-8.916980
20
515.426000
11
-8.846701
21
515.465158
0
LINE
8
0
10
-8.846700
20
515.465000
11
-8.776419
21
515.497808
0
LINE
8
0
10
-8.776420
20
515.498000
11
-8.703385
21
515.524988
0
LINE
8
0
10
-8.703380
20
515.525000
11
-8.627588
21
515.546167
0
LINE
8
0
10
-8.627590
20
515.546000
11
-8.550419
21
515.561081
0
LINE
8
0
10
-8.550420
20
515.561000
11
-8.471876
21
515.570790
0
LINE
8
0
10
-8.471880
20
515.571000
11
-8.393331
21
515.573646
0
LINE
8
0
10
126.558000
20
420.955000
11
129.355170
21
419.341040
0
LINE
8
0
10
129.355000
20
419.341000
11
128.591943
21
418.020730
0
LINE
8
0
10
128.592000
20
418.020000
11
124.521920
21
420.369500
0
LINE
8
0
10
124.522000
20
420.370000
11
117.522190
21
408.244200
0
LINE
8
0
10
117.522000
20
408.244000
11
121.592870
21
405.894500
0
LINE
8
0
10
121.593000
20
405.894000
11
120.831001
21
404.573730
0
LINE
8
0
10
120.831000
20
404.574000
11
118.031980
21
406.190600
0
LINE
8
0
10
118.032000
20
406.191000
11
114.656980
21
400.343730
0
LINE
8
0
10
114.657000
20
400.344000
11
117.456020
21
398.730040
0
LINE
8
0
10
117.456000
20
398.730000
11
117.042986
21
398.015626
0
LINE
8
0
10
117.043000
20
398.015000
11
119.468170
21
396.615360
0
LINE
8
0
10
119.468000
20
396.616000
11
119.879956
21
397.330374
0
LINE
8
0
10
119.880000
20
397.330000
11
125.310830
21
394.194690
0
LINE
8
0
10
125.311000
20
394.195000
11
126.171953
21
395.687250
0
LINE
8
0
10
126.172000
20
395.687000
11
127.211020
21
395.086397
0
LINE
8
0
10
127.211000
20
395.086000
11
128.862000
21
397.946140
0
LINE
8
0
10
128.862000
20
397.946000
11
127.822980
21
398.546603
0
LINE
8
0
10
127.823000
20
398.547000
11
128.686070
21
400.039250
0
LINE
8
0
10
128.686000
20
400.039000
11
124.813030
21
402.274730
0
LINE
8
0
10
124.813000
20
402.275000
11
125.574999
21
403.595270
0
LINE
8
0
10
125.575000
20
403.595000
11
129.646140
21
401.242860
0
LINE
8
0
10
129.646000
20
401.243000
11
136.645810
21
413.368800
0
LINE
8
0
10
136.646000
20
413.369000
11
132.576180
21
415.718500
0
LINE
8
0
10
132.576000
20
415.718000
11
133.338793
21
417.040910
0
LINE
8
0
10
133.339000
20
417.041000
11
137.210110
21
414.805270
0
LINE
8
0
10
137.210000
20
414.806000
11
138.073070
21
416.300890
0
LINE
8
0
10
138.073000
20
416.301000
11
139.112020
21
415.700397
0
LINE
8
0
10
139.112000
20
415.700000
11
140.760880
21
418.557500
0
LINE
8
0
10
140.761000
20
418.557000
11
139.721980
21
419.157603
0
LINE
8
0
10
139.722000
20
419.158000
11
140.585070
21
420.650250
0
LINE
8
0
10
140.585000
20
420.650000
11
135.156020
21
423.786100
0
LINE
8
0
10
135.156000
20
423.786000
11
135.567956
21
424.501168
0
LINE
8
0
10
135.568000
20
424.502000
11
133.142040
21
425.900590
0
LINE
8
0
10
133.142000
20
425.900000
11
132.730044
21
425.186420
0
LINE
8
0
10
132.730000
20
425.187000
11
129.932830
21
426.802010
0
LINE
8
0
10
129.933000
20
426.802000
11
126.557980
21
420.954980
0
LINE
8
0
10
96.263100
20
409.522000
11
108.387100
21
402.521140
0
LINE
8
0
10
108.387000
20
402.521000
11
115.386010
21
414.646800
0
LINE
8
0
10
115.386000
20
414.647000
11
103.262000
21
421.645220
0
LINE
8
0
10
103.262000
20
421.645000
11
96.262990
21
409.521800
0
LINE
8
0
10
79.765300
20
419.047000
11
91.889000
21
412.046130
0
LINE
8
0
10
91.889000
20
412.046000
11
98.888010
21
424.170800
0
LINE
8
0
10
98.888000
20
424.171000
11
86.764300
21
431.171340
0
LINE
8
0
10
86.764300
20
431.171000
11
79.765290
21
419.046700
0
LINE
8
0
10
-6.867840
20
429.705000
11
7.131610
21
429.705000
0
LINE
8
0
10
7.131610
20
429.705000
11
7.131610
21
415.705000
0
LINE
8
0
10
7.131610
20
415.705000
11
-6.867840
21
415.705000
0
LINE
8
0
10
-6.867840
20
415.705000
11
-6.867840
21
429.705000
0
LINE
8
0
10
12.182100
20
429.705000
11
26.181400
21
429.705000
0
LINE
8
0
10
26.181400
20
429.705000
11
26.181400
21
415.705000
0
LINE
8
0
10
26.181400
20
415.705000
11
12.182100
21
415.705000
0
LINE
8
0
10
12.182100
20
415.705000
11
12.182100
21
429.705000
0
LINE
8
0
10
105.788000
20
426.019000
11
117.912000
21
419.018130
0
LINE
8
0
10
117.912000
20
419.018000
11
124.911010
21
431.143800
0
LINE
8
0
10
124.911000
20
431.144000
11
112.787000
21
438.144340
0
LINE
8
0
10
112.787000
20
438.144000
11
105.787990
21
426.018700
0
LINE
8
0
10
57.044200
20
433.991000
11
71.043600
21
433.991000
0
LINE
8
0
10
71.043600
20
433.991000
11
71.043600
21
419.991000
0
LINE
8
0
10
71.043600
20
419.991000
11
57.044200
21
419.991000
0
LINE
8
0
10
57.044200
20
419.991000
11
57.044200
21
433.991000
0
LINE
8
0
10
31.232300
20
434.467000
11
45.231400
21
434.467000
0
LINE
8
0
10
45.231400
20
434.467000
11
45.231400
21
420.468000
0
LINE
8
0
10
45.231400
20
420.468000
11
31.232300
21
420.468000
0
LINE
8
0
10
31.232300
20
420.468000
11
31.232300
21
434.467000
0
LINE
8
0
10
-6.867840
20
448.755000
11
7.131610
21
448.755000
0
LINE
8
0
10
7.131610
20
448.755000
11
7.131610
21
434.756000
0
LINE
8
0
10
7.131610
20
434.756000
11
-6.867840
21
434.756000
0
LINE
8
0
10
-6.867840
20
434.756000
11
-6.867840
21
448.755000
0
LINE
8
0
10
12.182100
20
448.755000
11
26.181400
21
448.755000
0
LINE
8
0
10
26.181400
20
448.755000
11
26.181400
21
434.756000
0
LINE
8
0
10
26.181400
20
434.756000
11
12.182100
21
434.756000
0
LINE
8
0
10
12.182100
20
434.756000
11
12.182100
21
448.755000
0
LINE
8
0
10
88.382200
20
451.136000
11
102.381000
21
451.136000
0
LINE
8
0
10
102.381000
20
451.136000
11
102.381000
21
437.135000
0
LINE
8
0
10
102.381000
20
437.135000
11
88.382200
21
437.135000
0
LINE
8
0
10
88.382200
20
437.135000
11
88.382200
21
451.136000
0
LINE
8
0
10
31.232300
20
453.517000
11
45.231400
21
453.517000
0
LINE
8
0
10
45.231400
20
453.517000
11
45.231400
21
439.517000
0
LINE
8
0
10
45.231400
20
439.517000
11
31.232300
21
439.517000
0
LINE
8
0
10
31.232300
20
439.517000
11
31.232300
21
453.517000
0
LINE
8
0
10
69.332300
20
453.517000
11
83.331300
21
453.517000
0
LINE
8
0
10
83.331300
20
453.517000
11
83.331300
21
439.517000
0
LINE
8
0
10
83.331300
20
439.517000
11
69.332300
21
439.517000
0
LINE
8
0
10
69.332300
20
439.517000
11
69.332300
21
453.517000
0
LINE
8
0
10
50.282300
20
455.897000
11
64.281400
21
455.897000
0
LINE
8
0
10
64.281400
20
455.897000
11
64.281400
21
441.898000
0
LINE
8
0
10
64.281400
20
441.898000
11
50.282300
21
441.898000
0
LINE
8
0
10
50.282300
20
441.898000
11
50.282300
21
455.897000
0
LINE
8
0
10
107.432000
20
460.661000
11
121.431000
21
460.661000
0
LINE
8
0
10
121.431000
20
460.661000
11
121.431000
21
446.660000
0
LINE
8
0
10
121.431000
20
446.660000
11
107.432000
21
446.660000
0
LINE
8
0
10
107.432000
20
446.660000
11
107.432000
21
460.661000
0
LINE
8
0
10
-6.867840
20
467.805000
11
7.131610
21
467.805000
0
LINE
8
0
10
7.131610
20
467.805000
11
7.131610
21
453.806000
0
LINE
8
0
10
7.131610
20
453.806000
11
-6.867840
21
453.806000
0
LINE
8
0
10
-6.867840
20
453.806000
11
-6.867840
21
467.805000
0
LINE
8
0
10
12.182100
20
467.805000
11
26.181400
21
467.805000
0
LINE
8
0
10
26.181400
20
467.805000
11
26.181400
21
453.806000
0
LINE
8
0
10
26.181400
20
453.806000
11
12.182100
21
453.806000
0
LINE
8
0
10
12.182100
20
453.806000
11
12.182100
21
467.805000
0
LINE
8
0
10
88.382200
20
470.186000
11
102.381000
21
470.186000
0
LINE
8
0
10
102.381000
20
470.186000
11
102.381000
21
456.185000
0
LINE
8
0
10
102.381000
20
456.185000
11
88.382200
21
456.185000
0
LINE
8
0
10
88.382200
20
456.185000
11
88.382200
21
470.186000
0
LINE
8
0
10
31.232300
20
472.567000
11
45.231400
21
472.567000
0
LINE
8
0
10
45.231400
20
472.567000
11
45.231400
21
458.567000
0
LINE
8
0
10
45.231400
20
458.567000
11
31.232300
21
458.567000
0
LINE
8
0
10
31.232300
20
458.567000
11
31.232300
21
472.567000
0
LINE
8
0
10
69.332300
20
472.567000
11
83.331300
21
472.567000
0
LINE
8
0
10
83.331300
20
472.567000
11
83.331300
21
458.567000
0
LINE
8
0
10
83.331300
20
458.567000
11
69.332300
21
458.567000
0
LINE
8
0
10
69.332300
20
458.567000
11
69.332300
21
472.567000
0
LINE
8
0
10
50.282300
20
474.947000
11
64.281400
21
474.947000
0
LINE
8
0
10
64.281400
20
474.947000
11
64.281400
21
460.948000
0
LINE
8
0
10
64.281400
20
460.948000
11
50.282300
21
460.948000
0
LINE
8
0
10
50.282300
20
460.948000
11
50.282300
21
474.947000
0
LINE
8
0
10
107.432000
20
479.711000
11
121.431000
21
479.711000
0
LINE
8
0
10
121.431000
20
479.711000
11
121.431000
21
465.710000
0
LINE
8
0
10
121.431000
20
465.710000
11
107.432000
21
465.710000
0
LINE
8
0
10
107.432000
20
465.710000
11
107.432000
21
479.711000
0
LINE
8
0
10
-6.867840
20
486.855000
11
7.131610
21
486.855000
0
LINE
8
0
10
7.131610
20
486.855000
11
7.131610
21
472.856000
0
LINE
8
0
10
7.131610
20
472.856000
11
-6.867840
21
472.856000
0
LINE
8
0
10
-6.867840
20
472.856000
11
-6.867840
21
486.855000
0
LINE
8
0
10
12.182100
20
486.855000
11
26.181400
21
486.855000
0
LINE
8
0
10
26.181400
20
486.855000
11
26.181400
21
472.856000
0
LINE
8
0
10
26.181400
20
472.856000
11
12.182100
21
472.856000
0
LINE
8
0
10
12.182100
20
472.856000
11
12.182100
21
486.855000
0
LINE
8
0
10
88.382200
20
489.236000
11
102.381000
21
489.236000
0
LINE
8
0
10
102.381000
20
489.236000
11
102.381000
21
475.235000
0
LINE
8
0
10
102.381000
20
475.235000
11
88.382200
21
475.235000
0
LINE
8
0
10
88.382200
20
475.235000
11
88.382200
21
489.236000
0
LINE
8
0
10
31.232300
20
491.617000
11
45.231400
21
491.617000
0
LINE
8
0
10
45.231400
20
491.617000
11
45.231400
21
477.617000
0
LINE
8
0
10
45.231400
20
477.617000
11
31.232300
21
477.617000
0
LINE
8
0
10
31.232300
20
477.617000
11
31.232300
21
491.617000
0
LINE
8
0
10
69.332300
20
491.617000
11
83.331300
21
491.617000
0
LINE
8
0
10
83.331300
20
491.617000
11
83.331300
21
477.617000
0
LINE
8
0
10
83.331300
20
477.617000
11
69.332300
21
477.617000
0
LINE
8
0
10
69.332300
20
477.617000
11
69.332300
21
491.617000
0
LINE
8
0
10
50.282300
20
493.997000
11
64.281400
21
493.997000
0
LINE
8
0
10
64.281400
20
493.997000
11
64.281400
21
479.998000
0
LINE
8
0
10
64.281400
20
479.998000
11
50.282300
21
479.998000
0
LINE
8
0
10
50.282300
20
479.998000
11
50.282300
21
493.997000
0
LINE
8
0
10
107.432000
20
498.761000
11
121.431000
21
498.761000
0
LINE
8
0
10
121.431000
20
498.761000
11
121.431000
21
484.760000
0
LINE
8
0
10
121.431000
20
484.760000
11
107.432000
21
484.760000
0
LINE
8
0
10
107.432000
20
484.760000
11
107.432000
21
498.761000
0
LINE
8
0
10
-6.867840
20
505.905000
11
7.131610
21
505.905000
0
LINE
8
0
10
7.131610
20
505.905000
11
7.131610
21
491.906000
0
LINE
8
0
10
7.131610
20
491.906000
11
-6.867840
21
491.906000
0
LINE
8
0
10
-6.867840
20
491.906000
11
-6.867840
21
505.905000
0
LINE
8
0
10
12.182100
20
505.905000
11
26.181400
21
505.905000
0
LINE
8
0
10
26.181400
20
505.905000
11
26.181400
21
491.906000
0
LINE
8
0
10
26.181400
20
491.906000
11
12.182100
21
491.906000
0
LINE
8
0
10
12.182100
20
491.906000
11
12.182100
21
505.905000
0
LINE
8
0
10
88.382200
20
508.286000
11
102.381000
21
508.286000
0
LINE
8
0
10
102.381000
20
508.286000
11
102.381000
21
494.286000
0
LINE
8
0
10
102.381000
20
494.286000
11
88.382200
21
494.286000
0
LINE
8
0
10
88.382200
20
494.286000
11
88.382200
21
508.286000
0
LINE
8
0
10
31.232300
20
510.667000
11
45.231400
21
510.667000
0
LINE
8
0
10
45.231400
20
510.667000
11
45.231400
21
496.667000
0
LINE
8
0
10
45.231400
20
496.667000
11
31.232300
21
496.667000
0
LINE
8
0
10
31.232300
20
496.667000
11
31.232300
21
510.667000
0
LINE
8
0
10
69.332300
20
510.667000
11
83.331300
21
510.667000
0
LINE
8
0
10
83.331300
20
510.667000
11
83.331300
21
496.667000
0
LINE
8
0
10
83.331300
20
496.667000
11
69.332300
21
496.667000
0
LINE
8
0
10
69.332300
20
496.667000
11
69.332300
21
510.667000
0
LINE
8
0
10
50.282300
20
513.047000
11
64.281400
21
513.047000
0
LINE
8
0
10
64.281400
20
513.047000
11
64.281400
21
499.048000
0
LINE
8
0
10
64.281400
20
499.048000
11
50.282300
21
499.048000
0
LINE
8
0
10
50.282300
20
499.048000
11
50.282300
21
513.047000
 0 
ENDSEC
 0 
EOF