999
"DXF R12 Output" (www.mydxf.blogspot.com)
 0 
SECTION
 2 
HEADER
 9 
$ACADVER
 1 
AC1009
 9 
$EXTMIN
 10 
 0 
 20 
 0 
 9 
$EXTMAX
 10 
 8.5 
 20 
 11 
 0 
ENDSEC
 0 
SECTION
 2 
ENTITIES
0
LINE
8
Layer 1
10
0.793749
20
297.794000
11
-0.793749
21
296.206000
0
LINE
8
Layer 1
10
0.000000
20
298.323000
11
0.000000
21
295.677000
0
LINE
8
Layer 1
10
2.116660
20
295.942000
11
1.058330
21
294.883670
0
LINE
8
Layer 1
10
1.587500
20
296.471000
11
0.529170
21
295.412670
0
LINE
8
Layer 1
10
1.058330
20
297.000000
11
0.000000
21
295.941670
0
LINE
8
0
10
110.975000
20
108.081000
11
111.141952
21
107.984956
0
LINE
8
0
10
111.142000
20
107.985000
11
111.724876
21
107.829954
0
LINE
8
0
10
111.725000
20
107.830000
11
112.490174
21
107.886092
0
LINE
8
0
10
112.490000
20
107.886000
11
113.176857
21
108.222814
0
LINE
8
0
10
64.295800
20
11.643100
11
64.295800
21
14.014800
0
LINE
8
0
10
31.232400
20
30.693000
11
45.245800
21
30.693000
0
LINE
8
0
10
45.245800
20
30.693000
11
45.245800
21
16.681000
0
LINE
8
0
10
45.245800
20
16.681000
11
31.232400
21
16.681000
0
LINE
8
0
10
31.232400
20
16.681000
11
31.232400
21
30.693000
0
LINE
8
0
10
31.232400
20
49.743000
11
45.245800
21
49.743000
0
LINE
8
0
10
45.245800
20
49.743000
11
45.245800
21
35.730900
0
LINE
8
0
10
45.245800
20
35.730900
11
31.232400
21
35.730900
0
LINE
8
0
10
31.232400
20
35.730900
11
31.232400
21
49.743000
0
LINE
8
0
10
7.145580
20
25.930500
11
-6.867630
21
25.930500
0
LINE
8
0
10
-6.867630
20
25.930500
11
-6.867630
21
11.918500
0
LINE
8
0
10
-6.867630
20
11.918500
11
7.145580
21
11.918500
0
LINE
8
0
10
7.145580
20
11.918500
11
7.145580
21
25.930500
0
LINE
8
0
10
7.145580
20
83.080700
11
-6.867630
21
83.080700
0
LINE
8
0
10
-6.867630
20
83.080700
11
-6.867630
21
69.067600
0
LINE
8
0
10
-6.867630
20
69.067600
11
7.145580
21
69.067600
0
LINE
8
0
10
7.145580
20
69.067600
11
7.145580
21
83.080700
0
LINE
8
0
10
88.383700
20
85.450600
11
102.394000
21
85.450600
0
LINE
8
0
10
102.394000
20
85.450600
11
102.394000
21
71.459700
0
LINE
8
0
10
102.394000
20
71.459700
11
88.383700
21
71.459700
0
LINE
8
0
10
88.383700
20
71.459700
11
88.383700
21
85.450600
0
LINE
8
0
10
7.145580
20
64.030500
11
-6.867630
21
64.030500
0
LINE
8
0
10
-6.867630
20
64.030500
11
-6.867630
21
50.017100
0
LINE
8
0
10
-6.867630
20
50.017100
11
7.145580
21
50.017100
0
LINE
8
0
10
7.145580
20
50.017100
11
7.145580
21
64.030500
0
LINE
8
0
10
7.145580
20
44.980500
11
-6.867630
21
44.980500
0
LINE
8
0
10
-6.867630
20
44.980500
11
-6.867630
21
30.968500
0
LINE
8
0
10
-6.867630
20
30.968500
11
7.145580
21
30.968500
0
LINE
8
0
10
7.145580
20
30.968500
11
7.145580
21
44.980500
0
LINE
8
0
10
12.182400
20
83.080700
11
26.195800
21
83.080700
0
LINE
8
0
10
26.195800
20
83.080700
11
26.195800
21
69.067600
0
LINE
8
0
10
26.195800
20
69.067600
11
12.182400
21
69.067600
0
LINE
8
0
10
12.182400
20
69.067600
11
12.182400
21
83.080700
0
LINE
8
0
10
12.182400
20
64.030500
11
26.195800
21
64.030500
0
LINE
8
0
10
26.195800
20
64.030500
11
26.195800
21
50.017100
0
LINE
8
0
10
26.195800
20
50.017100
11
12.182400
21
50.017100
0
LINE
8
0
10
12.182400
20
50.017100
11
12.182400
21
64.030500
0
LINE
8
0
10
12.182400
20
44.980500
11
26.195800
21
44.980500
0
LINE
8
0
10
26.195800
20
44.980500
11
26.195800
21
30.968500
0
LINE
8
0
10
26.195800
20
30.968500
11
12.182400
21
30.968500
0
LINE
8
0
10
12.182400
20
30.968500
11
12.182400
21
44.980500
0
LINE
8
0
10
12.182400
20
25.930500
11
26.195800
21
25.930500
0
LINE
8
0
10
26.195800
20
25.930500
11
26.195800
21
11.918500
0
LINE
8
0
10
26.195800
20
11.918500
11
12.182400
21
11.918500
0
LINE
8
0
10
12.182400
20
11.918500
11
12.182400
21
25.930500
0
LINE
8
0
10
45.245800
20
87.842700
11
31.232400
21
87.842700
0
LINE
8
0
10
31.232400
20
87.842700
11
31.232400
21
73.829600
0
LINE
8
0
10
31.232400
20
73.829600
11
45.245800
21
73.829600
0
LINE
8
0
10
45.245800
20
73.829600
11
45.245800
21
87.842700
0
LINE
8
0
10
45.245800
20
68.792700
11
31.232400
21
68.792700
0
LINE
8
0
10
31.232400
20
68.792700
11
31.232400
21
54.779600
0
LINE
8
0
10
31.232400
20
54.779600
11
45.245800
21
54.779600
0
LINE
8
0
10
45.245800
20
54.779600
11
45.245800
21
68.792700
0
LINE
8
0
10
50.282400
20
90.213600
11
64.295800
21
90.213600
0
LINE
8
0
10
64.295800
20
90.213600
11
64.295800
21
76.222700
0
LINE
8
0
10
64.295800
20
76.222700
11
50.282400
21
76.222700
0
LINE
8
0
10
50.282400
20
76.222700
11
50.282400
21
90.213600
0
LINE
8
0
10
50.282400
20
71.163600
11
64.295800
21
71.163600
0
LINE
8
0
10
64.295800
20
71.163600
11
64.295800
21
57.172200
0
LINE
8
0
10
64.295800
20
57.172200
11
50.282400
21
57.172200
0
LINE
8
0
10
50.282400
20
57.172200
11
50.282400
21
71.163600
0
LINE
8
0
10
50.282400
20
52.113400
11
64.295800
21
52.113400
0
LINE
8
0
10
64.295800
20
52.113400
11
64.295800
21
38.123600
0
LINE
8
0
10
64.295800
20
38.123600
11
50.282400
21
38.123600
0
LINE
8
0
10
50.282400
20
38.123600
11
50.282400
21
52.113400
0
LINE
8
0
10
50.282400
20
33.064700
11
64.295800
21
33.064700
0
LINE
8
0
10
64.295800
20
33.064700
11
64.295800
21
19.073600
0
LINE
8
0
10
64.295800
20
19.073600
11
50.282400
21
19.073600
0
LINE
8
0
10
50.282400
20
19.073600
11
50.282400
21
33.064700
0
LINE
8
0
10
69.333700
20
87.842700
11
83.344200
21
87.842700
0
LINE
8
0
10
83.344200
20
87.842700
11
83.344200
21
73.829600
0
LINE
8
0
10
83.344200
20
73.829600
11
69.333700
21
73.829600
0
LINE
8
0
10
69.333700
20
73.829600
11
69.333700
21
87.842700
0
LINE
8
0
10
69.333700
20
68.792700
11
83.344200
21
68.792700
0
LINE
8
0
10
83.344200
20
68.792700
11
83.344200
21
54.779600
0
LINE
8
0
10
83.344200
20
54.779600
11
69.333700
21
54.779600
0
LINE
8
0
10
69.333700
20
54.779600
11
69.333700
21
68.792700
0
LINE
8
0
10
69.333700
20
49.743000
11
83.344200
21
49.743000
0
LINE
8
0
10
83.344200
20
49.743000
11
83.344200
21
35.730900
0
LINE
8
0
10
83.344200
20
35.730900
11
69.333700
21
35.730900
0
LINE
8
0
10
69.333700
20
35.730900
11
69.333700
21
49.743000
0
LINE
8
0
10
69.333700
20
30.693000
11
83.344200
21
30.693000
0
LINE
8
0
10
83.344200
20
30.693000
11
83.344200
21
16.681000
0
LINE
8
0
10
83.344200
20
16.681000
11
69.333700
21
16.681000
0
LINE
8
0
10
69.333700
20
16.681000
11
69.333700
21
30.693000
0
LINE
8
0
10
102.394000
20
66.400900
11
88.383700
21
66.400900
0
LINE
8
0
10
88.383700
20
66.400900
11
88.383700
21
52.409700
0
LINE
8
0
10
88.383700
20
52.409700
11
102.394000
21
52.409700
0
LINE
8
0
10
102.394000
20
52.409700
11
102.394000
21
66.400900
0
LINE
8
0
10
102.394000
20
47.350900
11
88.383700
21
47.350900
0
LINE
8
0
10
88.383700
20
47.350900
11
88.383700
21
33.361100
0
LINE
8
0
10
88.383700
20
33.361100
11
102.394000
21
33.361100
0
LINE
8
0
10
102.394000
20
33.361100
11
102.394000
21
47.350900
0
LINE
8
0
10
102.394000
20
28.302300
11
88.383700
21
28.302300
0
LINE
8
0
10
88.383700
20
28.302300
11
88.383700
21
14.311100
0
LINE
8
0
10
88.383700
20
14.311100
11
102.394000
21
14.311100
0
LINE
8
0
10
102.394000
20
14.311100
11
102.394000
21
28.302300
0
LINE
8
0
10
107.434000
20
75.925600
11
121.444000
21
75.925600
0
LINE
8
0
10
121.444000
20
75.925600
11
121.444000
21
61.934700
0
LINE
8
0
10
121.444000
20
61.934700
11
107.434000
21
61.934700
0
LINE
8
0
10
107.434000
20
61.934700
11
107.434000
21
75.925600
0
LINE
8
0
10
107.434000
20
56.875900
11
121.444000
21
56.875900
0
LINE
8
0
10
121.444000
20
56.875900
11
121.444000
21
42.886100
0
LINE
8
0
10
121.444000
20
42.886100
11
107.434000
21
42.886100
0
LINE
8
0
10
107.434000
20
42.886100
11
107.434000
21
56.875900
0
LINE
8
0
10
107.434000
20
37.827200
11
121.444000
21
37.827200
0
LINE
8
0
10
121.444000
20
37.827200
11
121.444000
21
23.836100
0
LINE
8
0
10
121.444000
20
23.836100
11
107.434000
21
23.836100
0
LINE
8
0
10
107.434000
20
23.836100
11
107.434000
21
37.827200
0
LINE
8
0
10
7.145580
20
6.880560
11
-6.867630
21
6.880560
0
LINE
8
0
10
-6.867630
20
6.880560
11
-6.867630
21
-7.132280
0
LINE
8
0
10
-6.867630
20
-7.132280
11
7.145580
21
-7.132280
0
LINE
8
0
10
7.145580
20
-7.132280
11
7.145580
21
6.880560
0
LINE
8
0
10
12.182400
20
6.880560
11
26.195800
21
6.880560
0
LINE
8
0
10
26.195800
20
6.880560
11
26.195800
21
-7.132280
0
LINE
8
0
10
26.195800
20
-7.132280
11
12.182400
21
-7.132280
0
LINE
8
0
10
12.182400
20
-7.132280
11
12.182400
21
6.880560
0
LINE
8
0
10
45.245800
20
11.643100
11
31.232400
21
11.643100
0
LINE
8
0
10
31.232400
20
11.643100
11
31.232400
21
-2.369790
0
LINE
8
0
10
31.232400
20
-2.369790
11
45.245800
21
-2.369790
0
LINE
8
0
10
45.245800
20
-2.369790
11
45.245800
21
11.643100
0
LINE
8
0
10
77.884200
20
-2.684640
11
84.869720
21
9.442560
0
LINE
8
0
10
84.869800
20
9.442520
11
96.997800
21
2.436630
0
LINE
8
0
10
96.997700
20
2.436620
11
89.991540
21
-9.693480
0
LINE
8
0
10
89.991500
20
-9.693450
11
77.884200
21
-2.684650
0
LINE
8
0
10
64.295800
20
14.014800
11
50.282400
21
14.014800
0
LINE
8
0
10
50.282400
20
14.014800
11
50.282400
21
0.024685
0
LINE
8
0
10
50.282400
20
0.024685
11
57.902900
21
0.024685
0
LINE
8
0
10
57.902900
20
0.024685
11
57.902900
21
-2.369790
0
LINE
8
0
10
57.902900
20
-2.369790
11
71.914700
21
-2.369790
0
LINE
8
0
10
71.914700
20
-2.369790
11
71.914700
21
11.643100
0
LINE
8
0
10
71.914700
20
11.643100
11
64.295800
21
11.643100
0
LINE
8
0
10
124.457000
20
23.980800
11
124.457000
21
23.757500
0
LINE
8
0
10
124.457000
20
23.757500
11
124.560187
21
23.086518
0
LINE
8
0
10
124.560000
20
23.086500
11
124.844956
21
22.128710
0
LINE
8
0
10
124.845000
20
22.128700
11
125.267010
21
21.223032
0
LINE
8
0
10
125.267000
20
21.223100
11
125.635035
21
20.652659
0
LINE
8
0
10
125.635000
20
20.652600
11
125.783960
21
20.484854
0
LINE
8
0
10
125.784000
20
20.484900
11
141.863000
21
2.362000
0
LINE
8
0
10
141.863000
20
2.362010
11
141.998996
21
2.209081
0
LINE
8
0
10
141.999000
20
2.209080
11
142.297979
21
1.645518
0
LINE
8
0
10
142.298000
20
1.645520
11
142.504904
21
0.799384
0
LINE
8
0
10
142.505000
20
0.799384
11
142.471927
21
-0.070565
0
LINE
8
0
10
142.472000
20
-0.070565
11
142.291025
21
-0.684397
0
LINE
8
0
10
142.291000
20
-0.684397
11
142.188077
21
-0.861668
0
LINE
8
0
10
142.188000
20
-0.861668
11
124.949100
21
-30.640468
0
LINE
8
0
10
124.949000
20
-30.640500
11
124.850840
21
-30.807187
0
LINE
8
0
10
124.851000
20
-30.807200
11
124.422111
21
-31.233179
0
LINE
8
0
10
124.422000
20
-31.233200
11
123.731968
21
-31.569220
0
LINE
8
0
10
123.732000
20
-31.569200
11
122.966032
21
-31.622117
0
LINE
8
0
10
122.966000
20
-31.622100
11
122.381007
21
-31.468642
0
LINE
8
0
10
122.381000
20
-31.468600
11
122.215106
21
-31.370704
0
LINE
8
0
10
122.215000
20
-31.370700
11
86.820900
21
-10.952800
0
LINE
8
0
10
86.820800
20
-10.952900
11
86.622627
21
-10.839129
0
LINE
8
0
10
86.622600
20
-10.839100
11
85.989982
21
-10.561288
0
LINE
8
0
10
85.990000
20
-10.561300
11
85.008662
21
-10.246446
0
LINE
8
0
10
85.008700
20
-10.246400
11
84.000110
21
-10.032088
0
LINE
8
0
10
84.000100
20
-10.032100
11
83.315359
21
-9.952725
0
LINE
8
0
10
83.315300
20
-9.952740
11
83.087800
21
-9.952740
0
LINE
8
0
10
83.087800
20
-9.952740
11
83.087800
21
-9.952740
0
LINE
8
0
10
83.087800
20
-9.952740
11
-7.624160
21
-9.952740
0
LINE
8
0
10
-7.624160
20
-9.952740
11
-7.818470
21
-9.952740
0
LINE
8
0
10
-7.818470
20
-9.952740
11
-8.401378
21
-9.793990
0
LINE
8
0
10
-8.401380
20
-9.793990
11
-9.036654
21
-9.365366
0
LINE
8
0
10
-9.036650
20
-9.365370
11
-9.466597
21
-8.730371
0
LINE
8
0
10
-9.466600
20
-8.730370
11
-9.623696
21
-8.145642
0
LINE
8
0
10
-9.623700
20
-8.145640
11
-9.623700
21
-7.955140
0
LINE
8
0
10
-9.623700
20
-7.955140
11
-9.623700
21
84.145700
0
LINE
8
0
10
-9.623700
20
84.145700
11
-9.623700
21
84.349700
0
LINE
8
0
10
-9.623700
20
84.349700
11
-9.470739
21
84.958770
0
LINE
8
0
10
-9.470740
20
84.958700
11
-9.051818
21
85.687626
0
LINE
8
0
10
-9.051810
20
85.687700
11
-8.430315
21
86.256553
0
LINE
8
0
10
-8.430320
20
86.256500
11
-7.870833
21
86.540662
0
LINE
8
0
10
-7.870830
20
86.540700
11
-7.672401
21
86.584621
0
LINE
8
0
10
-7.672400
20
86.584600
11
45.448200
21
98.526600
0
LINE
8
0
10
45.448200
20
98.526500
11
45.715693
21
98.587619
0
LINE
8
0
10
45.715700
20
98.587700
11
47.413000
21
98.836673
0
LINE
8
0
10
47.413000
20
98.836600
11
48.901540
21
98.964658
0
LINE
8
0
10
48.901500
20
98.964700
11
49.399000
21
98.964700
0
LINE
8
0
10
49.399000
20
98.964700
11
84.228900
21
98.964700
0
LINE
8
0
10
84.228900
20
98.964700
11
84.454900
21
98.964700
0
LINE
8
0
10
84.454900
20
98.964700
11
85.133026
21
98.874477
0
LINE
8
0
10
85.133000
20
98.874500
11
86.120953
21
98.625527
0
LINE
8
0
10
86.121000
20
98.625500
11
87.069001
21
98.259582
0
LINE
8
0
10
87.069000
20
98.259600
11
87.676747
21
97.941571
0
LINE
8
0
10
87.676700
20
97.941600
11
87.861114
21
97.810631
0
LINE
8
0
10
87.861100
20
97.810600
11
96.779660
21
91.500560
0
LINE
8
0
10
96.779700
20
91.500500
11
96.962791
21
91.370590
0
LINE
8
0
10
96.962800
20
91.370600
11
97.570812
21
91.052571
0
LINE
8
0
10
97.570800
20
91.052600
11
98.520653
21
90.685623
0
LINE
8
0
10
98.520600
20
90.685600
11
99.506701
21
90.437686
0
LINE
8
0
10
99.506700
20
90.437700
11
100.186678
21
90.345625
0
LINE
8
0
10
100.187000
20
90.345600
11
100.414000
21
90.345600
0
LINE
8
0
10
100.414000
20
90.345600
11
114.412000
21
90.345600
0
LINE
8
0
10
114.412000
20
90.345600
11
114.627000
21
90.345600
0
LINE
8
0
10
114.627000
20
90.345600
11
115.275758
21
90.214631
0
LINE
8
0
10
115.276000
20
90.214700
11
116.153093
21
89.859630
0
LINE
8
0
10
116.153000
20
89.859600
11
116.938018
21
89.331492
0
LINE
8
0
10
116.938000
20
89.331500
11
117.408958
21
88.866628
0
LINE
8
0
10
117.409000
20
88.866600
11
117.530973
21
88.686684
0
LINE
8
0
10
117.531000
20
88.686700
11
123.340980
21
80.065530
0
LINE
8
0
10
123.341000
20
80.065500
11
123.466148
21
79.877646
0
LINE
8
0
10
123.466000
20
79.877700
11
123.772916
21
79.264661
0
LINE
8
0
10
123.773000
20
79.264600
11
124.129129
21
78.306545
0
LINE
8
0
10
124.129000
20
78.306600
11
124.369771
21
77.314678
0
LINE
8
0
10
124.370000
20
77.314700
11
124.458106
21
76.634722
0
LINE
8
0
10
124.458000
20
76.634700
11
124.458000
21
76.406600
0
LINE
8
0
10
124.458000
20
76.406600
11
124.456942
21
23.938200
0
LINE
8
0
10
123.006000
20
9.388540
11
121.475120
21
6.740330
0
LINE
8
0
10
121.475000
20
6.740330
11
122.112910
21
5.851331
0
LINE
8
0
10
122.113000
20
5.851330
11
121.112080
21
4.122020
0
LINE
8
0
10
121.112000
20
4.122020
11
120.020860
21
4.232087
0
LINE
8
0
10
120.021000
20
4.232080
11
109.387100
21
-14.167520
0
LINE
8
0
10
109.387000
20
-14.167500
11
110.018030
21
-15.053853
0
LINE
8
0
10
110.018000
20
-15.053900
11
109.018935
21
-16.784270
0
LINE
8
0
10
109.019000
20
-16.784300
11
107.933950
21
-16.675821
0
LINE
8
0
10
107.934000
20
-16.675800
11
106.431170
21
-19.255480
0
LINE
8
0
10
106.431000
20
-19.255500
11
94.312800
21
-12.246700
0
LINE
8
0
10
94.312700
20
-12.246700
11
94.552677
21
-11.831305
0
LINE
8
0
10
94.552700
20
-11.831300
11
92.780790
21
-10.804720
0
LINE
8
0
10
92.780800
20
-10.804700
11
92.524684
21
-9.846910
0
LINE
8
0
10
92.524700
20
-9.846910
11
96.378880
21
-3.182060
0
LINE
8
0
10
96.378800
20
-3.182060
11
97.335797
21
-2.928060
0
LINE
8
0
10
97.335800
20
-2.928060
11
97.594827
21
-3.078872
0
LINE
8
0
10
97.594900
20
-3.078870
11
104.605820
21
9.040130
0
LINE
8
0
10
104.606000
20
9.040090
11
104.349884
21
9.187463
0
LINE
8
0
10
104.350000
20
9.187460
11
104.093090
21
10.143928
0
LINE
8
0
10
104.093000
20
10.143900
11
107.947970
21
16.807950
0
LINE
8
0
10
107.948000
20
16.808000
11
108.903938
21
17.065704
0
LINE
8
0
10
108.904000
20
17.065700
11
110.679090
21
16.039120
0
LINE
8
0
10
110.679000
20
16.039100
11
110.889079
21
16.398933
0
LINE
8
0
10
110.889000
20
16.398900
11
123.005800
21
9.388510
0
LINE
8
0
10
139.506000
20
-0.136710
11
137.974060
21
-2.785190
0
LINE
8
0
10
137.974000
20
-2.785190
11
138.611910
21
-3.674189
0
LINE
8
0
10
138.612000
20
-3.674180
11
137.612141
21
-5.401910
0
LINE
8
0
10
137.612000
20
-5.401910
11
136.520070
21
-5.293431
0
LINE
8
0
10
136.520000
20
-5.293430
11
125.885900
21
-23.692530
0
LINE
8
0
10
125.886000
20
-23.692500
11
126.518089
21
-24.578853
0
LINE
8
0
10
126.518000
20
-24.578900
11
125.517880
21
-26.309270
0
LINE
8
0
10
125.518000
20
-26.309300
11
124.433210
21
-26.200821
0
LINE
8
0
10
124.433000
20
-26.200800
11
122.929900
21
-28.780480
0
LINE
8
0
10
122.930000
20
-28.780500
11
110.812900
21
-21.771700
0
LINE
8
0
10
110.813000
20
-21.771700
11
111.052977
21
-21.356305
0
LINE
8
0
10
111.053000
20
-21.356300
11
109.280030
21
-20.329720
0
LINE
8
0
10
109.280000
20
-20.329700
11
109.024148
21
-19.371910
0
LINE
8
0
10
109.024000
20
-19.371900
11
112.877920
21
-12.707050
0
LINE
8
0
10
112.878000
20
-12.707000
11
113.834997
21
-12.453000
0
LINE
8
0
10
113.835000
20
-12.453000
11
114.095085
21
-12.603812
0
LINE
8
0
10
114.095000
20
-12.603900
11
121.104860
21
-0.486000
0
LINE
8
0
10
121.105000
20
-0.485960
11
120.849148
21
-0.337794
0
LINE
8
0
10
120.849000
20
-0.337793
11
120.592884
21
0.619997
0
LINE
8
0
10
120.593000
20
0.619997
11
124.446920
21
7.282987
0
LINE
8
0
10
124.447000
20
7.282990
11
125.403203
21
7.540694
0
LINE
8
0
10
125.403000
20
7.540690
11
127.178880
21
6.514110
0
LINE
8
0
10
127.179000
20
6.514110
11
127.389079
21
6.873943
0
LINE
8
0
10
127.389000
20
6.873950
11
139.505800
21
-0.136710
 0 
ENDSEC
 0 
EOF