%TF.GenerationSoftware,KiCad,Pcbnew,(6.0.5-0)*%
%TF.CreationDate,2022-07-07T23:10:34-07:00*%
%TF.ProjectId,usb_type_c,7573625f-7479-4706-955f-632e6b696361,rev?*%
%TF.SameCoordinates,Original*%
%TF.FileFunction,Legend,Top*%
%TF.FilePolarity,Positive*%
%FSLAX46Y46*%
G04 Gerber Fmt 4.6, Leading zero omitted, Abs format (unit mm)*
G04 Created by KiCad (PCBNEW (6.0.5-0)) date 2022-07-07 23:10:34*
%MOMM*%
%LPD*%
G01*
G04 APERTURE LIST*
%ADD10C,0.250000*%
%ADD11C,0.120000*%
G04 APERTURE END LIST*
D10*
X100499047Y-68634380D02*
X100499047Y-67634380D01*
X100737142Y-67634380D01*
X100880000Y-67682000D01*
X100975238Y-67777238D01*
X101022857Y-67872476D01*
X101070476Y-68062952D01*
X101070476Y-68205809D01*
X101022857Y-68396285D01*
X100975238Y-68491523D01*
X100880000Y-68586761D01*
X100737142Y-68634380D01*
X100499047Y-68634380D01*
X101499047Y-68253428D02*
X102260952Y-68253428D01*
X94674095Y-67682000D02*
X94578857Y-67634380D01*
X94436000Y-67634380D01*
X94293142Y-67682000D01*
X94197904Y-67777238D01*
X94150285Y-67872476D01*
X94102666Y-68062952D01*
X94102666Y-68205809D01*
X94150285Y-68396285D01*
X94197904Y-68491523D01*
X94293142Y-68586761D01*
X94436000Y-68634380D01*
X94531238Y-68634380D01*
X94674095Y-68586761D01*
X94721714Y-68539142D01*
X94721714Y-68205809D01*
X94531238Y-68205809D01*
X95150285Y-68634380D02*
X95150285Y-67634380D01*
X95721714Y-68634380D01*
X95721714Y-67634380D01*
X96197904Y-68634380D02*
X96197904Y-67634380D01*
X96436000Y-67634380D01*
X96578857Y-67682000D01*
X96674095Y-67777238D01*
X96721714Y-67872476D01*
X96769333Y-68062952D01*
X96769333Y-68205809D01*
X96721714Y-68396285D01*
X96674095Y-68491523D01*
X96578857Y-68586761D01*
X96436000Y-68634380D01*
X96197904Y-68634380D01*
X102490666Y-67406380D02*
X102824000Y-68406380D01*
X103157333Y-67406380D01*
X103824000Y-67882571D02*
X103966857Y-67930190D01*
X104014476Y-67977809D01*
X104062095Y-68073047D01*
X104062095Y-68215904D01*
X104014476Y-68311142D01*
X103966857Y-68358761D01*
X103871619Y-68406380D01*
X103490666Y-68406380D01*
X103490666Y-67406380D01*
X103824000Y-67406380D01*
X103919238Y-67454000D01*
X103966857Y-67501619D01*
X104014476Y-67596857D01*
X104014476Y-67692095D01*
X103966857Y-67787333D01*
X103919238Y-67834952D01*
X103824000Y-67882571D01*
X103490666Y-67882571D01*
X104490666Y-67406380D02*
X104490666Y-68215904D01*
X104538285Y-68311142D01*
X104585904Y-68358761D01*
X104681142Y-68406380D01*
X104871619Y-68406380D01*
X104966857Y-68358761D01*
X105014476Y-68311142D01*
X105062095Y-68215904D01*
X105062095Y-67406380D01*
X105490666Y-68358761D02*
X105633523Y-68406380D01*
X105871619Y-68406380D01*
X105966857Y-68358761D01*
X106014476Y-68311142D01*
X106062095Y-68215904D01*
X106062095Y-68120666D01*
X106014476Y-68025428D01*
X105966857Y-67977809D01*
X105871619Y-67930190D01*
X105681142Y-67882571D01*
X105585904Y-67834952D01*
X105538285Y-67787333D01*
X105490666Y-67692095D01*
X105490666Y-67596857D01*
X105538285Y-67501619D01*
X105585904Y-67454000D01*
X105681142Y-67406380D01*
X105919238Y-67406380D01*
X106062095Y-67454000D01*
X97988047Y-68562380D02*
X97988047Y-67562380D01*
X98226142Y-67562380D01*
X98369000Y-67610000D01*
X98464238Y-67705238D01*
X98511857Y-67800476D01*
X98559476Y-67990952D01*
X98559476Y-68133809D01*
X98511857Y-68324285D01*
X98464238Y-68419523D01*
X98369000Y-68514761D01*
X98226142Y-68562380D01*
X97988047Y-68562380D01*
X98988047Y-68181428D02*
X99749952Y-68181428D01*
X99369000Y-68562380D02*
X99369000Y-67800476D01*
D11*
%TO.C,R1*%
X107910000Y-66077064D02*
X107910000Y-64622936D01*
X106090000Y-66077064D02*
X106090000Y-64622936D01*
%TO.C,R3*%
X90290000Y-64762936D02*
X90290000Y-66217064D01*
X92110000Y-64762936D02*
X92110000Y-66217064D01*
%TO.C,R2*%
X94410000Y-66227064D02*
X94410000Y-64772936D01*
X92590000Y-66227064D02*
X92590000Y-64772936D01*
%TO.C,J4*%
X96140000Y-69995000D02*
X95860000Y-69995000D01*
X95700000Y-72355000D02*
X95700000Y-73955000D01*
X95700000Y-73955000D02*
X96700000Y-73955000D01*
X97500000Y-71855000D02*
X102500000Y-71855000D01*
X105060000Y-76215000D02*
X105060000Y-68395000D01*
X94940000Y-76215000D02*
X105060000Y-76215000D01*
X94940000Y-68395000D02*
X94940000Y-76215000D01*
X104300000Y-73955000D02*
X103300000Y-73955000D01*
X103300000Y-73955000D02*
X103300000Y-72355000D01*
X94940000Y-69995000D02*
X95860000Y-69995000D01*
X105060000Y-69995000D02*
X104140000Y-69995000D01*
X102500000Y-71855000D02*
X102500000Y-76215000D01*
X95860000Y-68395000D02*
X94940000Y-68395000D01*
X104300000Y-72355000D02*
X104300000Y-73955000D01*
X95860000Y-69995000D02*
X95860000Y-68395000D01*
X96140000Y-69995000D02*
X96140000Y-68780000D01*
X96700000Y-73955000D02*
X96700000Y-76215000D01*
X96700000Y-72355000D02*
X95700000Y-72355000D01*
X103300000Y-72355000D02*
X104300000Y-72355000D01*
X105060000Y-68395000D02*
X104140000Y-68395000D01*
X96200000Y-73955000D02*
X96200000Y-76215000D01*
X104140000Y-69995000D02*
X103860000Y-69995000D01*
X96700000Y-73955000D02*
X96700000Y-72355000D01*
X104140000Y-68395000D02*
X104140000Y-69995000D01*
X97500000Y-76215000D02*
X97500000Y-71855000D01*
%TO.C,J2*%
X104700000Y-58000000D02*
X104700000Y-56100000D01*
X95300000Y-58000000D02*
X95300000Y-56100000D01*
X95300000Y-61900000D02*
X95300000Y-59900000D01*
X104700000Y-56100000D02*
X95300000Y-56100000D01*
X104700000Y-61900000D02*
X104700000Y-59900000D01*
%TD*%
M02*
