%TF.GenerationSoftware,KiCad,Pcbnew,(6.0.5-0)*%
%TF.CreationDate,2022-07-07T23:10:34-07:00*%
%TF.ProjectId,usb_type_c,7573625f-7479-4706-955f-632e6b696361,rev?*%
%TF.SameCoordinates,Original*%
%TF.FileFunction,Copper,L2,Bot*%
%TF.FilePolarity,Positive*%
%FSLAX46Y46*%
G04 Gerber Fmt 4.6, Leading zero omitted, Abs format (unit mm)*
G04 Created by KiCad (PCBNEW (6.0.5-0)) date 2022-07-07 23:10:34*
%MOMM*%
%LPD*%
G01*
G04 APERTURE LIST*
G04 Aperture macros list*
%AMRoundRect*
0 Rectangle with rounded corners*
0 $1 Rounding radius*
0 $2 $3 $4 $5 $6 $7 $8 $9 X,Y pos of 4 corners*
0 Add a 4 corners polygon primitive as box body*
4,1,4,$2,$3,$4,$5,$6,$7,$8,$9,$2,$3,0*
0 Add four circle primitives for the rounded corners*
1,1,$1+$1,$2,$3*
1,1,$1+$1,$4,$5*
1,1,$1+$1,$6,$7*
1,1,$1+$1,$8,$9*
0 Add four rect primitives between the rounded corners*
20,1,$1+$1,$2,$3,$4,$5,0*
20,1,$1+$1,$4,$5,$6,$7,0*
20,1,$1+$1,$6,$7,$8,$9,0*
20,1,$1+$1,$8,$9,$2,$3,0*%
G04 Aperture macros list end*
%TA.AperFunction,ComponentPad*%
%ADD10RoundRect,0.250000X-0.350000X-0.625000X0.350000X-0.625000X0.350000X0.625000X-0.350000X0.625000X0*%
%TD*%
%TA.AperFunction,ComponentPad*%
%ADD11O,1.200000X1.750000*%
%TD*%
%TA.AperFunction,ComponentPad*%
%ADD12O,1.000000X1.600000*%
%TD*%
%TA.AperFunction,ComponentPad*%
%ADD13O,1.000000X2.100000*%
%TD*%
%TA.AperFunction,ViaPad*%
%ADD14C,0.600000*%
%TD*%
%TA.AperFunction,ViaPad*%
%ADD15C,0.900000*%
%TD*%
%TA.AperFunction,Conductor*%
%ADD16C,0.250000*%
%TD*%
%TA.AperFunction,Conductor*%
%ADD17C,0.550000*%
%TD*%
G04 APERTURE END LIST*
D10*
%TO.P,J4,1,Pin_1*%
%TO.N,VBUS_C*%
X97000000Y-69855000D03*
D11*
%TO.P,J4,2,Pin_2*%
%TO.N,DM_C*%
X99000000Y-69855000D03*
%TO.P,J4,3,Pin_3*%
%TO.N,DP_C*%
X101000000Y-69855000D03*
%TO.P,J4,4,Pin_4*%
%TO.N,GND*%
X103000000Y-69855000D03*
%TD*%
D12*
%TO.P,J2,S1,SHIELD*%
%TO.N,SHIELD*%
X95680000Y-58950000D03*
D13*
X104320000Y-63130000D03*
X95680000Y-63130000D03*
D12*
X104320000Y-58950000D03*
%TD*%
D14*
%TO.N,DP_C*%
X99026000Y-65549500D03*
X100458000Y-65549500D03*
%TO.N,SHIELD*%
X91341000Y-64175000D03*
D15*
%TO.N,VBUS_C*%
X102479000Y-66176500D03*
X97454000Y-66196000D03*
%TD*%
D16*
%TO.N,DP_C*%
X99026000Y-65549500D02*
X100458000Y-65549500D01*
D17*
%TO.N,VBUS_C*%
X97454000Y-66196000D02*
X97509000Y-66251000D01*
X97509000Y-66251000D02*
X102404500Y-66251000D01*
X102404500Y-66251000D02*
X102479000Y-66176500D01*
X97454000Y-66196000D02*
X96926000Y-66724000D01*
X96926000Y-66724000D02*
X96926000Y-69781000D01*
X96926000Y-69781000D02*
X97000000Y-69855000D01*
D16*
%TO.N,SHIELD*%
X91341000Y-64175000D02*
X92386000Y-63130000D01*
X92386000Y-63130000D02*
X95680000Y-63130000D01*
%TD*%
%TA.AperFunction,Conductor*%
%TO.N,GND*%
G36*
X94976855Y-58272806D02*
G01*
X94995161Y-58317000D01*
X94988324Y-58345423D01*
X94968007Y-58385212D01*
X94926189Y-58556108D01*
X94925500Y-58567214D01*
X94925500Y-59294053D01*
X94940738Y-59424754D01*
X95000768Y-59590134D01*
X95097234Y-59737268D01*
X95099871Y-59739766D01*
X95211232Y-59845259D01*
X95224960Y-59858264D01*
X95377096Y-59946632D01*
X95545480Y-59997630D01*
X95721080Y-60008524D01*
X95894477Y-59978729D01*
X96056368Y-59909844D01*
X96198071Y-59805563D01*
X96311982Y-59671480D01*
X96391993Y-59514788D01*
X96433811Y-59343892D01*
X96434500Y-59332786D01*
X96434500Y-58605947D01*
X96419262Y-58475246D01*
X96369562Y-58338325D01*
X96371690Y-58290537D01*
X96406986Y-58258251D01*
X96428311Y-58254500D01*
X103572661Y-58254500D01*
X103616855Y-58272806D01*
X103635161Y-58317000D01*
X103628324Y-58345423D01*
X103608007Y-58385212D01*
X103566189Y-58556108D01*
X103565500Y-58567214D01*
X103565500Y-59294053D01*
X103580738Y-59424754D01*
X103640768Y-59590134D01*
X103737234Y-59737268D01*
X103739871Y-59739766D01*
X103851232Y-59845259D01*
X103864960Y-59858264D01*
X104017096Y-59946632D01*
X104185480Y-59997630D01*
X104361080Y-60008524D01*
X104534477Y-59978729D01*
X104696368Y-59909844D01*
X104838071Y-59805563D01*
X104951982Y-59671480D01*
X105031993Y-59514788D01*
X105073811Y-59343892D01*
X105074500Y-59332786D01*
X105074500Y-58605947D01*
X105059262Y-58475246D01*
X105009562Y-58338325D01*
X105011690Y-58290537D01*
X105046986Y-58258251D01*
X105068311Y-58254500D01*
X108968778Y-58254500D01*
X108980971Y-58255701D01*
X109000000Y-58259486D01*
X109006037Y-58258285D01*
X109006039Y-58258285D01*
X109007673Y-58257960D01*
X109025992Y-58257060D01*
X109050624Y-58259486D01*
X109139316Y-58268222D01*
X109151325Y-58270610D01*
X109217015Y-58290537D01*
X109279402Y-58309462D01*
X109290721Y-58314151D01*
X109408747Y-58377236D01*
X109418935Y-58384043D01*
X109522390Y-58468947D01*
X109531053Y-58477610D01*
X109615957Y-58581065D01*
X109622763Y-58591252D01*
X109630618Y-58605947D01*
X109685849Y-58709279D01*
X109690538Y-58720598D01*
X109729389Y-58848671D01*
X109731779Y-58860688D01*
X109742940Y-58974008D01*
X109742040Y-58992327D01*
X109740514Y-59000000D01*
X109741715Y-59006038D01*
X109744299Y-59019029D01*
X109745500Y-59031222D01*
X109745500Y-71468778D01*
X109744299Y-71480971D01*
X109740514Y-71500000D01*
X109741715Y-71506037D01*
X109741715Y-71506039D01*
X109742040Y-71507673D01*
X109742940Y-71525992D01*
X109732298Y-71634046D01*
X109731779Y-71639312D01*
X109729390Y-71651325D01*
X109705369Y-71730512D01*
X109690538Y-71779402D01*
X109685849Y-71790721D01*
X109622764Y-71908747D01*
X109615957Y-71918935D01*
X109531053Y-72022390D01*
X109522390Y-72031053D01*
X109418935Y-72115957D01*
X109408747Y-72122764D01*
X109290721Y-72185849D01*
X109279401Y-72190538D01*
X109151325Y-72229390D01*
X109139316Y-72231778D01*
X109059653Y-72239625D01*
X109025992Y-72242940D01*
X109007673Y-72242040D01*
X109006039Y-72241715D01*
X109006037Y-72241715D01*
X109000000Y-72240514D01*
X108993962Y-72241715D01*
X108980971Y-72244299D01*
X108968778Y-72245500D01*
X91031222Y-72245500D01*
X91019029Y-72244299D01*
X91006038Y-72241715D01*
X91000000Y-72240514D01*
X90993963Y-72241715D01*
X90993961Y-72241715D01*
X90992327Y-72242040D01*
X90974008Y-72242940D01*
X90940347Y-72239625D01*
X90860684Y-72231778D01*
X90848675Y-72229390D01*
X90720599Y-72190538D01*
X90709279Y-72185849D01*
X90591253Y-72122764D01*
X90581065Y-72115957D01*
X90477610Y-72031053D01*
X90468947Y-72022390D01*
X90384043Y-71918935D01*
X90377236Y-71908747D01*
X90314151Y-71790721D01*
X90309462Y-71779402D01*
X90294631Y-71730512D01*
X90270610Y-71651325D01*
X90268221Y-71639312D01*
X90267703Y-71634046D01*
X90257060Y-71525992D01*
X90257960Y-71507673D01*
X90258285Y-71506039D01*
X90258285Y-71506037D01*
X90259486Y-71500000D01*
X90255701Y-71480971D01*
X90254500Y-71468778D01*
X90254500Y-70500000D01*
X90690517Y-70500000D01*
X90690755Y-70502720D01*
X90710006Y-70722755D01*
X90710411Y-70727389D01*
X90711116Y-70730022D01*
X90711117Y-70730025D01*
X90764480Y-70929179D01*
X90769488Y-70947870D01*
X90770640Y-70950341D01*
X90770641Y-70950343D01*
X90786569Y-70984500D01*
X90865954Y-71154741D01*
X90996878Y-71341719D01*
X91158281Y-71503122D01*
X91345259Y-71634046D01*
X91464287Y-71689550D01*
X91479951Y-71696854D01*
X91552130Y-71730512D01*
X91554763Y-71731217D01*
X91554767Y-71731219D01*
X91769975Y-71788883D01*
X91769978Y-71788884D01*
X91772611Y-71789589D01*
X91775327Y-71789827D01*
X91775329Y-71789827D01*
X91941692Y-71804382D01*
X91941698Y-71804382D01*
X91943044Y-71804500D01*
X92056956Y-71804500D01*
X92058302Y-71804382D01*
X92058308Y-71804382D01*
X92224671Y-71789827D01*
X92224673Y-71789827D01*
X92227389Y-71789589D01*
X92230022Y-71788884D01*
X92230025Y-71788883D01*
X92445233Y-71731219D01*
X92445237Y-71731217D01*
X92447870Y-71730512D01*
X92520050Y-71696854D01*
X92535713Y-71689550D01*
X92654741Y-71634046D01*
X92841719Y-71503122D01*
X93003122Y-71341719D01*
X93134046Y-71154742D01*
X93213431Y-70984500D01*
X93229359Y-70950343D01*
X93229360Y-70950341D01*
X93230512Y-70947870D01*
X93235521Y-70929179D01*
X93288883Y-70730025D01*
X93288884Y-70730022D01*
X93289589Y-70727389D01*
X93289995Y-70722755D01*
X93307055Y-70527756D01*
X96145500Y-70527756D01*
X96152202Y-70589448D01*
X96153577Y-70593116D01*
X96201168Y-70720066D01*
X96202929Y-70724764D01*
X96289596Y-70840404D01*
X96405236Y-70927071D01*
X96409405Y-70928634D01*
X96409407Y-70928635D01*
X96520871Y-70970420D01*
X96540552Y-70977798D01*
X96602244Y-70984500D01*
X97397756Y-70984500D01*
X97459448Y-70977798D01*
X97479129Y-70970420D01*
X97590593Y-70928635D01*
X97590595Y-70928634D01*
X97594764Y-70927071D01*
X97710404Y-70840404D01*
X97797071Y-70724764D01*
X97798833Y-70720066D01*
X97846423Y-70593116D01*
X97847798Y-70589448D01*
X97854500Y-70527756D01*
X97854500Y-70176385D01*
X98145500Y-70176385D01*
X98160512Y-70314573D01*
X98161590Y-70317778D01*
X98161591Y-70317780D01*
X98190506Y-70403699D01*
X98219730Y-70490535D01*
X98221470Y-70493430D01*
X98221470Y-70493431D01*
X98312371Y-70644717D01*
X98315351Y-70649677D01*
X98442916Y-70784572D01*
X98596471Y-70888928D01*
X98622958Y-70899522D01*
X98765709Y-70956619D01*
X98765713Y-70956620D01*
X98768853Y-70957876D01*
X98772188Y-70958428D01*
X98772191Y-70958429D01*
X98948678Y-70987646D01*
X98948679Y-70987646D01*
X98952019Y-70988199D01*
X98955400Y-70988022D01*
X98955404Y-70988022D01*
X99087213Y-70981114D01*
X99137424Y-70978482D01*
X99140682Y-70977585D01*
X99140686Y-70977584D01*
X99271900Y-70941441D01*
X99316417Y-70929179D01*
X99480648Y-70842590D01*
X99487448Y-70836844D01*
X99552214Y-70782112D01*
X99622454Y-70722755D01*
X99735219Y-70575264D01*
X99794151Y-70448884D01*
X99812252Y-70410067D01*
X99812252Y-70410066D01*
X99813682Y-70407000D01*
X99854182Y-70225812D01*
X99854500Y-70220124D01*
X99854500Y-70176385D01*
X100145500Y-70176385D01*
X100160512Y-70314573D01*
X100161590Y-70317778D01*
X100161591Y-70317780D01*
X100190506Y-70403699D01*
X100219730Y-70490535D01*
X100221470Y-70493430D01*
X100221470Y-70493431D01*
X100312371Y-70644717D01*
X100315351Y-70649677D01*
X100442916Y-70784572D01*
X100596471Y-70888928D01*
X100622958Y-70899522D01*
X100765709Y-70956619D01*
X100765713Y-70956620D01*
X100768853Y-70957876D01*
X100772188Y-70958428D01*
X100772191Y-70958429D01*
X100948678Y-70987646D01*
X100948679Y-70987646D01*
X100952019Y-70988199D01*
X100955400Y-70988022D01*
X100955404Y-70988022D01*
X101087213Y-70981114D01*
X101137424Y-70978482D01*
X101140682Y-70977585D01*
X101140686Y-70977584D01*
X101271900Y-70941441D01*
X101316417Y-70929179D01*
X101480648Y-70842590D01*
X101487448Y-70836844D01*
X101552214Y-70782112D01*
X101622454Y-70722755D01*
X101735219Y-70575264D01*
X101812974Y-70408518D01*
X101848242Y-70376201D01*
X101896032Y-70378288D01*
X101929591Y-70417338D01*
X101965722Y-70540498D01*
X101967918Y-70545987D01*
X102062002Y-70728663D01*
X102065203Y-70733649D01*
X102192133Y-70895238D01*
X102196212Y-70899522D01*
X102351405Y-71034191D01*
X102356234Y-71037636D01*
X102534085Y-71140525D01*
X102539475Y-71142993D01*
X102733580Y-71210397D01*
X102734817Y-71210699D01*
X102742919Y-71208641D01*
X102746000Y-71203461D01*
X102746000Y-71196086D01*
X103254000Y-71196086D01*
X103257641Y-71204876D01*
X103261859Y-71206623D01*
X103359471Y-71183099D01*
X103365083Y-71181166D01*
X103552132Y-71096121D01*
X103557260Y-71093172D01*
X103724861Y-70974284D01*
X103729338Y-70970420D01*
X103871431Y-70821986D01*
X103875100Y-70817341D01*
X103986562Y-70644717D01*
X103989286Y-70639461D01*
X104045491Y-70500000D01*
X106690517Y-70500000D01*
X106690755Y-70502720D01*
X106710006Y-70722755D01*
X106710411Y-70727389D01*
X106711116Y-70730022D01*
X106711117Y-70730025D01*
X106764480Y-70929179D01*
X106769488Y-70947870D01*
X106770640Y-70950341D01*
X106770641Y-70950343D01*
X106786569Y-70984500D01*
X106865954Y-71154741D01*
X106996878Y-71341719D01*
X107158281Y-71503122D01*
X107345259Y-71634046D01*
X107464287Y-71689550D01*
X107479951Y-71696854D01*
X107552130Y-71730512D01*
X107554763Y-71731217D01*
X107554767Y-71731219D01*
X107769975Y-71788883D01*
X107769978Y-71788884D01*
X107772611Y-71789589D01*
X107775327Y-71789827D01*
X107775329Y-71789827D01*
X107941692Y-71804382D01*
X107941698Y-71804382D01*
X107943044Y-71804500D01*
X108056956Y-71804500D01*
X108058302Y-71804382D01*
X108058308Y-71804382D01*
X108224671Y-71789827D01*
X108224673Y-71789827D01*
X108227389Y-71789589D01*
X108230022Y-71788884D01*
X108230025Y-71788883D01*
X108445233Y-71731219D01*
X108445237Y-71731217D01*
X108447870Y-71730512D01*
X108520050Y-71696854D01*
X108535713Y-71689550D01*
X108654741Y-71634046D01*
X108841719Y-71503122D01*
X109003122Y-71341719D01*
X109134046Y-71154742D01*
X109213431Y-70984500D01*
X109229359Y-70950343D01*
X109229360Y-70950341D01*
X109230512Y-70947870D01*
X109235521Y-70929179D01*
X109288883Y-70730025D01*
X109288884Y-70730022D01*
X109289589Y-70727389D01*
X109289995Y-70722755D01*
X109309245Y-70502720D01*
X109309483Y-70500000D01*
X109289589Y-70272611D01*
X109288883Y-70269975D01*
X109231219Y-70054767D01*
X109231217Y-70054763D01*
X109230512Y-70052130D01*
X109134046Y-69845259D01*
X109003122Y-69658281D01*
X108841719Y-69496878D01*
X108654741Y-69365954D01*
X108447870Y-69269488D01*
X108445237Y-69268783D01*
X108445233Y-69268781D01*
X108230025Y-69211117D01*
X108230022Y-69211116D01*
X108227389Y-69210411D01*
X108224673Y-69210173D01*
X108224671Y-69210173D01*
X108058308Y-69195618D01*
X108058302Y-69195618D01*
X108056956Y-69195500D01*
X107943044Y-69195500D01*
X107941698Y-69195618D01*
X107941692Y-69195618D01*
X107775329Y-69210173D01*
X107775327Y-69210173D01*
X107772611Y-69210411D01*
X107769978Y-69211116D01*
X107769975Y-69211117D01*
X107554767Y-69268781D01*
X107554763Y-69268783D01*
X107552130Y-69269488D01*
X107345259Y-69365954D01*
X107158281Y-69496878D01*
X106996878Y-69658281D01*
X106865954Y-69845258D01*
X106769488Y-70052130D01*
X106768783Y-70054763D01*
X106768781Y-70054767D01*
X106711117Y-70269975D01*
X106710411Y-70272611D01*
X106690517Y-70500000D01*
X104045491Y-70500000D01*
X104066091Y-70448884D01*
X104067776Y-70443196D01*
X104107296Y-70240826D01*
X104107838Y-70236363D01*
X104107962Y-70233821D01*
X104108000Y-70232290D01*
X104108000Y-70121431D01*
X104104359Y-70112641D01*
X104095569Y-70109000D01*
X103266431Y-70109000D01*
X103257641Y-70112641D01*
X103254000Y-70121431D01*
X103254000Y-71196086D01*
X102746000Y-71196086D01*
X102746000Y-69588569D01*
X103254000Y-69588569D01*
X103257641Y-69597359D01*
X103266431Y-69601000D01*
X104095569Y-69601000D01*
X104104359Y-69597359D01*
X104108000Y-69588569D01*
X104108000Y-69528662D01*
X104107858Y-69525690D01*
X104093241Y-69372490D01*
X104092123Y-69366680D01*
X104034278Y-69169502D01*
X104032082Y-69164013D01*
X103937998Y-68981337D01*
X103934797Y-68976351D01*
X103807867Y-68814762D01*
X103803788Y-68810478D01*
X103648595Y-68675809D01*
X103643766Y-68672364D01*
X103465915Y-68569475D01*
X103460525Y-68567007D01*
X103266420Y-68499603D01*
X103265183Y-68499301D01*
X103257081Y-68501359D01*
X103254000Y-68506539D01*
X103254000Y-69588569D01*
X102746000Y-69588569D01*
X102746000Y-68513914D01*
X102742359Y-68505124D01*
X102738141Y-68503377D01*
X102640529Y-68526901D01*
X102634917Y-68528834D01*
X102447868Y-68613879D01*
X102442740Y-68616828D01*
X102275142Y-68735714D01*
X102270662Y-68739580D01*
X102128569Y-68888014D01*
X102124900Y-68892659D01*
X102013438Y-69065283D01*
X102010714Y-69070539D01*
X101933909Y-69261116D01*
X101932224Y-69266805D01*
X101927536Y-69290811D01*
X101901100Y-69330678D01*
X101854217Y-69340174D01*
X101814350Y-69313738D01*
X101806960Y-69298768D01*
X101781351Y-69222674D01*
X101781347Y-69222666D01*
X101780270Y-69219465D01*
X101774687Y-69210173D01*
X101686393Y-69063225D01*
X101686391Y-69063223D01*
X101684649Y-69060323D01*
X101557084Y-68925428D01*
X101474930Y-68869596D01*
X101406325Y-68822972D01*
X101406324Y-68822971D01*
X101403529Y-68821072D01*
X101304255Y-68781365D01*
X101234291Y-68753381D01*
X101234287Y-68753380D01*
X101231147Y-68752124D01*
X101227812Y-68751572D01*
X101227809Y-68751571D01*
X101051322Y-68722354D01*
X101051321Y-68722354D01*
X101047981Y-68721801D01*
X101044600Y-68721978D01*
X101044596Y-68721978D01*
X100912787Y-68728886D01*
X100862576Y-68731518D01*
X100859318Y-68732415D01*
X100859314Y-68732416D01*
X100765664Y-68758212D01*
X100683583Y-68780821D01*
X100519352Y-68867410D01*
X100516768Y-68869594D01*
X100516766Y-68869595D01*
X100452949Y-68923525D01*
X100377546Y-68987245D01*
X100264781Y-69134736D01*
X100186318Y-69303000D01*
X100145818Y-69484188D01*
X100145500Y-69489876D01*
X100145500Y-70176385D01*
X99854500Y-70176385D01*
X99854500Y-69533615D01*
X99839488Y-69395427D01*
X99817698Y-69330678D01*
X99781347Y-69222666D01*
X99780270Y-69219465D01*
X99774687Y-69210173D01*
X99686393Y-69063225D01*
X99686391Y-69063223D01*
X99684649Y-69060323D01*
X99557084Y-68925428D01*
X99474930Y-68869596D01*
X99406325Y-68822972D01*
X99406324Y-68822971D01*
X99403529Y-68821072D01*
X99304255Y-68781365D01*
X99234291Y-68753381D01*
X99234287Y-68753380D01*
X99231147Y-68752124D01*
X99227812Y-68751572D01*
X99227809Y-68751571D01*
X99051322Y-68722354D01*
X99051321Y-68722354D01*
X99047981Y-68721801D01*
X99044600Y-68721978D01*
X99044596Y-68721978D01*
X98912787Y-68728886D01*
X98862576Y-68731518D01*
X98859318Y-68732415D01*
X98859314Y-68732416D01*
X98765664Y-68758212D01*
X98683583Y-68780821D01*
X98519352Y-68867410D01*
X98516768Y-68869594D01*
X98516766Y-68869595D01*
X98452949Y-68923525D01*
X98377546Y-68987245D01*
X98264781Y-69134736D01*
X98186318Y-69303000D01*
X98145818Y-69484188D01*
X98145500Y-69489876D01*
X98145500Y-70176385D01*
X97854500Y-70176385D01*
X97854500Y-69182244D01*
X97847798Y-69120552D01*
X97827079Y-69065283D01*
X97798635Y-68989407D01*
X97798634Y-68989405D01*
X97797071Y-68985236D01*
X97710404Y-68869596D01*
X97594764Y-68782929D01*
X97590595Y-68781366D01*
X97590593Y-68781365D01*
X97496061Y-68745927D01*
X97461105Y-68713273D01*
X97455500Y-68687404D01*
X97455500Y-66969216D01*
X97473801Y-66925026D01*
X97478804Y-66920022D01*
X97520764Y-66903025D01*
X97520669Y-66902120D01*
X97523814Y-66901790D01*
X97523986Y-66901720D01*
X97524059Y-66901721D01*
X97524413Y-66901727D01*
X97524415Y-66901727D01*
X97528181Y-66901786D01*
X97694393Y-66863719D01*
X97697757Y-66862027D01*
X97697760Y-66862026D01*
X97846607Y-66787164D01*
X97874689Y-66780500D01*
X102099039Y-66780500D01*
X102128860Y-66788074D01*
X102217752Y-66836338D01*
X102221397Y-66837294D01*
X102221399Y-66837295D01*
X102315668Y-66862026D01*
X102382686Y-66879608D01*
X102473855Y-66881040D01*
X102549412Y-66882227D01*
X102549414Y-66882227D01*
X102553181Y-66882286D01*
X102719393Y-66844219D01*
X102722757Y-66842527D01*
X102722760Y-66842526D01*
X102795044Y-66806171D01*
X102871728Y-66767603D01*
X102874593Y-66765156D01*
X102874596Y-66765154D01*
X102998527Y-66659306D01*
X102998530Y-66659303D01*
X103001389Y-66656861D01*
X103003584Y-66653806D01*
X103003587Y-66653803D01*
X103098692Y-66521450D01*
X103098693Y-66521448D01*
X103100892Y-66518388D01*
X103137998Y-66426083D01*
X103163088Y-66363671D01*
X103163089Y-66363667D01*
X103164492Y-66360177D01*
X103188518Y-66191362D01*
X103188674Y-66176500D01*
X103168189Y-66007219D01*
X103107916Y-65847711D01*
X103020922Y-65721135D01*
X103013466Y-65710286D01*
X103011334Y-65707184D01*
X102884021Y-65593752D01*
X102733324Y-65513962D01*
X102567946Y-65472422D01*
X102564181Y-65472402D01*
X102564179Y-65472402D01*
X102479425Y-65471958D01*
X102397432Y-65471529D01*
X102393768Y-65472409D01*
X102393765Y-65472409D01*
X102318634Y-65490447D01*
X102231627Y-65511335D01*
X102228285Y-65513060D01*
X102228282Y-65513061D01*
X102185343Y-65535224D01*
X102080104Y-65589542D01*
X101951609Y-65701635D01*
X101951472Y-65701478D01*
X101906505Y-65721500D01*
X101065908Y-65721500D01*
X101021714Y-65703194D01*
X101003408Y-65659000D01*
X101003943Y-65650842D01*
X101016750Y-65553564D01*
X101017285Y-65549500D01*
X101009587Y-65491029D01*
X100998763Y-65408809D01*
X100998763Y-65408808D01*
X100998228Y-65404746D01*
X100942355Y-65269858D01*
X100853474Y-65154026D01*
X100737643Y-65065145D01*
X100733857Y-65063577D01*
X100733854Y-65063575D01*
X100606540Y-65010840D01*
X100606539Y-65010840D01*
X100602754Y-65009272D01*
X100598692Y-65008737D01*
X100598691Y-65008737D01*
X100462064Y-64990750D01*
X100458000Y-64990215D01*
X100453936Y-64990750D01*
X100317309Y-65008737D01*
X100317308Y-65008737D01*
X100313246Y-65009272D01*
X100309462Y-65010840D01*
X100309460Y-65010840D01*
X100182148Y-65063575D01*
X100178358Y-65065145D01*
X100062526Y-65154026D01*
X100061913Y-65153227D01*
X100021419Y-65170000D01*
X99462580Y-65170000D01*
X99422087Y-65153227D01*
X99421474Y-65154026D01*
X99418492Y-65151738D01*
X99418493Y-65151738D01*
X99305643Y-65065145D01*
X99301857Y-65063577D01*
X99301854Y-65063575D01*
X99174540Y-65010840D01*
X99174539Y-65010840D01*
X99170754Y-65009272D01*
X99166692Y-65008737D01*
X99166691Y-65008737D01*
X99030064Y-64990750D01*
X99026000Y-64990215D01*
X99021936Y-64990750D01*
X98885309Y-65008737D01*
X98885308Y-65008737D01*
X98881246Y-65009272D01*
X98877462Y-65010840D01*
X98877460Y-65010840D01*
X98750148Y-65063575D01*
X98746358Y-65065145D01*
X98630526Y-65154026D01*
X98541645Y-65269858D01*
X98485772Y-65404746D01*
X98485237Y-65408808D01*
X98485237Y-65408809D01*
X98474413Y-65491029D01*
X98466715Y-65549500D01*
X98467250Y-65553564D01*
X98480057Y-65650842D01*
X98467677Y-65697048D01*
X98426250Y-65720965D01*
X98418092Y-65721500D01*
X98004320Y-65721500D01*
X97962743Y-65705665D01*
X97859021Y-65613252D01*
X97708324Y-65533462D01*
X97542946Y-65491922D01*
X97539181Y-65491902D01*
X97539179Y-65491902D01*
X97454425Y-65491458D01*
X97372432Y-65491029D01*
X97368768Y-65491909D01*
X97368765Y-65491909D01*
X97293634Y-65509947D01*
X97206627Y-65530835D01*
X97203285Y-65532560D01*
X97203282Y-65532561D01*
X97198123Y-65535224D01*
X97055104Y-65609042D01*
X97026928Y-65633622D01*
X96929449Y-65718657D01*
X96929447Y-65718659D01*
X96926609Y-65721135D01*
X96828562Y-65860643D01*
X96827195Y-65864150D01*
X96769955Y-66010963D01*
X96766622Y-66019511D01*
X96766130Y-66023248D01*
X96751949Y-66130960D01*
X96734178Y-66166996D01*
X96560915Y-66340259D01*
X96559026Y-66342071D01*
X96514178Y-66383311D01*
X96511933Y-66386932D01*
X96511932Y-66386933D01*
X96490666Y-66421231D01*
X96487331Y-66426083D01*
X96460355Y-66461623D01*
X96458786Y-66465586D01*
X96453105Y-66479935D01*
X96448112Y-66489863D01*
X96439977Y-66502983D01*
X96439975Y-66502987D01*
X96437730Y-66506608D01*
X96436542Y-66510699D01*
X96436541Y-66510700D01*
X96425283Y-66549454D01*
X96423380Y-66555011D01*
X96406950Y-66596509D01*
X96406505Y-66600747D01*
X96404891Y-66616103D01*
X96402751Y-66627009D01*
X96397256Y-66645922D01*
X96396500Y-66656216D01*
X96396500Y-66692658D01*
X96396158Y-66699191D01*
X96391786Y-66740789D01*
X96392496Y-66744987D01*
X96395625Y-66763487D01*
X96396500Y-66773910D01*
X96396500Y-68758212D01*
X96378194Y-68802406D01*
X96371483Y-68808225D01*
X96351806Y-68822972D01*
X96289596Y-68869596D01*
X96202929Y-68985236D01*
X96201366Y-68989405D01*
X96201365Y-68989407D01*
X96172921Y-69065283D01*
X96152202Y-69120552D01*
X96145500Y-69182244D01*
X96145500Y-70527756D01*
X93307055Y-70527756D01*
X93309245Y-70502720D01*
X93309483Y-70500000D01*
X93289589Y-70272611D01*
X93288883Y-70269975D01*
X93231219Y-70054767D01*
X93231217Y-70054763D01*
X93230512Y-70052130D01*
X93134046Y-69845259D01*
X93003122Y-69658281D01*
X92841719Y-69496878D01*
X92654741Y-69365954D01*
X92447870Y-69269488D01*
X92445237Y-69268783D01*
X92445233Y-69268781D01*
X92230025Y-69211117D01*
X92230022Y-69211116D01*
X92227389Y-69210411D01*
X92224673Y-69210173D01*
X92224671Y-69210173D01*
X92058308Y-69195618D01*
X92058302Y-69195618D01*
X92056956Y-69195500D01*
X91943044Y-69195500D01*
X91941698Y-69195618D01*
X91941692Y-69195618D01*
X91775329Y-69210173D01*
X91775327Y-69210173D01*
X91772611Y-69210411D01*
X91769978Y-69211116D01*
X91769975Y-69211117D01*
X91554767Y-69268781D01*
X91554763Y-69268783D01*
X91552130Y-69269488D01*
X91345259Y-69365954D01*
X91158281Y-69496878D01*
X90996878Y-69658281D01*
X90865954Y-69845258D01*
X90769488Y-70052130D01*
X90768783Y-70054763D01*
X90768781Y-70054767D01*
X90711117Y-70269975D01*
X90710411Y-70272611D01*
X90690517Y-70500000D01*
X90254500Y-70500000D01*
X90254500Y-64175000D01*
X90781715Y-64175000D01*
X90800772Y-64319754D01*
X90802340Y-64323538D01*
X90802340Y-64323540D01*
X90809683Y-64341267D01*
X90856645Y-64454642D01*
X90945526Y-64570474D01*
X91061357Y-64659355D01*
X91065143Y-64660923D01*
X91065146Y-64660925D01*
X91192460Y-64713660D01*
X91192461Y-64713660D01*
X91196246Y-64715228D01*
X91200308Y-64715763D01*
X91200309Y-64715763D01*
X91336936Y-64733750D01*
X91341000Y-64734285D01*
X91345064Y-64733750D01*
X91481691Y-64715763D01*
X91481692Y-64715763D01*
X91485754Y-64715228D01*
X91489539Y-64713660D01*
X91489540Y-64713660D01*
X91616854Y-64660925D01*
X91616857Y-64660923D01*
X91620643Y-64659355D01*
X91736474Y-64570474D01*
X91825355Y-64454642D01*
X91872317Y-64341267D01*
X91879660Y-64323540D01*
X91879660Y-64323538D01*
X91881228Y-64319754D01*
X91900285Y-64175000D01*
X91901283Y-64175131D01*
X91918056Y-64134638D01*
X92524888Y-63527806D01*
X92569082Y-63509500D01*
X94863000Y-63509500D01*
X94907194Y-63527806D01*
X94925500Y-63572000D01*
X94925500Y-63724053D01*
X94940738Y-63854754D01*
X95000768Y-64020134D01*
X95002756Y-64023167D01*
X95002757Y-64023168D01*
X95028325Y-64062165D01*
X95097234Y-64167268D01*
X95224960Y-64288264D01*
X95377096Y-64376632D01*
X95545480Y-64427630D01*
X95721080Y-64438524D01*
X95894477Y-64408729D01*
X96056368Y-64339844D01*
X96198071Y-64235563D01*
X96311982Y-64101480D01*
X96391993Y-63944788D01*
X96433811Y-63773892D01*
X96434500Y-63762786D01*
X96434500Y-62797713D01*
X96452806Y-62753519D01*
X96497000Y-62735213D01*
X96541194Y-62753519D01*
X96554742Y-62773795D01*
X96593869Y-62868255D01*
X96603808Y-62892250D01*
X96696696Y-63013304D01*
X96817750Y-63106192D01*
X96821533Y-63107759D01*
X96954934Y-63163016D01*
X96954936Y-63163016D01*
X96958720Y-63164584D01*
X96962782Y-63165119D01*
X96962783Y-63165119D01*
X97069989Y-63179233D01*
X97069995Y-63179233D01*
X97072020Y-63179500D01*
X97147980Y-63179500D01*
X97150005Y-63179233D01*
X97150011Y-63179233D01*
X97257217Y-63165119D01*
X97257218Y-63165119D01*
X97261280Y-63164584D01*
X97265064Y-63163016D01*
X97265066Y-63163016D01*
X97398467Y-63107759D01*
X97402250Y-63106192D01*
X97523304Y-63013304D01*
X97616192Y-62892250D01*
X97626131Y-62868255D01*
X97673016Y-62755066D01*
X97673016Y-62755064D01*
X97674584Y-62751280D01*
X97675242Y-62746287D01*
X97693965Y-62604064D01*
X97694500Y-62600000D01*
X102305500Y-62600000D01*
X102306035Y-62604064D01*
X102324759Y-62746287D01*
X102325416Y-62751280D01*
X102326984Y-62755064D01*
X102326984Y-62755066D01*
X102373869Y-62868255D01*
X102383808Y-62892250D01*
X102476696Y-63013304D01*
X102597750Y-63106192D01*
X102601533Y-63107759D01*
X102734934Y-63163016D01*
X102734936Y-63163016D01*
X102738720Y-63164584D01*
X102742782Y-63165119D01*
X102742783Y-63165119D01*
X102849989Y-63179233D01*
X102849995Y-63179233D01*
X102852020Y-63179500D01*
X102927980Y-63179500D01*
X102930005Y-63179233D01*
X102930011Y-63179233D01*
X103037217Y-63165119D01*
X103037218Y-63165119D01*
X103041280Y-63164584D01*
X103045064Y-63163016D01*
X103045066Y-63163016D01*
X103178467Y-63107759D01*
X103182250Y-63106192D01*
X103303304Y-63013304D01*
X103396192Y-62892250D01*
X103406131Y-62868255D01*
X103445258Y-62773795D01*
X103479082Y-62739970D01*
X103526918Y-62739971D01*
X103560743Y-62773795D01*
X103565500Y-62797713D01*
X103565500Y-63724053D01*
X103580738Y-63854754D01*
X103640768Y-64020134D01*
X103642756Y-64023167D01*
X103642757Y-64023168D01*
X103668325Y-64062165D01*
X103737234Y-64167268D01*
X103864960Y-64288264D01*
X104017096Y-64376632D01*
X104185480Y-64427630D01*
X104361080Y-64438524D01*
X104534477Y-64408729D01*
X104696368Y-64339844D01*
X104838071Y-64235563D01*
X104951982Y-64101480D01*
X105031993Y-63944788D01*
X105073811Y-63773892D01*
X105074500Y-63762786D01*
X105074500Y-62535947D01*
X105068800Y-62487052D01*
X105063358Y-62440382D01*
X105059262Y-62405246D01*
X104999232Y-62239866D01*
X104902766Y-62092732D01*
X104775040Y-61971736D01*
X104622904Y-61883368D01*
X104454520Y-61832370D01*
X104278920Y-61821476D01*
X104105523Y-61851271D01*
X103943632Y-61920156D01*
X103801929Y-62024437D01*
X103688018Y-62158520D01*
X103608007Y-62315212D01*
X103576264Y-62444937D01*
X103575398Y-62448475D01*
X103547112Y-62487052D01*
X103499834Y-62494329D01*
X103461257Y-62466043D01*
X103454907Y-62451175D01*
X103454584Y-62448720D01*
X103396192Y-62307750D01*
X103303304Y-62186696D01*
X103182250Y-62093808D01*
X103173622Y-62090234D01*
X103045066Y-62036984D01*
X103045064Y-62036984D01*
X103041280Y-62035416D01*
X103037218Y-62034881D01*
X103037217Y-62034881D01*
X102930011Y-62020767D01*
X102930005Y-62020767D01*
X102927980Y-62020500D01*
X102852020Y-62020500D01*
X102849995Y-62020767D01*
X102849989Y-62020767D01*
X102742783Y-62034881D01*
X102742782Y-62034881D01*
X102738720Y-62035416D01*
X102734936Y-62036984D01*
X102734934Y-62036984D01*
X102606378Y-62090234D01*
X102597750Y-62093808D01*
X102476696Y-62186696D01*
X102383808Y-62307750D01*
X102382241Y-62311533D01*
X102326985Y-62444933D01*
X102325416Y-62448720D01*
X102324881Y-62452780D01*
X102324881Y-62452782D01*
X102313694Y-62537759D01*
X102305500Y-62600000D01*
X97694500Y-62600000D01*
X97686306Y-62537759D01*
X97675119Y-62452782D01*
X97675119Y-62452780D01*
X97674584Y-62448720D01*
X97673016Y-62444933D01*
X97617759Y-62311533D01*
X97616192Y-62307750D01*
X97523304Y-62186696D01*
X97402250Y-62093808D01*
X97393622Y-62090234D01*
X97265066Y-62036984D01*
X97265064Y-62036984D01*
X97261280Y-62035416D01*
X97257218Y-62034881D01*
X97257217Y-62034881D01*
X97150011Y-62020767D01*
X97150005Y-62020767D01*
X97147980Y-62020500D01*
X97072020Y-62020500D01*
X97069995Y-62020767D01*
X97069989Y-62020767D01*
X96962783Y-62034881D01*
X96962782Y-62034881D01*
X96958720Y-62035416D01*
X96954936Y-62036984D01*
X96954934Y-62036984D01*
X96826378Y-62090234D01*
X96817750Y-62093808D01*
X96696696Y-62186696D01*
X96603808Y-62307750D01*
X96545416Y-62448720D01*
X96545239Y-62450065D01*
X96516685Y-62487273D01*
X96469258Y-62493514D01*
X96431310Y-62464392D01*
X96423358Y-62440382D01*
X96419683Y-62408853D01*
X96419682Y-62408849D01*
X96419262Y-62405246D01*
X96359232Y-62239866D01*
X96262766Y-62092732D01*
X96135040Y-61971736D01*
X95982904Y-61883368D01*
X95814520Y-61832370D01*
X95638920Y-61821476D01*
X95465523Y-61851271D01*
X95303632Y-61920156D01*
X95161929Y-62024437D01*
X95048018Y-62158520D01*
X94968007Y-62315212D01*
X94926189Y-62486108D01*
X94925500Y-62497214D01*
X94925500Y-62688000D01*
X94907194Y-62732194D01*
X94863000Y-62750500D01*
X92433164Y-62750500D01*
X92420009Y-62749100D01*
X92417281Y-62748513D01*
X92404124Y-62745680D01*
X92398995Y-62746287D01*
X92398992Y-62746287D01*
X92367059Y-62750067D01*
X92359713Y-62750500D01*
X92354476Y-62750500D01*
X92351935Y-62750923D01*
X92351923Y-62750924D01*
X92333958Y-62753915D01*
X92331050Y-62754329D01*
X92278659Y-62760530D01*
X92274002Y-62762766D01*
X92270221Y-62763865D01*
X92266475Y-62765147D01*
X92261374Y-62765996D01*
X92214928Y-62791057D01*
X92212313Y-62792389D01*
X92168313Y-62813517D01*
X92168309Y-62813520D01*
X92164768Y-62815220D01*
X92160492Y-62818814D01*
X92160296Y-62819010D01*
X92157211Y-62821615D01*
X92154735Y-62823535D01*
X92150186Y-62825990D01*
X92146677Y-62829786D01*
X92112752Y-62866486D01*
X92111051Y-62868255D01*
X91381362Y-63597944D01*
X91340869Y-63614717D01*
X91341000Y-63615715D01*
X91337276Y-63616205D01*
X91337275Y-63616205D01*
X91336936Y-63616250D01*
X91200309Y-63634237D01*
X91200308Y-63634237D01*
X91196246Y-63634772D01*
X91192462Y-63636340D01*
X91192460Y-63636340D01*
X91065141Y-63689078D01*
X91061358Y-63690645D01*
X90945526Y-63779526D01*
X90856645Y-63895358D01*
X90855078Y-63899141D01*
X90804961Y-64020134D01*
X90800772Y-64030246D01*
X90781715Y-64175000D01*
X90254500Y-64175000D01*
X90254500Y-60500000D01*
X90690517Y-60500000D01*
X90710411Y-60727389D01*
X90769488Y-60947870D01*
X90865954Y-61154741D01*
X90996878Y-61341719D01*
X91158281Y-61503122D01*
X91345259Y-61634046D01*
X91552130Y-61730512D01*
X91554763Y-61731217D01*
X91554767Y-61731219D01*
X91769975Y-61788883D01*
X91769978Y-61788884D01*
X91772611Y-61789589D01*
X91775327Y-61789827D01*
X91775329Y-61789827D01*
X91941692Y-61804382D01*
X91941698Y-61804382D01*
X91943044Y-61804500D01*
X92056956Y-61804500D01*
X92058302Y-61804382D01*
X92058308Y-61804382D01*
X92224671Y-61789827D01*
X92224673Y-61789827D01*
X92227389Y-61789589D01*
X92230022Y-61788884D01*
X92230025Y-61788883D01*
X92445233Y-61731219D01*
X92445237Y-61731217D01*
X92447870Y-61730512D01*
X92654741Y-61634046D01*
X92841719Y-61503122D01*
X93003122Y-61341719D01*
X93134046Y-61154742D01*
X93230512Y-60947870D01*
X93289589Y-60727389D01*
X93309483Y-60500000D01*
X106690517Y-60500000D01*
X106710411Y-60727389D01*
X106769488Y-60947870D01*
X106865954Y-61154741D01*
X106996878Y-61341719D01*
X107158281Y-61503122D01*
X107345259Y-61634046D01*
X107552130Y-61730512D01*
X107554763Y-61731217D01*
X107554767Y-61731219D01*
X107769975Y-61788883D01*
X107769978Y-61788884D01*
X107772611Y-61789589D01*
X107775327Y-61789827D01*
X107775329Y-61789827D01*
X107941692Y-61804382D01*
X107941698Y-61804382D01*
X107943044Y-61804500D01*
X108056956Y-61804500D01*
X108058302Y-61804382D01*
X108058308Y-61804382D01*
X108224671Y-61789827D01*
X108224673Y-61789827D01*
X108227389Y-61789589D01*
X108230022Y-61788884D01*
X108230025Y-61788883D01*
X108445233Y-61731219D01*
X108445237Y-61731217D01*
X108447870Y-61730512D01*
X108654741Y-61634046D01*
X108841719Y-61503122D01*
X109003122Y-61341719D01*
X109134046Y-61154742D01*
X109230512Y-60947870D01*
X109289589Y-60727389D01*
X109309483Y-60500000D01*
X109289589Y-60272611D01*
X109230512Y-60052130D01*
X109134046Y-59845259D01*
X109003122Y-59658281D01*
X108841719Y-59496878D01*
X108654741Y-59365954D01*
X108447870Y-59269488D01*
X108445237Y-59268783D01*
X108445233Y-59268781D01*
X108230025Y-59211117D01*
X108230022Y-59211116D01*
X108227389Y-59210411D01*
X108224673Y-59210173D01*
X108224671Y-59210173D01*
X108058308Y-59195618D01*
X108058302Y-59195618D01*
X108056956Y-59195500D01*
X107943044Y-59195500D01*
X107941698Y-59195618D01*
X107941692Y-59195618D01*
X107775329Y-59210173D01*
X107775327Y-59210173D01*
X107772611Y-59210411D01*
X107769978Y-59211116D01*
X107769975Y-59211117D01*
X107554767Y-59268781D01*
X107554763Y-59268783D01*
X107552130Y-59269488D01*
X107345259Y-59365954D01*
X107158281Y-59496878D01*
X106996878Y-59658281D01*
X106865954Y-59845258D01*
X106769488Y-60052130D01*
X106710411Y-60272611D01*
X106690517Y-60500000D01*
X93309483Y-60500000D01*
X93289589Y-60272611D01*
X93230512Y-60052130D01*
X93134046Y-59845259D01*
X93003122Y-59658281D01*
X92841719Y-59496878D01*
X92654741Y-59365954D01*
X92447870Y-59269488D01*
X92445237Y-59268783D01*
X92445233Y-59268781D01*
X92230025Y-59211117D01*
X92230022Y-59211116D01*
X92227389Y-59210411D01*
X92224673Y-59210173D01*
X92224671Y-59210173D01*
X92058308Y-59195618D01*
X92058302Y-59195618D01*
X92056956Y-59195500D01*
X91943044Y-59195500D01*
X91941698Y-59195618D01*
X91941692Y-59195618D01*
X91775329Y-59210173D01*
X91775327Y-59210173D01*
X91772611Y-59210411D01*
X91769978Y-59211116D01*
X91769975Y-59211117D01*
X91554767Y-59268781D01*
X91554763Y-59268783D01*
X91552130Y-59269488D01*
X91345259Y-59365954D01*
X91158281Y-59496878D01*
X90996878Y-59658281D01*
X90865954Y-59845258D01*
X90769488Y-60052130D01*
X90710411Y-60272611D01*
X90690517Y-60500000D01*
X90254500Y-60500000D01*
X90254500Y-59031222D01*
X90255701Y-59019029D01*
X90258285Y-59006038D01*
X90259486Y-59000000D01*
X90257960Y-58992327D01*
X90257060Y-58974008D01*
X90268221Y-58860688D01*
X90270611Y-58848671D01*
X90309462Y-58720598D01*
X90314151Y-58709279D01*
X90369382Y-58605947D01*
X90377237Y-58591252D01*
X90384043Y-58581065D01*
X90468947Y-58477610D01*
X90477610Y-58468947D01*
X90581065Y-58384043D01*
X90591253Y-58377236D01*
X90709279Y-58314151D01*
X90720598Y-58309462D01*
X90782985Y-58290537D01*
X90848675Y-58270610D01*
X90860684Y-58268222D01*
X90949376Y-58259486D01*
X90974008Y-58257060D01*
X90992327Y-58257960D01*
X90993961Y-58258285D01*
X90993963Y-58258285D01*
X91000000Y-58259486D01*
X91019029Y-58255701D01*
X91031222Y-58254500D01*
X94932661Y-58254500D01*
X94976855Y-58272806D01*
G37*
%TD.AperFunction*%
%TD*%
M02*
