%TF.GenerationSoftware,KiCad,Pcbnew,(6.0.5-0)*%
%TF.CreationDate,2022-07-11T22:44:33-07:00*%
%TF.ProjectId,usb_type_c,7573625f-7479-4706-955f-632e6b696361,rev?*%
%TF.SameCoordinates,Original*%
%TF.FileFunction,Copper,L1,Top*%
%TF.FilePolarity,Positive*%
%FSLAX46Y46*%
G04 Gerber Fmt 4.6, Leading zero omitted, Abs format (unit mm)*
G04 Created by KiCad (PCBNEW (6.0.5-0)) date 2022-07-11 22:44:33*
%MOMM*%
%LPD*%
G01*
G04 APERTURE LIST*
G04 Aperture macros list*
%AMRoundRect*
0 Rectangle with rounded corners*
0 $1 Rounding radius*
0 $2 $3 $4 $5 $6 $7 $8 $9 X,Y pos of 4 corners*
0 Add a 4 corners polygon primitive as box body*
4,1,4,$2,$3,$4,$5,$6,$7,$8,$9,$2,$3,0*
0 Add four circle primitives for the rounded corners*
1,1,$1+$1,$2,$3*
1,1,$1+$1,$4,$5*
1,1,$1+$1,$6,$7*
1,1,$1+$1,$8,$9*
0 Add four rect primitives between the rounded corners*
20,1,$1+$1,$2,$3,$4,$5,0*
20,1,$1+$1,$4,$5,$6,$7,0*
20,1,$1+$1,$6,$7,$8,$9,0*
20,1,$1+$1,$8,$9,$2,$3,0*%
G04 Aperture macros list end*
%TA.AperFunction,SMDPad,CuDef*%
%ADD10RoundRect,0.150000X-0.150000X-0.625000X0.150000X-0.625000X0.150000X0.625000X-0.150000X0.625000X0*%
%TD*%
%TA.AperFunction,SMDPad,CuDef*%
%ADD11RoundRect,0.250000X-0.350000X-0.650000X0.350000X-0.650000X0.350000X0.650000X-0.350000X0.650000X0*%
%TD*%
%TA.AperFunction,SMDPad,CuDef*%
%ADD12RoundRect,0.250000X-0.625000X0.312500X-0.625000X-0.312500X0.625000X-0.312500X0.625000X0.312500X0*%
%TD*%
%TA.AperFunction,ComponentPad*%
%ADD13RoundRect,0.250000X-0.350000X-0.625000X0.350000X-0.625000X0.350000X0.625000X-0.350000X0.625000X0*%
%TD*%
%TA.AperFunction,ComponentPad*%
%ADD14O,1.200000X1.750000*%
%TD*%
%TA.AperFunction,SMDPad,CuDef*%
%ADD15R,0.600000X1.450000*%
%TD*%
%TA.AperFunction,SMDPad,CuDef*%
%ADD16R,0.300000X1.450000*%
%TD*%
%TA.AperFunction,ComponentPad*%
%ADD17O,1.000000X1.600000*%
%TD*%
%TA.AperFunction,ComponentPad*%
%ADD18O,1.000000X2.100000*%
%TD*%
%TA.AperFunction,ViaPad*%
%ADD19C,0.900000*%
%TD*%
%TA.AperFunction,ViaPad*%
%ADD20C,0.600000*%
%TD*%
%TA.AperFunction,Conductor*%
%ADD21C,0.250000*%
%TD*%
%TA.AperFunction,Conductor*%
%ADD22C,0.550000*%
%TD*%
G04 APERTURE END LIST*
D10*
%TO.P,J1,1,Pin_1*%
%TO.N,VBUS_C*%
X98500000Y-69352000D03*
%TO.P,J1,2,Pin_2*%
%TO.N,DM_C*%
X99500000Y-69352000D03*
%TO.P,J1,3,Pin_3*%
%TO.N,DP_C*%
X100500000Y-69352000D03*
%TO.P,J1,4,Pin_4*%
%TO.N,GND*%
X101500000Y-69352000D03*
D11*
%TO.P,J1,MP*%
%TO.N,N/C*%
X102800000Y-73227000D03*
X97200000Y-73227000D03*
X102800000Y-73227000D03*
X97200000Y-73227000D03*
%TD*%
D12*
%TO.P,R1,1*%
%TO.N,Net-(J2-PadA5)*%
X107000000Y-63887500D03*
%TO.P,R1,2*%
%TO.N,GND*%
X107000000Y-66812500D03*
%TD*%
%TO.P,R3,1*%
%TO.N,SHIELD*%
X91200000Y-64027500D03*
%TO.P,R3,2*%
%TO.N,GND*%
X91200000Y-66952500D03*
%TD*%
%TO.P,R2,1*%
%TO.N,Net-(J2-PadB5)*%
X93500000Y-64037500D03*
%TO.P,R2,2*%
%TO.N,GND*%
X93500000Y-66962500D03*
%TD*%
D13*
%TO.P,J4,1,Pin_1*%
%TO.N,VBUS_C*%
X97000000Y-67355000D03*
D14*
%TO.P,J4,2,Pin_2*%
%TO.N,DM_C*%
X99000000Y-67355000D03*
%TO.P,J4,3,Pin_3*%
%TO.N,DP_C*%
X101000000Y-67355000D03*
%TO.P,J4,4,Pin_4*%
%TO.N,GND*%
X103000000Y-67355000D03*
%TD*%
D15*
%TO.P,J2,A1,GND*%
%TO.N,GND*%
X103250000Y-64045000D03*
%TO.P,J2,A4,VBUS*%
%TO.N,VBUS_C*%
X102450000Y-64045000D03*
D16*
%TO.P,J2,A5,CC1*%
%TO.N,Net-(J2-PadA5)*%
X101250000Y-64045000D03*
%TO.P,J2,A6,D+*%
%TO.N,DP_C*%
X100250000Y-64045000D03*
%TO.P,J2,A7,D-*%
%TO.N,DM_C*%
X99750000Y-64045000D03*
%TO.P,J2,A8,SBU1*%
%TO.N,unconnected-(J2-PadA8)*%
X98750000Y-64045000D03*
D15*
%TO.P,J2,A9,VBUS*%
%TO.N,VBUS_C*%
X97550000Y-64045000D03*
%TO.P,J2,A12,GND*%
%TO.N,GND*%
X96750000Y-64045000D03*
%TO.P,J2,B1,GND*%
X96750000Y-64045000D03*
%TO.P,J2,B4,VBUS*%
%TO.N,VBUS_C*%
X97550000Y-64045000D03*
D16*
%TO.P,J2,B5,CC2*%
%TO.N,Net-(J2-PadB5)*%
X98250000Y-64045000D03*
%TO.P,J2,B6,D+*%
%TO.N,DP_C*%
X99250000Y-64045000D03*
%TO.P,J2,B7,D-*%
%TO.N,DM_C*%
X100750000Y-64045000D03*
%TO.P,J2,B8,SBU2*%
%TO.N,unconnected-(J2-PadB8)*%
X101750000Y-64045000D03*
D15*
%TO.P,J2,B9,VBUS*%
%TO.N,VBUS_C*%
X102450000Y-64045000D03*
%TO.P,J2,B12,GND*%
%TO.N,GND*%
X103250000Y-64045000D03*
D17*
%TO.P,J2,S1,SHIELD*%
%TO.N,SHIELD*%
X95680000Y-58950000D03*
D18*
X104320000Y-63130000D03*
X95680000Y-63130000D03*
D17*
X104320000Y-58950000D03*
%TD*%
D19*
%TO.N,VBUS_C*%
X102381000Y-65643000D03*
D20*
%TO.N,SHIELD*%
X91341000Y-64175000D03*
%TO.N,DP_C*%
X100622000Y-65196502D03*
X99124000Y-65222000D03*
%TD*%
D21*
%TO.N,DP_C*%
X100622000Y-65196502D02*
X100250000Y-64824502D01*
X100250000Y-64824502D02*
X100250000Y-64045000D01*
X100622000Y-65196502D02*
X100622000Y-66977000D01*
X100622000Y-66977000D02*
X101000000Y-67355000D01*
X99250000Y-65096000D02*
X99250000Y-64045000D01*
X99124000Y-65222000D02*
X99250000Y-65096000D01*
D22*
%TO.N,VBUS_C*%
X102450000Y-65574000D02*
X102381000Y-65643000D01*
X102450000Y-64045000D02*
X102450000Y-65574000D01*
D21*
%TO.N,DP_C*%
X100500000Y-69352000D02*
X100500000Y-67855000D01*
X100500000Y-67855000D02*
X101000000Y-67355000D01*
%TO.N,DM_C*%
X99500000Y-69352000D02*
X99500000Y-67855000D01*
X99500000Y-67855000D02*
X99000000Y-67355000D01*
D22*
%TO.N,VBUS_C*%
X98500000Y-69352000D02*
X98327000Y-69352000D01*
X98327000Y-69352000D02*
X97000000Y-68025000D01*
X97000000Y-68025000D02*
X97000000Y-67355000D01*
D21*
%TO.N,Net-(J2-PadB5)*%
X93500000Y-64037500D02*
X93500000Y-62143000D01*
X93500000Y-62143000D02*
X94120000Y-61523000D01*
X94120000Y-61523000D02*
X97672000Y-61523000D01*
X97672000Y-61523000D02*
X98250000Y-62101000D01*
X98250000Y-62101000D02*
X98250000Y-64045000D01*
%TO.N,Net-(J2-PadA5)*%
X101250000Y-64045000D02*
X101250000Y-61971000D01*
X101947000Y-61274000D02*
X104827000Y-61274000D01*
X101250000Y-61971000D02*
X101947000Y-61274000D01*
X104827000Y-61274000D02*
X107000000Y-63447000D01*
X107000000Y-63447000D02*
X107000000Y-63887500D01*
%TO.N,DM_C*%
X99750000Y-64045000D02*
X99750000Y-66605000D01*
X99750000Y-66605000D02*
X99000000Y-67355000D01*
D22*
%TO.N,VBUS_C*%
X97550000Y-64045000D02*
X97550000Y-66805000D01*
X97550000Y-66805000D02*
X97000000Y-67355000D01*
D21*
%TO.N,SHIELD*%
X104320000Y-58950000D02*
X95680000Y-58950000D01*
%TO.N,DM_C*%
X99750000Y-63070000D02*
X99750000Y-64045000D01*
X100750000Y-64045000D02*
X100750000Y-63091000D01*
X100750000Y-63091000D02*
X100596000Y-62937000D01*
X99883000Y-62937000D02*
X99750000Y-63070000D01*
X100596000Y-62937000D02*
X99883000Y-62937000D01*
%TD*%
%TA.AperFunction,Conductor*%
%TO.N,SHIELD*%
G36*
X97058949Y-61920806D02*
G01*
X97077255Y-61965000D01*
X97058949Y-62009194D01*
X97022913Y-62026965D01*
X96962782Y-62034881D01*
X96962780Y-62034881D01*
X96958720Y-62035416D01*
X96954936Y-62036984D01*
X96954934Y-62036984D01*
X96821533Y-62092241D01*
X96817750Y-62093808D01*
X96696696Y-62186696D01*
X96603808Y-62307750D01*
X96545416Y-62448720D01*
X96544881Y-62452780D01*
X96544881Y-62452782D01*
X96529334Y-62570879D01*
X96525500Y-62600000D01*
X96526035Y-62604064D01*
X96531604Y-62646362D01*
X96545416Y-62751280D01*
X96546984Y-62755064D01*
X96546984Y-62755066D01*
X96576383Y-62826041D01*
X96603808Y-62892250D01*
X96606299Y-62895496D01*
X96606302Y-62895501D01*
X96659594Y-62964952D01*
X96671975Y-63011157D01*
X96648058Y-63052584D01*
X96610010Y-63065500D01*
X96431550Y-63065501D01*
X96424934Y-63065501D01*
X96421925Y-63066100D01*
X96421920Y-63066100D01*
X96362192Y-63077980D01*
X96350699Y-63080266D01*
X96266516Y-63136516D01*
X96210266Y-63220699D01*
X96195500Y-63294933D01*
X96195501Y-64025502D01*
X96195501Y-64098810D01*
X96177195Y-64143004D01*
X96133593Y-64161307D01*
X95384314Y-64168409D01*
X95339949Y-64150523D01*
X95321227Y-64106688D01*
X95308314Y-63066099D01*
X95294660Y-61965774D01*
X95312415Y-61921358D01*
X95357154Y-61902500D01*
X97014755Y-61902500D01*
X97058949Y-61920806D01*
G37*
%TD.AperFunction*%
%TA.AperFunction,Conductor*%
G36*
X104353427Y-61671806D02*
G01*
X104371730Y-61715386D01*
X104374792Y-62026965D01*
X104386585Y-63226738D01*
X104394386Y-64020482D01*
X104376515Y-64064854D01*
X104332482Y-64083593D01*
X103979663Y-64086937D01*
X103867592Y-64087999D01*
X103823227Y-64070113D01*
X103804500Y-64025502D01*
X103804499Y-63298005D01*
X103804499Y-63294934D01*
X103789734Y-63220699D01*
X103733484Y-63136516D01*
X103713452Y-63123131D01*
X103654420Y-63083686D01*
X103654418Y-63083685D01*
X103649301Y-63080266D01*
X103616247Y-63073691D01*
X103578080Y-63066099D01*
X103578077Y-63066099D01*
X103575067Y-63065500D01*
X103568453Y-63065500D01*
X103389989Y-63065501D01*
X103345796Y-63047195D01*
X103327490Y-63003001D01*
X103340405Y-62964953D01*
X103393701Y-62895496D01*
X103396192Y-62892250D01*
X103423617Y-62826041D01*
X103453016Y-62755066D01*
X103453016Y-62755064D01*
X103454584Y-62751280D01*
X103468397Y-62646362D01*
X103473965Y-62604064D01*
X103474500Y-62600000D01*
X103470666Y-62570879D01*
X103455119Y-62452782D01*
X103455119Y-62452780D01*
X103454584Y-62448720D01*
X103396192Y-62307750D01*
X103303304Y-62186696D01*
X103182250Y-62093808D01*
X103178467Y-62092241D01*
X103045066Y-62036984D01*
X103045064Y-62036984D01*
X103041280Y-62035416D01*
X103037218Y-62034881D01*
X103037217Y-62034881D01*
X102930011Y-62020767D01*
X102930005Y-62020767D01*
X102927980Y-62020500D01*
X102852020Y-62020500D01*
X102849995Y-62020767D01*
X102849989Y-62020767D01*
X102742783Y-62034881D01*
X102742782Y-62034881D01*
X102738720Y-62035416D01*
X102734936Y-62036984D01*
X102734934Y-62036984D01*
X102601533Y-62092241D01*
X102597750Y-62093808D01*
X102476696Y-62186696D01*
X102383808Y-62307750D01*
X102325416Y-62448720D01*
X102324881Y-62452780D01*
X102324881Y-62452782D01*
X102309334Y-62570879D01*
X102305500Y-62600000D01*
X102306035Y-62604064D01*
X102311604Y-62646362D01*
X102325416Y-62751280D01*
X102326984Y-62755064D01*
X102326984Y-62755066D01*
X102356383Y-62826041D01*
X102383808Y-62892250D01*
X102386299Y-62895496D01*
X102439594Y-62964952D01*
X102451974Y-63011158D01*
X102428057Y-63052585D01*
X102390009Y-63065500D01*
X102133107Y-63065501D01*
X102124934Y-63065501D01*
X102121925Y-63066100D01*
X102121920Y-63066100D01*
X102083516Y-63073739D01*
X102050699Y-63080266D01*
X102047649Y-63082304D01*
X102002351Y-63082304D01*
X101999301Y-63080266D01*
X101993260Y-63079064D01*
X101993259Y-63079064D01*
X101928080Y-63066099D01*
X101928077Y-63066099D01*
X101925067Y-63065500D01*
X101911224Y-63065500D01*
X101691999Y-63065501D01*
X101647806Y-63047195D01*
X101629500Y-63003001D01*
X101629500Y-62154082D01*
X101647806Y-62109888D01*
X102085888Y-61671806D01*
X102130082Y-61653500D01*
X104309233Y-61653500D01*
X104353427Y-61671806D01*
G37*
%TD.AperFunction*%
%TA.AperFunction,Conductor*%
G36*
X104320020Y-58272806D02*
G01*
X104338323Y-58316386D01*
X104363042Y-60831386D01*
X104345171Y-60875758D01*
X104300545Y-60894500D01*
X101994164Y-60894500D01*
X101981009Y-60893100D01*
X101978281Y-60892513D01*
X101965124Y-60889680D01*
X101959995Y-60890287D01*
X101959992Y-60890287D01*
X101928059Y-60894067D01*
X101920713Y-60894500D01*
X101915476Y-60894500D01*
X101912935Y-60894923D01*
X101912923Y-60894924D01*
X101894958Y-60897915D01*
X101892050Y-60898329D01*
X101839659Y-60904530D01*
X101835002Y-60906766D01*
X101831221Y-60907865D01*
X101827474Y-60909147D01*
X101822374Y-60909996D01*
X101817828Y-60912449D01*
X101817825Y-60912450D01*
X101775939Y-60935051D01*
X101773314Y-60936388D01*
X101729314Y-60957516D01*
X101729312Y-60957517D01*
X101725768Y-60959219D01*
X101722759Y-60961748D01*
X101722757Y-60961750D01*
X101722587Y-60961893D01*
X101721492Y-60962814D01*
X101721294Y-60963012D01*
X101718214Y-60965612D01*
X101715733Y-60967537D01*
X101711186Y-60969990D01*
X101707678Y-60973785D01*
X101673752Y-61010486D01*
X101672051Y-61012255D01*
X101015004Y-61669302D01*
X101004716Y-61677611D01*
X100991060Y-61686429D01*
X100987863Y-61690485D01*
X100967951Y-61715743D01*
X100963062Y-61721244D01*
X100959362Y-61724944D01*
X100957866Y-61727038D01*
X100957863Y-61727041D01*
X100947271Y-61741863D01*
X100945504Y-61744217D01*
X100912844Y-61785647D01*
X100911132Y-61790523D01*
X100909207Y-61794024D01*
X100907487Y-61797535D01*
X100904486Y-61801734D01*
X100903008Y-61806676D01*
X100903006Y-61806680D01*
X100889366Y-61852292D01*
X100888455Y-61855094D01*
X100872285Y-61901139D01*
X100872284Y-61901143D01*
X100870982Y-61904851D01*
X100870500Y-61910416D01*
X100870500Y-61910693D01*
X100870160Y-61914719D01*
X100869767Y-61917828D01*
X100868287Y-61922778D01*
X100868490Y-61927939D01*
X100870452Y-61977882D01*
X100870500Y-61980336D01*
X100870500Y-62544139D01*
X100852194Y-62588333D01*
X100808000Y-62606639D01*
X100781285Y-62599780D01*
X100781273Y-62599815D01*
X100781032Y-62599730D01*
X100780974Y-62599700D01*
X100780858Y-62599670D01*
X100776480Y-62598133D01*
X100772983Y-62596210D01*
X100769464Y-62594486D01*
X100765266Y-62591486D01*
X100760324Y-62590008D01*
X100760320Y-62590006D01*
X100724154Y-62579191D01*
X100714700Y-62576363D01*
X100711906Y-62575455D01*
X100665861Y-62559285D01*
X100665857Y-62559284D01*
X100662149Y-62557982D01*
X100658149Y-62557636D01*
X100657926Y-62557616D01*
X100657921Y-62557616D01*
X100656584Y-62557500D01*
X100656307Y-62557500D01*
X100652281Y-62557160D01*
X100649172Y-62556767D01*
X100644222Y-62555287D01*
X100589118Y-62557452D01*
X100586664Y-62557500D01*
X99930164Y-62557500D01*
X99917009Y-62556100D01*
X99913232Y-62555287D01*
X99901124Y-62552680D01*
X99895995Y-62553287D01*
X99895992Y-62553287D01*
X99864061Y-62557067D01*
X99856714Y-62557500D01*
X99851476Y-62557500D01*
X99848935Y-62557923D01*
X99848923Y-62557924D01*
X99830946Y-62560917D01*
X99828043Y-62561331D01*
X99775659Y-62567531D01*
X99771003Y-62569767D01*
X99767174Y-62570879D01*
X99763467Y-62572148D01*
X99758374Y-62572996D01*
X99753829Y-62575448D01*
X99753827Y-62575449D01*
X99711930Y-62598055D01*
X99709307Y-62599392D01*
X99692814Y-62607312D01*
X99661768Y-62622220D01*
X99657492Y-62625814D01*
X99657296Y-62626010D01*
X99654211Y-62628615D01*
X99651735Y-62630535D01*
X99647186Y-62632990D01*
X99643677Y-62636786D01*
X99609752Y-62673486D01*
X99608051Y-62675255D01*
X99515004Y-62768302D01*
X99504716Y-62776611D01*
X99491060Y-62785429D01*
X99487863Y-62789485D01*
X99467951Y-62814743D01*
X99463062Y-62820244D01*
X99459362Y-62823944D01*
X99457866Y-62826038D01*
X99457863Y-62826041D01*
X99447271Y-62840863D01*
X99445504Y-62843217D01*
X99412844Y-62884647D01*
X99411132Y-62889523D01*
X99409207Y-62893024D01*
X99407487Y-62896535D01*
X99404486Y-62900734D01*
X99403008Y-62905676D01*
X99403006Y-62905680D01*
X99389366Y-62951292D01*
X99388455Y-62954094D01*
X99372285Y-63000139D01*
X99372284Y-63000143D01*
X99370982Y-63003851D01*
X99370643Y-63007767D01*
X99370589Y-63008388D01*
X99370452Y-63008651D01*
X99369815Y-63011612D01*
X99369005Y-63011438D01*
X99348542Y-63050839D01*
X99308322Y-63065500D01*
X99088932Y-63065501D01*
X99074934Y-63065501D01*
X99071925Y-63066100D01*
X99071920Y-63066100D01*
X99022977Y-63075835D01*
X99012192Y-63077980D01*
X98987808Y-63077980D01*
X98928080Y-63066099D01*
X98928077Y-63066099D01*
X98925067Y-63065500D01*
X98911224Y-63065500D01*
X98691999Y-63065501D01*
X98647806Y-63047195D01*
X98629500Y-63003001D01*
X98629500Y-62148164D01*
X98630900Y-62135009D01*
X98633232Y-62124176D01*
X98634320Y-62119124D01*
X98631324Y-62093808D01*
X98629933Y-62082061D01*
X98629500Y-62074714D01*
X98629500Y-62069476D01*
X98629077Y-62066935D01*
X98629076Y-62066923D01*
X98626083Y-62048946D01*
X98625667Y-62046028D01*
X98620076Y-61998788D01*
X98619469Y-61993659D01*
X98617233Y-61989003D01*
X98616121Y-61985174D01*
X98614852Y-61981467D01*
X98614004Y-61976374D01*
X98607867Y-61965000D01*
X98588945Y-61929930D01*
X98587608Y-61927307D01*
X98566480Y-61883309D01*
X98564780Y-61879768D01*
X98561186Y-61875492D01*
X98560990Y-61875296D01*
X98558385Y-61872211D01*
X98556465Y-61869735D01*
X98554010Y-61865186D01*
X98543093Y-61855094D01*
X98513514Y-61827752D01*
X98511745Y-61826051D01*
X97973698Y-61288004D01*
X97965389Y-61277716D01*
X97956571Y-61264060D01*
X97927257Y-61240951D01*
X97921756Y-61236062D01*
X97918056Y-61232362D01*
X97915962Y-61230866D01*
X97915959Y-61230863D01*
X97901137Y-61220271D01*
X97898783Y-61218504D01*
X97861411Y-61189043D01*
X97857353Y-61185844D01*
X97852477Y-61184132D01*
X97848976Y-61182207D01*
X97845465Y-61180487D01*
X97841266Y-61177486D01*
X97836324Y-61176008D01*
X97836320Y-61176006D01*
X97800154Y-61165191D01*
X97790700Y-61162363D01*
X97787906Y-61161455D01*
X97741861Y-61145285D01*
X97741857Y-61145284D01*
X97738149Y-61143982D01*
X97734149Y-61143636D01*
X97733926Y-61143616D01*
X97733921Y-61143616D01*
X97732584Y-61143500D01*
X97732307Y-61143500D01*
X97728281Y-61143160D01*
X97725172Y-61142767D01*
X97720222Y-61141287D01*
X97665118Y-61143452D01*
X97662664Y-61143500D01*
X95346185Y-61143500D01*
X95301991Y-61125194D01*
X95283690Y-61081776D01*
X95249390Y-58317776D01*
X95267146Y-58273358D01*
X95311885Y-58254500D01*
X104275826Y-58254500D01*
X104320020Y-58272806D01*
G37*
%TD.AperFunction*%
%TD*%
%TA.AperFunction,Conductor*%
%TO.N,GND*%
G36*
X108980971Y-58255701D02*
G01*
X109000000Y-58259486D01*
X109006037Y-58258285D01*
X109006039Y-58258285D01*
X109007673Y-58257960D01*
X109025992Y-58257060D01*
X109050624Y-58259486D01*
X109139316Y-58268222D01*
X109151325Y-58270610D01*
X109217015Y-58290537D01*
X109279402Y-58309462D01*
X109290721Y-58314151D01*
X109408747Y-58377236D01*
X109418935Y-58384043D01*
X109522390Y-58468947D01*
X109531053Y-58477610D01*
X109615957Y-58581065D01*
X109622763Y-58591252D01*
X109630618Y-58605947D01*
X109685849Y-58709279D01*
X109690538Y-58720598D01*
X109729389Y-58848671D01*
X109731779Y-58860688D01*
X109742940Y-58974008D01*
X109742040Y-58992327D01*
X109740514Y-59000000D01*
X109741715Y-59006038D01*
X109744299Y-59019029D01*
X109745500Y-59031222D01*
X109745500Y-72468778D01*
X109744299Y-72480971D01*
X109740514Y-72500000D01*
X109741715Y-72506037D01*
X109741715Y-72506039D01*
X109742040Y-72507673D01*
X109742940Y-72525992D01*
X109731779Y-72639312D01*
X109729389Y-72651329D01*
X109690538Y-72779402D01*
X109685849Y-72790721D01*
X109622764Y-72908747D01*
X109615957Y-72918935D01*
X109531053Y-73022390D01*
X109522390Y-73031053D01*
X109418935Y-73115957D01*
X109408747Y-73122764D01*
X109290721Y-73185849D01*
X109279401Y-73190538D01*
X109151325Y-73229390D01*
X109139316Y-73231778D01*
X109059653Y-73239625D01*
X109025992Y-73242940D01*
X109007673Y-73242040D01*
X109006039Y-73241715D01*
X109006037Y-73241715D01*
X109000000Y-73240514D01*
X108993962Y-73241715D01*
X108980971Y-73244299D01*
X108968778Y-73245500D01*
X103717000Y-73245500D01*
X103672806Y-73227194D01*
X103654500Y-73183000D01*
X103654500Y-72529244D01*
X103647798Y-72467552D01*
X103597071Y-72332236D01*
X103510404Y-72216596D01*
X103394764Y-72129929D01*
X103390595Y-72128366D01*
X103390593Y-72128365D01*
X103263116Y-72080577D01*
X103259448Y-72079202D01*
X103197756Y-72072500D01*
X102402244Y-72072500D01*
X102340552Y-72079202D01*
X102336884Y-72080577D01*
X102209407Y-72128365D01*
X102209405Y-72128366D01*
X102205236Y-72129929D01*
X102089596Y-72216596D01*
X102002929Y-72332236D01*
X101952202Y-72467552D01*
X101945500Y-72529244D01*
X101945500Y-73183000D01*
X101927194Y-73227194D01*
X101883000Y-73245500D01*
X98117000Y-73245500D01*
X98072806Y-73227194D01*
X98054500Y-73183000D01*
X98054500Y-72529244D01*
X98047798Y-72467552D01*
X97997071Y-72332236D01*
X97910404Y-72216596D01*
X97794764Y-72129929D01*
X97790595Y-72128366D01*
X97790593Y-72128365D01*
X97663116Y-72080577D01*
X97659448Y-72079202D01*
X97597756Y-72072500D01*
X96802244Y-72072500D01*
X96740552Y-72079202D01*
X96736884Y-72080577D01*
X96609407Y-72128365D01*
X96609405Y-72128366D01*
X96605236Y-72129929D01*
X96489596Y-72216596D01*
X96402929Y-72332236D01*
X96352202Y-72467552D01*
X96345500Y-72529244D01*
X96345500Y-73183000D01*
X96327194Y-73227194D01*
X96283000Y-73245500D01*
X91031222Y-73245500D01*
X91019029Y-73244299D01*
X91006038Y-73241715D01*
X91000000Y-73240514D01*
X90993963Y-73241715D01*
X90993961Y-73241715D01*
X90992327Y-73242040D01*
X90974008Y-73242940D01*
X90940347Y-73239625D01*
X90860684Y-73231778D01*
X90848675Y-73229390D01*
X90720599Y-73190538D01*
X90709279Y-73185849D01*
X90591253Y-73122764D01*
X90581065Y-73115957D01*
X90477610Y-73031053D01*
X90468947Y-73022390D01*
X90384043Y-72918935D01*
X90377236Y-72908747D01*
X90314151Y-72790721D01*
X90309462Y-72779402D01*
X90270611Y-72651329D01*
X90268221Y-72639312D01*
X90257060Y-72525992D01*
X90257960Y-72507673D01*
X90258285Y-72506039D01*
X90258285Y-72506037D01*
X90259486Y-72500000D01*
X90255701Y-72480971D01*
X90254500Y-72468778D01*
X90254500Y-70500000D01*
X90690517Y-70500000D01*
X90710411Y-70727389D01*
X90769488Y-70947870D01*
X90865954Y-71154741D01*
X90996878Y-71341719D01*
X91158281Y-71503122D01*
X91345259Y-71634046D01*
X91552130Y-71730512D01*
X91554763Y-71731217D01*
X91554767Y-71731219D01*
X91769975Y-71788883D01*
X91769978Y-71788884D01*
X91772611Y-71789589D01*
X91775327Y-71789827D01*
X91775329Y-71789827D01*
X91941692Y-71804382D01*
X91941698Y-71804382D01*
X91943044Y-71804500D01*
X92056956Y-71804500D01*
X92058302Y-71804382D01*
X92058308Y-71804382D01*
X92224671Y-71789827D01*
X92224673Y-71789827D01*
X92227389Y-71789589D01*
X92230022Y-71788884D01*
X92230025Y-71788883D01*
X92445233Y-71731219D01*
X92445237Y-71731217D01*
X92447870Y-71730512D01*
X92654741Y-71634046D01*
X92841719Y-71503122D01*
X93003122Y-71341719D01*
X93134046Y-71154742D01*
X93230512Y-70947870D01*
X93289589Y-70727389D01*
X93309483Y-70500000D01*
X93297870Y-70367267D01*
X93289827Y-70275329D01*
X93289827Y-70275327D01*
X93289589Y-70272611D01*
X93245465Y-70107936D01*
X93231219Y-70054767D01*
X93231217Y-70054763D01*
X93230512Y-70052130D01*
X93134046Y-69845259D01*
X93003122Y-69658281D01*
X92841719Y-69496878D01*
X92654741Y-69365954D01*
X92447870Y-69269488D01*
X92445237Y-69268783D01*
X92445233Y-69268781D01*
X92230025Y-69211117D01*
X92230022Y-69211116D01*
X92227389Y-69210411D01*
X92224673Y-69210173D01*
X92224671Y-69210173D01*
X92058308Y-69195618D01*
X92058302Y-69195618D01*
X92056956Y-69195500D01*
X91943044Y-69195500D01*
X91941698Y-69195618D01*
X91941692Y-69195618D01*
X91775329Y-69210173D01*
X91775327Y-69210173D01*
X91772611Y-69210411D01*
X91769978Y-69211116D01*
X91769975Y-69211117D01*
X91554767Y-69268781D01*
X91554763Y-69268783D01*
X91552130Y-69269488D01*
X91345259Y-69365954D01*
X91158281Y-69496878D01*
X90996878Y-69658281D01*
X90865954Y-69845258D01*
X90810259Y-69964697D01*
X90788546Y-70011261D01*
X90769488Y-70052130D01*
X90768783Y-70054763D01*
X90768781Y-70054767D01*
X90754535Y-70107936D01*
X90710411Y-70272611D01*
X90710173Y-70275327D01*
X90710173Y-70275329D01*
X90702130Y-70367267D01*
X90690517Y-70500000D01*
X90254500Y-70500000D01*
X90254500Y-68043909D01*
X90272806Y-67999715D01*
X90317000Y-67981409D01*
X90336676Y-67984587D01*
X90417003Y-68011230D01*
X90423632Y-68012651D01*
X90523052Y-68022838D01*
X90526234Y-68023000D01*
X90933569Y-68023000D01*
X90942359Y-68019359D01*
X90946000Y-68010569D01*
X90946000Y-68010568D01*
X91454000Y-68010568D01*
X91457641Y-68019358D01*
X91466431Y-68022999D01*
X91873752Y-68022999D01*
X91876966Y-68022833D01*
X91977664Y-68012385D01*
X91984301Y-68010952D01*
X92145286Y-67957244D01*
X92151822Y-67954182D01*
X92295953Y-67864990D01*
X92304447Y-67858258D01*
X92305345Y-67859391D01*
X92345045Y-67842908D01*
X92389252Y-67861176D01*
X92399436Y-67871342D01*
X92405102Y-67875817D01*
X92549385Y-67964753D01*
X92555919Y-67967800D01*
X92717004Y-68021230D01*
X92723632Y-68022651D01*
X92823052Y-68032838D01*
X92826234Y-68033000D01*
X93233569Y-68033000D01*
X93242359Y-68029359D01*
X93246000Y-68020569D01*
X93246000Y-68020568D01*
X93754000Y-68020568D01*
X93757641Y-68029358D01*
X93766431Y-68032999D01*
X94173752Y-68032999D01*
X94176966Y-68032833D01*
X94277664Y-68022385D01*
X94284301Y-68020952D01*
X94445286Y-67967244D01*
X94451822Y-67964182D01*
X94595953Y-67874990D01*
X94601599Y-67870515D01*
X94721346Y-67750559D01*
X94725817Y-67744898D01*
X94814753Y-67600615D01*
X94817800Y-67594081D01*
X94871230Y-67432996D01*
X94872651Y-67426368D01*
X94882838Y-67326948D01*
X94883000Y-67323766D01*
X94883000Y-67228931D01*
X94879359Y-67220141D01*
X94870569Y-67216500D01*
X93766431Y-67216500D01*
X93757641Y-67220141D01*
X93754000Y-67228931D01*
X93754000Y-68020568D01*
X93246000Y-68020568D01*
X93246000Y-67228931D01*
X93242359Y-67220141D01*
X93233569Y-67216500D01*
X92101142Y-67216500D01*
X92077224Y-67211742D01*
X92064569Y-67206500D01*
X91466431Y-67206500D01*
X91457641Y-67210141D01*
X91454000Y-67218931D01*
X91454000Y-68010568D01*
X90946000Y-68010568D01*
X90946000Y-66686069D01*
X91454000Y-66686069D01*
X91457641Y-66694859D01*
X91466431Y-66698500D01*
X92598858Y-66698500D01*
X92622776Y-66703258D01*
X92635431Y-66708500D01*
X93233569Y-66708500D01*
X93242359Y-66704859D01*
X93246000Y-66696069D01*
X93754000Y-66696069D01*
X93757641Y-66704859D01*
X93766431Y-66708500D01*
X94870568Y-66708500D01*
X94879358Y-66704859D01*
X94882999Y-66696069D01*
X94882999Y-66601248D01*
X94882833Y-66598034D01*
X94872385Y-66497336D01*
X94870952Y-66490699D01*
X94817244Y-66329714D01*
X94814182Y-66323178D01*
X94724990Y-66179047D01*
X94720518Y-66173404D01*
X94600559Y-66053654D01*
X94594898Y-66049183D01*
X94450615Y-65960247D01*
X94444081Y-65957200D01*
X94282996Y-65903770D01*
X94276368Y-65902349D01*
X94176948Y-65892162D01*
X94173766Y-65892000D01*
X93766431Y-65892000D01*
X93757641Y-65895641D01*
X93754000Y-65904431D01*
X93754000Y-66696069D01*
X93246000Y-66696069D01*
X93246000Y-65904432D01*
X93242359Y-65895642D01*
X93233569Y-65892001D01*
X92826248Y-65892001D01*
X92823034Y-65892167D01*
X92722336Y-65902615D01*
X92715699Y-65904048D01*
X92554714Y-65957756D01*
X92548178Y-65960818D01*
X92404047Y-66050010D01*
X92395553Y-66056742D01*
X92394655Y-66055609D01*
X92354955Y-66072092D01*
X92310748Y-66053824D01*
X92300564Y-66043658D01*
X92294898Y-66039183D01*
X92150615Y-65950247D01*
X92144081Y-65947200D01*
X91982996Y-65893770D01*
X91976368Y-65892349D01*
X91876948Y-65882162D01*
X91873766Y-65882000D01*
X91466431Y-65882000D01*
X91457641Y-65885641D01*
X91454000Y-65894431D01*
X91454000Y-66686069D01*
X90946000Y-66686069D01*
X90946000Y-65894432D01*
X90942359Y-65885642D01*
X90933569Y-65882001D01*
X90526248Y-65882001D01*
X90523034Y-65882167D01*
X90422336Y-65892615D01*
X90415696Y-65894049D01*
X90336779Y-65920377D01*
X90289063Y-65916998D01*
X90257712Y-65880868D01*
X90254500Y-65861089D01*
X90254500Y-64848857D01*
X90272806Y-64804663D01*
X90317000Y-64786357D01*
X90338939Y-64790334D01*
X90449443Y-64831759D01*
X90465552Y-64837798D01*
X90527244Y-64844500D01*
X91872756Y-64844500D01*
X91934448Y-64837798D01*
X91950557Y-64831759D01*
X92065593Y-64788635D01*
X92065595Y-64788634D01*
X92069764Y-64787071D01*
X92185404Y-64700404D01*
X92272071Y-64584764D01*
X92289603Y-64537998D01*
X92322258Y-64503042D01*
X92370065Y-64501414D01*
X92406648Y-64537997D01*
X92427929Y-64594764D01*
X92514596Y-64710404D01*
X92630236Y-64797071D01*
X92634405Y-64798634D01*
X92634407Y-64798635D01*
X92740005Y-64838221D01*
X92765552Y-64847798D01*
X92827244Y-64854500D01*
X94172756Y-64854500D01*
X94234448Y-64847798D01*
X94259995Y-64838221D01*
X94365593Y-64798635D01*
X94365595Y-64798634D01*
X94369764Y-64797071D01*
X94485404Y-64710404D01*
X94572071Y-64594764D01*
X94577384Y-64580593D01*
X94621423Y-64463116D01*
X94622798Y-64459448D01*
X94629500Y-64397756D01*
X94629500Y-63677244D01*
X94622798Y-63615552D01*
X94590326Y-63528931D01*
X94573635Y-63484407D01*
X94573634Y-63484405D01*
X94572071Y-63480236D01*
X94485404Y-63364596D01*
X94396960Y-63298311D01*
X94373328Y-63280600D01*
X94369764Y-63277929D01*
X94365595Y-63276366D01*
X94365593Y-63276365D01*
X94238116Y-63228577D01*
X94234448Y-63227202D01*
X94172756Y-63220500D01*
X93942000Y-63220500D01*
X93897806Y-63202194D01*
X93879500Y-63158000D01*
X93879500Y-62326082D01*
X93897806Y-62281888D01*
X94258888Y-61920806D01*
X94303082Y-61902500D01*
X94973095Y-61902500D01*
X95017289Y-61920806D01*
X95035595Y-61965000D01*
X95035496Y-61967293D01*
X95035180Y-61968994D01*
X95035218Y-61972060D01*
X95035218Y-61972061D01*
X95037589Y-62163125D01*
X95030757Y-62192324D01*
X94968007Y-62315212D01*
X94926189Y-62486108D01*
X94925500Y-62497214D01*
X94925500Y-63724053D01*
X94940738Y-63854754D01*
X95000768Y-64020134D01*
X95002756Y-64023167D01*
X95002757Y-64023168D01*
X95056300Y-64104833D01*
X95065185Y-64126194D01*
X95080965Y-64200951D01*
X95082582Y-64208614D01*
X95083780Y-64211420D01*
X95083782Y-64211425D01*
X95084276Y-64212581D01*
X95101304Y-64252449D01*
X95158202Y-64335748D01*
X95163340Y-64339111D01*
X95163342Y-64339113D01*
X95176136Y-64347487D01*
X95242919Y-64391200D01*
X95245759Y-64392345D01*
X95245761Y-64392346D01*
X95254996Y-64396069D01*
X95287284Y-64409086D01*
X95386774Y-64427897D01*
X95389840Y-64427868D01*
X95389841Y-64427868D01*
X95535327Y-64426489D01*
X95544183Y-64427237D01*
X95545480Y-64427630D01*
X95549101Y-64427855D01*
X95549103Y-64427855D01*
X95615623Y-64431982D01*
X95721080Y-64438524D01*
X95801097Y-64424775D01*
X95811081Y-64423875D01*
X95878909Y-64423232D01*
X95923274Y-64441118D01*
X95942001Y-64485729D01*
X95942001Y-64816396D01*
X95942183Y-64819766D01*
X95948325Y-64876310D01*
X95950124Y-64883878D01*
X95998264Y-65012291D01*
X96002499Y-65020026D01*
X96084428Y-65129344D01*
X96090656Y-65135572D01*
X96199974Y-65217501D01*
X96207709Y-65221736D01*
X96336125Y-65269877D01*
X96343689Y-65271675D01*
X96400230Y-65277817D01*
X96403598Y-65278000D01*
X96483569Y-65278000D01*
X96492359Y-65274359D01*
X96496000Y-65265569D01*
X96496000Y-64311431D01*
X96492359Y-64302641D01*
X96472082Y-64294242D01*
X96472584Y-64293030D01*
X96442803Y-64280694D01*
X96424497Y-64236500D01*
X96429254Y-64212584D01*
X96435247Y-64198117D01*
X96440730Y-64170556D01*
X96454402Y-64101821D01*
X96455001Y-64098810D01*
X96455001Y-63844594D01*
X96473307Y-63800400D01*
X96492181Y-63787789D01*
X96496000Y-63778569D01*
X96496000Y-63387500D01*
X96514306Y-63343306D01*
X96558499Y-63325000D01*
X96610011Y-63325000D01*
X96613633Y-63324402D01*
X96690903Y-63311644D01*
X96690908Y-63311643D01*
X96693426Y-63311227D01*
X96714506Y-63304071D01*
X96729056Y-63299132D01*
X96729058Y-63299131D01*
X96731474Y-63298311D01*
X96772532Y-63276365D01*
X96801061Y-63261116D01*
X96801062Y-63261115D01*
X96806035Y-63258457D01*
X96872794Y-63182330D01*
X96873464Y-63181169D01*
X96913710Y-63156143D01*
X96947807Y-63160065D01*
X96954930Y-63163015D01*
X96954934Y-63163016D01*
X96958720Y-63164584D01*
X96958766Y-63164590D01*
X96995623Y-63192866D01*
X97004000Y-63224121D01*
X97004000Y-63246045D01*
X97002799Y-63258238D01*
X96996856Y-63288117D01*
X96995500Y-63294933D01*
X96995501Y-64795066D01*
X96996100Y-64798075D01*
X96996100Y-64798080D01*
X97002799Y-64831759D01*
X97004000Y-64843951D01*
X97004000Y-65265568D01*
X97015742Y-65293915D01*
X97020500Y-65317833D01*
X97020500Y-66163000D01*
X97002194Y-66207194D01*
X96958000Y-66225500D01*
X96602244Y-66225500D01*
X96540552Y-66232202D01*
X96536884Y-66233577D01*
X96409407Y-66281365D01*
X96409405Y-66281366D01*
X96405236Y-66282929D01*
X96289596Y-66369596D01*
X96202929Y-66485236D01*
X96201366Y-66489405D01*
X96201365Y-66489407D01*
X96159439Y-66601248D01*
X96152202Y-66620552D01*
X96145500Y-66682244D01*
X96145500Y-68027756D01*
X96152202Y-68089448D01*
X96153577Y-68093116D01*
X96200040Y-68217057D01*
X96202929Y-68224764D01*
X96289596Y-68340404D01*
X96405236Y-68427071D01*
X96409405Y-68428634D01*
X96409407Y-68428635D01*
X96536884Y-68476423D01*
X96540552Y-68477798D01*
X96602244Y-68484500D01*
X96684785Y-68484500D01*
X96728979Y-68502806D01*
X97927194Y-69701020D01*
X97945500Y-69745214D01*
X97945500Y-70008834D01*
X97945884Y-70011256D01*
X97945884Y-70011261D01*
X97952357Y-70052130D01*
X97960502Y-70103555D01*
X98018674Y-70217723D01*
X98109277Y-70308326D01*
X98223445Y-70366498D01*
X98245812Y-70370041D01*
X98315739Y-70381116D01*
X98315744Y-70381116D01*
X98318166Y-70381500D01*
X98681834Y-70381500D01*
X98684256Y-70381116D01*
X98684261Y-70381116D01*
X98754188Y-70370041D01*
X98776555Y-70366498D01*
X98890723Y-70308326D01*
X98955806Y-70243243D01*
X99000000Y-70224937D01*
X99044194Y-70243243D01*
X99109277Y-70308326D01*
X99223445Y-70366498D01*
X99245812Y-70370041D01*
X99315739Y-70381116D01*
X99315744Y-70381116D01*
X99318166Y-70381500D01*
X99681834Y-70381500D01*
X99684256Y-70381116D01*
X99684261Y-70381116D01*
X99754188Y-70370041D01*
X99776555Y-70366498D01*
X99890723Y-70308326D01*
X99955806Y-70243243D01*
X100000000Y-70224937D01*
X100044194Y-70243243D01*
X100109277Y-70308326D01*
X100223445Y-70366498D01*
X100245812Y-70370041D01*
X100315739Y-70381116D01*
X100315744Y-70381116D01*
X100318166Y-70381500D01*
X100681834Y-70381500D01*
X100684256Y-70381116D01*
X100684261Y-70381116D01*
X100773064Y-70367051D01*
X100819578Y-70378219D01*
X100827035Y-70384588D01*
X100940721Y-70498274D01*
X100946885Y-70503056D01*
X101083217Y-70583681D01*
X101090378Y-70586780D01*
X101234060Y-70628524D01*
X101243519Y-70627480D01*
X101246000Y-70624383D01*
X101246000Y-70619562D01*
X101754000Y-70619562D01*
X101757641Y-70628352D01*
X101761307Y-70629870D01*
X101909622Y-70586780D01*
X101916783Y-70583681D01*
X102053115Y-70503056D01*
X102057054Y-70500000D01*
X106690517Y-70500000D01*
X106710411Y-70727389D01*
X106769488Y-70947870D01*
X106865954Y-71154741D01*
X106996878Y-71341719D01*
X107158281Y-71503122D01*
X107345259Y-71634046D01*
X107552130Y-71730512D01*
X107554763Y-71731217D01*
X107554767Y-71731219D01*
X107769975Y-71788883D01*
X107769978Y-71788884D01*
X107772611Y-71789589D01*
X107775327Y-71789827D01*
X107775329Y-71789827D01*
X107941692Y-71804382D01*
X107941698Y-71804382D01*
X107943044Y-71804500D01*
X108056956Y-71804500D01*
X108058302Y-71804382D01*
X108058308Y-71804382D01*
X108224671Y-71789827D01*
X108224673Y-71789827D01*
X108227389Y-71789589D01*
X108230022Y-71788884D01*
X108230025Y-71788883D01*
X108445233Y-71731219D01*
X108445237Y-71731217D01*
X108447870Y-71730512D01*
X108654741Y-71634046D01*
X108841719Y-71503122D01*
X109003122Y-71341719D01*
X109134046Y-71154742D01*
X109230512Y-70947870D01*
X109289589Y-70727389D01*
X109309483Y-70500000D01*
X109297870Y-70367267D01*
X109289827Y-70275329D01*
X109289827Y-70275327D01*
X109289589Y-70272611D01*
X109245465Y-70107936D01*
X109231219Y-70054767D01*
X109231217Y-70054763D01*
X109230512Y-70052130D01*
X109134046Y-69845259D01*
X109003122Y-69658281D01*
X108841719Y-69496878D01*
X108654741Y-69365954D01*
X108447870Y-69269488D01*
X108445237Y-69268783D01*
X108445233Y-69268781D01*
X108230025Y-69211117D01*
X108230022Y-69211116D01*
X108227389Y-69210411D01*
X108224673Y-69210173D01*
X108224671Y-69210173D01*
X108058308Y-69195618D01*
X108058302Y-69195618D01*
X108056956Y-69195500D01*
X107943044Y-69195500D01*
X107941698Y-69195618D01*
X107941692Y-69195618D01*
X107775329Y-69210173D01*
X107775327Y-69210173D01*
X107772611Y-69210411D01*
X107769978Y-69211116D01*
X107769975Y-69211117D01*
X107554767Y-69268781D01*
X107554763Y-69268783D01*
X107552130Y-69269488D01*
X107345259Y-69365954D01*
X107158281Y-69496878D01*
X106996878Y-69658281D01*
X106865954Y-69845258D01*
X106810259Y-69964697D01*
X106788546Y-70011261D01*
X106769488Y-70052130D01*
X106768783Y-70054763D01*
X106768781Y-70054767D01*
X106754535Y-70107936D01*
X106710411Y-70272611D01*
X106710173Y-70275327D01*
X106710173Y-70275329D01*
X106702130Y-70367267D01*
X106690517Y-70500000D01*
X102057054Y-70500000D01*
X102059279Y-70498274D01*
X102171274Y-70386279D01*
X102176056Y-70380115D01*
X102256681Y-70243783D01*
X102259780Y-70236622D01*
X102304174Y-70083820D01*
X102305316Y-70077566D01*
X102307902Y-70044697D01*
X102308000Y-70042218D01*
X102308000Y-69618431D01*
X102304359Y-69609641D01*
X102295569Y-69606000D01*
X101766431Y-69606000D01*
X101757641Y-69609641D01*
X101754000Y-69618431D01*
X101754000Y-70619562D01*
X101246000Y-70619562D01*
X101246000Y-69160500D01*
X101264306Y-69116306D01*
X101308500Y-69098000D01*
X102295568Y-69098000D01*
X102304358Y-69094359D01*
X102307999Y-69085569D01*
X102307999Y-68661784D01*
X102307901Y-68659302D01*
X102305065Y-68623248D01*
X102306354Y-68623147D01*
X102315538Y-68580502D01*
X102355726Y-68554556D01*
X102398248Y-68561941D01*
X102534085Y-68640525D01*
X102539475Y-68642993D01*
X102733580Y-68710397D01*
X102734817Y-68710699D01*
X102742919Y-68708641D01*
X102746000Y-68703461D01*
X102746000Y-68696086D01*
X103254000Y-68696086D01*
X103257641Y-68704876D01*
X103261859Y-68706623D01*
X103359471Y-68683099D01*
X103365083Y-68681166D01*
X103552132Y-68596121D01*
X103557260Y-68593172D01*
X103724858Y-68474286D01*
X103729338Y-68470420D01*
X103871431Y-68321986D01*
X103875100Y-68317341D01*
X103986562Y-68144717D01*
X103989286Y-68139461D01*
X104066091Y-67948884D01*
X104067776Y-67943196D01*
X104107296Y-67740826D01*
X104107838Y-67736363D01*
X104107962Y-67733821D01*
X104108000Y-67732290D01*
X104108000Y-67621431D01*
X104104359Y-67612641D01*
X104095569Y-67609000D01*
X103266431Y-67609000D01*
X103257641Y-67612641D01*
X103254000Y-67621431D01*
X103254000Y-68696086D01*
X102746000Y-68696086D01*
X102746000Y-67173752D01*
X105617001Y-67173752D01*
X105617167Y-67176966D01*
X105627615Y-67277664D01*
X105629048Y-67284301D01*
X105682756Y-67445286D01*
X105685818Y-67451822D01*
X105775010Y-67595953D01*
X105779482Y-67601596D01*
X105899441Y-67721346D01*
X105905102Y-67725817D01*
X106049385Y-67814753D01*
X106055919Y-67817800D01*
X106217004Y-67871230D01*
X106223632Y-67872651D01*
X106323052Y-67882838D01*
X106326234Y-67883000D01*
X106733569Y-67883000D01*
X106742359Y-67879359D01*
X106746000Y-67870569D01*
X106746000Y-67870568D01*
X107254000Y-67870568D01*
X107257641Y-67879358D01*
X107266431Y-67882999D01*
X107673752Y-67882999D01*
X107676966Y-67882833D01*
X107777664Y-67872385D01*
X107784301Y-67870952D01*
X107945286Y-67817244D01*
X107951822Y-67814182D01*
X108095953Y-67724990D01*
X108101596Y-67720518D01*
X108221346Y-67600559D01*
X108225817Y-67594898D01*
X108314753Y-67450615D01*
X108317800Y-67444081D01*
X108371230Y-67282996D01*
X108372651Y-67276368D01*
X108382838Y-67176948D01*
X108383000Y-67173766D01*
X108383000Y-67078931D01*
X108379359Y-67070141D01*
X108370569Y-67066500D01*
X107266431Y-67066500D01*
X107257641Y-67070141D01*
X107254000Y-67078931D01*
X107254000Y-67870568D01*
X106746000Y-67870568D01*
X106746000Y-67078931D01*
X106742359Y-67070141D01*
X106733569Y-67066500D01*
X105629432Y-67066500D01*
X105620642Y-67070141D01*
X105617001Y-67078931D01*
X105617001Y-67173752D01*
X102746000Y-67173752D01*
X102746000Y-67163500D01*
X102764306Y-67119306D01*
X102808500Y-67101000D01*
X104095569Y-67101000D01*
X104104359Y-67097359D01*
X104108000Y-67088569D01*
X104108000Y-67028662D01*
X104107858Y-67025690D01*
X104093241Y-66872490D01*
X104092123Y-66866680D01*
X104034278Y-66669502D01*
X104032082Y-66664013D01*
X103971337Y-66546069D01*
X105617000Y-66546069D01*
X105620641Y-66554859D01*
X105629431Y-66558500D01*
X106733569Y-66558500D01*
X106742359Y-66554859D01*
X106746000Y-66546069D01*
X107254000Y-66546069D01*
X107257641Y-66554859D01*
X107266431Y-66558500D01*
X108370568Y-66558500D01*
X108379358Y-66554859D01*
X108382999Y-66546069D01*
X108382999Y-66451248D01*
X108382833Y-66448034D01*
X108372385Y-66347336D01*
X108370952Y-66340699D01*
X108317244Y-66179714D01*
X108314182Y-66173178D01*
X108224990Y-66029047D01*
X108220518Y-66023404D01*
X108100559Y-65903654D01*
X108094898Y-65899183D01*
X107950615Y-65810247D01*
X107944081Y-65807200D01*
X107782996Y-65753770D01*
X107776368Y-65752349D01*
X107676948Y-65742162D01*
X107673766Y-65742000D01*
X107266431Y-65742000D01*
X107257641Y-65745641D01*
X107254000Y-65754431D01*
X107254000Y-66546069D01*
X106746000Y-66546069D01*
X106746000Y-65754432D01*
X106742359Y-65745642D01*
X106733569Y-65742001D01*
X106326248Y-65742001D01*
X106323034Y-65742167D01*
X106222336Y-65752615D01*
X106215699Y-65754048D01*
X106054714Y-65807756D01*
X106048178Y-65810818D01*
X105904047Y-65900010D01*
X105898404Y-65904482D01*
X105778654Y-66024441D01*
X105774183Y-66030102D01*
X105685247Y-66174385D01*
X105682200Y-66180919D01*
X105628770Y-66342004D01*
X105627349Y-66348632D01*
X105617162Y-66448052D01*
X105617000Y-66451234D01*
X105617000Y-66546069D01*
X103971337Y-66546069D01*
X103937998Y-66481337D01*
X103934797Y-66476351D01*
X103807867Y-66314762D01*
X103803788Y-66310478D01*
X103648595Y-66175809D01*
X103643766Y-66172364D01*
X103465915Y-66069475D01*
X103460525Y-66067007D01*
X103266427Y-65999605D01*
X103260660Y-65998199D01*
X103090705Y-65973557D01*
X103049595Y-65949099D01*
X103037820Y-65902736D01*
X103041683Y-65888392D01*
X103046427Y-65876591D01*
X103066492Y-65826677D01*
X103075588Y-65762763D01*
X103090230Y-65659887D01*
X103090230Y-65659884D01*
X103090518Y-65657862D01*
X103090674Y-65643000D01*
X103070189Y-65473719D01*
X103009916Y-65314211D01*
X103006992Y-65309956D01*
X103006716Y-65309067D01*
X103006036Y-65307767D01*
X103006273Y-65307643D01*
X102996000Y-65274557D01*
X102996000Y-64843954D01*
X102997201Y-64831760D01*
X102997202Y-64831759D01*
X103004500Y-64795067D01*
X103004499Y-63294934D01*
X103003144Y-63288117D01*
X102997201Y-63258241D01*
X102996000Y-63246049D01*
X102996000Y-63224121D01*
X103014306Y-63179927D01*
X103040760Y-63164653D01*
X103041280Y-63164584D01*
X103054085Y-63159280D01*
X103101918Y-63159279D01*
X103129968Y-63182300D01*
X103162299Y-63230687D01*
X103167416Y-63234106D01*
X103167417Y-63234107D01*
X103243932Y-63285233D01*
X103246487Y-63286940D01*
X103249327Y-63288116D01*
X103249328Y-63288117D01*
X103287842Y-63304071D01*
X103287847Y-63304073D01*
X103290680Y-63305246D01*
X103293688Y-63305844D01*
X103293690Y-63305845D01*
X103372638Y-63321549D01*
X103389990Y-63325001D01*
X103441500Y-63325001D01*
X103485694Y-63343307D01*
X103504000Y-63387501D01*
X103504000Y-65265568D01*
X103507641Y-65274358D01*
X103516431Y-65277999D01*
X103596396Y-65277999D01*
X103599766Y-65277817D01*
X103656310Y-65271675D01*
X103663878Y-65269876D01*
X103792291Y-65221736D01*
X103800026Y-65217501D01*
X103909344Y-65135572D01*
X103915572Y-65129344D01*
X103997501Y-65020026D01*
X104001736Y-65012291D01*
X104049877Y-64883875D01*
X104051675Y-64876311D01*
X104057817Y-64819770D01*
X104058000Y-64816402D01*
X104058000Y-64473254D01*
X104076306Y-64429060D01*
X104120500Y-64410754D01*
X104138616Y-64413437D01*
X104182001Y-64426577D01*
X104182006Y-64426578D01*
X104185480Y-64427630D01*
X104361080Y-64438524D01*
X104534477Y-64408729D01*
X104696368Y-64339844D01*
X104838071Y-64235563D01*
X104951982Y-64101480D01*
X105031993Y-63944788D01*
X105073811Y-63773892D01*
X105074500Y-63762786D01*
X105074500Y-62535947D01*
X105059262Y-62405246D01*
X104999232Y-62239866D01*
X104902766Y-62092732D01*
X104775040Y-61971736D01*
X104737818Y-61950115D01*
X104663706Y-61907067D01*
X104634685Y-61869041D01*
X104632601Y-61853637D01*
X104631749Y-61766942D01*
X104649620Y-61722570D01*
X104693632Y-61703831D01*
X104738440Y-61722134D01*
X106087264Y-63070958D01*
X106105570Y-63115152D01*
X106087264Y-63159346D01*
X106080552Y-63165165D01*
X106018159Y-63211925D01*
X106018156Y-63211928D01*
X106014596Y-63214596D01*
X105927929Y-63330236D01*
X105926366Y-63334405D01*
X105926365Y-63334407D01*
X105878577Y-63461884D01*
X105877202Y-63465552D01*
X105870500Y-63527244D01*
X105870500Y-64247756D01*
X105877202Y-64309448D01*
X105878577Y-64313116D01*
X105925590Y-64438524D01*
X105927929Y-64444764D01*
X106014596Y-64560404D01*
X106130236Y-64647071D01*
X106134405Y-64648634D01*
X106134407Y-64648635D01*
X106261884Y-64696423D01*
X106265552Y-64697798D01*
X106327244Y-64704500D01*
X107672756Y-64704500D01*
X107734448Y-64697798D01*
X107738116Y-64696423D01*
X107865593Y-64648635D01*
X107865595Y-64648634D01*
X107869764Y-64647071D01*
X107985404Y-64560404D01*
X108072071Y-64444764D01*
X108074411Y-64438524D01*
X108121423Y-64313116D01*
X108122798Y-64309448D01*
X108129500Y-64247756D01*
X108129500Y-63527244D01*
X108122798Y-63465552D01*
X108121423Y-63461884D01*
X108073635Y-63334407D01*
X108073634Y-63334405D01*
X108072071Y-63330236D01*
X107985404Y-63214596D01*
X107869764Y-63127929D01*
X107865595Y-63126366D01*
X107865593Y-63126365D01*
X107738116Y-63078577D01*
X107734448Y-63077202D01*
X107672756Y-63070500D01*
X107186082Y-63070500D01*
X107141888Y-63052194D01*
X105128698Y-61039004D01*
X105120389Y-61028716D01*
X105111571Y-61015060D01*
X105082257Y-60991951D01*
X105076756Y-60987062D01*
X105073056Y-60983362D01*
X105070962Y-60981866D01*
X105070959Y-60981863D01*
X105056137Y-60971271D01*
X105053783Y-60969504D01*
X105016411Y-60940043D01*
X105012353Y-60936844D01*
X105007477Y-60935132D01*
X105003976Y-60933207D01*
X105000465Y-60931487D01*
X104996266Y-60928486D01*
X104991324Y-60927008D01*
X104991320Y-60927006D01*
X104955154Y-60916191D01*
X104945700Y-60913363D01*
X104942906Y-60912455D01*
X104896861Y-60896285D01*
X104896857Y-60896284D01*
X104893149Y-60894982D01*
X104889149Y-60894636D01*
X104888926Y-60894616D01*
X104888921Y-60894616D01*
X104887584Y-60894500D01*
X104887307Y-60894500D01*
X104883281Y-60894160D01*
X104880172Y-60893767D01*
X104875222Y-60892287D01*
X104820118Y-60894452D01*
X104817664Y-60894500D01*
X104684691Y-60894500D01*
X104640497Y-60876194D01*
X104622191Y-60832000D01*
X104622270Y-60830207D01*
X104622529Y-60828836D01*
X104619297Y-60500000D01*
X106690517Y-60500000D01*
X106710411Y-60727389D01*
X106711116Y-60730022D01*
X106711117Y-60730025D01*
X106767391Y-60940043D01*
X106769488Y-60947870D01*
X106865954Y-61154741D01*
X106996878Y-61341719D01*
X107158281Y-61503122D01*
X107345259Y-61634046D01*
X107552130Y-61730512D01*
X107554763Y-61731217D01*
X107554767Y-61731219D01*
X107769975Y-61788883D01*
X107769978Y-61788884D01*
X107772611Y-61789589D01*
X107775327Y-61789827D01*
X107775329Y-61789827D01*
X107941692Y-61804382D01*
X107941698Y-61804382D01*
X107943044Y-61804500D01*
X108056956Y-61804500D01*
X108058302Y-61804382D01*
X108058308Y-61804382D01*
X108224671Y-61789827D01*
X108224673Y-61789827D01*
X108227389Y-61789589D01*
X108230022Y-61788884D01*
X108230025Y-61788883D01*
X108445233Y-61731219D01*
X108445237Y-61731217D01*
X108447870Y-61730512D01*
X108654741Y-61634046D01*
X108841719Y-61503122D01*
X109003122Y-61341719D01*
X109134046Y-61154742D01*
X109209957Y-60991951D01*
X109229359Y-60950343D01*
X109229360Y-60950341D01*
X109230512Y-60947870D01*
X109232610Y-60940043D01*
X109288883Y-60730025D01*
X109288884Y-60730022D01*
X109289589Y-60727389D01*
X109309483Y-60500000D01*
X109289589Y-60272611D01*
X109230512Y-60052130D01*
X109134046Y-59845259D01*
X109003122Y-59658281D01*
X108841719Y-59496878D01*
X108654741Y-59365954D01*
X108447870Y-59269488D01*
X108445237Y-59268783D01*
X108445233Y-59268781D01*
X108230025Y-59211117D01*
X108230022Y-59211116D01*
X108227389Y-59210411D01*
X108224673Y-59210173D01*
X108224671Y-59210173D01*
X108058308Y-59195618D01*
X108058302Y-59195618D01*
X108056956Y-59195500D01*
X107943044Y-59195500D01*
X107941698Y-59195618D01*
X107941692Y-59195618D01*
X107775329Y-59210173D01*
X107775327Y-59210173D01*
X107772611Y-59210411D01*
X107769978Y-59211116D01*
X107769975Y-59211117D01*
X107554767Y-59268781D01*
X107554763Y-59268783D01*
X107552130Y-59269488D01*
X107345259Y-59365954D01*
X107158281Y-59496878D01*
X106996878Y-59658281D01*
X106865954Y-59845258D01*
X106769488Y-60052130D01*
X106710411Y-60272611D01*
X106690517Y-60500000D01*
X104619297Y-60500000D01*
X104614253Y-59986728D01*
X104632124Y-59942356D01*
X104652279Y-59928604D01*
X104655993Y-59927024D01*
X104696368Y-59909844D01*
X104838071Y-59805563D01*
X104951982Y-59671480D01*
X105031993Y-59514788D01*
X105073811Y-59343892D01*
X105074500Y-59332786D01*
X105074500Y-58605947D01*
X105059262Y-58475246D01*
X105009562Y-58338325D01*
X105011690Y-58290537D01*
X105046986Y-58258251D01*
X105068311Y-58254500D01*
X108968778Y-58254500D01*
X108980971Y-58255701D01*
G37*
%TD.AperFunction*%
%TD*%
M02*
