%TF.GenerationSoftware,KiCad,Pcbnew,(6.0.5-0)*%
%TF.CreationDate,2022-07-07T23:10:34-07:00*%
%TF.ProjectId,usb_type_c,7573625f-7479-4706-955f-632e6b696361,rev?*%
%TF.SameCoordinates,Original*%
%TF.FileFunction,Copper,L1,Top*%
%TF.FilePolarity,Positive*%
%FSLAX46Y46*%
G04 Gerber Fmt 4.6, Leading zero omitted, Abs format (unit mm)*
G04 Created by KiCad (PCBNEW (6.0.5-0)) date 2022-07-07 23:10:34*
%MOMM*%
%LPD*%
G01*
G04 APERTURE LIST*
G04 Aperture macros list*
%AMRoundRect*
0 Rectangle with rounded corners*
0 $1 Rounding radius*
0 $2 $3 $4 $5 $6 $7 $8 $9 X,Y pos of 4 corners*
0 Add a 4 corners polygon primitive as box body*
4,1,4,$2,$3,$4,$5,$6,$7,$8,$9,$2,$3,0*
0 Add four circle primitives for the rounded corners*
1,1,$1+$1,$2,$3*
1,1,$1+$1,$4,$5*
1,1,$1+$1,$6,$7*
1,1,$1+$1,$8,$9*
0 Add four rect primitives between the rounded corners*
20,1,$1+$1,$2,$3,$4,$5,0*
20,1,$1+$1,$4,$5,$6,$7,0*
20,1,$1+$1,$6,$7,$8,$9,0*
20,1,$1+$1,$8,$9,$2,$3,0*%
G04 Aperture macros list end*
%TA.AperFunction,SMDPad,CuDef*%
%ADD10RoundRect,0.250000X0.625000X-0.312500X0.625000X0.312500X-0.625000X0.312500X-0.625000X-0.312500X0*%
%TD*%
%TA.AperFunction,SMDPad,CuDef*%
%ADD11RoundRect,0.250000X-0.625000X0.312500X-0.625000X-0.312500X0.625000X-0.312500X0.625000X0.312500X0*%
%TD*%
%TA.AperFunction,ComponentPad*%
%ADD12RoundRect,0.250000X-0.350000X-0.625000X0.350000X-0.625000X0.350000X0.625000X-0.350000X0.625000X0*%
%TD*%
%TA.AperFunction,ComponentPad*%
%ADD13O,1.200000X1.750000*%
%TD*%
%TA.AperFunction,SMDPad,CuDef*%
%ADD14R,0.600000X1.450000*%
%TD*%
%TA.AperFunction,SMDPad,CuDef*%
%ADD15R,0.300000X1.450000*%
%TD*%
%TA.AperFunction,ComponentPad*%
%ADD16O,1.000000X1.600000*%
%TD*%
%TA.AperFunction,ComponentPad*%
%ADD17O,1.000000X2.100000*%
%TD*%
%TA.AperFunction,ViaPad*%
%ADD18C,0.600000*%
%TD*%
%TA.AperFunction,ViaPad*%
%ADD19C,0.900000*%
%TD*%
%TA.AperFunction,Conductor*%
%ADD20C,0.250000*%
%TD*%
%TA.AperFunction,Conductor*%
%ADD21C,0.550000*%
%TD*%
G04 APERTURE END LIST*
D10*
%TO.P,R1,1*%
%TO.N,Net-(J2-PadA5)*%
X107000000Y-66812500D03*
%TO.P,R1,2*%
%TO.N,GND*%
X107000000Y-63887500D03*
%TD*%
D11*
%TO.P,R3,1*%
%TO.N,SHIELD*%
X91200000Y-64027500D03*
%TO.P,R3,2*%
%TO.N,GND*%
X91200000Y-66952500D03*
%TD*%
D10*
%TO.P,R2,1*%
%TO.N,Net-(J2-PadB5)*%
X93500000Y-66962500D03*
%TO.P,R2,2*%
%TO.N,GND*%
X93500000Y-64037500D03*
%TD*%
D12*
%TO.P,J4,1,Pin_1*%
%TO.N,VBUS_C*%
X97000000Y-69855000D03*
D13*
%TO.P,J4,2,Pin_2*%
%TO.N,DM_C*%
X99000000Y-69855000D03*
%TO.P,J4,3,Pin_3*%
%TO.N,DP_C*%
X101000000Y-69855000D03*
%TO.P,J4,4,Pin_4*%
%TO.N,GND*%
X103000000Y-69855000D03*
%TD*%
D14*
%TO.P,J2,A1,GND*%
%TO.N,GND*%
X103250000Y-64045000D03*
%TO.P,J2,A4,VBUS*%
%TO.N,VBUS_C*%
X102450000Y-64045000D03*
D15*
%TO.P,J2,A5,CC1*%
%TO.N,Net-(J2-PadA5)*%
X101250000Y-64045000D03*
%TO.P,J2,A6,D+*%
%TO.N,DP_C*%
X100250000Y-64045000D03*
%TO.P,J2,A7,D-*%
%TO.N,DM_C*%
X99750000Y-64045000D03*
%TO.P,J2,A8,SBU1*%
%TO.N,unconnected-(J2-PadA8)*%
X98750000Y-64045000D03*
D14*
%TO.P,J2,A9,VBUS*%
%TO.N,VBUS_C*%
X97550000Y-64045000D03*
%TO.P,J2,A12,GND*%
%TO.N,GND*%
X96750000Y-64045000D03*
%TO.P,J2,B1,GND*%
X96750000Y-64045000D03*
%TO.P,J2,B4,VBUS*%
%TO.N,VBUS_C*%
X97550000Y-64045000D03*
D15*
%TO.P,J2,B5,CC2*%
%TO.N,Net-(J2-PadB5)*%
X98250000Y-64045000D03*
%TO.P,J2,B6,D+*%
%TO.N,DP_C*%
X99250000Y-64045000D03*
%TO.P,J2,B7,D-*%
%TO.N,DM_C*%
X100750000Y-64045000D03*
%TO.P,J2,B8,SBU2*%
%TO.N,unconnected-(J2-PadB8)*%
X101750000Y-64045000D03*
D14*
%TO.P,J2,B9,VBUS*%
%TO.N,VBUS_C*%
X102450000Y-64045000D03*
%TO.P,J2,B12,GND*%
%TO.N,GND*%
X103250000Y-64045000D03*
D16*
%TO.P,J2,S1,SHIELD*%
%TO.N,SHIELD*%
X95680000Y-58950000D03*
D17*
X104320000Y-63130000D03*
X95680000Y-63130000D03*
D16*
X104320000Y-58950000D03*
%TD*%
D18*
%TO.N,DP_C*%
X99026000Y-65549500D03*
X100458000Y-65549500D03*
%TO.N,SHIELD*%
X91341000Y-64175000D03*
D19*
%TO.N,VBUS_C*%
X102479000Y-66176500D03*
X97454000Y-66196000D03*
%TD*%
D20*
%TO.N,DP_C*%
X100458000Y-65549500D02*
X100458000Y-69313000D01*
X100458000Y-69313000D02*
X101000000Y-69855000D01*
X100458000Y-65549500D02*
X100250000Y-65341500D01*
X100250000Y-65341500D02*
X100250000Y-64045000D01*
X99026000Y-65549500D02*
X99250000Y-65325500D01*
X99250000Y-65325500D02*
X99250000Y-64045000D01*
D21*
%TO.N,VBUS_C*%
X97454000Y-66196000D02*
X97550000Y-66100000D01*
X97550000Y-66100000D02*
X97550000Y-64045000D01*
X102450000Y-66147500D02*
X102450000Y-64045000D01*
X102479000Y-66176500D02*
X102450000Y-66147500D01*
D20*
%TO.N,DM_C*%
X100750000Y-63091000D02*
X100596000Y-62937000D01*
X100750000Y-64045000D02*
X100750000Y-63091000D01*
X100596000Y-62937000D02*
X99883000Y-62937000D01*
X99883000Y-62937000D02*
X99750000Y-63070000D01*
X99750000Y-63070000D02*
X99750000Y-64045000D01*
%TO.N,SHIELD*%
X104320000Y-58950000D02*
X95680000Y-58950000D01*
X104320000Y-63130000D02*
X104320000Y-58950000D01*
X95680000Y-58950000D02*
X95680000Y-63130000D01*
%TO.N,Net-(J2-PadB5)*%
X97718000Y-67133000D02*
X93670500Y-67133000D01*
X98250000Y-66601000D02*
X97718000Y-67133000D01*
X98250000Y-64045000D02*
X98250000Y-66601000D01*
%TO.N,Net-(J2-PadA5)*%
X101250000Y-66041000D02*
X102087000Y-66878000D01*
X101250000Y-64045000D02*
X101250000Y-66041000D01*
X102087000Y-66878000D02*
X106934500Y-66878000D01*
%TO.N,DM_C*%
X99750000Y-64045000D02*
X99750000Y-69105000D01*
X99750000Y-69105000D02*
X99000000Y-69855000D01*
%TD*%
%TA.AperFunction,Conductor*%
%TO.N,SHIELD*%
G36*
X96092387Y-58272806D02*
G01*
X96110631Y-58319782D01*
X96110319Y-58326781D01*
X96125634Y-58426867D01*
X96138278Y-58461701D01*
X96162524Y-58528498D01*
X96165276Y-58540134D01*
X96165347Y-58540120D01*
X96165789Y-58542303D01*
X96165854Y-58542578D01*
X96166170Y-58545285D01*
X96190342Y-58628283D01*
X96208228Y-58665240D01*
X96209739Y-58667365D01*
X96209740Y-58667367D01*
X96217849Y-58678772D01*
X96258315Y-58735687D01*
X96342503Y-58791940D01*
X96345342Y-58793116D01*
X96345344Y-58793117D01*
X96383859Y-58809071D01*
X96383864Y-58809073D01*
X96386697Y-58810246D01*
X96389705Y-58810844D01*
X96389707Y-58810845D01*
X96437793Y-58820410D01*
X96486004Y-58830000D01*
X103513617Y-58830000D01*
X103583511Y-58820410D01*
X103615934Y-58811342D01*
X103618462Y-58810246D01*
X103675880Y-58785355D01*
X103675882Y-58785354D01*
X103680661Y-58783282D01*
X103755312Y-58714877D01*
X103758103Y-58711070D01*
X103781786Y-58678772D01*
X103781788Y-58678768D01*
X103783598Y-58676300D01*
X103789851Y-58662891D01*
X103825091Y-58587318D01*
X103825092Y-58587316D01*
X103826389Y-58584534D01*
X103835380Y-58547794D01*
X103851148Y-58483355D01*
X103856192Y-58469792D01*
X103858597Y-58465082D01*
X103858600Y-58465076D01*
X103859438Y-58463434D01*
X103880627Y-58406113D01*
X103887464Y-58377690D01*
X103889397Y-58361391D01*
X103894082Y-58321885D01*
X103894082Y-58321882D01*
X103894661Y-58316999D01*
X103894879Y-58317025D01*
X103910549Y-58274568D01*
X103956438Y-58254500D01*
X104275826Y-58254500D01*
X104320020Y-58272806D01*
X104338323Y-58316386D01*
X104354272Y-59939119D01*
X104393812Y-63962074D01*
X104394386Y-64020482D01*
X104376515Y-64064854D01*
X104332482Y-64083593D01*
X103979663Y-64086937D01*
X103867592Y-64087999D01*
X103823227Y-64070113D01*
X103804500Y-64025502D01*
X103804499Y-63298005D01*
X103804499Y-63294934D01*
X103799565Y-63270123D01*
X103790936Y-63226741D01*
X103790935Y-63226740D01*
X103789734Y-63220699D01*
X103774034Y-63197203D01*
X103763500Y-63162479D01*
X103763500Y-62935872D01*
X103763402Y-62932861D01*
X103762960Y-62919388D01*
X103762944Y-62918891D01*
X103762409Y-62910733D01*
X103760745Y-62893847D01*
X103728201Y-62797968D01*
X103726669Y-62795314D01*
X103726667Y-62795310D01*
X103704284Y-62756541D01*
X103705670Y-62755741D01*
X103695932Y-62713973D01*
X103715372Y-62678077D01*
X103756384Y-62640497D01*
X103759175Y-62636690D01*
X103782858Y-62604392D01*
X103782860Y-62604388D01*
X103784670Y-62601920D01*
X103827461Y-62510154D01*
X103851147Y-62413357D01*
X103856193Y-62399789D01*
X103902056Y-62309972D01*
X103910087Y-62297930D01*
X103975389Y-62221063D01*
X103985976Y-62211190D01*
X104068854Y-62150199D01*
X104084169Y-62138011D01*
X104091319Y-62131867D01*
X104105687Y-62118545D01*
X104107720Y-62115503D01*
X104107723Y-62115499D01*
X104160233Y-62036912D01*
X104160234Y-62036910D01*
X104161940Y-62034357D01*
X104163117Y-62031516D01*
X104179071Y-61993001D01*
X104179073Y-61992996D01*
X104180246Y-61990163D01*
X104182651Y-61978076D01*
X104199401Y-61893867D01*
X104200000Y-61890856D01*
X104200000Y-59938117D01*
X104197823Y-59904574D01*
X104195735Y-59888556D01*
X104189245Y-59855593D01*
X104144701Y-59764666D01*
X104138922Y-59757093D01*
X104117545Y-59729082D01*
X104117542Y-59729079D01*
X104115680Y-59726639D01*
X104082918Y-59697755D01*
X104042033Y-59661710D01*
X104042031Y-59661708D01*
X104039730Y-59659680D01*
X104027765Y-59652730D01*
X104016175Y-59644060D01*
X103942948Y-59574691D01*
X103933668Y-59563592D01*
X103878367Y-59479244D01*
X103871886Y-59466302D01*
X103856431Y-59423722D01*
X103837476Y-59371503D01*
X103834723Y-59359860D01*
X103834652Y-59359874D01*
X103834210Y-59357689D01*
X103834147Y-59357422D01*
X103833831Y-59354715D01*
X103820747Y-59309789D01*
X103810388Y-59274222D01*
X103810387Y-59274219D01*
X103809657Y-59271713D01*
X103791771Y-59234757D01*
X103741685Y-59164313D01*
X103657497Y-59108060D01*
X103654656Y-59106883D01*
X103616141Y-59090929D01*
X103616136Y-59090927D01*
X103613303Y-59089754D01*
X103610295Y-59089156D01*
X103610293Y-59089155D01*
X103517007Y-59070599D01*
X103517008Y-59070599D01*
X103513996Y-59070000D01*
X96486383Y-59070000D01*
X96416489Y-59079590D01*
X96384066Y-59088658D01*
X96382107Y-59089507D01*
X96382105Y-59089508D01*
X96324120Y-59114645D01*
X96324118Y-59114646D01*
X96319339Y-59116718D01*
X96244688Y-59185123D01*
X96242874Y-59187597D01*
X96218214Y-59221228D01*
X96218212Y-59221232D01*
X96216402Y-59223700D01*
X96173611Y-59315466D01*
X96161576Y-59364650D01*
X96148853Y-59416643D01*
X96143807Y-59430211D01*
X96097944Y-59520028D01*
X96089913Y-59532070D01*
X96024611Y-59608937D01*
X96014025Y-59618809D01*
X95931146Y-59679801D01*
X95915831Y-59691989D01*
X95908681Y-59698133D01*
X95894313Y-59711455D01*
X95892280Y-59714497D01*
X95892277Y-59714501D01*
X95860389Y-59762225D01*
X95838060Y-59795643D01*
X95836884Y-59798482D01*
X95836883Y-59798484D01*
X95820929Y-59836999D01*
X95820927Y-59837004D01*
X95819754Y-59839837D01*
X95819156Y-59842845D01*
X95819155Y-59842847D01*
X95810256Y-59887587D01*
X95800000Y-59939144D01*
X95800000Y-61891883D01*
X95802177Y-61925426D01*
X95804265Y-61941444D01*
X95810755Y-61974407D01*
X95855299Y-62065334D01*
X95857162Y-62067775D01*
X95882455Y-62100918D01*
X95882458Y-62100921D01*
X95884320Y-62103361D01*
X95960270Y-62170320D01*
X95972240Y-62177273D01*
X95983830Y-62185944D01*
X96057046Y-62255303D01*
X96066330Y-62266407D01*
X96121633Y-62350756D01*
X96128113Y-62363697D01*
X96162734Y-62459073D01*
X96165508Y-62469604D01*
X96165604Y-62470430D01*
X96177017Y-62521969D01*
X96184969Y-62545979D01*
X96206569Y-62594129D01*
X96273325Y-62670258D01*
X96281643Y-62676641D01*
X96305557Y-62718068D01*
X96295557Y-62760946D01*
X96276269Y-62789812D01*
X96276265Y-62789819D01*
X96274560Y-62792371D01*
X96273384Y-62795210D01*
X96257429Y-62833727D01*
X96257427Y-62833732D01*
X96256254Y-62836565D01*
X96255656Y-62839573D01*
X96255655Y-62839575D01*
X96244152Y-62897405D01*
X96236500Y-62935872D01*
X96236500Y-63162479D01*
X96225966Y-63197203D01*
X96210266Y-63220699D01*
X96209065Y-63226735D01*
X96209065Y-63226736D01*
X96200362Y-63270492D01*
X96195500Y-63294933D01*
X96195500Y-63699639D01*
X96189644Y-63726052D01*
X96165903Y-63776966D01*
X96165173Y-63779951D01*
X96148853Y-63846643D01*
X96143807Y-63860211D01*
X96097943Y-63950031D01*
X96089912Y-63962074D01*
X96033887Y-64028020D01*
X95988074Y-64106538D01*
X95983489Y-64119017D01*
X95951064Y-64154186D01*
X95923189Y-64159940D01*
X95828040Y-64157449D01*
X95828036Y-64157449D01*
X95824971Y-64157369D01*
X95821945Y-64157889D01*
X95821944Y-64157889D01*
X95811000Y-64159770D01*
X95787654Y-64163781D01*
X95777666Y-64164681D01*
X95754812Y-64164898D01*
X95588311Y-64166475D01*
X95569603Y-64163795D01*
X95488245Y-64139155D01*
X95474969Y-64133382D01*
X95387762Y-64082727D01*
X95376172Y-64074057D01*
X95339348Y-64039174D01*
X95319836Y-63994578D01*
X95298659Y-62288042D01*
X95313522Y-62246802D01*
X95335390Y-62221062D01*
X95345976Y-62211190D01*
X95428854Y-62150199D01*
X95444169Y-62138011D01*
X95451319Y-62131867D01*
X95465687Y-62118545D01*
X95467720Y-62115503D01*
X95467723Y-62115499D01*
X95520233Y-62036912D01*
X95520234Y-62036910D01*
X95521940Y-62034357D01*
X95523117Y-62031516D01*
X95539071Y-61993001D01*
X95539073Y-61992996D01*
X95540246Y-61990163D01*
X95542651Y-61978076D01*
X95559401Y-61893867D01*
X95560000Y-61890856D01*
X95560000Y-59938117D01*
X95557823Y-59904574D01*
X95555735Y-59888556D01*
X95549245Y-59855593D01*
X95504701Y-59764666D01*
X95498922Y-59757093D01*
X95477545Y-59729082D01*
X95477542Y-59729079D01*
X95475680Y-59726639D01*
X95442918Y-59697755D01*
X95402033Y-59661710D01*
X95402031Y-59661708D01*
X95399730Y-59659680D01*
X95387765Y-59652730D01*
X95376175Y-59644060D01*
X95302948Y-59574691D01*
X95293668Y-59563592D01*
X95274295Y-59534044D01*
X95264068Y-59500552D01*
X95249932Y-58361391D01*
X95250362Y-58353256D01*
X95254082Y-58321887D01*
X95254082Y-58321883D01*
X95254553Y-58317908D01*
X95254554Y-58317906D01*
X95254661Y-58317000D01*
X95254879Y-58317026D01*
X95270549Y-58274568D01*
X95316438Y-58254500D01*
X96048193Y-58254500D01*
X96092387Y-58272806D01*
G37*
%TD.AperFunction*%
%TD*%
%TA.AperFunction,Conductor*%
%TO.N,GND*%
G36*
X94976855Y-58272806D02*
G01*
X94995161Y-58317000D01*
X94988324Y-58345423D01*
X94968007Y-58385212D01*
X94926189Y-58556108D01*
X94925500Y-58567214D01*
X94925500Y-59294053D01*
X94940738Y-59424754D01*
X95000768Y-59590134D01*
X95097234Y-59737268D01*
X95099871Y-59739766D01*
X95211232Y-59845259D01*
X95224960Y-59858264D01*
X95228095Y-59860085D01*
X95228099Y-59860088D01*
X95269391Y-59884072D01*
X95298412Y-59922099D01*
X95300500Y-59938117D01*
X95300500Y-61890856D01*
X95282194Y-61935050D01*
X95275044Y-61941194D01*
X95164859Y-62022280D01*
X95164855Y-62022284D01*
X95161929Y-62024437D01*
X95048018Y-62158520D01*
X94968007Y-62315212D01*
X94926189Y-62486108D01*
X94925500Y-62497214D01*
X94925500Y-63358294D01*
X94907194Y-63402488D01*
X94863000Y-63420794D01*
X94818806Y-63402488D01*
X94809853Y-63391182D01*
X94724993Y-63254051D01*
X94720518Y-63248404D01*
X94600559Y-63128654D01*
X94594898Y-63124183D01*
X94450615Y-63035247D01*
X94444081Y-63032200D01*
X94282996Y-62978770D01*
X94276368Y-62977349D01*
X94176948Y-62967162D01*
X94173766Y-62967000D01*
X93766431Y-62967000D01*
X93757641Y-62970641D01*
X93754000Y-62979431D01*
X93754000Y-63771069D01*
X93757641Y-63779859D01*
X93766431Y-63783500D01*
X94876794Y-63783500D01*
X94920988Y-63801806D01*
X94938874Y-63838763D01*
X94940738Y-63854754D01*
X95000768Y-64020134D01*
X95097234Y-64167268D01*
X95224960Y-64288264D01*
X95249712Y-64302641D01*
X95347259Y-64359301D01*
X95377096Y-64376632D01*
X95380563Y-64377682D01*
X95497575Y-64413121D01*
X95545480Y-64427630D01*
X95721080Y-64438524D01*
X95868917Y-64413121D01*
X95915573Y-64423678D01*
X95941098Y-64464134D01*
X95942001Y-64474718D01*
X95942001Y-64816396D01*
X95942183Y-64819766D01*
X95948325Y-64876310D01*
X95950124Y-64883878D01*
X95998264Y-65012291D01*
X96002499Y-65020026D01*
X96084428Y-65129344D01*
X96090656Y-65135572D01*
X96199974Y-65217501D01*
X96207709Y-65221736D01*
X96336125Y-65269877D01*
X96343689Y-65271675D01*
X96400230Y-65277817D01*
X96403598Y-65278000D01*
X96483569Y-65278000D01*
X96492359Y-65274359D01*
X96496000Y-65265569D01*
X96496000Y-64311431D01*
X96492359Y-64302641D01*
X96483569Y-64299000D01*
X96279285Y-64299000D01*
X96235091Y-64280694D01*
X96216785Y-64236500D01*
X96231653Y-64196034D01*
X96256091Y-64167268D01*
X96311982Y-64101480D01*
X96391993Y-63944788D01*
X96417966Y-63838645D01*
X96446252Y-63800068D01*
X96478675Y-63791000D01*
X96483569Y-63791000D01*
X96492359Y-63787359D01*
X96496000Y-63778569D01*
X96496000Y-62935872D01*
X96514306Y-62891678D01*
X96558500Y-62873372D01*
X96602694Y-62891678D01*
X96608085Y-62897824D01*
X96663960Y-62970642D01*
X96696696Y-63013304D01*
X96817750Y-63106192D01*
X96821533Y-63107759D01*
X96954931Y-63163015D01*
X96954934Y-63163016D01*
X96958720Y-63164584D01*
X96958774Y-63164591D01*
X96995628Y-63192873D01*
X97004000Y-63224121D01*
X97004000Y-63246045D01*
X97002799Y-63258238D01*
X97001183Y-63266365D01*
X96995500Y-63294933D01*
X96995501Y-64795066D01*
X96996100Y-64798075D01*
X96996100Y-64798080D01*
X97002799Y-64831759D01*
X97004000Y-64843951D01*
X97004000Y-65265568D01*
X97015742Y-65293915D01*
X97020500Y-65317833D01*
X97020500Y-65610812D01*
X96999086Y-65657909D01*
X96975115Y-65678821D01*
X96929449Y-65718657D01*
X96929447Y-65718659D01*
X96926609Y-65721135D01*
X96828562Y-65860643D01*
X96816097Y-65892615D01*
X96769955Y-66010963D01*
X96766622Y-66019511D01*
X96766130Y-66023248D01*
X96745954Y-66176500D01*
X96744365Y-66188568D01*
X96763076Y-66358055D01*
X96764370Y-66361591D01*
X96764371Y-66361595D01*
X96797545Y-66452244D01*
X96821676Y-66518185D01*
X96914378Y-66656141D01*
X96923833Y-66703033D01*
X96897361Y-66742876D01*
X96862502Y-66753500D01*
X94692000Y-66753500D01*
X94647806Y-66735194D01*
X94629500Y-66691000D01*
X94629500Y-66602244D01*
X94622798Y-66540552D01*
X94590326Y-66453931D01*
X94573635Y-66409407D01*
X94573634Y-66409405D01*
X94572071Y-66405236D01*
X94485404Y-66289596D01*
X94369764Y-66202929D01*
X94365595Y-66201366D01*
X94365593Y-66201365D01*
X94238116Y-66153577D01*
X94234448Y-66152202D01*
X94172756Y-66145500D01*
X92827244Y-66145500D01*
X92765552Y-66152202D01*
X92761884Y-66153577D01*
X92634407Y-66201365D01*
X92634405Y-66201366D01*
X92630236Y-66202929D01*
X92626672Y-66205600D01*
X92559019Y-66256303D01*
X92512676Y-66268159D01*
X92471523Y-66243773D01*
X92468389Y-66239178D01*
X92424993Y-66169051D01*
X92420518Y-66163404D01*
X92300559Y-66043654D01*
X92294898Y-66039183D01*
X92150615Y-65950247D01*
X92144081Y-65947200D01*
X91982996Y-65893770D01*
X91976368Y-65892349D01*
X91876948Y-65882162D01*
X91873766Y-65882000D01*
X91466431Y-65882000D01*
X91457641Y-65885641D01*
X91454000Y-65894431D01*
X91454000Y-68010568D01*
X91457641Y-68019358D01*
X91466431Y-68022999D01*
X91873752Y-68022999D01*
X91876966Y-68022833D01*
X91977664Y-68012385D01*
X91984301Y-68010952D01*
X92145286Y-67957244D01*
X92151822Y-67954182D01*
X92295953Y-67864990D01*
X92301596Y-67860518D01*
X92421344Y-67740561D01*
X92425817Y-67734898D01*
X92459904Y-67679598D01*
X92498677Y-67651583D01*
X92545904Y-67659190D01*
X92550590Y-67662381D01*
X92626668Y-67719398D01*
X92626672Y-67719400D01*
X92630236Y-67722071D01*
X92634405Y-67723634D01*
X92634407Y-67723635D01*
X92761884Y-67771423D01*
X92765552Y-67772798D01*
X92827244Y-67779500D01*
X94172756Y-67779500D01*
X94234448Y-67772798D01*
X94238116Y-67771423D01*
X94365593Y-67723635D01*
X94365595Y-67723634D01*
X94369764Y-67722071D01*
X94485404Y-67635404D01*
X94558766Y-67537517D01*
X94599919Y-67513131D01*
X94608779Y-67512500D01*
X97670836Y-67512500D01*
X97683992Y-67513900D01*
X97699876Y-67517320D01*
X97705005Y-67516713D01*
X97705008Y-67516713D01*
X97736941Y-67512933D01*
X97744287Y-67512500D01*
X97749524Y-67512500D01*
X97752065Y-67512077D01*
X97752077Y-67512076D01*
X97770042Y-67509085D01*
X97772950Y-67508671D01*
X97825341Y-67502470D01*
X97829998Y-67500234D01*
X97833779Y-67499135D01*
X97837526Y-67497853D01*
X97842626Y-67497004D01*
X97847172Y-67494551D01*
X97847175Y-67494550D01*
X97889061Y-67471949D01*
X97891686Y-67470612D01*
X97935686Y-67449484D01*
X97935688Y-67449483D01*
X97939232Y-67447781D01*
X97942241Y-67445252D01*
X97942243Y-67445250D01*
X97942473Y-67445056D01*
X97943508Y-67444186D01*
X97943706Y-67443988D01*
X97946786Y-67441388D01*
X97949267Y-67439463D01*
X97953814Y-67437010D01*
X97991248Y-67396514D01*
X97992949Y-67394745D01*
X98484996Y-66902698D01*
X98495284Y-66894389D01*
X98508940Y-66885571D01*
X98532049Y-66856257D01*
X98536938Y-66850756D01*
X98540638Y-66847056D01*
X98552729Y-66830137D01*
X98554496Y-66827783D01*
X98583957Y-66790411D01*
X98587156Y-66786353D01*
X98588868Y-66781477D01*
X98590793Y-66777976D01*
X98592513Y-66774465D01*
X98595514Y-66770266D01*
X98596992Y-66765324D01*
X98596994Y-66765320D01*
X98610634Y-66719708D01*
X98611545Y-66716906D01*
X98627715Y-66670861D01*
X98627716Y-66670857D01*
X98629018Y-66667149D01*
X98629500Y-66661584D01*
X98629500Y-66661307D01*
X98629840Y-66657281D01*
X98630233Y-66654172D01*
X98631713Y-66649222D01*
X98629548Y-66594117D01*
X98629500Y-66591664D01*
X98629500Y-66070925D01*
X98647806Y-66026731D01*
X98692000Y-66008425D01*
X98730047Y-66021340D01*
X98746357Y-66033855D01*
X98750143Y-66035423D01*
X98750146Y-66035425D01*
X98877460Y-66088160D01*
X98877461Y-66088160D01*
X98881246Y-66089728D01*
X98885308Y-66090263D01*
X98885309Y-66090263D01*
X99021936Y-66108250D01*
X99026000Y-66108785D01*
X99030064Y-66108250D01*
X99166691Y-66090263D01*
X99166692Y-66090263D01*
X99170754Y-66089728D01*
X99174539Y-66088160D01*
X99174540Y-66088160D01*
X99284082Y-66042786D01*
X99331918Y-66042786D01*
X99365742Y-66076610D01*
X99370500Y-66100528D01*
X99370500Y-68715550D01*
X99352194Y-68759744D01*
X99308000Y-68778050D01*
X99284793Y-68773581D01*
X99231147Y-68752124D01*
X99093792Y-68729385D01*
X99051322Y-68722354D01*
X99051321Y-68722354D01*
X99047981Y-68721801D01*
X99044600Y-68721978D01*
X99044596Y-68721978D01*
X98912787Y-68728886D01*
X98862576Y-68731518D01*
X98859318Y-68732415D01*
X98859314Y-68732416D01*
X98783199Y-68753382D01*
X98683583Y-68780821D01*
X98519352Y-68867410D01*
X98516768Y-68869594D01*
X98516766Y-68869595D01*
X98452949Y-68923525D01*
X98377546Y-68987245D01*
X98264781Y-69134736D01*
X98186318Y-69303000D01*
X98185580Y-69306300D01*
X98185580Y-69306301D01*
X98164997Y-69398385D01*
X98145818Y-69484188D01*
X98145500Y-69489876D01*
X98145500Y-70176385D01*
X98160512Y-70314573D01*
X98161590Y-70317778D01*
X98161591Y-70317780D01*
X98190506Y-70403699D01*
X98219730Y-70490535D01*
X98221470Y-70493430D01*
X98221470Y-70493431D01*
X98312371Y-70644717D01*
X98315351Y-70649677D01*
X98442916Y-70784572D01*
X98596471Y-70888928D01*
X98622958Y-70899522D01*
X98765709Y-70956619D01*
X98765713Y-70956620D01*
X98768853Y-70957876D01*
X98772188Y-70958428D01*
X98772191Y-70958429D01*
X98948678Y-70987646D01*
X98948679Y-70987646D01*
X98952019Y-70988199D01*
X98955400Y-70988022D01*
X98955404Y-70988022D01*
X99087213Y-70981114D01*
X99137424Y-70978482D01*
X99140682Y-70977585D01*
X99140686Y-70977584D01*
X99271900Y-70941441D01*
X99316417Y-70929179D01*
X99480648Y-70842590D01*
X99487448Y-70836844D01*
X99552214Y-70782112D01*
X99622454Y-70722755D01*
X99735219Y-70575264D01*
X99794151Y-70448884D01*
X99812252Y-70410067D01*
X99812252Y-70410066D01*
X99813682Y-70407000D01*
X99854182Y-70225812D01*
X99854500Y-70220124D01*
X99854500Y-69563082D01*
X99872806Y-69518888D01*
X99984996Y-69406698D01*
X99995289Y-69398385D01*
X99998715Y-69396173D01*
X100045772Y-69387580D01*
X100085123Y-69414779D01*
X100091747Y-69428437D01*
X100093148Y-69432529D01*
X100093996Y-69437626D01*
X100096449Y-69442172D01*
X100119051Y-69484061D01*
X100120388Y-69486686D01*
X100139341Y-69526156D01*
X100145500Y-69553210D01*
X100145500Y-70176385D01*
X100160512Y-70314573D01*
X100161590Y-70317778D01*
X100161591Y-70317780D01*
X100190506Y-70403699D01*
X100219730Y-70490535D01*
X100221470Y-70493430D01*
X100221470Y-70493431D01*
X100312371Y-70644717D01*
X100315351Y-70649677D01*
X100442916Y-70784572D01*
X100596471Y-70888928D01*
X100622958Y-70899522D01*
X100765709Y-70956619D01*
X100765713Y-70956620D01*
X100768853Y-70957876D01*
X100772188Y-70958428D01*
X100772191Y-70958429D01*
X100948678Y-70987646D01*
X100948679Y-70987646D01*
X100952019Y-70988199D01*
X100955400Y-70988022D01*
X100955404Y-70988022D01*
X101087213Y-70981114D01*
X101137424Y-70978482D01*
X101140682Y-70977585D01*
X101140686Y-70977584D01*
X101271900Y-70941441D01*
X101316417Y-70929179D01*
X101480648Y-70842590D01*
X101487448Y-70836844D01*
X101552214Y-70782112D01*
X101622454Y-70722755D01*
X101735219Y-70575264D01*
X101812974Y-70408518D01*
X101848242Y-70376201D01*
X101896032Y-70378288D01*
X101929591Y-70417338D01*
X101965722Y-70540498D01*
X101967918Y-70545987D01*
X102062002Y-70728663D01*
X102065203Y-70733649D01*
X102192133Y-70895238D01*
X102196212Y-70899522D01*
X102351405Y-71034191D01*
X102356234Y-71037636D01*
X102534085Y-71140525D01*
X102539475Y-71142993D01*
X102733580Y-71210397D01*
X102734817Y-71210699D01*
X102742919Y-71208641D01*
X102746000Y-71203461D01*
X102746000Y-71196086D01*
X103254000Y-71196086D01*
X103257641Y-71204876D01*
X103261859Y-71206623D01*
X103359471Y-71183099D01*
X103365083Y-71181166D01*
X103552132Y-71096121D01*
X103557260Y-71093172D01*
X103724861Y-70974284D01*
X103729338Y-70970420D01*
X103871431Y-70821986D01*
X103875100Y-70817341D01*
X103986562Y-70644717D01*
X103989286Y-70639461D01*
X104045491Y-70500000D01*
X106690517Y-70500000D01*
X106690755Y-70502720D01*
X106710006Y-70722755D01*
X106710411Y-70727389D01*
X106711116Y-70730022D01*
X106711117Y-70730025D01*
X106764480Y-70929179D01*
X106769488Y-70947870D01*
X106770640Y-70950341D01*
X106770641Y-70950343D01*
X106786569Y-70984500D01*
X106865954Y-71154741D01*
X106996878Y-71341719D01*
X107158281Y-71503122D01*
X107345259Y-71634046D01*
X107464287Y-71689550D01*
X107479951Y-71696854D01*
X107552130Y-71730512D01*
X107554763Y-71731217D01*
X107554767Y-71731219D01*
X107769975Y-71788883D01*
X107769978Y-71788884D01*
X107772611Y-71789589D01*
X107775327Y-71789827D01*
X107775329Y-71789827D01*
X107941692Y-71804382D01*
X107941698Y-71804382D01*
X107943044Y-71804500D01*
X108056956Y-71804500D01*
X108058302Y-71804382D01*
X108058308Y-71804382D01*
X108224671Y-71789827D01*
X108224673Y-71789827D01*
X108227389Y-71789589D01*
X108230022Y-71788884D01*
X108230025Y-71788883D01*
X108445233Y-71731219D01*
X108445237Y-71731217D01*
X108447870Y-71730512D01*
X108520050Y-71696854D01*
X108535713Y-71689550D01*
X108654741Y-71634046D01*
X108841719Y-71503122D01*
X109003122Y-71341719D01*
X109134046Y-71154742D01*
X109213431Y-70984500D01*
X109229359Y-70950343D01*
X109229360Y-70950341D01*
X109230512Y-70947870D01*
X109235521Y-70929179D01*
X109288883Y-70730025D01*
X109288884Y-70730022D01*
X109289589Y-70727389D01*
X109289995Y-70722755D01*
X109309245Y-70502720D01*
X109309483Y-70500000D01*
X109289589Y-70272611D01*
X109288883Y-70269975D01*
X109231219Y-70054767D01*
X109231217Y-70054763D01*
X109230512Y-70052130D01*
X109134046Y-69845259D01*
X109003122Y-69658281D01*
X108841719Y-69496878D01*
X108654741Y-69365954D01*
X108447870Y-69269488D01*
X108445237Y-69268783D01*
X108445233Y-69268781D01*
X108230025Y-69211117D01*
X108230022Y-69211116D01*
X108227389Y-69210411D01*
X108224673Y-69210173D01*
X108224671Y-69210173D01*
X108058308Y-69195618D01*
X108058302Y-69195618D01*
X108056956Y-69195500D01*
X107943044Y-69195500D01*
X107941698Y-69195618D01*
X107941692Y-69195618D01*
X107775329Y-69210173D01*
X107775327Y-69210173D01*
X107772611Y-69210411D01*
X107769978Y-69211116D01*
X107769975Y-69211117D01*
X107554767Y-69268781D01*
X107554763Y-69268783D01*
X107552130Y-69269488D01*
X107345259Y-69365954D01*
X107158281Y-69496878D01*
X106996878Y-69658281D01*
X106865954Y-69845258D01*
X106769488Y-70052130D01*
X106768783Y-70054763D01*
X106768781Y-70054767D01*
X106711117Y-70269975D01*
X106710411Y-70272611D01*
X106690517Y-70500000D01*
X104045491Y-70500000D01*
X104066091Y-70448884D01*
X104067776Y-70443196D01*
X104107296Y-70240826D01*
X104107838Y-70236363D01*
X104107962Y-70233821D01*
X104108000Y-70232290D01*
X104108000Y-70121431D01*
X104104359Y-70112641D01*
X104095569Y-70109000D01*
X103266431Y-70109000D01*
X103257641Y-70112641D01*
X103254000Y-70121431D01*
X103254000Y-71196086D01*
X102746000Y-71196086D01*
X102746000Y-69588569D01*
X103254000Y-69588569D01*
X103257641Y-69597359D01*
X103266431Y-69601000D01*
X104095569Y-69601000D01*
X104104359Y-69597359D01*
X104108000Y-69588569D01*
X104108000Y-69528662D01*
X104107858Y-69525690D01*
X104093241Y-69372490D01*
X104092123Y-69366680D01*
X104034278Y-69169502D01*
X104032082Y-69164013D01*
X103937998Y-68981337D01*
X103934797Y-68976351D01*
X103807867Y-68814762D01*
X103803788Y-68810478D01*
X103648595Y-68675809D01*
X103643766Y-68672364D01*
X103465915Y-68569475D01*
X103460525Y-68567007D01*
X103266420Y-68499603D01*
X103265183Y-68499301D01*
X103257081Y-68501359D01*
X103254000Y-68506539D01*
X103254000Y-69588569D01*
X102746000Y-69588569D01*
X102746000Y-68513914D01*
X102742359Y-68505124D01*
X102738141Y-68503377D01*
X102640529Y-68526901D01*
X102634917Y-68528834D01*
X102447868Y-68613879D01*
X102442740Y-68616828D01*
X102275142Y-68735714D01*
X102270662Y-68739580D01*
X102128569Y-68888014D01*
X102124900Y-68892659D01*
X102013438Y-69065283D01*
X102010714Y-69070539D01*
X101933909Y-69261116D01*
X101932224Y-69266805D01*
X101927536Y-69290811D01*
X101901100Y-69330678D01*
X101854217Y-69340174D01*
X101814350Y-69313738D01*
X101806960Y-69298768D01*
X101781351Y-69222674D01*
X101781347Y-69222666D01*
X101780270Y-69219465D01*
X101774687Y-69210173D01*
X101686393Y-69063225D01*
X101686391Y-69063223D01*
X101684649Y-69060323D01*
X101557084Y-68925428D01*
X101474930Y-68869596D01*
X101406325Y-68822972D01*
X101406324Y-68822971D01*
X101403529Y-68821072D01*
X101304255Y-68781365D01*
X101234291Y-68753381D01*
X101234287Y-68753380D01*
X101231147Y-68752124D01*
X101227812Y-68751572D01*
X101227809Y-68751571D01*
X101051322Y-68722354D01*
X101051321Y-68722354D01*
X101047981Y-68721801D01*
X101044600Y-68721978D01*
X101044596Y-68721978D01*
X100903271Y-68729385D01*
X100858179Y-68713418D01*
X100837500Y-68666971D01*
X100837500Y-66318113D01*
X100855806Y-66273919D01*
X100900000Y-66255613D01*
X100944194Y-66273919D01*
X100944797Y-66274603D01*
X100945990Y-66276814D01*
X100949786Y-66280323D01*
X100986486Y-66314248D01*
X100988255Y-66315949D01*
X101785302Y-67112996D01*
X101793611Y-67123284D01*
X101802429Y-67136940D01*
X101829333Y-67158149D01*
X101831743Y-67160049D01*
X101837244Y-67164938D01*
X101840944Y-67168638D01*
X101843038Y-67170134D01*
X101843041Y-67170137D01*
X101857863Y-67180729D01*
X101860217Y-67182496D01*
X101897589Y-67211957D01*
X101901647Y-67215156D01*
X101906523Y-67216868D01*
X101910024Y-67218793D01*
X101913535Y-67220513D01*
X101917734Y-67223514D01*
X101922676Y-67224992D01*
X101922680Y-67224994D01*
X101954294Y-67234448D01*
X101968300Y-67238637D01*
X101971094Y-67239545D01*
X102017139Y-67255715D01*
X102017143Y-67255716D01*
X102020851Y-67257018D01*
X102024851Y-67257364D01*
X102025074Y-67257384D01*
X102025079Y-67257384D01*
X102026416Y-67257500D01*
X102026693Y-67257500D01*
X102030719Y-67257840D01*
X102033828Y-67258233D01*
X102038778Y-67259713D01*
X102093883Y-67257548D01*
X102096336Y-67257500D01*
X105842526Y-67257500D01*
X105886720Y-67275806D01*
X105901049Y-67298061D01*
X105927929Y-67369764D01*
X106014596Y-67485404D01*
X106018156Y-67488072D01*
X106084131Y-67537517D01*
X106130236Y-67572071D01*
X106134405Y-67573634D01*
X106134407Y-67573635D01*
X106261884Y-67621423D01*
X106265552Y-67622798D01*
X106327244Y-67629500D01*
X107672756Y-67629500D01*
X107734448Y-67622798D01*
X107738116Y-67621423D01*
X107865593Y-67573635D01*
X107865595Y-67573634D01*
X107869764Y-67572071D01*
X107915870Y-67537517D01*
X107981844Y-67488072D01*
X107985404Y-67485404D01*
X108072071Y-67369764D01*
X108089694Y-67322756D01*
X108121423Y-67238116D01*
X108122798Y-67234448D01*
X108129500Y-67172756D01*
X108129500Y-66452244D01*
X108122798Y-66390552D01*
X108110616Y-66358055D01*
X108073635Y-66259407D01*
X108073634Y-66259405D01*
X108072071Y-66255236D01*
X107985404Y-66139596D01*
X107869764Y-66052929D01*
X107865595Y-66051366D01*
X107865593Y-66051365D01*
X107738116Y-66003577D01*
X107734448Y-66002202D01*
X107672756Y-65995500D01*
X106327244Y-65995500D01*
X106265552Y-66002202D01*
X106261884Y-66003577D01*
X106134407Y-66051365D01*
X106134405Y-66051366D01*
X106130236Y-66052929D01*
X106014596Y-66139596D01*
X105927929Y-66255236D01*
X105926366Y-66259405D01*
X105926365Y-66259407D01*
X105889384Y-66358055D01*
X105877202Y-66390552D01*
X105876779Y-66394448D01*
X105871531Y-66442751D01*
X105848559Y-66484709D01*
X105809397Y-66498500D01*
X103201373Y-66498500D01*
X103157179Y-66480194D01*
X103138873Y-66436000D01*
X103143383Y-66412689D01*
X103163087Y-66363674D01*
X103163089Y-66363668D01*
X103164492Y-66360177D01*
X103186872Y-66202929D01*
X103188230Y-66193387D01*
X103188230Y-66193384D01*
X103188518Y-66191362D01*
X103188674Y-66176500D01*
X103168189Y-66007219D01*
X103107916Y-65847711D01*
X103011334Y-65707184D01*
X103000424Y-65697463D01*
X102979500Y-65650798D01*
X102979500Y-65317834D01*
X102984258Y-65293916D01*
X102996000Y-65265569D01*
X102996000Y-64843954D01*
X102997201Y-64831760D01*
X102997202Y-64831759D01*
X103004500Y-64795067D01*
X103004499Y-63294934D01*
X102999660Y-63270602D01*
X102997201Y-63258241D01*
X102996000Y-63246049D01*
X102996000Y-63224121D01*
X103014306Y-63179927D01*
X103040760Y-63164653D01*
X103041280Y-63164584D01*
X103045066Y-63163016D01*
X103045069Y-63163015D01*
X103178467Y-63107759D01*
X103182250Y-63106192D01*
X103303304Y-63013304D01*
X103336040Y-62970642D01*
X103391915Y-62897824D01*
X103433342Y-62873907D01*
X103479548Y-62886287D01*
X103503465Y-62927714D01*
X103504000Y-62935872D01*
X103504000Y-65265568D01*
X103507641Y-65274358D01*
X103516431Y-65277999D01*
X103596396Y-65277999D01*
X103599766Y-65277817D01*
X103656310Y-65271675D01*
X103663878Y-65269876D01*
X103792291Y-65221736D01*
X103800026Y-65217501D01*
X103909344Y-65135572D01*
X103915572Y-65129344D01*
X103997501Y-65020026D01*
X104001736Y-65012291D01*
X104049877Y-64883875D01*
X104051675Y-64876311D01*
X104057817Y-64819770D01*
X104058000Y-64816402D01*
X104058000Y-64473254D01*
X104076306Y-64429060D01*
X104120500Y-64410754D01*
X104138616Y-64413437D01*
X104182001Y-64426577D01*
X104182006Y-64426578D01*
X104185480Y-64427630D01*
X104361080Y-64438524D01*
X104534477Y-64408729D01*
X104696368Y-64339844D01*
X104820149Y-64248752D01*
X105617001Y-64248752D01*
X105617167Y-64251966D01*
X105627615Y-64352664D01*
X105629048Y-64359301D01*
X105682756Y-64520286D01*
X105685818Y-64526822D01*
X105775010Y-64670953D01*
X105779482Y-64676596D01*
X105899441Y-64796346D01*
X105905102Y-64800817D01*
X106049385Y-64889753D01*
X106055919Y-64892800D01*
X106217004Y-64946230D01*
X106223632Y-64947651D01*
X106323052Y-64957838D01*
X106326234Y-64958000D01*
X106733569Y-64958000D01*
X106742359Y-64954359D01*
X106746000Y-64945569D01*
X106746000Y-64945568D01*
X107254000Y-64945568D01*
X107257641Y-64954358D01*
X107266431Y-64957999D01*
X107673752Y-64957999D01*
X107676966Y-64957833D01*
X107777664Y-64947385D01*
X107784301Y-64945952D01*
X107945286Y-64892244D01*
X107951822Y-64889182D01*
X108095953Y-64799990D01*
X108101596Y-64795518D01*
X108221346Y-64675559D01*
X108225817Y-64669898D01*
X108314753Y-64525615D01*
X108317800Y-64519081D01*
X108371230Y-64357996D01*
X108372651Y-64351368D01*
X108382838Y-64251948D01*
X108383000Y-64248766D01*
X108383000Y-64153931D01*
X108379359Y-64145141D01*
X108370569Y-64141500D01*
X107266431Y-64141500D01*
X107257641Y-64145141D01*
X107254000Y-64153931D01*
X107254000Y-64945568D01*
X106746000Y-64945568D01*
X106746000Y-64153931D01*
X106742359Y-64145141D01*
X106733569Y-64141500D01*
X105629432Y-64141500D01*
X105620642Y-64145141D01*
X105617001Y-64153931D01*
X105617001Y-64248752D01*
X104820149Y-64248752D01*
X104838071Y-64235563D01*
X104951982Y-64101480D01*
X105031993Y-63944788D01*
X105073811Y-63773892D01*
X105074500Y-63762786D01*
X105074500Y-63621069D01*
X105617000Y-63621069D01*
X105620641Y-63629859D01*
X105629431Y-63633500D01*
X106733569Y-63633500D01*
X106742359Y-63629859D01*
X106746000Y-63621069D01*
X107254000Y-63621069D01*
X107257641Y-63629859D01*
X107266431Y-63633500D01*
X108370568Y-63633500D01*
X108379358Y-63629859D01*
X108382999Y-63621069D01*
X108382999Y-63526248D01*
X108382833Y-63523034D01*
X108372385Y-63422336D01*
X108370952Y-63415699D01*
X108317244Y-63254714D01*
X108314182Y-63248178D01*
X108224990Y-63104047D01*
X108220518Y-63098404D01*
X108100559Y-62978654D01*
X108094898Y-62974183D01*
X107950615Y-62885247D01*
X107944081Y-62882200D01*
X107782996Y-62828770D01*
X107776368Y-62827349D01*
X107676948Y-62817162D01*
X107673766Y-62817000D01*
X107266431Y-62817000D01*
X107257641Y-62820641D01*
X107254000Y-62829431D01*
X107254000Y-63621069D01*
X106746000Y-63621069D01*
X106746000Y-62829432D01*
X106742359Y-62820642D01*
X106733569Y-62817001D01*
X106326248Y-62817001D01*
X106323034Y-62817167D01*
X106222336Y-62827615D01*
X106215699Y-62829048D01*
X106054714Y-62882756D01*
X106048178Y-62885818D01*
X105904047Y-62975010D01*
X105898404Y-62979482D01*
X105778654Y-63099441D01*
X105774183Y-63105102D01*
X105685247Y-63249385D01*
X105682200Y-63255919D01*
X105628770Y-63417004D01*
X105627349Y-63423632D01*
X105617162Y-63523052D01*
X105617000Y-63526234D01*
X105617000Y-63621069D01*
X105074500Y-63621069D01*
X105074500Y-62535947D01*
X105068800Y-62487052D01*
X105063358Y-62440382D01*
X105059262Y-62405246D01*
X104999232Y-62239866D01*
X104902766Y-62092732D01*
X104775040Y-61971736D01*
X104771905Y-61969915D01*
X104771901Y-61969912D01*
X104730609Y-61945928D01*
X104701588Y-61907901D01*
X104699500Y-61891883D01*
X104699500Y-60500000D01*
X106690517Y-60500000D01*
X106710411Y-60727389D01*
X106769488Y-60947870D01*
X106865954Y-61154741D01*
X106996878Y-61341719D01*
X107158281Y-61503122D01*
X107345259Y-61634046D01*
X107552130Y-61730512D01*
X107554763Y-61731217D01*
X107554767Y-61731219D01*
X107769975Y-61788883D01*
X107769978Y-61788884D01*
X107772611Y-61789589D01*
X107775327Y-61789827D01*
X107775329Y-61789827D01*
X107941692Y-61804382D01*
X107941698Y-61804382D01*
X107943044Y-61804500D01*
X108056956Y-61804500D01*
X108058302Y-61804382D01*
X108058308Y-61804382D01*
X108224671Y-61789827D01*
X108224673Y-61789827D01*
X108227389Y-61789589D01*
X108230022Y-61788884D01*
X108230025Y-61788883D01*
X108445233Y-61731219D01*
X108445237Y-61731217D01*
X108447870Y-61730512D01*
X108654741Y-61634046D01*
X108841719Y-61503122D01*
X109003122Y-61341719D01*
X109134046Y-61154742D01*
X109230512Y-60947870D01*
X109289589Y-60727389D01*
X109309483Y-60500000D01*
X109289589Y-60272611D01*
X109230512Y-60052130D01*
X109134046Y-59845259D01*
X109003122Y-59658281D01*
X108841719Y-59496878D01*
X108654741Y-59365954D01*
X108447870Y-59269488D01*
X108445237Y-59268783D01*
X108445233Y-59268781D01*
X108230025Y-59211117D01*
X108230022Y-59211116D01*
X108227389Y-59210411D01*
X108224673Y-59210173D01*
X108224671Y-59210173D01*
X108058308Y-59195618D01*
X108058302Y-59195618D01*
X108056956Y-59195500D01*
X107943044Y-59195500D01*
X107941698Y-59195618D01*
X107941692Y-59195618D01*
X107775329Y-59210173D01*
X107775327Y-59210173D01*
X107772611Y-59210411D01*
X107769978Y-59211116D01*
X107769975Y-59211117D01*
X107554767Y-59268781D01*
X107554763Y-59268783D01*
X107552130Y-59269488D01*
X107345259Y-59365954D01*
X107158281Y-59496878D01*
X106996878Y-59658281D01*
X106865954Y-59845258D01*
X106769488Y-60052130D01*
X106710411Y-60272611D01*
X106690517Y-60500000D01*
X104699500Y-60500000D01*
X104699500Y-59939144D01*
X104717806Y-59894950D01*
X104724956Y-59888806D01*
X104835141Y-59807720D01*
X104835145Y-59807716D01*
X104838071Y-59805563D01*
X104951982Y-59671480D01*
X105031993Y-59514788D01*
X105073811Y-59343892D01*
X105074500Y-59332786D01*
X105074500Y-58605947D01*
X105059262Y-58475246D01*
X105009562Y-58338325D01*
X105011690Y-58290537D01*
X105046986Y-58258251D01*
X105068311Y-58254500D01*
X108968778Y-58254500D01*
X108980971Y-58255701D01*
X109000000Y-58259486D01*
X109006037Y-58258285D01*
X109006039Y-58258285D01*
X109007673Y-58257960D01*
X109025992Y-58257060D01*
X109050624Y-58259486D01*
X109139316Y-58268222D01*
X109151325Y-58270610D01*
X109217015Y-58290537D01*
X109279402Y-58309462D01*
X109290721Y-58314151D01*
X109408747Y-58377236D01*
X109418935Y-58384043D01*
X109522390Y-58468947D01*
X109531053Y-58477610D01*
X109615957Y-58581065D01*
X109622763Y-58591252D01*
X109630618Y-58605947D01*
X109685849Y-58709279D01*
X109690538Y-58720598D01*
X109729389Y-58848671D01*
X109731779Y-58860688D01*
X109742940Y-58974008D01*
X109742040Y-58992327D01*
X109740514Y-59000000D01*
X109741715Y-59006038D01*
X109744299Y-59019029D01*
X109745500Y-59031222D01*
X109745500Y-71468778D01*
X109744299Y-71480971D01*
X109740514Y-71500000D01*
X109741715Y-71506037D01*
X109741715Y-71506039D01*
X109742040Y-71507673D01*
X109742940Y-71525992D01*
X109732298Y-71634046D01*
X109731779Y-71639312D01*
X109729390Y-71651325D01*
X109705369Y-71730512D01*
X109690538Y-71779402D01*
X109685849Y-71790721D01*
X109622764Y-71908747D01*
X109615957Y-71918935D01*
X109531053Y-72022390D01*
X109522390Y-72031053D01*
X109418935Y-72115957D01*
X109408747Y-72122764D01*
X109290721Y-72185849D01*
X109279401Y-72190538D01*
X109151325Y-72229390D01*
X109139316Y-72231778D01*
X109059653Y-72239625D01*
X109025992Y-72242940D01*
X109007673Y-72242040D01*
X109006039Y-72241715D01*
X109006037Y-72241715D01*
X109000000Y-72240514D01*
X108993962Y-72241715D01*
X108980971Y-72244299D01*
X108968778Y-72245500D01*
X91031222Y-72245500D01*
X91019029Y-72244299D01*
X91006038Y-72241715D01*
X91000000Y-72240514D01*
X90993963Y-72241715D01*
X90993961Y-72241715D01*
X90992327Y-72242040D01*
X90974008Y-72242940D01*
X90940347Y-72239625D01*
X90860684Y-72231778D01*
X90848675Y-72229390D01*
X90720599Y-72190538D01*
X90709279Y-72185849D01*
X90591253Y-72122764D01*
X90581065Y-72115957D01*
X90477610Y-72031053D01*
X90468947Y-72022390D01*
X90384043Y-71918935D01*
X90377236Y-71908747D01*
X90314151Y-71790721D01*
X90309462Y-71779402D01*
X90294631Y-71730512D01*
X90270610Y-71651325D01*
X90268221Y-71639312D01*
X90267703Y-71634046D01*
X90257060Y-71525992D01*
X90257960Y-71507673D01*
X90258285Y-71506039D01*
X90258285Y-71506037D01*
X90259486Y-71500000D01*
X90255701Y-71480971D01*
X90254500Y-71468778D01*
X90254500Y-70500000D01*
X90690517Y-70500000D01*
X90690755Y-70502720D01*
X90710006Y-70722755D01*
X90710411Y-70727389D01*
X90711116Y-70730022D01*
X90711117Y-70730025D01*
X90764480Y-70929179D01*
X90769488Y-70947870D01*
X90770640Y-70950341D01*
X90770641Y-70950343D01*
X90786569Y-70984500D01*
X90865954Y-71154741D01*
X90996878Y-71341719D01*
X91158281Y-71503122D01*
X91345259Y-71634046D01*
X91464287Y-71689550D01*
X91479951Y-71696854D01*
X91552130Y-71730512D01*
X91554763Y-71731217D01*
X91554767Y-71731219D01*
X91769975Y-71788883D01*
X91769978Y-71788884D01*
X91772611Y-71789589D01*
X91775327Y-71789827D01*
X91775329Y-71789827D01*
X91941692Y-71804382D01*
X91941698Y-71804382D01*
X91943044Y-71804500D01*
X92056956Y-71804500D01*
X92058302Y-71804382D01*
X92058308Y-71804382D01*
X92224671Y-71789827D01*
X92224673Y-71789827D01*
X92227389Y-71789589D01*
X92230022Y-71788884D01*
X92230025Y-71788883D01*
X92445233Y-71731219D01*
X92445237Y-71731217D01*
X92447870Y-71730512D01*
X92520050Y-71696854D01*
X92535713Y-71689550D01*
X92654741Y-71634046D01*
X92841719Y-71503122D01*
X93003122Y-71341719D01*
X93134046Y-71154742D01*
X93213431Y-70984500D01*
X93229359Y-70950343D01*
X93229360Y-70950341D01*
X93230512Y-70947870D01*
X93235521Y-70929179D01*
X93288883Y-70730025D01*
X93288884Y-70730022D01*
X93289589Y-70727389D01*
X93289995Y-70722755D01*
X93307055Y-70527756D01*
X96145500Y-70527756D01*
X96152202Y-70589448D01*
X96153577Y-70593116D01*
X96201168Y-70720066D01*
X96202929Y-70724764D01*
X96289596Y-70840404D01*
X96405236Y-70927071D01*
X96409405Y-70928634D01*
X96409407Y-70928635D01*
X96520871Y-70970420D01*
X96540552Y-70977798D01*
X96602244Y-70984500D01*
X97397756Y-70984500D01*
X97459448Y-70977798D01*
X97479129Y-70970420D01*
X97590593Y-70928635D01*
X97590595Y-70928634D01*
X97594764Y-70927071D01*
X97710404Y-70840404D01*
X97797071Y-70724764D01*
X97798833Y-70720066D01*
X97846423Y-70593116D01*
X97847798Y-70589448D01*
X97854500Y-70527756D01*
X97854500Y-69182244D01*
X97847798Y-69120552D01*
X97827079Y-69065283D01*
X97798635Y-68989407D01*
X97798634Y-68989405D01*
X97797071Y-68985236D01*
X97710404Y-68869596D01*
X97594764Y-68782929D01*
X97590595Y-68781366D01*
X97590593Y-68781365D01*
X97463116Y-68733577D01*
X97459448Y-68732202D01*
X97397756Y-68725500D01*
X96602244Y-68725500D01*
X96540552Y-68732202D01*
X96536884Y-68733577D01*
X96409407Y-68781365D01*
X96409405Y-68781366D01*
X96405236Y-68782929D01*
X96289596Y-68869596D01*
X96202929Y-68985236D01*
X96201366Y-68989405D01*
X96201365Y-68989407D01*
X96172921Y-69065283D01*
X96152202Y-69120552D01*
X96145500Y-69182244D01*
X96145500Y-70527756D01*
X93307055Y-70527756D01*
X93309245Y-70502720D01*
X93309483Y-70500000D01*
X93289589Y-70272611D01*
X93288883Y-70269975D01*
X93231219Y-70054767D01*
X93231217Y-70054763D01*
X93230512Y-70052130D01*
X93134046Y-69845259D01*
X93003122Y-69658281D01*
X92841719Y-69496878D01*
X92654741Y-69365954D01*
X92447870Y-69269488D01*
X92445237Y-69268783D01*
X92445233Y-69268781D01*
X92230025Y-69211117D01*
X92230022Y-69211116D01*
X92227389Y-69210411D01*
X92224673Y-69210173D01*
X92224671Y-69210173D01*
X92058308Y-69195618D01*
X92058302Y-69195618D01*
X92056956Y-69195500D01*
X91943044Y-69195500D01*
X91941698Y-69195618D01*
X91941692Y-69195618D01*
X91775329Y-69210173D01*
X91775327Y-69210173D01*
X91772611Y-69210411D01*
X91769978Y-69211116D01*
X91769975Y-69211117D01*
X91554767Y-69268781D01*
X91554763Y-69268783D01*
X91552130Y-69269488D01*
X91345259Y-69365954D01*
X91158281Y-69496878D01*
X90996878Y-69658281D01*
X90865954Y-69845258D01*
X90769488Y-70052130D01*
X90768783Y-70054763D01*
X90768781Y-70054767D01*
X90711117Y-70269975D01*
X90710411Y-70272611D01*
X90690517Y-70500000D01*
X90254500Y-70500000D01*
X90254500Y-68043909D01*
X90272806Y-67999715D01*
X90317000Y-67981409D01*
X90336676Y-67984587D01*
X90417003Y-68011230D01*
X90423632Y-68012651D01*
X90523052Y-68022838D01*
X90526234Y-68023000D01*
X90933569Y-68023000D01*
X90942359Y-68019359D01*
X90946000Y-68010569D01*
X90946000Y-65894432D01*
X90942359Y-65885642D01*
X90933569Y-65882001D01*
X90526248Y-65882001D01*
X90523034Y-65882167D01*
X90422336Y-65892615D01*
X90415696Y-65894049D01*
X90336779Y-65920377D01*
X90289063Y-65916998D01*
X90257712Y-65880868D01*
X90254500Y-65861089D01*
X90254500Y-64848857D01*
X90272806Y-64804663D01*
X90317000Y-64786357D01*
X90338939Y-64790334D01*
X90432904Y-64825559D01*
X90465552Y-64837798D01*
X90527244Y-64844500D01*
X91872756Y-64844500D01*
X91934448Y-64837798D01*
X91967096Y-64825559D01*
X92065593Y-64788635D01*
X92065595Y-64788634D01*
X92069764Y-64787071D01*
X92140981Y-64733697D01*
X92187324Y-64721841D01*
X92228477Y-64746227D01*
X92231611Y-64750822D01*
X92275007Y-64820949D01*
X92279482Y-64826596D01*
X92399441Y-64946346D01*
X92405102Y-64950817D01*
X92549385Y-65039753D01*
X92555919Y-65042800D01*
X92717004Y-65096230D01*
X92723632Y-65097651D01*
X92823052Y-65107838D01*
X92826234Y-65108000D01*
X93233569Y-65108000D01*
X93242359Y-65104359D01*
X93246000Y-65095569D01*
X93246000Y-65095568D01*
X93754000Y-65095568D01*
X93757641Y-65104358D01*
X93766431Y-65107999D01*
X94173752Y-65107999D01*
X94176966Y-65107833D01*
X94277664Y-65097385D01*
X94284301Y-65095952D01*
X94445286Y-65042244D01*
X94451822Y-65039182D01*
X94595953Y-64949990D01*
X94601599Y-64945515D01*
X94721346Y-64825559D01*
X94725817Y-64819898D01*
X94814753Y-64675615D01*
X94817800Y-64669081D01*
X94871230Y-64507996D01*
X94872651Y-64501368D01*
X94882838Y-64401948D01*
X94883000Y-64398766D01*
X94883000Y-64303931D01*
X94879359Y-64295141D01*
X94870569Y-64291500D01*
X93766431Y-64291500D01*
X93757641Y-64295141D01*
X93754000Y-64303931D01*
X93754000Y-65095568D01*
X93246000Y-65095568D01*
X93246000Y-62979432D01*
X93242359Y-62970642D01*
X93233569Y-62967001D01*
X92826248Y-62967001D01*
X92823034Y-62967167D01*
X92722336Y-62977615D01*
X92715699Y-62979048D01*
X92554714Y-63032756D01*
X92548178Y-63035818D01*
X92404047Y-63125010D01*
X92398404Y-63129482D01*
X92278656Y-63249439D01*
X92274183Y-63255102D01*
X92240096Y-63310402D01*
X92201323Y-63338417D01*
X92154096Y-63330810D01*
X92149410Y-63327619D01*
X92073332Y-63270602D01*
X92073327Y-63270599D01*
X92069764Y-63267929D01*
X92065595Y-63266366D01*
X92065593Y-63266365D01*
X91938116Y-63218577D01*
X91934448Y-63217202D01*
X91872756Y-63210500D01*
X90527244Y-63210500D01*
X90465552Y-63217202D01*
X90461884Y-63218577D01*
X90338939Y-63264666D01*
X90291131Y-63263038D01*
X90258477Y-63228082D01*
X90254500Y-63206143D01*
X90254500Y-60500000D01*
X90690517Y-60500000D01*
X90710411Y-60727389D01*
X90769488Y-60947870D01*
X90865954Y-61154741D01*
X90996878Y-61341719D01*
X91158281Y-61503122D01*
X91345259Y-61634046D01*
X91552130Y-61730512D01*
X91554763Y-61731217D01*
X91554767Y-61731219D01*
X91769975Y-61788883D01*
X91769978Y-61788884D01*
X91772611Y-61789589D01*
X91775327Y-61789827D01*
X91775329Y-61789827D01*
X91941692Y-61804382D01*
X91941698Y-61804382D01*
X91943044Y-61804500D01*
X92056956Y-61804500D01*
X92058302Y-61804382D01*
X92058308Y-61804382D01*
X92224671Y-61789827D01*
X92224673Y-61789827D01*
X92227389Y-61789589D01*
X92230022Y-61788884D01*
X92230025Y-61788883D01*
X92445233Y-61731219D01*
X92445237Y-61731217D01*
X92447870Y-61730512D01*
X92654741Y-61634046D01*
X92841719Y-61503122D01*
X93003122Y-61341719D01*
X93134046Y-61154742D01*
X93230512Y-60947870D01*
X93289589Y-60727389D01*
X93309483Y-60500000D01*
X93289589Y-60272611D01*
X93230512Y-60052130D01*
X93134046Y-59845259D01*
X93003122Y-59658281D01*
X92841719Y-59496878D01*
X92654741Y-59365954D01*
X92447870Y-59269488D01*
X92445237Y-59268783D01*
X92445233Y-59268781D01*
X92230025Y-59211117D01*
X92230022Y-59211116D01*
X92227389Y-59210411D01*
X92224673Y-59210173D01*
X92224671Y-59210173D01*
X92058308Y-59195618D01*
X92058302Y-59195618D01*
X92056956Y-59195500D01*
X91943044Y-59195500D01*
X91941698Y-59195618D01*
X91941692Y-59195618D01*
X91775329Y-59210173D01*
X91775327Y-59210173D01*
X91772611Y-59210411D01*
X91769978Y-59211116D01*
X91769975Y-59211117D01*
X91554767Y-59268781D01*
X91554763Y-59268783D01*
X91552130Y-59269488D01*
X91345259Y-59365954D01*
X91158281Y-59496878D01*
X90996878Y-59658281D01*
X90865954Y-59845258D01*
X90769488Y-60052130D01*
X90710411Y-60272611D01*
X90690517Y-60500000D01*
X90254500Y-60500000D01*
X90254500Y-59031222D01*
X90255701Y-59019029D01*
X90258285Y-59006038D01*
X90259486Y-59000000D01*
X90257960Y-58992327D01*
X90257060Y-58974008D01*
X90268221Y-58860688D01*
X90270611Y-58848671D01*
X90309462Y-58720598D01*
X90314151Y-58709279D01*
X90369382Y-58605947D01*
X90377237Y-58591252D01*
X90384043Y-58581065D01*
X90468947Y-58477610D01*
X90477610Y-58468947D01*
X90581065Y-58384043D01*
X90591253Y-58377236D01*
X90709279Y-58314151D01*
X90720598Y-58309462D01*
X90782985Y-58290537D01*
X90848675Y-58270610D01*
X90860684Y-58268222D01*
X90949376Y-58259486D01*
X90974008Y-58257060D01*
X90992327Y-58257960D01*
X90993961Y-58258285D01*
X90993963Y-58258285D01*
X91000000Y-58259486D01*
X91019029Y-58255701D01*
X91031222Y-58254500D01*
X94932661Y-58254500D01*
X94976855Y-58272806D01*
G37*
%TD.AperFunction*%
%TD*%
M02*
