%TF.GenerationSoftware,KiCad,Pcbnew,(6.0.5-0)*%
%TF.CreationDate,2022-07-11T22:44:33-07:00*%
%TF.ProjectId,usb_type_c,7573625f-7479-4706-955f-632e6b696361,rev?*%
%TF.SameCoordinates,Original*%
%TF.FileFunction,Legend,Top*%
%TF.FilePolarity,Positive*%
%FSLAX46Y46*%
G04 Gerber Fmt 4.6, Leading zero omitted, Abs format (unit mm)*
G04 Created by KiCad (PCBNEW (6.0.5-0)) date 2022-07-11 22:44:33*
%MOMM*%
%LPD*%
G01*
G04 APERTURE LIST*
%ADD10C,0.150000*%
%ADD11C,0.120000*%
G04 APERTURE END LIST*
D10*
%TO.C,J1*%
X99666666Y-66824380D02*
X99666666Y-67538666D01*
X99619047Y-67681523D01*
X99523809Y-67776761D01*
X99380952Y-67824380D01*
X99285714Y-67824380D01*
X100666666Y-67824380D02*
X100095238Y-67824380D01*
X100380952Y-67824380D02*
X100380952Y-66824380D01*
X100285714Y-66967238D01*
X100190476Y-67062476D01*
X100095238Y-67110095D01*
X99666666Y-66824380D02*
X99666666Y-67538666D01*
X99619047Y-67681523D01*
X99523809Y-67776761D01*
X99380952Y-67824380D01*
X99285714Y-67824380D01*
X100666666Y-67824380D02*
X100095238Y-67824380D01*
X100380952Y-67824380D02*
X100380952Y-66824380D01*
X100285714Y-66967238D01*
X100190476Y-67062476D01*
X100095238Y-67110095D01*
D11*
X103110000Y-69567000D02*
X102060000Y-69567000D01*
X96890000Y-72067000D02*
X96890000Y-69567000D01*
X103110000Y-72067000D02*
X103110000Y-69567000D01*
X96890000Y-69567000D02*
X97940000Y-69567000D01*
X98060000Y-74037000D02*
X101940000Y-74037000D01*
X103110000Y-72067000D02*
X103110000Y-69567000D01*
X103110000Y-69567000D02*
X102060000Y-69567000D01*
X97940000Y-69567000D02*
X97940000Y-68577000D01*
X97940000Y-69567000D02*
X97940000Y-68577000D01*
X96890000Y-69567000D02*
X97940000Y-69567000D01*
%TO.C,R1*%
X106090000Y-64622936D02*
X106090000Y-66077064D01*
X107910000Y-64622936D02*
X107910000Y-66077064D01*
%TO.C,R3*%
X90290000Y-64762936D02*
X90290000Y-66217064D01*
X92110000Y-64762936D02*
X92110000Y-66217064D01*
%TO.C,R2*%
X92590000Y-64772936D02*
X92590000Y-66227064D01*
X94410000Y-64772936D02*
X94410000Y-66227064D01*
%TO.C,J4*%
X96140000Y-67495000D02*
X95860000Y-67495000D01*
X95700000Y-69855000D02*
X95700000Y-71455000D01*
X95700000Y-71455000D02*
X96700000Y-71455000D01*
X97500000Y-69355000D02*
X102500000Y-69355000D01*
X105060000Y-73715000D02*
X105060000Y-65895000D01*
X94940000Y-73715000D02*
X105060000Y-73715000D01*
X94940000Y-65895000D02*
X94940000Y-73715000D01*
X104300000Y-71455000D02*
X103300000Y-71455000D01*
X103300000Y-71455000D02*
X103300000Y-69855000D01*
X94940000Y-67495000D02*
X95860000Y-67495000D01*
X105060000Y-67495000D02*
X104140000Y-67495000D01*
X102500000Y-69355000D02*
X102500000Y-73715000D01*
X95860000Y-65895000D02*
X94940000Y-65895000D01*
X104300000Y-69855000D02*
X104300000Y-71455000D01*
X95860000Y-67495000D02*
X95860000Y-65895000D01*
X96140000Y-67495000D02*
X96140000Y-66280000D01*
X96700000Y-71455000D02*
X96700000Y-73715000D01*
X96700000Y-69855000D02*
X95700000Y-69855000D01*
X103300000Y-69855000D02*
X104300000Y-69855000D01*
X105060000Y-65895000D02*
X104140000Y-65895000D01*
X96200000Y-71455000D02*
X96200000Y-73715000D01*
X104140000Y-67495000D02*
X103860000Y-67495000D01*
X96700000Y-71455000D02*
X96700000Y-69855000D01*
X104140000Y-65895000D02*
X104140000Y-67495000D01*
X97500000Y-73715000D02*
X97500000Y-69355000D01*
%TO.C,J2*%
X104700000Y-58000000D02*
X104700000Y-56100000D01*
X95300000Y-58000000D02*
X95300000Y-56100000D01*
X95300000Y-61900000D02*
X95300000Y-59900000D01*
X104700000Y-56100000D02*
X95300000Y-56100000D01*
X104700000Y-61900000D02*
X104700000Y-59900000D01*
%TD*%
M02*
