0
SECTION
2
HEADER
9
$INSUNITS
70
4
9
$ACADVER
1
AC1014
9
$HANDSEED
5
FFFF
0
ENDSEC
0
SECTION
2
TABLES
0
TABLE
2
VPORT
5
8
100
AcDbSymbolTable
0
ENDTAB
0
TABLE
2
LTYPE
5
5
100
AcDbSymbolTable
0
LTYPE
5
14
100
AcDbSymbolTableRecord
100
AcDbLinetypeTableRecord
2
BYBLOCK
70
0
0
LTYPE
5
15
100
AcDbSymbolTableRecord
100
AcDbLinetypeTableRecord
2
BYLAYER
70
0
0
ENDTAB
0
TABLE
2
LAYER
5
2
100
AcDbSymbolTable
70
2
0
LAYER
5
50
100
AcDbSymbolTableRecord
100
AcDbLayerTableRecord
2
0
70
0
6
CONTINUOUS
0
ENDTAB
0
TABLE
2
STYLE
5
3
100
AcDbSymbolTable
70
1
0
STYLE
5
11
100
AcDbSymbolTableRecord
100
AcDbTextStyleTableRecord
2
STANDARD
70
0
0
ENDTAB
0
TABLE
2
VIEW
5
6
100
AcDbSymbolTable
70
0
0
ENDTAB
0
TABLE
2
UCS
5
7
100
AcDbSymbolTable
70
0
0
ENDTAB
0
TABLE
2
APPID
5
9
100
AcDbSymbolTable
70
2
0
APPID
5
12
100
AcDbSymbolTableRecord
100
AcDbRegAppTableRecord
2
ACAD
70
0
0
ENDTAB
0
TABLE
2
DIMSTYLE
5
A
100
AcDbSymbolTable
70
1
0
ENDTAB
0
TABLE
2
BLOCK_RECORD
5
1
100
AcDbSymbolTable
70
1
0
BLOCK_RECORD
5
1F
100
AcDbSymbolTableRecord
100
AcDbBlockTableRecord
2
*MODEL_SPACE
0
BLOCK_RECORD
5
1B
100
AcDbSymbolTableRecord
100
AcDbBlockTableRecord
2
*PAPER_SPACE
0
ENDTAB
0
ENDSEC
0
SECTION
2
BLOCKS
0
BLOCK
5
20
100
AcDbEntity
100
AcDbBlockBegin
2
*MODEL_SPACE
0
ENDBLK
5
21
100
AcDbEntity
100
AcDbBlockEnd
0
BLOCK
5
1C
100
AcDbEntity
100
AcDbBlockBegin
2
*PAPER_SPACE
0
ENDBLK
5
1D
100
AcDbEntity
100
AcDbBlockEnd
0
ENDSEC
0
SECTION
2
ENTITIES
0
LINE
5
100
100
AcDbEntity
8
0
100
AcDbLine
10
126.95700016456023
20
23.948410206153589
30
0
11
127.00492375303055
21
23.636953408852371
31
0
0
LINE
5
101
100
AcDbEntity
8
0
100
AcDbLine
10
127.00492375303055
20
23.636953408852371
30
0
11
127.18900971497759
21
23.018295393579137
31
0
0
LINE
5
102
100
AcDbEntity
8
0
100
AcDbLine
10
127.18900971497759
20
23.018295393579137
30
0
11
127.46056537023645
21
22.434322035409892
31
0
0
LINE
5
103
100
AcDbEntity
8
0
100
AcDbLine
10
127.46056537023645
20
22.434322035409892
30
0
11
127.63376247936479
21
22.166572482738381
31
0
0
LINE
5
104
100
AcDbEntity
8
0
100
AcDbLine
10
127.63376247936479
20
22.166572482738381
30
0
11
127.65735484222402
21
22.139765858362104
31
0
0
LINE
5
105
100
AcDbEntity
8
0
100
AcDbLine
10
127.65735484222402
20
22.139765858362104
30
0
11
143.73349774892765
21
4.0217058463967748
31
0
0
LINE
5
106
100
AcDbEntity
8
0
100
AcDbLine
10
143.73349774892765
20
4.0217058463967748
30
0
11
144.06771145666451
21
3.6445849964754218
31
0
0
LINE
5
107
100
AcDbEntity
8
0
100
AcDbLine
10
144.06771145666451
20
3.6445849964754218
30
0
11
144.6524684206569
21
2.5424256833398129
31
0
0
LINE
5
108
100
AcDbEntity
8
0
100
AcDbLine
10
144.6524684206569
20
2.5424256833398129
30
0
11
145.01643958599186
21
1.0537150428423341
31
0
0
LINE
5
109
100
AcDbEntity
8
0
100
AcDbLine
10
145.01643958599186
20
1.0537150428423341
30
0
11
144.95836025030795
21
-0.47830871374742623
31
0
0
LINE
5
110
100
AcDbEntity
8
0
100
AcDbLine
10
144.95836025030795
20
-0.47830871374742612
30
0
11
144.6038060387686
21
-1.6807215357232659
31
0
0
LINE
5
111
100
AcDbEntity
8
0
100
AcDbLine
10
144.6038060387686
20
-1.6807215357232659
30
0
11
144.35061098670676
21
-2.1164898859567343
31
0
0
LINE
5
112
100
AcDbEntity
8
0
100
AcDbLine
10
144.35061098670676
20
-2.1164898859567343
30
0
11
127.10841284994133
21
-31.900864384768596
31
0
0
LINE
5
113
100
AcDbEntity
8
0
100
AcDbLine
10
127.10841284994133
20
-31.900864384768596
30
0
11
126.84209588093601
21
-32.353874984086829
31
0
0
LINE
5
114
100
AcDbEntity
8
0
100
AcDbLine
10
126.84209588093601
20
-32.353874984086829
30
0
11
125.88929265666059
21
-33.299793150098232
31
0
0
LINE
5
115
100
AcDbEntity
8
0
100
AcDbLine
10
125.88929265666059
20
-33.299793150098232
30
0
11
124.38949231859741
21
-34.030348068392499
31
0
0
LINE
5
116
100
AcDbEntity
8
0
100
AcDbLine
10
124.38949231859741
20
-34.030348068392499
30
0
11
122.72863396237581
21
-34.14504703320204
31
0
0
LINE
5
117
100
AcDbEntity
8
0
100
AcDbLine
10
122.72863396237581
20
-34.14504703320204
30
0
11
121.41035395832378
21
-33.799139374019155
31
0
0
LINE
5
118
100
AcDbEntity
8
0
100
AcDbLine
10
121.41035395832378
20
-33.799139374019155
30
0
11
120.95536622147654
21
-33.530806244878534
31
0
0
LINE
5
119
100
AcDbEntity
8
0
100
AcDbLine
10
120.95536622147654
20
-33.530806244878534
30
0
11
85.57418803253708
21
-13.120418154627945
31
0
0
LINE
5
120
100
AcDbEntity
8
0
100
AcDbLine
10
85.57418803253708
20
-13.120418154627945
30
0
11
85.49477471485956
21
-13.074861675213542
31
0
0
LINE
5
121
100
AcDbEntity
8
0
100
AcDbLine
10
85.49477471485956
20
-13.074861675213542
30
0
11
85.103096929132562
21
-12.902860270099799
31
0
0
LINE
5
122
100
AcDbEntity
8
0
100
AcDbLine
10
85.103096929132562
20
-12.902860270099799
30
0
11
84.36532171840912
21
-12.666107580955996
31
0
0
LINE
5
123
100
AcDbEntity
8
0
100
AcDbLine
10
84.36532171840912
20
-12.666107580955996
30
0
11
83.595524494385415
21
-12.502546659769919
31
0
0
LINE
5
124
100
AcDbEntity
8
0
100
AcDbLine
10
83.595524494385415
20
-12.502546659769919
30
0
11
83.170729055453748
21
-12.453319999999996
31
0
0
LINE
5
125
100
AcDbEntity
8
0
100
AcDbLine
10
83.170729055453748
20
-12.453319999999996
30
0
11
83.087800000000001
21
-12.453319999999998
31
0
0
LINE
5
126
100
AcDbEntity
8
0
100
AcDbLine
10
-7.6241199999999942
20
-12.453319999999998
30
0
11
-8.1527560402405825
21
-12.453319999999998
31
0
0
LINE
5
127
100
AcDbEntity
8
0
100
AcDbLine
10
-8.1527560402405825
20
-12.453319999999998
30
0
11
-9.4570076107518553
21
-12.09813166380412
31
0
0
LINE
5
128
100
AcDbEntity
8
0
100
AcDbLine
10
-9.4570076107518553
20
-12.09813166380412
30
0
11
-10.835723186589821
21
-11.167934320676306
31
0
0
LINE
5
129
100
AcDbEntity
8
0
100
AcDbLine
10
-10.835723186589821
20
-11.167934320676306
30
0
11
-11.77203131312816
21
-9.7849894463930731
31
0
0
LINE
5
130
100
AcDbEntity
8
0
100
AcDbLine
10
-11.77203131312816
20
-9.7849894463930731
30
0
11
-12.12368
21
-8.4762278355817315
31
0
0
LINE
5
131
100
AcDbEntity
8
0
100
AcDbLine
10
-12.12368
20
-8.4762278355817315
30
0
11
-12.12368
21
-7.9557199999999995
31
0
0
LINE
5
132
100
AcDbEntity
8
0
100
AcDbLine
10
-12.12368
20
-7.9557199999999995
30
0
11
-12.12368
21
84.146199999999993
31
0
0
LINE
5
133
100
AcDbEntity
8
0
100
AcDbLine
10
-12.12368
20
84.146199999999993
30
0
11
-12.123680000000004
21
84.659246116964823
31
0
0
LINE
5
134
100
AcDbEntity
8
0
100
AcDbLine
10
-12.123680000000004
20
84.659246116964823
30
0
11
-11.810962902192275
21
85.904349949326487
31
0
0
LINE
5
135
100
AcDbEntity
8
0
100
AcDbLine
10
-11.810962902192275
20
85.904349949326487
30
0
11
-11.026026516607018
21
87.270198099086812
31
0
0
LINE
5
136
100
AcDbEntity
8
0
100
AcDbLine
10
-11.026026516607018
20
87.270198099086812
30
0
11
-9.8666642677827028
21
88.331421865970924
31
0
0
LINE
5
137
100
AcDbEntity
8
0
100
AcDbLine
10
-9.8666642677827028
20
88.331421865970924
30
0
11
-8.7203834740177584
21
88.913700055697106
31
0
0
LINE
5
138
100
AcDbEntity
8
0
100
AcDbLine
10
-8.7203834740177584
20
88.913700055697106
30
0
11
-8.2165520403180139
21
89.025160446441987
31
0
0
LINE
5
139
100
AcDbEntity
8
0
100
AcDbLine
10
-8.2165520403180139
20
89.025160446441987
30
0
11
44.895686242202714
21
100.9651851665417
31
0
0
LINE
5
140
100
AcDbEntity
8
0
100
AcDbLine
10
44.895686242202714
20
100.9651851665417
30
0
11
45.255200908625795
21
101.0473023482929
31
0
0
LINE
5
141
100
AcDbEntity
8
0
100
AcDbLine
10
45.255200908625795
20
101.0473023482929
30
0
11
47.124132774186052
21
101.3214813587946
31
0
0
LINE
5
142
100
AcDbEntity
8
0
100
AcDbLine
10
47.124132774186052
20
101.3214813587946
30
0
11
48.794230895172618
21
101.46520000000001
31
0
0
LINE
5
143
100
AcDbEntity
8
0
100
AcDbLine
10
48.794230895172618
20
101.46520000000001
30
0
11
49.399000000000008
21
101.46520000000001
31
0
0
LINE
5
144
100
AcDbEntity
8
0
100
AcDbLine
10
49.399000000000008
20
101.46520000000001
30
0
11
84.228700000000018
21
101.46520000000001
31
0
0
LINE
5
145
100
AcDbEntity
8
0
100
AcDbLine
10
84.228700000000018
20
101.46520000000001
30
0
11
84.620444337274776
21
101.46520000000001
31
0
0
LINE
5
146
100
AcDbEntity
8
0
100
AcDbLine
10
84.620444337274776
20
101.46520000000001
30
0
11
85.60484853516293
21
101.3342558049705
31
0
0
LINE
5
147
100
AcDbEntity
8
0
100
AcDbLine
10
85.60484853516293
20
101.3342558049705
30
0
11
86.879372455128632
21
101.01304481704391
31
0
0
LINE
5
148
100
AcDbEntity
8
0
100
AcDbLine
10
86.879372455128632
20
101.01304481704391
30
0
11
88.102141406229336
21
100.54109211745768
31
0
0
LINE
5
149
100
AcDbEntity
8
0
100
AcDbLine
10
88.102141406229336
20
100.54109211745768
30
0
11
88.986493583210461
21
100.07817879263014
31
0
0
LINE
5
150
100
AcDbEntity
8
0
100
AcDbLine
10
88.986493583210461
20
100.07817879263014
30
0
11
89.3069738563389
21
99.850432496471001
31
0
0
LINE
5
151
100
AcDbEntity
8
0
100
AcDbLine
10
89.3069738563389
20
99.850432496471001
30
0
11
98.269933266069458
21
93.508733947269832
31
0
0
LINE
5
152
100
AcDbEntity
8
0
100
AcDbLine
10
98.269933266069458
20
93.508733947269832
30
0
11
98.603926378527532
21
93.33404676016184
31
0
0
LINE
5
153
100
AcDbEntity
8
0
100
AcDbLine
10
98.603926378527532
20
93.33404676016184
30
0
11
99.279346630635786
21
93.07309378350773
31
0
0
LINE
5
154
100
AcDbEntity
8
0
100
AcDbLine
10
99.279346630635786
20
93.07309378350773
30
0
11
99.980625046295046
21
92.896796329657278
31
0
0
LINE
5
155
100
AcDbEntity
8
0
100
AcDbLine
10
99.980625046295046
20
92.896796329657278
30
0
11
100.35465497031367
21
92.846100000000007
31
0
0
LINE
5
156
100
AcDbEntity
8
0
100
AcDbLine
10
100.35465497031367
20
92.846100000000007
30
0
11
114.41200000000002
21
92.846100000000007
31
0
0
LINE
5
157
100
AcDbEntity
8
0
100
AcDbLine
10
114.41200000000002
20
92.846100000000007
30
0
11
114.87660541002546
21
92.846100000000007
31
0
0
LINE
5
158
100
AcDbEntity
8
0
100
AcDbLine
10
114.87660541002546
20
92.846100000000007
30
0
11
115.99848410281659
21
92.619822772131954
31
0
0
LINE
5
159
100
AcDbEntity
8
0
100
AcDbLine
10
115.99848410281659
20
92.619822772131954
30
0
11
117.33250761523979
21
92.079672544923895
31
0
0
LINE
5
160
100
AcDbEntity
8
0
100
AcDbLine
10
117.33250761523979
20
92.079672544923895
30
0
11
118.5276432125367
21
91.27565839341753
31
0
0
LINE
5
161
100
AcDbEntity
8
0
100
AcDbLine
10
118.5276432125367
20
91.27565839341753
30
0
11
119.3401366866682
21
90.47368765854759
31
0
0
LINE
5
162
100
AcDbEntity
8
0
100
AcDbLine
10
119.3401366866682
20
90.47368765854759
30
0
11
119.60212908619206
21
90.087356243184161
31
0
0
LINE
5
163
100
AcDbEntity
8
0
100
AcDbLine
10
119.60212908619206
20
90.087356243184161
30
0
11
125.41817081598612
21
81.457191189672855
31
0
0
LINE
5
164
100
AcDbEntity
8
0
100
AcDbLine
10
125.41817081598612
20
81.457191189672855
30
0
11
125.63246752758666
21
81.135231810164242
31
0
0
LINE
5
165
100
AcDbEntity
8
0
100
AcDbLine
10
125.63246752758666
20
81.135231810164242
30
0
11
126.06916263929079
21
80.263121800438455
31
0
0
LINE
5
166
100
AcDbEntity
8
0
100
AcDbLine
10
126.06916263929079
20
80.263121800438455
30
0
11
126.52363225086469
21
79.040138969292968
31
0
0
LINE
5
167
100
AcDbEntity
8
0
100
AcDbLine
10
126.52363225086469
20
79.040138969292968
30
0
11
126.83171431738279
21
77.772016936156305
31
0
0
LINE
5
168
100
AcDbEntity
8
0
100
AcDbLine
10
126.83171431738279
20
77.772016936156305
30
0
11
126.958
21
76.796316531480741
31
0
0
LINE
5
169
100
AcDbEntity
8
0
100
AcDbLine
10
126.958
20
76.796316531480741
30
0
11
126.958
21
76.40707617522348
31
0
0
LINE
5
170
100
AcDbEntity
8
0
100
AcDbLine
10
126.958
20
76.40707617522348
30
0
11
126.95700016456023
21
23.948410206153589
31
0
0
LINE
5
171
100
AcDbEntity
8
0
100
AcDbLine
10
83.087800000000001
20
-12.453319999999998
30
0
11
-7.6241199999999942
21
-12.453319999999998
31
0
0
ENDSEC
0
SECTION
2
OBJECTS
0
DICTIONARY
5
C
100
AcDbDictionary
3
ACAD_GROUP
350
D
3
ACAD_MLINESTYLE
350
17
0
DICTIONARY
5
D
100
AcDbDictionary
0
DICTIONARY
5
1A
330
C
100
AcDbDictionary
0
DICTIONARY
5
17
100
AcDbDictionary
0
ENDSEC
0
EOF
