0
SECTION
2
HEADER
9
$INSUNITS
70
4
9
$ACADVER
1
AC1014
9
$HANDSEED
5
FFFF
0
ENDSEC
0
SECTION
2
TABLES
0
TABLE
2
VPORT
5
8
100
AcDbSymbolTable
0
ENDTAB
0
TABLE
2
LTYPE
5
5
100
AcDbSymbolTable
0
LTYPE
5
14
100
AcDbSymbolTableRecord
100
AcDbLinetypeTableRecord
2
BYBLOCK
70
0
0
LTYPE
5
15
100
AcDbSymbolTableRecord
100
AcDbLinetypeTableRecord
2
BYLAYER
70
0
0
ENDTAB
0
TABLE
2
LAYER
5
2
100
AcDbSymbolTable
70
2
0
LAYER
5
50
100
AcDbSymbolTableRecord
100
AcDbLayerTableRecord
2
0
70
0
6
CONTINUOUS
0
ENDTAB
0
TABLE
2
STYLE
5
3
100
AcDbSymbolTable
70
1
0
STYLE
5
11
100
AcDbSymbolTableRecord
100
AcDbTextStyleTableRecord
2
STANDARD
70
0
0
ENDTAB
0
TABLE
2
VIEW
5
6
100
AcDbSymbolTable
70
0
0
ENDTAB
0
TABLE
2
UCS
5
7
100
AcDbSymbolTable
70
0
0
ENDTAB
0
TABLE
2
APPID
5
9
100
AcDbSymbolTable
70
2
0
APPID
5
12
100
AcDbSymbolTableRecord
100
AcDbRegAppTableRecord
2
ACAD
70
0
0
ENDTAB
0
TABLE
2
DIMSTYLE
5
A
100
AcDbSymbolTable
70
1
0
ENDTAB
0
TABLE
2
BLOCK_RECORD
5
1
100
AcDbSymbolTable
70
1
0
BLOCK_RECORD
5
1F
100
AcDbSymbolTableRecord
100
AcDbBlockTableRecord
2
*MODEL_SPACE
0
BLOCK_RECORD
5
1B
100
AcDbSymbolTableRecord
100
AcDbBlockTableRecord
2
*PAPER_SPACE
0
ENDTAB
0
ENDSEC
0
SECTION
2
BLOCKS
0
BLOCK
5
20
100
AcDbEntity
100
AcDbBlockBegin
2
*MODEL_SPACE
0
ENDBLK
5
21
100
AcDbEntity
100
AcDbBlockEnd
0
BLOCK
5
1C
100
AcDbEntity
100
AcDbBlockBegin
2
*PAPER_SPACE
0
ENDBLK
5
1D
100
AcDbEntity
100
AcDbBlockEnd
0
ENDSEC
0
SECTION
2
ENTITIES
0
LINE
5
100
100
AcDbEntity
8
0
100
AcDbLine
10
-6.402000000000001
20
-8.9015200000000014
30
0
11
25.923500000000001
21
-8.9015200000000014
31
0
0
LINE
5
101
100
AcDbEntity
8
0
100
AcDbLine
10
-8.0184460000000009
20
-8.2319659999999999
30
0
11
-7.2768139999999999
21
-8.7275089999999995
31
0
0
LINE
5
102
100
AcDbEntity
8
0
100
AcDbLine
10
28.950182096113792
20
92.620500000000007
30
0
11
88.224628019586518
21
93.041646891887694
31
0
0
LINE
5
103
100
AcDbEntity
8
0
100
AcDbLine
10
141.174645
20
0.25788800000000001
30
0
11
140.95533799999998
21
0.82160200000000017
31
0
0
LINE
5
104
100
AcDbEntity
8
0
100
AcDbLine
10
123.392
20
23.8645
30
0
11
123.392
21
11.926500000000003
31
0
0
LINE
5
105
100
AcDbEntity
8
0
100
AcDbLine
10
123.392
20
75.172500000000014
30
0
11
123.392
21
23.8645
31
0
0
LINE
5
106
100
AcDbEntity
8
0
100
AcDbLine
10
-8.6880000000000006
20
-6.6155200000000001
30
0
11
-8.6880000000000006
21
83.554500000000019
31
0
0
LINE
5
107
100
AcDbEntity
8
0
100
AcDbLine
10
140.95533799999998
20
0.82160200000000017
30
0
11
140.53700000000001
21
1.2584799999999998
31
0
0
LINE
5
108
100
AcDbEntity
8
0
100
AcDbLine
10
122.72244600000001
20
76.788945999999996
30
0
11
121.980814
21
77.284489000000008
31
0
0
LINE
5
109
100
AcDbEntity
8
0
100
AcDbLine
10
122.62707800000001
20
-30.363701000000006
30
0
11
123.19060500000001
21
-30.404342
31
0
0
LINE
5
110
100
AcDbEntity
8
0
100
AcDbLine
10
105.7
20
77.458500000000015
30
0
11
105.7
21
84.8245
31
0
0
LINE
5
111
100
AcDbEntity
8
0
100
AcDbLine
10
77.450000000000017
20
-3.3595200000000047
30
0
11
105.7
21
-20.697301152816951
31
0
0
LINE
5
112
100
AcDbEntity
8
0
100
AcDbLine
10
-6.402000000000001
20
85.84050000000002
30
0
11
24.120000000000005
21
85.84050000000002
31
0
0
LINE
5
113
100
AcDbEntity
8
0
100
AcDbLine
10
103.41000000000001
20
87.110500000000002
30
0
11
105.7
21
84.8245
31
0
0
LINE
5
114
100
AcDbEntity
8
0
100
AcDbLine
10
24.120000000000005
20
85.84050000000002
30
0
11
28.950182096113792
21
92.620500000000007
31
0
0
LINE
5
115
100
AcDbEntity
8
0
100
AcDbLine
10
121.980814
20
77.284489000000008
30
0
11
121.10599999999999
21
77.458500000000015
31
0
0
LINE
5
116
100
AcDbEntity
8
0
100
AcDbLine
10
88.224628019586518
20
93.041646891887694
30
0
11
92.079999999999998
21
87.110500000000002
31
0
0
LINE
5
117
100
AcDbEntity
8
0
100
AcDbLine
10
-6.402000000000001
20
85.84050000000002
30
0
11
-7.2768139999999999
21
85.666489000000013
31
0
0
LINE
5
118
100
AcDbEntity
8
0
100
AcDbLine
10
103.41000000000001
20
87.110500000000002
30
0
11
92.079999999999998
21
87.110500000000002
31
0
0
LINE
5
119
100
AcDbEntity
8
0
100
AcDbLine
10
140.91800000000001
20
-0.90052000000000021
30
0
11
141.16153300000002
21
-0.34684100000000001
31
0
0
LINE
5
120
100
AcDbEntity
8
0
100
AcDbLine
10
123.392
20
11.926500000000003
30
0
11
140.53700000000001
21
1.2584799999999998
31
0
0
LINE
5
121
100
AcDbEntity
8
0
100
AcDbLine
10
-7.2768139999999999
20
-8.7275089999999995
30
0
11
-6.402000000000001
21
-8.9015200000000014
31
0
0
LINE
5
122
100
AcDbEntity
8
0
100
AcDbLine
10
-8.0184460000000009
20
85.170946000000001
30
0
11
-8.5139890000000005
21
84.429314000000005
31
0
0
LINE
5
123
100
AcDbEntity
8
0
100
AcDbLine
10
123.726789
20
-30.226237000000005
30
0
11
124.154
21
-29.8565
31
0
0
LINE
5
124
100
AcDbEntity
8
0
100
AcDbLine
10
124.154
20
-29.8565
30
0
11
140.91800000000001
21
-0.90050000000000185
31
0
0
LINE
5
125
100
AcDbEntity
8
0
100
AcDbLine
10
123.392
20
75.172500000000014
30
0
11
123.21798899999999
21
76.047314
31
0
0
LINE
5
126
100
AcDbEntity
8
0
100
AcDbLine
10
-7.2768139999999999
20
85.666489000000013
30
0
11
-8.0184460000000009
21
85.170946000000001
31
0
0
LINE
5
127
100
AcDbEntity
8
0
100
AcDbLine
10
-8.5139890000000005
20
84.429314000000005
30
0
11
-8.6880000000000006
21
83.554500000000019
31
0
0
LINE
5
128
100
AcDbEntity
8
0
100
AcDbLine
10
-8.5139890000000005
20
-7.4903340000000007
30
0
11
-8.0184460000000009
21
-8.2319659999999999
31
0
0
LINE
5
129
100
AcDbEntity
8
0
100
AcDbLine
10
-8.6880000000000006
20
-6.6155200000000001
30
0
11
-8.5139890000000005
21
-7.4903340000000007
31
0
0
LINE
5
130
100
AcDbEntity
8
0
100
AcDbLine
10
25.923500000000001
20
-8.9015200000000014
30
0
11
30.485259999999997
21
-3.3595200000000003
31
0
0
LINE
5
131
100
AcDbEntity
8
0
100
AcDbLine
10
105.10369390723746
20
-20.331332142678612
30
0
11
123.36592690175181
21
-30.346105075154234
31
0
0
LINE
5
132
100
AcDbEntity
8
0
100
AcDbLine
10
123.21798899999999
20
76.047314
30
0
11
122.72244600000001
21
76.788945999999996
31
0
0
LINE
5
133
100
AcDbEntity
8
0
100
AcDbLine
10
122.12200000000001
20
-30.110500000000002
30
0
11
122.62707800000001
21
-30.363701000000006
31
0
0
LINE
5
134
100
AcDbEntity
8
0
100
AcDbLine
10
123.19060500000001
20
-30.404342
30
0
11
123.726789
21
-30.226237000000005
31
0
0
LINE
5
135
100
AcDbEntity
8
0
100
AcDbLine
10
109.041
20
-22.490500000000001
30
0
11
122.12200000000001
21
-30.110500000000002
31
0
0
LINE
5
136
100
AcDbEntity
8
0
100
AcDbLine
10
121.10599999999999
20
77.458500000000015
30
0
11
105.7
21
77.458500000000015
31
0
0
LINE
5
137
100
AcDbEntity
8
0
100
AcDbLine
10
141.16153300000002
20
-0.34684100000000001
30
0
11
141.174645
21
0.25788800000000001
31
0
0
LINE
5
138
100
AcDbEntity
8
0
100
AcDbLine
10
30.485199999999999
20
-3.3595200000000003
30
0
11
77.450000000000017
21
-3.3595200000000047
31
0
0
ENDSEC
0
SECTION
2
OBJECTS
0
DICTIONARY
5
C
100
AcDbDictionary
3
ACAD_GROUP
350
D
3
ACAD_MLINESTYLE
350
17
0
DICTIONARY
5
D
100
AcDbDictionary
0
DICTIONARY
5
1A
330
C
100
AcDbDictionary
0
DICTIONARY
5
17
100
AcDbDictionary
0
ENDSEC
0
EOF
